<?xml version="1.0" standalone="no"?>
 <!DOCTYPE svg PUBLIC "-//W3C//DTD SVG 1.1//EN" 
 "http://www.w3.org/Graphics/SVG/1.1/DTD/svg11.dtd"> 
<svg
  xmlns:svg="http://www.w3.org/2000/svg"
  xmlns="http://www.w3.org/2000/svg"
  xmlns:xlink="http://www.w3.org/1999/xlink"
  version="1.1"
  width="297.0022mm" height="210.0072mm" viewBox="0.0000 0.0000 297.0022 210.0072">
<title>SVG Image created as RoyalBlue54L-Feather-F_Courtyard.svg date 2026/01/28 15:57:01 </title>
  <desc>Image generated by PCBNEW </desc>
<g style="fill:#000000; fill-opacity:1.0000;stroke:#000000; stroke-opacity:1.0000;
stroke-linecap:round; stroke-linejoin:round;"
 transform="translate(0 0) scale(1 1)">
</g>
<g style="fill:none; 
stroke:#000000; stroke-width:0.0500; stroke-opacity:1; 
stroke-linecap:round; stroke-linejoin:round;">
<circle cx="174.9800" cy="113.8700" r="2.7500" /> 
<path d="M152.8000 101.3500
L154.6200 101.3500
" />
<path d="M152.8000 102.2700
L152.8000 101.3500
" />
<path d="M154.6200 101.3500
L154.6200 102.2700
" />
<path d="M154.6200 102.2700
L152.8000 102.2700
" />
<path d="M168.7700 111.6000
L170.6300 111.6000
" />
<path d="M168.7700 112.5400
L168.7700 111.6000
" />
<path d="M170.6300 111.6000
L170.6300 112.5400
" />
<path d="M170.6300 112.5400
L168.7700 112.5400
" />
<path d="M132.2800 93.3580
L132.2800 103.5580
" />
<path d="M132.2800 103.5580
L141.4800 103.5580
" />
<path d="M141.4800 93.3580
L132.2800 93.3580
" />
<path d="M141.4800 103.5580
L141.4800 93.3580
" />
<path style="fill:none; 
stroke:#000000; stroke-width:0.0500; stroke-opacity:1; 
stroke-linecap:round; stroke-linejoin:round;fill:none"
d="M 177.5200,99.4800
160.7200,99.4800
160.7200,110.4800
177.5200,110.4800
Z" /> 
<path d="M166.5200 111.1800
L168.3800 111.1800
" />
<path d="M166.5200 112.1200
L166.5200 111.1800
" />
<path d="M168.3800 111.1800
L168.3800 112.1200
" />
<path d="M168.3800 112.1200
L166.5200 112.1200
" />
<path d="M139.9800 106.8500
L140.9000 106.8500
" />
<path d="M139.9800 108.6700
L139.9800 106.8500
" />
<path d="M140.9000 106.8500
L140.9000 108.6700
" />
<path d="M140.9000 108.6700
L139.9800 108.6700
" />
<path d="M168.7700 110.6600
L170.6300 110.6600
" />
<path d="M168.7700 111.6000
L168.7700 110.6600
" />
<path d="M170.6300 110.6600
L170.6300 111.6000
" />
<path d="M170.6300 111.6000
L168.7700 111.6000
" />
<path d="M142.0300 104.1300
L142.0300 105.8300
" />
<path d="M142.0300 105.8300
L143.7300 105.8300
" />
<path d="M143.7300 104.1300
L142.0300 104.1300
" />
<path d="M143.7300 105.8300
L143.7300 104.1300
" />
<path d="M144.4800 101.3600
L144.4800 107.5600
" />
<path d="M144.4800 107.5600
L150.6800 107.5600
" />
<path d="M150.6800 101.3600
L144.4800 101.3600
" />
<path d="M150.6800 107.5600
L150.6800 101.3600
" />
<path d="M138.4900 104.1100
L140.3100 104.1100
" />
<path d="M138.4900 105.0300
L138.4900 104.1100
" />
<path d="M140.3100 104.1100
L140.3100 105.0300
" />
<path d="M140.3100 105.0300
L138.4900 105.0300
" />
<path d="M126.6334 99.9151
L127.5734 99.9151
" />
<path d="M126.6334 101.7751
L126.6334 99.9151
" />
<path d="M127.5734 99.9151
L127.5734 101.7751
" />
<path d="M127.5734 101.7751
L126.6334 101.7751
" />
<path d="M157.6000 102.0300
L158.5200 102.0300
" />
<path d="M157.6000 103.8500
L157.6000 102.0300
" />
<path d="M158.5200 102.0300
L158.5200 103.8500
" />
<path d="M158.5200 103.8500
L157.6000 103.8500
" />
<circle cx="174.9800" cy="96.0900" r="2.7500" /> 
<path d="M139.9800 109.6200
L140.9000 109.6200
" />
<path d="M139.9800 111.4400
L139.9800 109.6200
" />
<path d="M140.9000 109.6200
L140.9000 111.4400
" />
<path d="M140.9000 111.4400
L139.9800 111.4400
" />
<path d="M150.6800 104.7800
L151.6000 104.7800
" />
<path d="M150.6800 106.6000
L150.6800 104.7800
" />
<path d="M151.6000 104.7800
L151.6000 106.6000
" />
<path d="M151.6000 106.6000
L150.6800 106.6000
" />
<path d="M117.2100 99.6600
L117.2100 110.3000
" />
<path d="M126.6300 99.6600
L117.2100 99.6600
" />
<path d="M126.6300 99.6600
L126.6300 110.3000
" />
<path d="M126.6300 110.3000
L117.2100 110.3000
" />
<path d="M129.4700 108.3900
L130.3900 108.3900
" />
<path d="M129.4700 110.2100
L129.4700 108.3900
" />
<path d="M130.3900 108.3900
L130.3900 110.2100
" />
<path d="M130.3900 110.2100
L129.4700 110.2100
" />
<path d="M158.2100 104.4000
L158.2100 108.6600
" />
<path d="M158.2100 108.6600
L160.7100 108.6600
" />
<path d="M160.7100 104.4000
L158.2100 104.4000
" />
<path d="M160.7100 108.6600
L160.7100 104.4000
" />
<path d="M147.8500 97.3400
L149.3100 97.3400
" />
<path d="M147.8500 100.3000
L147.8500 97.3400
" />
<path d="M149.3100 97.3400
L149.3100 100.3000
" />
<path d="M149.3100 100.3000
L147.8500 100.3000
" />
<path d="M130.3900 108.8000
L130.3900 111.6000
" />
<path d="M130.3900 111.6000
L132.9900 111.6000
" />
<path d="M132.9900 108.8000
L130.3900 108.8000
" />
<path d="M132.9900 111.6000
L132.9900 108.8000
" />
<path d="M133.0500 111.2500
L134.8700 111.2500
" />
<path d="M133.0500 112.1700
L133.0500 111.2500
" />
<path d="M134.8700 111.2500
L134.8700 112.1700
" />
<path d="M134.8700 112.1700
L133.0500 112.1700
" />
<path d="M131.8700 106.3200
L133.6900 106.3200
" />
<path d="M131.8700 107.2400
L131.8700 106.3200
" />
<path d="M133.6900 106.3200
L133.6900 107.2400
" />
<path d="M133.6900 107.2400
L131.8700 107.2400
" />
<path d="M159.8000 99.4800
L160.7200 99.4800
" />
<path d="M159.8000 101.3000
L159.8000 99.4800
" />
<path d="M160.7200 99.4800
L160.7200 101.3000
" />
<path d="M160.7200 101.3000
L159.8000 101.3000
" />
<path d="M144.1500 97.3400
L145.6100 97.3400
" />
<path d="M144.1500 100.3000
L144.1500 97.3400
" />
<path d="M145.6100 97.3400
L145.6100 100.3000
" />
<path d="M145.6100 100.3000
L144.1500 100.3000
" />
<circle cx="121.6400" cy="113.8700" r="2.7500" /> 
<path d="M142.6400 106.5900
L143.5800 106.5900
" />
<path d="M142.6400 108.4500
L142.6400 106.5900
" />
<path d="M143.5800 106.5900
L143.5800 108.4500
" />
<path d="M143.5800 108.4500
L142.6400 108.4500
" />
<path d="M163.3700 110.9200
L166.3300 110.9200
" />
<path d="M163.3700 112.3800
L163.3700 110.9200
" />
<path d="M166.3300 110.9200
L166.3300 112.3800
" />
<path d="M166.3300 112.3800
L163.3700 112.3800
" />
<path d="M127.8800 111.3950
L129.7000 111.3950
" />
<path d="M127.8800 112.3150
L127.8800 111.3950
" />
<path d="M129.7000 111.3950
L129.7000 112.3150
" />
<path d="M129.7000 112.3150
L127.8800 112.3150
" />
<path d="M152.9100 108.6800
L158.6100 108.6800
" />
<path d="M152.9100 112.3800
L152.9100 108.6800
" />
<path d="M158.6100 108.6800
L158.6100 112.3800
" />
<path d="M158.6100 112.3800
L152.9100 112.3800
" />
<path d="M152.8000 102.2700
L152.8000 107.5700
" />
<path d="M152.8000 107.5700
L157.6000 107.5700
" />
<path d="M157.6000 102.2700
L152.8000 102.2700
" />
<path d="M157.6000 107.5700
L157.6000 102.2700
" />
<path d="M150.7300 101.3600
L151.6700 101.3600
" />
<path d="M150.7300 103.2200
L150.7300 101.3600
" />
<path d="M151.6700 101.3600
L151.6700 103.2200
" />
<path d="M151.6700 103.2200
L150.7300 103.2200
" />
<path d="M149.3400 99.8600
L152.3000 99.8600
" />
<path d="M149.3400 101.3200
L149.3400 99.8600
" />
<path d="M152.3000 99.8600
L152.3000 101.3200
" />
<path d="M152.3000 101.3200
L149.3400 101.3200
" />
<path d="M159.0900 99.3800
L159.0900 97.0800
" />
<path d="M163.0900 97.0800
L159.0900 97.0800
" />
<path d="M163.0900 99.3800
L159.0900 99.3800
" />
<path d="M163.0900 99.3800
L163.0900 97.0800
" />
<circle cx="121.6400" cy="96.0900" r="2.7500" /> 
<path d="M152.9100 97.5800
L158.6100 97.5800
" />
<path d="M152.9100 101.2800
L152.9100 97.5800
" />
<path d="M158.6100 97.5800
L158.6100 101.2800
" />
<path d="M158.6100 101.2800
L152.9100 101.2800
" />
<path d="M141.4300 93.0200
L141.4300 96.6200
" />
<path d="M141.4300 96.6200
L172.9800 96.6200
" />
<path d="M172.9800 93.0200
L141.4300 93.0200
" />
<path d="M172.9800 96.6200
L172.9800 93.0200
" />
<path style="fill:none; 
stroke:#000000; stroke-width:0.0500; stroke-opacity:1; 
stroke-linecap:round; stroke-linejoin:round;fill:none"
d="M 125.4100,112.4300
130.2100,112.4300
130.2100,116.3300
125.4100,116.3300
Z" /> 
<path d="M149.6400 109.4500
L151.1000 109.4500
" />
<path d="M149.6400 112.4100
L149.6400 109.4500
" />
<path d="M151.1000 109.4500
L151.1000 112.4100
" />
<path d="M151.1000 112.4100
L149.6400 112.4100
" />
<path d="M147.3800 107.9400
L150.3400 107.9400
" />
<path d="M147.3800 109.4000
L147.3800 107.9400
" />
<path d="M150.3400 107.9400
L150.3400 109.4000
" />
<path d="M150.3400 109.4000
L147.3800 109.4000
" />
<path d="M127.5734 99.9151
L128.5134 99.9151
" />
<path d="M127.5734 101.7751
L127.5734 99.9151
" />
<path d="M128.5134 99.9151
L128.5134 101.7751
" />
<path d="M128.5134 101.7751
L127.5734 101.7751
" />
<path d="M138.1600 111.2300
L139.9800 111.2300
" />
<path d="M138.1600 112.1500
L138.1600 111.2300
" />
<path d="M139.9800 111.2300
L139.9800 112.1500
" />
<path d="M139.9800 112.1500
L138.1600 112.1500
" />
<path d="M127.4100 104.0225
L127.4100 105.9225
" />
<path d="M127.4100 105.9225
L129.8100 105.9225
" />
<path d="M129.8100 104.0225
L127.4100 104.0225
" />
<path d="M129.8100 105.9225
L129.8100 104.0225
" />
<path d="M148.1300 109.4500
L149.5900 109.4500
" />
<path d="M148.1300 112.4100
L148.1300 109.4500
" />
<path d="M149.5900 109.4500
L149.5900 112.4100
" />
<path d="M149.5900 112.4100
L148.1300 112.4100
" />
<path d="M125.9200 111.3950
L127.7400 111.3950
" />
<path d="M125.9200 112.3150
L125.9200 111.3950
" />
<path d="M127.7400 111.3950
L127.7400 112.3150
" />
<path d="M127.7400 112.3150
L125.9200 112.3150
" />
<path d="M146.2800 97.3400
L147.7400 97.3400
" />
<path d="M146.2800 100.3000
L146.2800 97.3400
" />
<path d="M147.7400 97.3400
L147.7400 100.3000
" />
<path d="M147.7400 100.3000
L146.2800 100.3000
" />
<path d="M139.9800 105.0300
L140.9000 105.0300
" />
<path d="M139.9800 106.8500
L139.9800 105.0300
" />
<path d="M140.9000 105.0300
L140.9000 106.8500
" />
<path d="M140.9000 106.8500
L139.9800 106.8500
" />
<path d="M154.8300 107.5700
L156.6900 107.5700
" />
<path d="M154.8300 108.5100
L154.8300 107.5700
" />
<path d="M156.6900 107.5700
L156.6900 108.5100
" />
<path d="M156.6900 108.5100
L154.8300 108.5100
" />
<path d="M131.3900 107.2800
L133.2100 107.2800
" />
<path d="M131.3900 108.2000
L131.3900 107.2800
" />
<path d="M133.2100 107.2800
L133.2100 108.2000
" />
<path d="M133.2100 108.2000
L131.3900 108.2000
" />
<path d="M124.0900 93.3530
L124.0900 99.9130
" />
<path d="M124.0900 99.9130
L131.8900 99.9130
" />
<path d="M131.8900 93.3530
L124.0900 93.3530
" />
<path d="M131.8900 99.9130
L131.8900 93.3530
" />
<path d="M144.3600 107.9400
L147.3200 107.9400
" />
<path d="M144.3600 109.4000
L144.3600 107.9400
" />
<path d="M147.3200 107.9400
L147.3200 109.4000
" />
<path d="M147.3200 109.4000
L144.3600 109.4000
" />
<path d="M134.4800 103.9400
L136.3000 103.9400
" />
<path d="M134.4800 104.8600
L134.4800 103.9400
" />
<path d="M136.3000 103.9400
L136.3000 104.8600
" />
<path d="M136.3000 104.8600
L134.4800 104.8600
" />
<path d="M133.7800 105.0300
L133.7800 111.2300
" />
<path d="M133.7800 111.2300
L139.9800 111.2300
" />
<path d="M139.9800 105.0300
L133.7800 105.0300
" />
<path d="M139.9800 111.2300
L139.9800 105.0300
" />
<path d="M159.7500 108.7100
L160.6700 108.7100
" />
<path d="M159.7500 110.5300
L159.7500 108.7100
" />
<path d="M160.6700 108.7100
L160.6700 110.5300
" />
<path d="M160.6700 110.5300
L159.7500 110.5300
" />
<path d="M130.7800 111.6000
L132.6000 111.6000
" />
<path d="M130.7800 112.5200
L130.7800 111.6000
" />
<path d="M132.6000 111.6000
L132.6000 112.5200
" />
<path d="M132.6000 112.5200
L130.7800 112.5200
" />
</g> 
</svg>
