<?xml version="1.0" standalone="no"?>
 <!DOCTYPE svg PUBLIC "-//W3C//DTD SVG 1.1//EN" 
 "http://www.w3.org/Graphics/SVG/1.1/DTD/svg11.dtd"> 
<svg
  xmlns:svg="http://www.w3.org/2000/svg"
  xmlns="http://www.w3.org/2000/svg"
  xmlns:xlink="http://www.w3.org/1999/xlink"
  version="1.1"
  width="297.0022mm" height="210.0072mm" viewBox="0.0000 0.0000 297.0022 210.0072">
<title>SVG Image created as RoyalBlue54L-Feather-User_Comments.svg date 2026/01/28 15:57:01 </title>
  <desc>Image generated by PCBNEW </desc>
<g style="fill:#000000; fill-opacity:1.0000;stroke:#000000; stroke-opacity:1.0000;
stroke-linecap:round; stroke-linejoin:round;"
 transform="translate(0 0) scale(1 1)">
</g>
<g style="fill:none; 
stroke:#000000; stroke-width:0.1250; stroke-opacity:1; 
stroke-linecap:round; stroke-linejoin:round;">
<g transform="rotate(-270.000000 174.4200 104.9800)">
<text x="174.4200" y="105.2300"
textLength="6.6083" font-size="0.6667" lengthAdjust="spacingAndGlyphs"
text-anchor="middle" opacity="0" stroke-opacity="0">Antenna Keepout</text>
</g>
<g class="stroked-text"><desc>Antenna Keepout</desc>
<path d="M174.3380 101.9086
L174.3380 102.1467
" />
<path d="M174.1952 101.8610
L174.6952 102.0276
" />
<path d="M174.6952 102.0276
L174.1952 102.1943
" />
<path d="M174.5285 102.3610
L174.1952 102.3610
" />
<path d="M174.4809 102.3610
L174.5047 102.3848
" />
<path d="M174.5047 102.3848
L174.5285 102.4324
" />
<path d="M174.5285 102.4324
L174.5285 102.5038
" />
<path d="M174.5285 102.5038
L174.5047 102.5514
" />
<path d="M174.5047 102.5514
L174.4571 102.5752
" />
<path d="M174.4571 102.5752
L174.1952 102.5752
" />
<path d="M174.5285 102.7419
L174.5285 102.9324
" />
<path d="M174.6952 102.8133
L174.2666 102.8133
" />
<path d="M174.2666 102.8133
L174.2190 102.8371
" />
<path d="M174.2190 102.8371
L174.1952 102.8848
" />
<path d="M174.1952 102.8848
L174.1952 102.9324
" />
<path d="M174.2190 103.2895
L174.1952 103.2419
" />
<path d="M174.1952 103.2419
L174.1952 103.1467
" />
<path d="M174.1952 103.1467
L174.2190 103.0990
" />
<path d="M174.2190 103.0990
L174.2666 103.0752
" />
<path d="M174.2666 103.0752
L174.4571 103.0752
" />
<path d="M174.4571 103.0752
L174.5047 103.0990
" />
<path d="M174.5047 103.0990
L174.5285 103.1467
" />
<path d="M174.5285 103.1467
L174.5285 103.2419
" />
<path d="M174.5285 103.2419
L174.5047 103.2895
" />
<path d="M174.5047 103.2895
L174.4571 103.3133
" />
<path d="M174.4571 103.3133
L174.4095 103.3133
" />
<path d="M174.4095 103.3133
L174.3619 103.0752
" />
<path d="M174.5285 103.5276
L174.1952 103.5276
" />
<path d="M174.4809 103.5276
L174.5047 103.5514
" />
<path d="M174.5047 103.5514
L174.5285 103.5990
" />
<path d="M174.5285 103.5990
L174.5285 103.6705
" />
<path d="M174.5285 103.6705
L174.5047 103.7181
" />
<path d="M174.5047 103.7181
L174.4571 103.7419
" />
<path d="M174.4571 103.7419
L174.1952 103.7419
" />
<path d="M174.5285 103.9800
L174.1952 103.9800
" />
<path d="M174.4809 103.9800
L174.5047 104.0038
" />
<path d="M174.5047 104.0038
L174.5285 104.0514
" />
<path d="M174.5285 104.0514
L174.5285 104.1229
" />
<path d="M174.5285 104.1229
L174.5047 104.1705
" />
<path d="M174.5047 104.1705
L174.4571 104.1943
" />
<path d="M174.4571 104.1943
L174.1952 104.1943
" />
<path d="M174.1952 104.6467
L174.4571 104.6467
" />
<path d="M174.4571 104.6467
L174.5047 104.6229
" />
<path d="M174.5047 104.6229
L174.5285 104.5752
" />
<path d="M174.5285 104.5752
L174.5285 104.4800
" />
<path d="M174.5285 104.4800
L174.5047 104.4324
" />
<path d="M174.2190 104.6467
L174.1952 104.5990
" />
<path d="M174.1952 104.5990
L174.1952 104.4800
" />
<path d="M174.1952 104.4800
L174.2190 104.4324
" />
<path d="M174.2190 104.4324
L174.2666 104.4086
" />
<path d="M174.2666 104.4086
L174.3142 104.4086
" />
<path d="M174.3142 104.4086
L174.3619 104.4324
" />
<path d="M174.3619 104.4324
L174.3857 104.4800
" />
<path d="M174.3857 104.4800
L174.3857 104.5990
" />
<path d="M174.3857 104.5990
L174.4095 104.6467
" />
<path d="M174.1952 105.2657
L174.6952 105.2657
" />
<path d="M174.1952 105.5514
L174.4809 105.3371
" />
<path d="M174.6952 105.5514
L174.4095 105.2657
" />
<path d="M174.2190 105.9562
L174.1952 105.9086
" />
<path d="M174.1952 105.9086
L174.1952 105.8133
" />
<path d="M174.1952 105.8133
L174.2190 105.7657
" />
<path d="M174.2190 105.7657
L174.2666 105.7419
" />
<path d="M174.2666 105.7419
L174.4571 105.7419
" />
<path d="M174.4571 105.7419
L174.5047 105.7657
" />
<path d="M174.5047 105.7657
L174.5285 105.8133
" />
<path d="M174.5285 105.8133
L174.5285 105.9086
" />
<path d="M174.5285 105.9086
L174.5047 105.9562
" />
<path d="M174.5047 105.9562
L174.4571 105.9800
" />
<path d="M174.4571 105.9800
L174.4095 105.9800
" />
<path d="M174.4095 105.9800
L174.3619 105.7419
" />
<path d="M174.2190 106.3848
L174.1952 106.3371
" />
<path d="M174.1952 106.3371
L174.1952 106.2419
" />
<path d="M174.1952 106.2419
L174.2190 106.1943
" />
<path d="M174.2190 106.1943
L174.2666 106.1705
" />
<path d="M174.2666 106.1705
L174.4571 106.1705
" />
<path d="M174.4571 106.1705
L174.5047 106.1943
" />
<path d="M174.5047 106.1943
L174.5285 106.2419
" />
<path d="M174.5285 106.2419
L174.5285 106.3371
" />
<path d="M174.5285 106.3371
L174.5047 106.3848
" />
<path d="M174.5047 106.3848
L174.4571 106.4086
" />
<path d="M174.4571 106.4086
L174.4095 106.4086
" />
<path d="M174.4095 106.4086
L174.3619 106.1705
" />
<path d="M174.5285 106.6229
L174.0285 106.6229
" />
<path d="M174.5047 106.6229
L174.5285 106.6705
" />
<path d="M174.5285 106.6705
L174.5285 106.7657
" />
<path d="M174.5285 106.7657
L174.5047 106.8133
" />
<path d="M174.5047 106.8133
L174.4809 106.8371
" />
<path d="M174.4809 106.8371
L174.4333 106.8610
" />
<path d="M174.4333 106.8610
L174.2904 106.8610
" />
<path d="M174.2904 106.8610
L174.2428 106.8371
" />
<path d="M174.2428 106.8371
L174.2190 106.8133
" />
<path d="M174.2190 106.8133
L174.1952 106.7657
" />
<path d="M174.1952 106.7657
L174.1952 106.6705
" />
<path d="M174.1952 106.6705
L174.2190 106.6229
" />
<path d="M174.1952 107.1467
L174.2190 107.0990
" />
<path d="M174.2190 107.0990
L174.2428 107.0752
" />
<path d="M174.2428 107.0752
L174.2904 107.0514
" />
<path d="M174.2904 107.0514
L174.4333 107.0514
" />
<path d="M174.4333 107.0514
L174.4809 107.0752
" />
<path d="M174.4809 107.0752
L174.5047 107.0990
" />
<path d="M174.5047 107.0990
L174.5285 107.1467
" />
<path d="M174.5285 107.1467
L174.5285 107.2181
" />
<path d="M174.5285 107.2181
L174.5047 107.2657
" />
<path d="M174.5047 107.2657
L174.4809 107.2895
" />
<path d="M174.4809 107.2895
L174.4333 107.3133
" />
<path d="M174.4333 107.3133
L174.2904 107.3133
" />
<path d="M174.2904 107.3133
L174.2428 107.2895
" />
<path d="M174.2428 107.2895
L174.2190 107.2657
" />
<path d="M174.2190 107.2657
L174.1952 107.2181
" />
<path d="M174.1952 107.2181
L174.1952 107.1467
" />
<path d="M174.5285 107.7419
L174.1952 107.7419
" />
<path d="M174.5285 107.5276
L174.2666 107.5276
" />
<path d="M174.2666 107.5276
L174.2190 107.5514
" />
<path d="M174.2190 107.5514
L174.1952 107.5990
" />
<path d="M174.1952 107.5990
L174.1952 107.6705
" />
<path d="M174.1952 107.6705
L174.2190 107.7181
" />
<path d="M174.2190 107.7181
L174.2428 107.7419
" />
<path d="M174.5285 107.9086
L174.5285 108.0990
" />
<path d="M174.6952 107.9800
L174.2666 107.9800
" />
<path d="M174.2666 107.9800
L174.2190 108.0038
" />
<path d="M174.2190 108.0038
L174.1952 108.0514
" />
<path d="M174.1952 108.0514
L174.1952 108.0990
" />
</g></g>
<g style="fill:none; 
stroke:#000000; stroke-width:0.0700; stroke-opacity:1; 
stroke-linecap:round; stroke-linejoin:round;">
<g transform="rotate(-90.000000 128.6100 104.9725)">
<text x="128.6100" y="105.1725"
textLength="2.7967" font-size="0.5333" lengthAdjust="spacingAndGlyphs"
text-anchor="middle" opacity="0" stroke-opacity="0">KEEPOUT</text>
</g>
<g class="stroked-text"><desc>KEEPOUT</desc>
<path d="M128.7914 106.2106
L128.3914 106.2106
" />
<path d="M128.7914 105.9820
L128.5628 106.1535
" />
<path d="M128.3914 105.9820
L128.6200 106.2106
" />
<path d="M128.5819 105.8106
L128.5819 105.6773
" />
<path d="M128.7914 105.6201
L128.7914 105.8106
" />
<path d="M128.7914 105.8106
L128.3914 105.8106
" />
<path d="M128.3914 105.8106
L128.3914 105.6201
" />
<path d="M128.5819 105.4487
L128.5819 105.3154
" />
<path d="M128.7914 105.2582
L128.7914 105.4487
" />
<path d="M128.7914 105.4487
L128.3914 105.4487
" />
<path d="M128.3914 105.4487
L128.3914 105.2582
" />
<path d="M128.7914 105.0868
L128.3914 105.0868
" />
<path d="M128.3914 105.0868
L128.3914 104.9344
" />
<path d="M128.3914 104.9344
L128.4105 104.8963
" />
<path d="M128.4105 104.8963
L128.4295 104.8773
" />
<path d="M128.4295 104.8773
L128.4676 104.8582
" />
<path d="M128.4676 104.8582
L128.5247 104.8582
" />
<path d="M128.5247 104.8582
L128.5628 104.8773
" />
<path d="M128.5628 104.8773
L128.5819 104.8963
" />
<path d="M128.5819 104.8963
L128.6009 104.9344
" />
<path d="M128.6009 104.9344
L128.6009 105.0868
" />
<path d="M128.3914 104.6106
L128.3914 104.5344
" />
<path d="M128.3914 104.5344
L128.4105 104.4963
" />
<path d="M128.4105 104.4963
L128.4485 104.4582
" />
<path d="M128.4485 104.4582
L128.5247 104.4392
" />
<path d="M128.5247 104.4392
L128.6581 104.4392
" />
<path d="M128.6581 104.4392
L128.7343 104.4582
" />
<path d="M128.7343 104.4582
L128.7724 104.4963
" />
<path d="M128.7724 104.4963
L128.7914 104.5344
" />
<path d="M128.7914 104.5344
L128.7914 104.6106
" />
<path d="M128.7914 104.6106
L128.7724 104.6487
" />
<path d="M128.7724 104.6487
L128.7343 104.6868
" />
<path d="M128.7343 104.6868
L128.6581 104.7058
" />
<path d="M128.6581 104.7058
L128.5247 104.7058
" />
<path d="M128.5247 104.7058
L128.4485 104.6868
" />
<path d="M128.4485 104.6868
L128.4105 104.6487
" />
<path d="M128.4105 104.6487
L128.3914 104.6106
" />
<path d="M128.3914 104.2677
L128.7152 104.2677
" />
<path d="M128.7152 104.2677
L128.7533 104.2487
" />
<path d="M128.7533 104.2487
L128.7724 104.2296
" />
<path d="M128.7724 104.2296
L128.7914 104.1915
" />
<path d="M128.7914 104.1915
L128.7914 104.1154
" />
<path d="M128.7914 104.1154
L128.7724 104.0773
" />
<path d="M128.7724 104.0773
L128.7533 104.0582
" />
<path d="M128.7533 104.0582
L128.7152 104.0392
" />
<path d="M128.7152 104.0392
L128.3914 104.0392
" />
<path d="M128.3914 103.9058
L128.3914 103.6773
" />
<path d="M128.7914 103.7915
L128.3914 103.7915
" />
</g></g>
<g style="fill:none; 
stroke:#000000; stroke-width:0.1500; stroke-opacity:1; 
stroke-linecap:round; stroke-linejoin:round;">
<circle cx="174.9800" cy="113.8700" r="2.5000" /> 
<circle cx="174.9800" cy="96.0900" r="2.5000" /> 
<circle cx="121.6400" cy="113.8700" r="2.5000" /> 
<circle cx="121.6400" cy="96.0900" r="2.5000" /> 
</g> 
</svg>
