<?xml version="1.0" standalone="no"?>
 <!DOCTYPE svg PUBLIC "-//W3C//DTD SVG 1.1//EN" 
 "http://www.w3.org/Graphics/SVG/1.1/DTD/svg11.dtd"> 
<svg
  xmlns:svg="http://www.w3.org/2000/svg"
  xmlns="http://www.w3.org/2000/svg"
  xmlns:xlink="http://www.w3.org/1999/xlink"
  version="1.1"
  width="297.0022mm" height="210.0072mm" viewBox="0.0000 0.0000 297.0022 210.0072">
<title>SVG Image created as RoyalBlue54L-Feather-B_Silkscreen.svg date 2026/01/28 15:57:01 </title>
  <desc>Image generated by PCBNEW </desc>
<g style="fill:#000000; fill-opacity:1.0000;stroke:#000000; stroke-opacity:1.0000;
stroke-linecap:round; stroke-linejoin:round;"
 transform="translate(0 0) scale(1 1)">
<path style="fill:#000000; fill-opacity:1.0000; stroke:none;fill-rule:evenodd;"
d="M 167.8124,108.1113
167.8155,108.1638
167.8244,108.2125
167.8391,108.2578
167.8601,108.3010
167.8866,108.3393
167.9188,108.3733
167.9564,108.4027
168.0001,108.4276
168.0508,108.4482
168.1044,108.4625
168.1650,108.4715
168.2336,108.4747
168.2975,108.4717
168.3556,108.4632
168.4087,108.4494
168.4592,108.4297
168.5039,108.4051
168.5435,108.3757
168.5764,108.3429
168.6042,108.3047
168.6270,108.2607
168.6432,108.2143
168.6531,108.1645
168.6565,108.1108
168.6549,108.0669
168.6507,108.0298
168.6357,107.9630
168.6124,107.9049
168.5885,107.8593
168.3907,107.8593
168.3907,107.8803
168.4222,107.9140
168.4581,107.9602
168.4743,107.9873
168.4880,108.0171
168.4971,108.0484
168.5002,108.0826
168.4966,108.1206
168.4862,108.1562
168.4680,108.1894
168.4401,108.2208
168.4050,108.2457
168.3576,108.2665
168.3031,108.2792
168.2331,108.2839
168.1823,108.2816
168.1401,108.2750
168.1052,108.2650
168.0581,108.2430
168.0244,108.2174
167.9986,108.1864
167.9815,108.1524
167.9718,108.1164
167.9687,108.0816
167.9716,108.0484
167.9804,108.0154
167.9942,107.9837
168.0120,107.9549
168.0464,107.9114
168.0781,107.8784
168.0781,107.8593
167.8827,107.8593
167.8568,107.9105
167.8360,107.9616
167.8184,108.0271
167.8141,108.0606
Z" /> 
<path style="fill:#000000; fill-opacity:1.0000; stroke:none;fill-rule:evenodd;"
d="M 167.8280,107.2110
167.8280,107.7246
168.6408,107.7246
168.6408,107.5409
167.9843,107.5409
167.9843,107.2110
Z" /> 
<path style="fill:#000000; fill-opacity:1.0000; stroke:none;fill-rule:evenodd;"
d="M 167.8280,106.4355
167.8280,106.6608
168.1533,106.8735
168.0941,106.9166
167.8280,106.9166
167.8280,107.1002
168.6408,107.1002
168.6408,106.9166
168.2725,106.9166
168.6408,106.6622
168.6408,106.4494
168.2647,106.7277
Z" /> 
<path style="fill:#000000; fill-opacity:1.0000; stroke:none;fill-rule:evenodd;"
d="M 168.3110,102.8111
168.3788,102.8254
168.4386,102.8484
168.4929,102.8803
168.5388,102.9187
168.5770,102.9644
168.6033,103.0108
168.6242,103.0705
168.6363,103.1367
168.6408,103.2207
168.6408,103.4789
167.8280,103.4789
167.8280,103.2489
167.9812,103.2489
167.9812,103.2952
168.4877,103.2952
168.4877,103.2489
168.4860,103.1933
168.4819,103.1602
168.4738,103.1312
168.4605,103.1026
168.4358,103.0683
168.4063,103.0416
168.3716,103.0215
168.3327,103.0077
168.2876,102.9990
168.2350,102.9959
168.1818,102.9988
168.1373,103.0068
168.0999,103.0193
168.0663,103.0377
168.0373,103.0620
168.0127,103.0930
167.9975,103.1227
167.9880,103.1527
167.9832,103.1877
167.9812,103.2489
167.8280,103.2489
167.8280,103.2278
167.8318,103.1456
167.8422,103.0806
167.8620,103.0206
167.8924,102.9663
167.9284,102.9234
167.9740,102.8852
168.0302,102.8515
168.0920,102.8265
168.1593,102.8113
168.2336,102.8061
Z" /> 
<path style="fill:#000000; fill-opacity:1.0000; stroke:none;fill-rule:evenodd;"
d="M 167.8280,102.2808
167.8280,102.6978
167.9749,102.6978
167.9749,102.5811
168.4939,102.5811
168.4939,102.6978
168.6408,102.6978
168.6408,102.2808
168.4939,102.2808
168.4939,102.3975
167.9749,102.3975
167.9749,102.2808
Z" /> 
<path style="fill:#000000; fill-opacity:1.0000; stroke:none;fill-rule:evenodd;"
d="M 168.3129,101.4429
168.3818,101.4554
168.4424,101.4752
168.4959,101.5022
168.5430,101.5366
168.5828,101.5774
168.6140,101.6238
168.6370,101.6766
168.6514,101.7368
168.6565,101.8058
168.6514,101.8750
168.6370,101.9353
168.6140,101.9881
168.5827,102.0344
168.5430,102.0750
168.4959,102.1092
168.4425,102.1361
168.3819,102.1558
168.3129,102.1682
168.2341,102.1726
168.1561,102.1683
168.0876,102.1559
168.0272,102.1362
167.9737,102.1093
167.9264,102.0750
167.8864,102.0344
167.8550,101.9881
167.8319,101.9353
167.8175,101.8750
167.8124,101.8058
167.8124,101.8053
167.9656,101.8053
167.9694,101.8400
167.9807,101.8728
168.0000,101.9025
168.0281,101.9287
168.0636,101.9497
168.1110,101.9672
168.1648,101.9778
168.2341,101.9818
168.3023,101.9778
168.3583,101.9667
168.4079,101.9486
168.4424,101.9277
168.4708,101.9002
168.4891,101.8711
168.4997,101.8394
168.5033,101.8053
168.4996,101.7715
168.4886,101.7391
168.4697,101.7095
168.4413,101.6829
168.4062,101.6619
168.3586,101.6442
168.3046,101.6334
168.2347,101.6294
168.1691,101.6328
168.1164,101.6423
168.0690,101.6589
168.0292,101.6820
168.0006,101.7081
167.9810,101.7379
167.9694,101.7707
167.9656,101.8053
167.8124,101.8053
167.8175,101.7364
167.8320,101.6759
167.8551,101.6231
167.8865,101.5768
167.9264,101.5361
167.9737,101.5019
168.0272,101.4750
168.0876,101.4552
168.1561,101.4429
168.2341,101.4386
Z" /> 
<path style="fill:#000000; fill-opacity:1.0000; stroke:none;fill-rule:evenodd;"
d="M 162.8754,107.9780
162.8555,108.0300
162.8333,108.1048
162.8176,108.1839
162.8124,108.2621
162.8174,108.3358
162.8319,108.3998
162.8548,108.4555
162.8858,108.5042
162.9249,108.5466
162.9719,108.5827
163.0254,108.6110
163.0863,108.6318
163.1559,108.6449
163.2358,108.6494
163.3113,108.6449
163.3784,108.6320
163.4383,108.6112
163.4922,108.5826
163.5407,108.5457
163.5809,108.5028
163.6128,108.4535
163.6364,108.3968
163.6512,108.3316
163.6565,108.2564
163.6528,108.1871
163.6420,108.1225
163.6215,108.0580
163.5844,107.9809
163.3939,107.9809
163.3939,108.0015
163.4259,108.0407
163.4612,108.0904
163.4769,108.1197
163.4909,108.1552
163.5001,108.1931
163.5033,108.2339
163.4990,108.2812
163.4869,108.3224
163.4663,108.3599
163.4367,108.3936
163.4002,108.4202
163.3535,108.4412
163.3006,108.4541
163.2370,108.4586
163.1697,108.4542
163.1142,108.4418
163.0684,108.4223
163.0308,108.3960
163.0010,108.3630
162.9787,108.3223
162.9645,108.2724
162.9593,108.2109
162.9598,108.1878
162.9615,108.1646
163.1219,108.1646
163.1219,108.3066
163.2751,108.3066
163.2751,107.9780
Z" /> 
<path style="fill:#000000; fill-opacity:1.0000; stroke:none;fill-rule:evenodd;"
d="M 162.8280,107.1657
162.8280,107.3426
163.3859,107.6448
162.8280,107.6448
162.8280,107.8131
163.6408,107.8131
163.6408,107.5937
163.1752,107.3340
163.6408,107.3340
163.6408,107.1657
Z" /> 
<path style="fill:#000000; fill-opacity:1.0000; stroke:none;fill-rule:evenodd;"
d="M 163.3110,106.3158
163.3788,106.3301
163.4386,106.3531
163.4929,106.3850
163.5388,106.4235
163.5770,106.4691
163.6033,106.5155
163.6242,106.5753
163.6363,106.6414
163.6408,106.7254
163.6408,106.9836
162.8280,106.9836
162.8280,106.7536
162.9812,106.7536
162.9812,106.8000
163.4877,106.8000
163.4877,106.7536
163.4860,106.6981
163.4819,106.6649
163.4738,106.6360
163.4605,106.6073
163.4358,106.5730
163.4063,106.5463
163.3716,106.5262
163.3327,106.5124
163.2876,106.5037
163.2350,106.5006
163.1818,106.5035
163.1373,106.5115
163.0999,106.5241
163.0663,106.5424
163.0373,106.5667
163.0127,106.5977
162.9975,106.6274
162.9880,106.6575
162.9832,106.6924
162.9812,106.7536
162.8280,106.7536
162.8280,106.7326
162.8318,106.6503
162.8422,106.5853
162.8620,106.5254
162.8924,106.4710
162.9284,106.4281
162.9740,106.3899
163.0302,106.3563
163.0920,106.3313
163.1593,106.3160
163.2336,106.3108
Z" /> 
<path style="fill:#000000; fill-opacity:1.0000; stroke:none;fill-rule:evenodd;"
d="M 143.9368,113.6620
143.7518,113.6620
143.7026,113.4963
143.4386,113.4963
143.3893,113.6620
143.1995,113.6620
143.3006,113.3494
143.4831,113.3494
143.6581,113.3494
143.5706,113.0574
143.4831,113.3494
143.3006,113.3494
143.4625,112.8492
143.6738,112.8492
Z" /> 
<path style="fill:#000000; fill-opacity:1.0000; stroke:none;fill-rule:evenodd;"
d="M 142.8917,112.8368
142.9363,112.8459
142.9746,112.8602
143.0102,112.8812
143.0406,112.9078
143.0664,112.9403
143.0873,112.9778
143.1046,113.0214
143.1181,113.0721
143.1299,113.1535
143.1343,113.2556
143.1301,113.3549
143.1185,113.4372
143.1053,113.4888
143.0882,113.5326
143.0674,113.5698
143.0419,113.6023
143.0116,113.6291
142.9760,113.6504
142.9377,113.6650
142.8926,113.6743
142.8397,113.6776
142.7858,113.6743
142.7407,113.6650
142.7030,113.6507
142.6680,113.6296
142.6378,113.6031
142.6121,113.5709
142.5919,113.5348
142.5750,113.4910
142.5615,113.4383
142.5495,113.3546
142.5452,113.2550
142.7303,113.2550
142.7339,113.3528
142.7432,113.4199
142.7561,113.4639
142.7716,113.4926
142.7902,113.5119
142.8126,113.5235
142.8397,113.5276
142.8669,113.5235
142.8892,113.5119
142.9079,113.4926
142.9234,113.4639
142.9363,113.4199
142.9456,113.3532
142.9492,113.2561
142.9456,113.1563
142.9364,113.0890
142.9239,113.0459
142.9087,113.0180
142.8900,112.9991
142.8675,112.9876
142.8397,112.9836
142.8120,112.9876
142.7894,112.9991
142.7708,113.0180
142.7556,113.0459
142.7430,113.0890
142.7339,113.1560
142.7303,113.2550
142.5452,113.2550
142.5494,113.1558
142.5610,113.0745
142.5741,113.0236
142.5911,112.9801
142.6116,112.9430
142.6375,112.9097
142.6676,112.8825
142.7025,112.8610
142.7402,112.8464
142.7855,112.8369
142.8397,112.8335
Z" /> 
<path style="fill:#000000; fill-opacity:1.0000; stroke:none;fill-rule:evenodd;"
d="M 171.6741,96.7069
171.6777,96.7535
171.6882,96.7956
171.7056,96.8341
171.7303,96.8696
171.7633,96.9025
171.8089,96.9337
171.8633,96.9572
171.9282,96.9723
172.0054,96.9776
172.0910,96.9728
172.1597,96.9598
172.2239,96.9392
172.2828,96.9144
172.2828,96.7181
172.2627,96.7181
172.2233,96.7515
172.1809,96.7793
172.1353,96.8016
172.0877,96.8181
172.0427,96.8276
171.9997,96.8307
171.9557,96.8273
171.9298,96.8224
171.9112,96.8158
171.8917,96.8040
171.8766,96.7902
171.8666,96.7721
171.8629,96.7446
171.8678,96.7199
171.8828,96.6984
171.9057,96.6820
171.9409,96.6685
172.0257,96.6480
172.0696,96.6370
172.1097,96.6237
172.1675,96.5968
172.2096,96.5665
172.2390,96.5332
172.2606,96.4929
172.2738,96.4462
172.2785,96.3912
172.2749,96.3474
172.2645,96.3076
172.2472,96.2711
172.2225,96.2371
172.1893,96.2055
172.1437,96.1751
172.0910,96.1527
172.0303,96.1385
171.9600,96.1335
171.8901,96.1374
171.8211,96.1490
171.7551,96.1671
171.7023,96.1878
171.7023,96.3743
171.7219,96.3743
171.7685,96.3383
171.8273,96.3074
171.8694,96.2924
171.9118,96.2834
171.9547,96.2805
172.0004,96.2842
172.0227,96.2895
172.0442,96.2980
172.0615,96.3087
172.0762,96.3239
172.0863,96.3425
172.0896,96.3633
172.0871,96.3836
172.0800,96.3997
172.0681,96.4128
172.0413,96.4276
171.9868,96.4443
171.9115,96.4623
171.8338,96.4864
171.7812,96.5109
171.7417,96.5389
171.7130,96.5698
171.6919,96.6073
171.6787,96.6523
Z" /> 
<path style="fill:#000000; fill-opacity:1.0000; stroke:none;fill-rule:evenodd;"
d="M 171.5478,96.9620
171.2968,96.9620
171.2146,96.9582
171.1496,96.9478
171.0896,96.9280
171.0353,96.8976
170.9924,96.8616
170.9542,96.8160
170.9205,96.7598
170.8955,96.6980
170.8803,96.6307
170.8751,96.5564
170.8752,96.5550
171.0649,96.5550
171.0678,96.6082
171.0758,96.6527
171.0883,96.6901
171.1067,96.7237
171.1310,96.7527
171.1620,96.7773
171.1917,96.7925
171.2217,96.8020
171.2567,96.8068
171.3178,96.8088
171.3642,96.8088
171.3642,96.3023
171.3178,96.3023
171.2623,96.3040
171.2291,96.3081
171.2002,96.3162
171.1715,96.3295
171.1372,96.3542
171.1105,96.3837
171.0905,96.4184
171.0767,96.4573
171.0680,96.5024
171.0649,96.5550
170.8752,96.5550
170.8801,96.4790
170.8944,96.4112
170.9174,96.3514
170.9492,96.2971
170.9877,96.2512
171.0333,96.2130
171.0797,96.1867
171.1395,96.1658
171.2057,96.1537
171.2896,96.1492
171.5478,96.1492
Z" /> 
<path style="fill:#000000; fill-opacity:1.0000; stroke:none;fill-rule:evenodd;"
d="M 170.8141,96.9620
170.6290,96.9620
170.5798,96.7963
170.3158,96.7963
170.2666,96.9620
170.0767,96.9620
170.1779,96.6494
170.3603,96.6494
170.5353,96.6494
170.4478,96.3575
170.3603,96.6494
170.1779,96.6494
170.3397,96.1492
170.5511,96.1492
Z" /> 
<path style="fill:#000000; fill-opacity:1.0000; stroke:none;fill-rule:evenodd;"
d="M 146.4768,113.6620
146.2918,113.6620
146.2426,113.4963
145.9786,113.4963
145.9293,113.6620
145.7395,113.6620
145.8406,113.3494
146.0231,113.3494
146.1981,113.3494
146.1106,113.0574
146.0231,113.3494
145.8406,113.3494
146.0025,112.8492
146.2138,112.8492
Z" /> 
<path style="fill:#000000; fill-opacity:1.0000; stroke:none;fill-rule:evenodd;"
d="M 145.1254,113.6620
145.6007,113.6620
145.6007,113.5213
145.4505,113.5213
145.4505,113.0899
145.6007,113.0899
145.6007,112.9586
145.5347,112.9540
145.5047,112.9474
145.4820,112.9381
145.4598,112.9222
145.4448,112.9031
145.4352,112.8796
145.4304,112.8492
145.2721,112.8492
145.2721,113.5213
145.1254,113.5213
Z" /> 
<path style="fill:#000000; fill-opacity:1.0000; stroke:none;fill-rule:evenodd;"
d="M 156.0537,96.9620
156.5290,96.9620
156.5290,96.8213
156.3788,96.8213
156.3788,96.3899
156.5290,96.3899
156.5290,96.2586
156.4630,96.2540
156.4330,96.2474
156.4104,96.2381
156.3882,96.2222
156.3731,96.2031
156.3635,96.1796
156.3587,96.1492
156.2005,96.1492
156.2005,96.8213
156.0537,96.8213
Z" /> 
<path style="fill:#000000; fill-opacity:1.0000; stroke:none;fill-rule:evenodd;"
d="M 155.3575,96.9620
155.8328,96.9620
155.8328,96.8213
155.6826,96.8213
155.6826,96.3899
155.8328,96.3899
155.8328,96.2586
155.7668,96.2540
155.7368,96.2474
155.7142,96.2381
155.6920,96.2222
155.6769,96.2031
155.6673,96.1796
155.6626,96.1492
155.5043,96.1492
155.5043,96.8213
155.3575,96.8213
Z" /> 
<path style="fill:#000000; fill-opacity:1.0000; stroke:none;fill-rule:evenodd;"
d="M 154.9408,106.7808
154.1280,107.0405
154.1280,107.2461
154.9408,107.5057
154.9408,107.3130
154.3698,107.1409
154.9408,106.9687
Z" /> 
<path style="fill:#000000; fill-opacity:1.0000; stroke:none;fill-rule:evenodd;"
d="M 154.6110,106.0104
154.6788,106.0247
154.7386,106.0477
154.7929,106.0796
154.8388,106.1180
154.8770,106.1637
154.9033,106.2101
154.9242,106.2699
154.9363,106.3360
154.9408,106.4200
154.9408,106.6782
154.1280,106.6782
154.1280,106.4482
154.2812,106.4482
154.2812,106.4946
154.7877,106.4946
154.7877,106.4482
154.7860,106.3926
154.7819,106.3595
154.7738,106.3306
154.7605,106.3019
154.7358,106.2676
154.7063,106.2409
154.6716,106.2208
154.6327,106.2070
154.5876,106.1983
154.5350,106.1952
154.4818,106.1981
154.4373,106.2061
154.3999,106.2187
154.3663,106.2370
154.3373,106.2613
154.3127,106.2923
154.2975,106.3220
154.2880,106.3521
154.2832,106.3870
154.2812,106.4482
154.1280,106.4482
154.1280,106.4272
154.1318,106.3449
154.1422,106.2799
154.1620,106.2200
154.1924,106.1656
154.2284,106.1227
154.2740,106.0845
154.3302,106.0508
154.3920,106.0259
154.4593,106.0106
154.5336,106.0054
Z" /> 
<path style="fill:#000000; fill-opacity:1.0000; stroke:none;fill-rule:evenodd;"
d="M 154.6110,105.1973
154.6788,105.2116
154.7386,105.2346
154.7929,105.2664
154.8388,105.3049
154.8770,105.3506
154.9033,105.3969
154.9242,105.4567
154.9363,105.5229
154.9408,105.6068
154.9408,105.8650
154.1280,105.8650
154.1280,105.6350
154.2812,105.6350
154.2812,105.6814
154.7877,105.6814
154.7877,105.6350
154.7860,105.5795
154.7819,105.5464
154.7738,105.5174
154.7605,105.4887
154.7358,105.4544
154.7063,105.4277
154.6716,105.4077
154.6327,105.3939
154.5876,105.3852
154.5350,105.3821
154.4818,105.3850
154.4373,105.3930
154.3999,105.4055
154.3663,105.4239
154.3373,105.4482
154.3127,105.4792
154.2975,105.5089
154.2880,105.5389
154.2832,105.5739
154.2812,105.6350
154.1280,105.6350
154.1280,105.6140
154.1318,105.5318
154.1422,105.4668
154.1620,105.4068
154.1924,105.3525
154.2284,105.3096
154.2740,105.2714
154.3302,105.2377
154.3920,105.2127
154.4593,105.1975
154.5336,105.1923
Z" /> 
<path style="fill:#000000; fill-opacity:1.0000; stroke:none;fill-rule:evenodd;"
d="M 141.1780,113.6146
141.2300,113.6345
141.3048,113.6567
141.3839,113.6724
141.4621,113.6776
141.5358,113.6726
141.5998,113.6581
141.6555,113.6352
141.7042,113.6042
141.7466,113.5651
141.7827,113.5181
141.8110,113.4646
141.8318,113.4037
141.8449,113.3341
141.8494,113.2542
141.8449,113.1787
141.8320,113.1116
141.8112,113.0517
141.7826,112.9978
141.7457,112.9493
141.7028,112.9091
141.6535,112.8772
141.5968,112.8536
141.5316,112.8388
141.4564,112.8335
141.3871,112.8372
141.3225,112.8480
141.2580,112.8685
141.1809,112.9056
141.1809,113.0961
141.2015,113.0961
141.2407,113.0641
141.2904,113.0288
141.3197,113.0131
141.3552,112.9991
141.3931,112.9899
141.4339,112.9867
141.4812,112.9910
141.5224,113.0031
141.5599,113.0237
141.5936,113.0533
141.6202,113.0898
141.6412,113.1365
141.6541,113.1894
141.6586,113.2530
141.6542,113.3203
141.6418,113.3758
141.6223,113.4215
141.5960,113.4592
141.5630,113.4890
141.5223,113.5113
141.4724,113.5255
141.4109,113.5307
141.3878,113.5302
141.3646,113.5285
141.3646,113.3681
141.5066,113.3681
141.5066,113.2149
141.1780,113.2149
Z" /> 
<path style="fill:#000000; fill-opacity:1.0000; stroke:none;fill-rule:evenodd;"
d="M 140.3657,113.6620
140.5426,113.6620
140.8448,113.1041
140.8448,113.6620
141.0131,113.6620
141.0131,112.8492
140.7937,112.8492
140.5340,113.3148
140.5340,112.8492
140.3657,112.8492
Z" /> 
<path style="fill:#000000; fill-opacity:1.0000; stroke:none;fill-rule:evenodd;"
d="M 140.1836,113.6620
139.9326,113.6620
139.8503,113.6582
139.7853,113.6478
139.7254,113.6280
139.6710,113.5976
139.6281,113.5616
139.5899,113.5160
139.5563,113.4598
139.5313,113.3980
139.5160,113.3307
139.5108,113.2564
139.5109,113.2550
139.7006,113.2550
139.7035,113.3082
139.7115,113.3527
139.7241,113.3901
139.7424,113.4237
139.7667,113.4527
139.7977,113.4773
139.8274,113.4925
139.8575,113.5020
139.8924,113.5068
139.9536,113.5088
140.0000,113.5088
140.0000,113.0023
139.9536,113.0023
139.8981,113.0040
139.8649,113.0081
139.8360,113.0162
139.8073,113.0295
139.7730,113.0542
139.7463,113.0837
139.7262,113.1184
139.7124,113.1573
139.7037,113.2024
139.7006,113.2550
139.5109,113.2550
139.5158,113.1790
139.5301,113.1112
139.5531,113.0514
139.5850,112.9971
139.6235,112.9512
139.6691,112.9130
139.7155,112.8867
139.7753,112.8658
139.8414,112.8537
139.9254,112.8492
140.1836,112.8492
Z" /> 
<path style="fill:#000000; fill-opacity:1.0000; stroke:none;fill-rule:evenodd;"
d="M 163.1753,103.0052
163.2037,102.9620
163.2352,102.9276
163.2699,102.9007
163.3099,102.8810
163.3582,102.8685
163.4171,102.8641
163.4602,102.8670
163.4961,102.8750
163.5262,102.8878
163.5655,102.9154
163.5971,102.9516
163.6197,102.9928
163.6326,103.0367
163.6386,103.0843
163.6408,103.1453
163.6408,103.4532
162.8280,103.4532
162.8280,103.2706
163.1250,103.2706
163.1250,103.2142
163.2719,103.2142
163.2719,103.2706
163.4939,103.2706
163.4939,103.2041
163.4919,103.1462
163.4882,103.1223
163.4812,103.1027
163.4655,103.0793
163.4463,103.0650
163.4226,103.0569
163.3932,103.0540
163.3603,103.0564
163.3375,103.0628
163.3181,103.0739
163.2996,103.0908
163.2853,103.1127
163.2769,103.1405
163.2733,103.1720
163.2719,103.2142
163.1250,103.2142
163.1250,103.1860
162.8280,102.9918
162.8280,102.7675
Z" /> 
<path style="fill:#000000; fill-opacity:1.0000; stroke:none;fill-rule:evenodd;"
d="M 163.0831,102.1173
163.0365,102.1209
162.9944,102.1315
162.9559,102.1489
162.9204,102.1736
162.8875,102.2065
162.8562,102.2521
162.8328,102.3066
162.8177,102.3714
162.8124,102.4487
162.8172,102.5342
162.8302,102.6029
162.8508,102.6672
162.8756,102.7260
163.0719,102.7260
163.0719,102.7060
163.0385,102.6665
163.0107,102.6242
162.9884,102.5785
162.9719,102.5310
162.9624,102.4859
162.9593,102.4430
162.9627,102.3990
162.9676,102.3731
162.9742,102.3545
162.9860,102.3349
162.9998,102.3198
163.0179,102.3099
163.0454,102.3062
163.0701,102.3110
163.0916,102.3261
163.1080,102.3489
163.1215,102.3841
163.1419,102.4690
163.1530,102.5128
163.1663,102.5529
163.1932,102.6108
163.2235,102.6528
163.2568,102.6823
163.2971,102.7038
163.3438,102.7171
163.3988,102.7217
163.4426,102.7182
163.4824,102.7077
163.5189,102.6905
163.5528,102.6657
163.5845,102.6326
163.6149,102.5869
163.6373,102.5343
163.6515,102.4735
163.6565,102.4033
163.6526,102.3334
163.6410,102.2644
163.6229,102.1983
163.6022,102.1455
163.4157,102.1455
163.4157,102.1651
163.4517,102.2118
163.4826,102.2706
163.4976,102.3127
163.5066,102.3551
163.5095,102.3980
163.5058,102.4437
163.5005,102.4660
163.4919,102.4874
163.4813,102.5047
163.4661,102.5195
163.4475,102.5295
163.4267,102.5328
163.4064,102.5304
163.3903,102.5233
163.3772,102.5113
163.3624,102.4846
163.3457,102.4301
163.3277,102.3547
163.3036,102.2770
163.2791,102.2244
163.2511,102.1850
163.2202,102.1563
163.1827,102.1351
163.1377,102.1220
Z" /> 
<path style="fill:#000000; fill-opacity:1.0000; stroke:none;fill-rule:evenodd;"
d="M 163.4845,101.4340
163.4845,101.6564
162.8280,101.6564
162.8280,101.8400
163.4845,101.8400
163.4845,102.0623
163.6408,102.0623
163.6408,101.4340
Z" /> 
</g>
<g style="fill:none; 
stroke:#000000; stroke-width:0.1600; stroke-opacity:1; 
stroke-linecap:round; stroke-linejoin:round;">
<path d="M163.8120 103.4741
L163.8120 101.4845
" />
<path style="fill:#000000; fill-opacity:1.0000; stroke:none;fill-rule:evenodd;"
d="M 158.8790,113.4069
158.8826,113.4535
158.8932,113.4956
158.9106,113.5341
158.9353,113.5696
158.9682,113.6025
159.0138,113.6337
159.0683,113.6572
159.1331,113.6723
159.2104,113.6776
159.2959,113.6728
159.3646,113.6598
159.4289,113.6392
159.4877,113.6144
159.4877,113.4181
159.4677,113.4181
159.4282,113.4515
159.3859,113.4793
159.3402,113.5016
159.2927,113.5181
159.2476,113.5276
159.2047,113.5307
159.1607,113.5273
159.1348,113.5224
159.1162,113.5158
159.0966,113.5040
159.0815,113.4902
159.0716,113.4721
159.0679,113.4446
159.0727,113.4199
159.0878,113.3984
159.1106,113.3820
159.1458,113.3685
159.2307,113.3481
159.2745,113.3370
159.3146,113.3237
159.3725,113.2968
159.4145,113.2665
159.4440,113.2332
159.4655,113.1929
159.4788,113.1462
159.4834,113.0912
159.4799,113.0474
159.4694,113.0076
159.4522,112.9711
159.4274,112.9371
159.3943,112.9055
159.3486,112.8751
159.2960,112.8527
159.2352,112.8385
159.1650,112.8335
159.0951,112.8374
159.0261,112.8490
158.9600,112.8671
158.9072,112.8878
158.9072,113.0743
158.9268,113.0743
158.9735,113.0383
159.0323,113.0074
159.0744,112.9924
159.1168,112.9834
159.1597,112.9805
159.2054,112.9842
159.2277,112.9895
159.2491,112.9980
159.2664,113.0087
159.2812,113.0239
159.2912,113.0425
159.2945,113.0633
159.2921,113.0836
159.2850,113.0997
159.2730,113.1128
159.2463,113.1276
159.1918,113.1443
159.1164,113.1623
159.0387,113.1864
158.9861,113.2109
158.9467,113.2389
158.9180,113.2698
158.8968,113.3073
158.8837,113.3523
Z" /> 
<path style="fill:#000000; fill-opacity:1.0000; stroke:none;fill-rule:evenodd;"
d="M 158.4310,113.6776
158.4835,113.6745
158.5322,113.6656
158.5775,113.6509
158.6207,113.6299
158.6590,113.6034
158.6930,113.5712
158.7224,113.5336
158.7473,113.4899
158.7679,113.4392
158.7822,113.3856
158.7913,113.3250
158.7944,113.2564
158.7915,113.1925
158.7829,113.1344
158.7691,113.0813
158.7494,113.0308
158.7248,112.9861
158.6954,112.9465
158.6626,112.9136
158.6245,112.8858
158.5804,112.8630
158.5340,112.8468
158.4842,112.8369
158.4305,112.8335
158.3866,112.8350
158.3495,112.8393
158.2827,112.8543
158.2247,112.8776
158.1790,112.9015
158.1790,113.0993
158.2000,113.0993
158.2338,113.0678
158.2799,113.0319
158.3070,113.0157
158.3368,113.0020
158.3682,112.9929
158.4023,112.9898
158.4403,112.9934
158.4759,113.0038
158.5091,113.0220
158.5405,113.0499
158.5654,113.0850
158.5862,113.1324
158.5989,113.1869
158.6036,113.2569
158.6013,113.3077
158.5948,113.3499
158.5847,113.3848
158.5627,113.4319
158.5371,113.4656
158.5061,113.4914
158.4721,113.5085
158.4362,113.5182
158.4013,113.5213
158.3681,113.5184
158.3351,113.5096
158.3035,113.4958
158.2746,113.4780
158.2311,113.4435
158.1981,113.4119
158.1790,113.4119
158.1790,113.6073
158.2302,113.6332
158.2813,113.6540
158.3468,113.6716
158.3803,113.6759
Z" /> 
<path style="fill:#000000; fill-opacity:1.0000; stroke:none;fill-rule:evenodd;"
d="M 157.3796,113.6620
157.6048,113.6620
157.8176,113.3367
157.8607,113.3959
157.8607,113.6620
158.0443,113.6620
158.0443,112.8492
157.8607,112.8492
157.8607,113.2175
157.6063,112.8492
157.3935,112.8492
157.6718,113.2253
Z" /> 
<path style="fill:#000000; fill-opacity:1.0000; stroke:none;fill-rule:evenodd;"
d="M 154.0968,113.6620
153.9118,113.6620
153.8626,113.4963
153.5986,113.4963
153.5493,113.6620
153.3595,113.6620
153.4606,113.3494
153.6431,113.3494
153.8181,113.3494
153.7306,113.0574
153.6431,113.3494
153.4606,113.3494
153.6225,112.8492
153.8338,112.8492
Z" /> 
<path style="fill:#000000; fill-opacity:1.0000; stroke:none;fill-rule:evenodd;"
d="M 153.3077,113.3189
153.3077,113.4744
152.9629,113.4744
152.9629,113.6651
152.7874,113.6651
152.7874,113.4744
152.6903,113.4744
152.6903,113.3244
152.7874,113.3244
152.9629,113.3244
153.1700,113.3244
152.9629,113.0303
152.9629,113.3244
152.7874,113.3244
152.7874,112.8492
152.9744,112.8492
Z" /> 
<path style="fill:#000000; fill-opacity:1.0000; stroke:none;fill-rule:evenodd;"
d="M 158.5937,96.9620
159.0690,96.9620
159.0690,96.8213
158.9188,96.8213
158.9188,96.3899
159.0690,96.3899
159.0690,96.2586
159.0030,96.2540
158.9730,96.2474
158.9504,96.2381
158.9282,96.2222
158.9131,96.2031
158.9035,96.1796
158.8987,96.1492
158.7405,96.1492
158.7405,96.8213
158.5937,96.8213
Z" /> 
<path style="fill:#000000; fill-opacity:1.0000; stroke:none;fill-rule:evenodd;"
d="M 158.2038,96.1368
158.2484,96.1459
158.2867,96.1602
158.3223,96.1812
158.3527,96.2078
158.3785,96.2403
158.3995,96.2778
158.4168,96.3214
158.4302,96.3721
158.4421,96.4535
158.4464,96.5556
158.4423,96.6549
158.4307,96.7372
158.4175,96.7888
158.4003,96.8326
158.3795,96.8698
158.3540,96.9023
158.3237,96.9291
158.2882,96.9504
158.2498,96.9650
158.2048,96.9743
158.1519,96.9776
158.0980,96.9743
158.0529,96.9650
158.0151,96.9507
157.9801,96.9296
157.9500,96.9031
157.9243,96.8709
157.9041,96.8348
157.8871,96.7910
157.8736,96.7383
157.8616,96.6546
157.8573,96.5550
158.0424,96.5550
158.0461,96.6528
158.0554,96.7199
158.0682,96.7639
158.0837,96.7926
158.1024,96.8119
158.1247,96.8235
158.1519,96.8276
158.1790,96.8235
158.2014,96.8119
158.2201,96.7926
158.2356,96.7639
158.2484,96.7199
158.2577,96.6532
158.2614,96.5561
158.2577,96.4563
158.2486,96.3890
158.2360,96.3459
158.2208,96.3180
158.2022,96.2991
158.1796,96.2876
158.1519,96.2836
158.1241,96.2876
158.1016,96.2991
158.0829,96.3180
158.0677,96.3459
158.0552,96.3890
158.0460,96.4560
158.0424,96.5550
157.8573,96.5550
157.8615,96.4558
157.8731,96.3745
157.8862,96.3236
157.9032,96.2801
157.9238,96.2430
157.9496,96.2097
157.9797,96.1825
158.0147,96.1610
158.0524,96.1464
158.0977,96.1369
158.1519,96.1335
Z" /> 
<path style="fill:#000000; fill-opacity:1.0000; stroke:none;fill-rule:evenodd;"
d="M 161.5103,113.4069
161.5139,113.4535
161.5245,113.4956
161.5419,113.5341
161.5666,113.5696
161.5995,113.6025
161.6451,113.6337
161.6996,113.6572
161.7644,113.6723
161.8417,113.6776
161.9272,113.6728
161.9959,113.6598
162.0602,113.6392
162.1190,113.6144
162.1190,113.4181
162.0990,113.4181
162.0595,113.4515
162.0172,113.4793
161.9715,113.5016
161.9240,113.5181
161.8789,113.5276
161.8360,113.5307
161.7920,113.5273
161.7661,113.5224
161.7475,113.5158
161.7279,113.5040
161.7128,113.4902
161.7029,113.4721
161.6992,113.4446
161.7040,113.4199
161.7191,113.3984
161.7419,113.3820
161.7771,113.3685
161.8620,113.3481
161.9058,113.3370
161.9459,113.3237
162.0037,113.2968
162.0458,113.2665
162.0753,113.2332
162.0968,113.1929
162.1101,113.1462
162.1147,113.0912
162.1112,113.0474
162.1007,113.0076
162.0835,112.9711
162.0587,112.9371
162.0256,112.9055
161.9799,112.8751
161.9273,112.8527
161.8665,112.8385
161.7962,112.8335
161.7264,112.8374
161.6574,112.8490
161.5913,112.8671
161.5385,112.8878
161.5385,113.0743
161.5581,113.0743
161.6048,113.0383
161.6636,113.0074
161.7057,112.9924
161.7481,112.9834
161.7910,112.9805
161.8367,112.9842
161.8590,112.9895
161.8804,112.9980
161.8977,113.0087
161.9125,113.0239
161.9225,113.0425
161.9258,113.0633
161.9233,113.0836
161.9162,113.0997
161.9043,113.1128
161.8776,113.1276
161.8230,113.1443
161.7477,113.1623
161.6700,113.1864
161.6174,113.2109
161.5780,113.2389
161.5493,113.2698
161.5281,113.3073
161.5150,113.3523
Z" /> 
<path style="fill:#000000; fill-opacity:1.0000; stroke:none;fill-rule:evenodd;"
d="M 161.3841,113.6620
161.1331,113.6620
161.0508,113.6582
160.9858,113.6478
160.9259,113.6280
160.8715,113.5976
160.8286,113.5616
160.7904,113.5160
160.7568,113.4598
160.7318,113.3980
160.7165,113.3307
160.7113,113.2564
160.7114,113.2550
160.9011,113.2550
160.9040,113.3082
160.9120,113.3527
160.9246,113.3901
160.9429,113.4237
160.9672,113.4527
160.9982,113.4773
161.0279,113.4925
161.0580,113.5020
161.0929,113.5068
161.1541,113.5088
161.2005,113.5088
161.2005,113.0023
161.1541,113.0023
161.0986,113.0040
161.0654,113.0081
161.0365,113.0162
161.0078,113.0295
160.9735,113.0542
160.9468,113.0837
160.9267,113.1184
160.9129,113.1573
160.9042,113.2024
160.9011,113.2550
160.7114,113.2550
160.7163,113.1790
160.7306,113.1112
160.7536,113.0514
160.7855,112.9971
160.8239,112.9512
160.8696,112.9130
160.9160,112.8867
160.9758,112.8658
161.0419,112.8537
161.1259,112.8492
161.3841,112.8492
Z" /> 
<path style="fill:#000000; fill-opacity:1.0000; stroke:none;fill-rule:evenodd;"
d="M 160.3150,112.8386
160.3754,112.8530
160.4281,112.8760
160.4744,112.9073
160.5150,112.9470
160.5492,112.9941
160.5761,113.0475
160.5959,113.1081
160.6082,113.1771
160.6126,113.2559
160.6083,113.3339
160.5959,113.4024
160.5762,113.4628
160.5493,113.5163
160.5150,113.5636
160.4744,113.6036
160.4281,113.6350
160.3753,113.6581
160.3150,113.6725
160.2458,113.6776
160.1764,113.6725
160.1159,113.6580
160.0631,113.6349
160.0168,113.6035
159.9761,113.5636
159.9419,113.5163
159.9150,113.4628
159.8952,113.4024
159.8829,113.3339
159.8786,113.2559
159.8786,113.2553
160.0694,113.2553
160.0728,113.3209
160.0823,113.3736
160.0989,113.4210
160.1220,113.4608
160.1481,113.4894
160.1779,113.5090
160.2107,113.5206
160.2453,113.5244
160.2800,113.5206
160.3128,113.5092
160.3426,113.4900
160.3687,113.4619
160.3897,113.4264
160.4072,113.3790
160.4178,113.3252
160.4218,113.2559
160.4178,113.1876
160.4067,113.1317
160.3886,113.0821
160.3678,113.0476
160.3402,113.0192
160.3111,113.0009
160.2794,112.9903
160.2453,112.9867
160.2115,112.9904
160.1791,113.0014
160.1495,113.0203
160.1229,113.0487
160.1019,113.0838
160.0842,113.1314
160.0734,113.1854
160.0694,113.2553
159.8786,113.2553
159.8829,113.1771
159.8954,113.1082
159.9152,113.0476
159.9422,112.9941
159.9766,112.9470
160.0174,112.9072
160.0638,112.8760
160.1166,112.8530
160.1768,112.8386
160.2458,112.8335
Z" /> 
<path style="fill:#000000; fill-opacity:1.0000; stroke:none;fill-rule:evenodd;"
d="M 136.0508,112.8492
136.3105,113.6620
136.5161,113.6620
136.7757,112.8492
136.5830,112.8492
136.4109,113.4201
136.2387,112.8492
Z" /> 
<path style="fill:#000000; fill-opacity:1.0000; stroke:none;fill-rule:evenodd;"
d="M 135.9482,113.6620
135.6972,113.6620
135.6149,113.6582
135.5499,113.6478
135.4900,113.6280
135.4356,113.5976
135.3927,113.5616
135.3545,113.5160
135.3208,113.4598
135.2959,113.3980
135.2806,113.3307
135.2754,113.2564
135.2755,113.2550
135.4652,113.2550
135.4681,113.3082
135.4761,113.3527
135.4887,113.3901
135.5070,113.4237
135.5313,113.4527
135.5623,113.4773
135.5920,113.4925
135.6221,113.5020
135.6570,113.5068
135.7182,113.5088
135.7646,113.5088
135.7646,113.0023
135.7182,113.0023
135.6626,113.0040
135.6295,113.0081
135.6006,113.0162
135.5719,113.0295
135.5376,113.0542
135.5109,113.0837
135.4908,113.1184
135.4770,113.1573
135.4683,113.2024
135.4652,113.2550
135.2755,113.2550
135.2804,113.1790
135.2947,113.1112
135.3177,113.0514
135.3496,112.9971
135.3880,112.9512
135.4337,112.9130
135.4801,112.8867
135.5399,112.8658
135.6060,112.8537
135.6900,112.8492
135.9482,112.8492
Z" /> 
<path style="fill:#000000; fill-opacity:1.0000; stroke:none;fill-rule:evenodd;"
d="M 135.1350,113.6620
134.8840,113.6620
134.8018,113.6582
134.7368,113.6478
134.6768,113.6280
134.6225,113.5976
134.5796,113.5616
134.5414,113.5160
134.5077,113.4598
134.4827,113.3980
134.4675,113.3307
134.4623,113.2564
134.4624,113.2550
134.6521,113.2550
134.6550,113.3082
134.6630,113.3527
134.6755,113.3901
134.6939,113.4237
134.7182,113.4527
134.7492,113.4773
134.7789,113.4925
134.8089,113.5020
134.8439,113.5068
134.9050,113.5088
134.9514,113.5088
134.9514,113.0023
134.9050,113.0023
134.8495,113.0040
134.8164,113.0081
134.7874,113.0162
134.7587,113.0295
134.7244,113.0542
134.6977,113.0837
134.6777,113.1184
134.6639,113.1573
134.6552,113.2024
134.6521,113.2550
134.4624,113.2550
134.4673,113.1790
134.4816,113.1112
134.5046,113.0514
134.5364,112.9971
134.5749,112.9512
134.6206,112.9130
134.6669,112.8867
134.7267,112.8658
134.7929,112.8537
134.8768,112.8492
135.1350,112.8492
Z" /> 
<path style="fill:#000000; fill-opacity:1.0000; stroke:none;fill-rule:evenodd;"
d="M 150.9737,96.9620
151.4490,96.9620
151.4490,96.8213
151.2988,96.8213
151.2988,96.3899
151.4490,96.3899
151.4490,96.2586
151.3830,96.2540
151.3530,96.2474
151.3304,96.2381
151.3082,96.2222
151.2931,96.2031
151.2835,96.1796
151.2787,96.1492
151.1205,96.1492
151.1205,96.8213
150.9737,96.8213
Z" /> 
<path style="fill:#000000; fill-opacity:1.0000; stroke:none;fill-rule:evenodd;"
d="M 150.3023,96.5796
150.2813,96.6045
150.2651,96.6331
150.2550,96.6667
150.2512,96.7145
150.2562,96.7702
150.2710,96.8215
150.2865,96.8527
150.3066,96.8810
150.3320,96.9067
150.3750,96.9366
150.4265,96.9594
150.4838,96.9727
150.5582,96.9776
150.6435,96.9733
150.7100,96.9617
150.7701,96.9439
150.8131,96.9260
150.8131,96.7463
150.7944,96.7463
150.7507,96.7728
150.6962,96.7968
150.6399,96.8132
150.5917,96.8182
150.5314,96.8130
150.5008,96.8043
150.4764,96.7900
150.4604,96.7746
150.4482,96.7565
150.4407,96.7342
150.4377,96.6997
150.4416,96.6666
150.4521,96.6441
150.4684,96.6274
150.4898,96.6161
150.5145,96.6095
150.5462,96.6064
150.6074,96.6056
150.6466,96.6056
150.6466,96.4649
150.6060,96.4649
150.5400,96.4622
150.5126,96.4575
150.4912,96.4497
150.4724,96.4373
150.4597,96.4224
150.4521,96.4028
150.4492,96.3722
150.4521,96.3496
150.4602,96.3329
150.4725,96.3196
150.4879,96.3092
150.5076,96.3013
150.5319,96.2962
150.5754,96.2930
150.6210,96.2972
150.6730,96.3107
150.7245,96.3322
150.7748,96.3617
150.7925,96.3617
150.7925,96.1850
150.7496,96.1683
150.6859,96.1502
150.6180,96.1377
150.5491,96.1335
150.4838,96.1371
150.4310,96.1468
150.3830,96.1631
150.3473,96.1824
150.3125,96.2125
150.2890,96.2470
150.2748,96.2873
150.2698,96.3359
150.2740,96.3793
150.2861,96.4190
150.3067,96.4561
150.3338,96.4870
150.3658,96.5094
150.4037,96.5236
150.4037,96.5310
150.3792,96.5366
150.3521,96.5463
150.3261,96.5603
Z" /> 
<path style="fill:#000000; fill-opacity:1.0000; stroke:none;fill-rule:evenodd;"
d="M 166.7462,113.6620
166.5635,113.6620
166.5635,113.3650
166.4789,113.3650
166.2847,113.6620
166.0605,113.6620
166.2982,113.3147
166.2550,113.2863
166.2205,113.2548
166.1937,113.2201
166.1740,113.1801
166.1615,113.1318
166.1589,113.0968
166.3469,113.0968
166.3494,113.1297
166.3558,113.1525
166.3669,113.1719
166.3837,113.1904
166.4057,113.2047
166.4335,113.2131
166.4649,113.2167
166.5071,113.2181
166.5635,113.2181
166.5635,112.9961
166.4971,112.9961
166.4392,112.9980
166.4153,113.0018
166.3957,113.0088
166.3722,113.0245
166.3580,113.0437
166.3498,113.0674
166.3469,113.0968
166.1589,113.0968
166.1571,113.0729
166.1599,113.0298
166.1680,112.9939
166.1807,112.9638
166.2084,112.9245
166.2446,112.8929
166.2857,112.8703
166.3297,112.8574
166.3773,112.8514
166.4382,112.8492
166.7462,112.8492
Z" /> 
<path style="fill:#000000; fill-opacity:1.0000; stroke:none;fill-rule:evenodd;"
d="M 165.3347,113.6620
165.5470,113.6620
165.7005,113.3945
165.8569,113.6620
166.0596,113.6620
165.8071,113.2526
166.0544,112.8492
165.8425,112.8492
165.6943,113.1024
165.5417,112.8492
165.3385,112.8492
165.5872,113.2444
Z" /> 
<path style="fill:#000000; fill-opacity:1.0000; stroke:none;fill-rule:evenodd;"
d="M 134.0339,113.6620
133.8513,113.6620
133.8513,113.3650
133.7667,113.3650
133.5725,113.6620
133.3482,113.6620
133.5859,113.3147
133.5427,113.2863
133.5083,113.2548
133.4814,113.2201
133.4617,113.1801
133.4493,113.1318
133.4466,113.0968
133.6347,113.0968
133.6371,113.1297
133.6435,113.1525
133.6546,113.1719
133.6715,113.1904
133.6934,113.2047
133.7212,113.2131
133.7527,113.2167
133.7949,113.2181
133.8513,113.2181
133.8513,112.9961
133.7848,112.9961
133.7270,112.9980
133.7031,113.0018
133.6834,113.0088
133.6600,113.0245
133.6457,113.0437
133.6376,113.0674
133.6347,113.0968
133.4466,113.0968
133.4448,113.0729
133.4477,113.0298
133.4558,112.9939
133.4685,112.9638
133.4961,112.9245
133.5323,112.8929
133.5735,112.8703
133.6174,112.8574
133.6650,112.8514
133.7260,112.8492
134.0339,112.8492
Z" /> 
<path style="fill:#000000; fill-opacity:1.0000; stroke:none;fill-rule:evenodd;"
d="M 132.6980,113.4069
132.7016,113.4535
132.7122,113.4956
132.7296,113.5341
132.7543,113.5696
132.7872,113.6025
132.8329,113.6337
132.8873,113.6572
132.9521,113.6723
133.0294,113.6776
133.1149,113.6728
133.1836,113.6598
133.2479,113.6392
133.3068,113.6144
133.3068,113.4181
133.2867,113.4181
133.2473,113.4515
133.2049,113.4793
133.1592,113.5016
133.1117,113.5181
133.0666,113.5276
133.0237,113.5307
132.9797,113.5273
132.9538,113.5224
132.9352,113.5158
132.9156,113.5040
132.9005,113.4902
132.8906,113.4721
132.8869,113.4446
132.8917,113.4199
132.9068,113.3984
132.9297,113.3820
132.9649,113.3685
133.0497,113.3481
133.0936,113.3370
133.1336,113.3237
133.1915,113.2968
133.2335,113.2665
133.2630,113.2332
133.2845,113.1929
133.2978,113.1462
133.3024,113.0912
133.2989,113.0474
133.2885,113.0076
133.2712,112.9711
133.2465,112.9371
133.2133,112.9055
133.1676,112.8751
133.1150,112.8527
133.0543,112.8385
132.9840,112.8335
132.9141,112.8374
132.8451,112.8490
132.7790,112.8671
132.7262,112.8878
132.7262,113.0743
132.7458,113.0743
132.7925,113.0383
132.8513,113.0074
132.8934,112.9924
132.9358,112.9834
132.9787,112.9805
133.0244,112.9842
133.0467,112.9895
133.0681,112.9980
133.0854,113.0087
133.1002,113.0239
133.1102,113.0425
133.1136,113.0633
133.1111,113.0836
133.1040,113.0997
133.0921,113.1128
133.0653,113.1276
133.0108,113.1443
132.9354,113.1623
132.8577,113.1864
132.8051,113.2109
132.7657,113.2389
132.7370,113.2698
132.7159,113.3073
132.7027,113.3523
Z" /> 
<path style="fill:#000000; fill-opacity:1.0000; stroke:none;fill-rule:evenodd;"
d="M 132.0147,113.0055
132.2371,113.0055
132.2371,113.6620
132.4207,113.6620
132.4207,113.0055
132.6430,113.0055
132.6430,112.8492
132.0147,112.8492
Z" /> 
</g>
<g style="fill:none; 
stroke:#000000; stroke-width:0.1600; stroke-opacity:1; 
stroke-linecap:round; stroke-linejoin:round;">
<path d="M134.0548 112.6780
L132.0652 112.6780
" />
<path style="fill:#000000; fill-opacity:1.0000; stroke:none;fill-rule:evenodd;"
d="M 163.5408,96.1376
163.5998,96.1492
163.6505,96.1673
163.6983,96.1935
163.7386,96.2252
163.7722,96.2622
163.8017,96.3068
163.8250,96.3555
163.8425,96.4089
163.8541,96.4647
163.8615,96.5276
163.8640,96.5987
163.8612,96.6671
163.8534,96.7258
163.8411,96.7759
163.8230,96.8234
163.8008,96.8634
163.7746,96.8969
163.7480,96.9217
163.7179,96.9419
163.6840,96.9577
163.6293,96.9725
163.5670,96.9776
163.5217,96.9751
163.4822,96.9678
163.4478,96.9564
163.3997,96.9303
163.3581,96.8949
163.3358,96.8682
163.3171,96.8376
163.3017,96.8025
163.2867,96.7460
163.2822,96.6929
163.4666,96.6929
163.4691,96.7337
163.4755,96.7612
163.4860,96.7848
163.4992,96.8046
163.5139,96.8187
163.5317,96.8289
163.5505,96.8351
163.5666,96.8369
163.5871,96.8350
163.6058,96.8291
163.6227,96.8191
163.6374,96.8046
163.6543,96.7783
163.6687,96.7391
163.6772,96.6931
163.6804,96.6298
163.6799,96.5985
163.6795,96.5807
163.6374,96.5673
163.5934,96.5618
163.5451,96.5675
163.5230,96.5756
163.5044,96.5883
163.4888,96.6056
163.4767,96.6285
163.4694,96.6556
163.4666,96.6929
163.2822,96.6929
163.2816,96.6850
163.2845,96.6322
163.2927,96.5883
163.3055,96.5517
163.3235,96.5181
163.3446,96.4900
163.3691,96.4668
163.4009,96.4461
163.4353,96.4320
163.4718,96.4240
163.5126,96.4211
163.5588,96.4251
163.6008,96.4367
163.6407,96.4546
163.6785,96.4772
163.6703,96.4324
163.6571,96.3943
163.6393,96.3620
163.6168,96.3347
163.5902,96.3133
163.5583,96.2974
163.5199,96.2872
163.4738,96.2836
163.4357,96.2860
163.4038,96.2926
163.3600,96.3086
163.3418,96.3086
163.3418,96.1473
163.3959,96.1390
163.4724,96.1335
Z" /> 
<path style="fill:#000000; fill-opacity:1.0000; stroke:none;fill-rule:evenodd;"
d="M 165.8359,96.6857
165.8383,96.7274
165.8453,96.7665
165.8567,96.8033
165.8727,96.8378
165.8928,96.8687
165.9172,96.8963
165.9478,96.9215
165.9814,96.9419
166.0184,96.9577
166.0778,96.9724
166.1487,96.9776
166.2309,96.9731
166.2933,96.9621
166.3494,96.9454
166.3897,96.9286
166.3897,96.7494
166.3696,96.7494
166.3247,96.7763
166.2759,96.7986
166.2254,96.8134
166.1759,96.8182
166.1453,96.8163
166.1106,96.8104
166.0782,96.7988
166.0549,96.7819
166.0403,96.7645
166.0303,96.7478
166.0244,96.7279
166.0219,96.6942
166.0249,96.6675
166.0332,96.6458
166.0461,96.6274
166.0621,96.6130
166.0898,96.5984
166.1243,96.5894
166.1903,96.5837
166.2328,96.5859
166.2728,96.5922
166.3419,96.6087
166.3629,96.6087
166.3629,96.1492
165.8565,96.1492
165.8565,96.3055
166.1903,96.3055
166.1903,96.4364
166.1527,96.4345
166.1128,96.4337
166.0557,96.4370
166.0078,96.4465
165.9639,96.4623
165.9282,96.4822
165.9012,96.5045
165.8787,96.5309
165.8603,96.5616
165.8473,96.5956
165.8389,96.6365
Z" /> 
<path style="fill:#000000; fill-opacity:1.0000; stroke:none;fill-rule:evenodd;"
d="M 169.0137,96.7069
169.0173,96.7535
169.0279,96.7956
169.0453,96.8341
169.0700,96.8696
169.1029,96.9025
169.1485,96.9337
169.2030,96.9572
169.2678,96.9723
169.3451,96.9776
169.4306,96.9728
169.4993,96.9598
169.5636,96.9392
169.6224,96.9144
169.6224,96.7181
169.6023,96.7181
169.5629,96.7515
169.5206,96.7793
169.4749,96.8016
169.4274,96.8181
169.3823,96.8276
169.3393,96.8307
169.2954,96.8273
169.2695,96.8224
169.2509,96.8158
169.2313,96.8040
169.2162,96.7902
169.2063,96.7721
169.2026,96.7446
169.2074,96.7199
169.2224,96.6984
169.2453,96.6820
169.2805,96.6685
169.3654,96.6480
169.4092,96.6370
169.4493,96.6237
169.5071,96.5968
169.5492,96.5665
169.5787,96.5332
169.6002,96.4929
169.6135,96.4462
169.6181,96.3912
169.6146,96.3474
169.6041,96.3076
169.5868,96.2711
169.5621,96.2371
169.5290,96.2055
169.4833,96.1751
169.4307,96.1527
169.3699,96.1385
169.2996,96.1335
169.2297,96.1374
169.1608,96.1490
169.0947,96.1671
169.0419,96.1878
169.0419,96.3743
169.0615,96.3743
169.1082,96.3383
169.1670,96.3074
169.2091,96.2924
169.2515,96.2834
169.2944,96.2805
169.3401,96.2842
169.3624,96.2895
169.3838,96.2980
169.4011,96.3087
169.4159,96.3239
169.4259,96.3425
169.4292,96.3633
169.4267,96.3836
169.4196,96.3997
169.4077,96.4128
169.3810,96.4276
169.3264,96.4443
169.2511,96.4623
169.1734,96.4864
169.1208,96.5109
169.0814,96.5389
169.0527,96.5698
169.0315,96.6073
169.0184,96.6523
Z" /> 
<path style="fill:#000000; fill-opacity:1.0000; stroke:none;fill-rule:evenodd;"
d="M 168.5657,96.9776
168.6182,96.9745
168.6669,96.9656
168.7122,96.9509
168.7554,96.9299
168.7937,96.9034
168.8277,96.8712
168.8571,96.8336
168.8820,96.7899
168.9026,96.7392
168.9169,96.6856
168.9259,96.6250
168.9291,96.5564
168.9261,96.4925
168.9176,96.4344
168.9038,96.3813
168.8841,96.3308
168.8595,96.2861
168.8301,96.2465
168.7973,96.2136
168.7591,96.1858
168.7151,96.1630
168.6687,96.1468
168.6189,96.1369
168.5652,96.1335
168.5213,96.1350
168.4842,96.1393
168.4174,96.1543
168.3593,96.1776
168.3137,96.2015
168.3137,96.3993
168.3347,96.3993
168.3685,96.3678
168.4146,96.3319
168.4417,96.3157
168.4715,96.3020
168.5028,96.2929
168.5370,96.2898
168.5750,96.2934
168.6106,96.3038
168.6438,96.3220
168.6752,96.3499
168.7001,96.3850
168.7209,96.4324
168.7336,96.4869
168.7383,96.5569
168.7360,96.6077
168.7295,96.6499
168.7194,96.6848
168.6974,96.7319
168.6718,96.7656
168.6408,96.7914
168.6068,96.8085
168.5708,96.8182
168.5360,96.8213
168.5028,96.8184
168.4698,96.8096
168.4381,96.7958
168.4093,96.7780
168.3658,96.7435
168.3328,96.7119
168.3137,96.7119
168.3137,96.9073
168.3649,96.9332
168.4160,96.9540
168.4815,96.9716
168.5150,96.9759
Z" /> 
<path style="fill:#000000; fill-opacity:1.0000; stroke:none;fill-rule:evenodd;"
d="M 167.6654,96.9620
168.1790,96.9620
168.1790,96.1492
167.9954,96.1492
167.9954,96.8057
167.6654,96.8057
Z" /> 
<path style="fill:#000000; fill-opacity:1.0000; stroke:none;fill-rule:evenodd;"
d="M 163.9012,113.4069
163.9048,113.4535
163.9154,113.4956
163.9328,113.5341
163.9575,113.5696
163.9904,113.6025
164.0361,113.6337
164.0905,113.6572
164.1554,113.6723
164.2326,113.6776
164.3181,113.6728
164.3868,113.6598
164.4511,113.6392
164.5100,113.6144
164.5100,113.4181
164.4899,113.4181
164.4505,113.4515
164.4081,113.4793
164.3624,113.5016
164.3149,113.5181
164.2698,113.5276
164.2269,113.5307
164.1829,113.5273
164.1570,113.5224
164.1384,113.5158
164.1188,113.5040
164.1037,113.4902
164.0938,113.4721
164.0901,113.4446
164.0949,113.4199
164.1100,113.3984
164.1329,113.3820
164.1681,113.3685
164.2529,113.3481
164.2968,113.3370
164.3368,113.3237
164.3947,113.2968
164.4367,113.2665
164.4662,113.2332
164.4877,113.1929
164.5010,113.1462
164.5056,113.0912
164.5021,113.0474
164.4917,113.0076
164.4744,112.9711
164.4497,112.9371
164.4165,112.9055
164.3708,112.8751
164.3182,112.8527
164.2575,112.8385
164.1872,112.8335
164.1173,112.8374
164.0483,112.8490
163.9823,112.8671
163.9294,112.8878
163.9294,113.0743
163.9490,113.0743
163.9957,113.0383
164.0545,113.0074
164.0966,112.9924
164.1390,112.9834
164.1819,112.9805
164.2276,112.9842
164.2499,112.9895
164.2713,112.9980
164.2886,113.0087
164.3034,113.0239
164.3134,113.0425
164.3168,113.0633
164.3143,113.0836
164.3072,113.0997
164.2953,113.1128
164.2685,113.1276
164.2140,113.1443
164.1386,113.1623
164.0609,113.1864
164.0083,113.2109
163.9689,113.2389
163.9402,113.2698
163.9191,113.3073
163.9059,113.3523
Z" /> 
<path style="fill:#000000; fill-opacity:1.0000; stroke:none;fill-rule:evenodd;"
d="M 163.7750,113.6620
163.5240,113.6620
163.4417,113.6582
163.3767,113.6478
163.3168,113.6280
163.2624,113.5976
163.2195,113.5616
163.1814,113.5160
163.1477,113.4598
163.1227,113.3980
163.1075,113.3307
163.1022,113.2564
163.1023,113.2550
163.2920,113.2550
163.2949,113.3082
163.3029,113.3527
163.3155,113.3901
163.3338,113.4237
163.3581,113.4527
163.3891,113.4773
163.4188,113.4925
163.4489,113.5020
163.4838,113.5068
163.5450,113.5088
163.5914,113.5088
163.5914,113.0023
163.5450,113.0023
163.4895,113.0040
163.4563,113.0081
163.4274,113.0162
163.3987,113.0295
163.3644,113.0542
163.3377,113.0837
163.3177,113.1184
163.3038,113.1573
163.2951,113.2024
163.2920,113.2550
163.1023,113.2550
163.1072,113.1790
163.1215,113.1112
163.1445,113.0514
163.1764,112.9971
163.2149,112.9512
163.2605,112.9130
163.3069,112.8867
163.3667,112.8658
163.4328,112.8537
163.5168,112.8492
163.7750,112.8492
Z" /> 
<path style="fill:#000000; fill-opacity:1.0000; stroke:none;fill-rule:evenodd;"
d="M 162.5769,113.6620
162.9939,113.6620
162.9939,113.5151
162.8772,113.5151
162.8772,112.9961
162.9939,112.9961
162.9939,112.8492
162.5769,112.8492
162.5769,112.9961
162.6936,112.9961
162.6936,113.5151
162.5769,113.5151
Z" /> 
<path style="fill:#000000; fill-opacity:1.0000; stroke:none;fill-rule:evenodd;"
d="M 145.9433,96.9620
146.4583,96.9620
146.4583,96.1492
145.9433,96.1492
145.9433,96.3055
146.2757,96.3055
146.2757,96.4462
145.9673,96.4462
145.9673,96.6025
146.2757,96.6025
146.2757,96.8057
145.9433,96.8057
Z" /> 
<path style="fill:#000000; fill-opacity:1.0000; stroke:none;fill-rule:evenodd;"
d="M 145.1420,96.9620
145.3190,96.9620
145.6212,96.4041
145.6212,96.9620
145.7895,96.9620
145.7895,96.1492
145.5700,96.1492
145.3103,96.6148
145.3103,96.1492
145.1420,96.1492
Z" /> 
<path style="fill:#000000; fill-opacity:1.0000; stroke:none;fill-rule:evenodd;"
d="M 144.2562,96.9620
143.9453,96.9620
143.8713,96.9578
143.8174,96.9468
143.7691,96.9264
143.7249,96.8956
143.6925,96.8612
143.6678,96.8188
143.6564,96.7872
143.6494,96.7523
143.6469,96.7138
143.6472,96.7116
143.8373,96.7116
143.8401,96.7398
143.8481,96.7639
143.8625,96.7836
143.8875,96.8003
143.9167,96.8106
143.9492,96.8145
144.0601,96.8151
144.0735,96.8151
144.0735,96.6119
144.0333,96.6119
143.9544,96.6124
143.9187,96.6148
143.8952,96.6201
143.8671,96.6339
143.8504,96.6516
143.8409,96.6755
143.8373,96.7116
143.6472,96.7116
143.6518,96.6615
143.6656,96.6186
143.6879,96.5831
143.7174,96.5545
143.7539,96.5326
143.7986,96.5177
143.7986,96.5133
143.7672,96.4938
143.7418,96.4704
143.7216,96.4430
143.7065,96.4116
143.6978,96.3784
143.8822,96.3784
143.8842,96.4040
143.8899,96.4253
143.9011,96.4430
143.9224,96.4584
143.9419,96.4656
143.9707,96.4695
144.0448,96.4712
144.0735,96.4712
144.0735,96.2961
144.0563,96.2961
143.9724,96.2969
143.9439,96.3000
143.9224,96.3066
143.9030,96.3197
143.8911,96.3372
143.8844,96.3581
143.8822,96.3784
143.6978,96.3784
143.6974,96.3771
143.6943,96.3386
143.6994,96.2899
143.7142,96.2480
143.7294,96.2238
143.7493,96.2027
143.7746,96.1848
143.8144,96.1661
143.8538,96.1558
143.8995,96.1511
143.9798,96.1492
144.2562,96.1492
Z" /> 
<path style="fill:#000000; fill-opacity:1.0000; stroke:none;fill-rule:evenodd;"
d="M 143.5894,96.9620
143.4044,96.9620
143.3551,96.7963
143.0912,96.7963
143.0419,96.9620
142.8521,96.9620
142.9532,96.6494
143.1357,96.6494
143.3106,96.6494
143.2232,96.3575
143.1357,96.6494
142.9532,96.6494
143.1151,96.1492
143.3264,96.1492
Z" /> 
<path style="fill:#000000; fill-opacity:1.0000; stroke:none;fill-rule:evenodd;"
d="M 142.1925,96.3055
142.4149,96.3055
142.4149,96.9620
142.5985,96.9620
142.5985,96.3055
142.8208,96.3055
142.8208,96.1492
142.1925,96.1492
Z" /> 
<path style="fill:#000000; fill-opacity:1.0000; stroke:none;fill-rule:evenodd;"
d="M 139.3794,95.6326
139.4313,95.6525
139.5061,95.6747
139.5852,95.6904
139.6634,95.6956
139.7371,95.6906
139.8011,95.6761
139.8568,95.6532
139.9055,95.6222
139.9480,95.5831
139.9841,95.5361
140.0124,95.4826
140.0332,95.4217
140.0462,95.3521
140.0508,95.2722
140.0463,95.1967
140.0334,95.1296
140.0125,95.0697
139.9839,95.0158
139.9470,94.9673
139.9041,94.9271
139.8548,94.8952
139.7981,94.8716
139.7329,94.8568
139.6577,94.8515
139.5884,94.8552
139.5238,94.8660
139.4593,94.8865
139.3823,94.9236
139.3823,95.1141
139.4028,95.1141
139.4421,95.0821
139.4918,95.0468
139.5210,95.0311
139.5566,95.0171
139.5944,95.0079
139.6352,95.0047
139.6825,95.0090
139.7237,95.0211
139.7612,95.0417
139.7949,95.0713
139.8215,95.1078
139.8425,95.1545
139.8554,95.2074
139.8600,95.2710
139.8555,95.3383
139.8431,95.3938
139.8236,95.4395
139.7973,95.4772
139.7643,95.5070
139.7237,95.5293
139.6737,95.5435
139.6123,95.5487
139.5891,95.5482
139.5659,95.5465
139.5659,95.3861
139.7079,95.3861
139.7079,95.2329
139.3794,95.2329
Z" /> 
<path style="fill:#000000; fill-opacity:1.0000; stroke:none;fill-rule:evenodd;"
d="M 138.6889,95.6800
138.8611,95.6800
138.8611,95.6140
138.9087,95.6518
138.9486,95.6772
138.9757,95.6888
139.0070,95.6962
139.0433,95.6988
139.0874,95.6947
139.1241,95.6832
139.1547,95.6651
139.1803,95.6402
139.2002,95.6096
139.2152,95.5717
139.2249,95.5249
139.2284,95.4673
139.2284,95.0672
139.0552,95.0672
139.0552,95.3719
139.0526,95.4493
139.0480,95.4786
139.0404,95.5005
139.0290,95.5180
139.0129,95.5300
138.9925,95.5367
138.9615,95.5393
138.9391,95.5371
138.9128,95.5300
138.8866,95.5186
138.8611,95.5027
138.8611,95.0672
138.6889,95.0672
Z" /> 
<path style="fill:#000000; fill-opacity:1.0000; stroke:none;fill-rule:evenodd;"
d="M 138.3544,95.6800
138.5265,95.6800
138.5265,95.0672
138.3544,95.0672
Z" /> 
<path style="fill:#000000; fill-opacity:1.0000; stroke:none;fill-rule:evenodd;"
d="M 138.3496,94.9797
138.5313,94.9797
138.5313,94.8296
138.3496,94.8296
Z" /> 
<path style="fill:#000000; fill-opacity:1.0000; stroke:none;fill-rule:evenodd;"
d="M 137.8420,95.0900
137.9054,95.0603
137.9385,95.0517
137.9845,95.0485
138.0304,95.0541
138.0773,95.0712
138.1204,95.0988
138.1562,95.1352
138.1866,95.1822
138.2105,95.2392
138.2212,95.2802
138.2280,95.3263
138.2303,95.3783
138.2262,95.4522
138.2145,95.5147
138.1961,95.5674
138.1715,95.6121
138.1393,95.6503
138.1031,95.6770
138.0620,95.6931
138.0147,95.6988
137.9660,95.6934
137.9253,95.6782
137.8867,95.6536
137.8420,95.6161
137.8420,95.6800
137.6699,95.6800
137.6699,95.2088
137.8420,95.2088
137.8420,95.5119
137.8634,95.5266
137.8885,95.5385
137.9146,95.5463
137.9382,95.5487
137.9766,95.5436
138.0050,95.5297
138.0257,95.5077
138.0396,95.4785
138.0492,95.4361
138.0529,95.3760
138.0487,95.3196
138.0370,95.2755
138.0190,95.2410
138.0005,95.2202
137.9780,95.2052
137.9506,95.1957
137.9171,95.1923
137.8803,95.1962
137.8420,95.2088
137.6699,95.2088
137.6699,94.8296
137.8420,94.8296
Z" /> 
<path style="fill:#000000; fill-opacity:1.0000; stroke:none;fill-rule:evenodd;"
d="M 137.2984,95.0525
137.3485,95.0639
137.3924,95.0819
137.4308,95.1064
137.4645,95.1374
137.4933,95.1747
137.5158,95.2166
137.5322,95.2640
137.5424,95.3176
137.5460,95.3786
137.5422,95.4402
137.5313,95.4935
137.5140,95.5399
137.4903,95.5803
137.4600,95.6156
137.4251,95.6438
137.3840,95.6666
137.3357,95.6838
137.2789,95.6948
137.2123,95.6988
137.1511,95.6956
137.0980,95.6867
137.0459,95.6714
136.9880,95.6478
136.9880,95.4893
137.0071,95.4893
137.0401,95.5134
137.0879,95.5383
137.1400,95.5555
137.1936,95.5612
137.2502,95.5562
137.2926,95.5428
137.3239,95.5226
137.3486,95.4936
137.3646,95.4572
137.3720,95.4111
136.9780,95.4111
136.9780,95.3422
136.9810,95.2955
137.1491,95.2955
137.3724,95.2955
137.3662,95.2534
137.3540,95.2225
137.3366,95.2002
137.3140,95.1840
137.2871,95.1740
137.2548,95.1704
137.2202,95.1744
137.1946,95.1852
137.1759,95.2018
137.1624,95.2245
137.1532,95.2550
137.1491,95.2955
136.9810,95.2955
136.9826,95.2712
136.9957,95.2126
137.0162,95.1642
137.0440,95.1242
137.0787,95.0927
137.1218,95.0692
137.1751,95.0540
137.2410,95.0485
Z" /> 
<path style="fill:#000000; fill-opacity:1.0000; stroke:none;fill-rule:evenodd;"
d="M 136.3650,95.0513
136.4266,95.0597
136.5153,95.0790
136.5153,95.2267
136.4995,95.2267
136.4302,95.2002
136.3824,95.1870
136.3393,95.1829
136.2920,95.1856
136.2572,95.1925
136.2322,95.2025
136.2122,95.2189
136.2002,95.2418
136.1959,95.2734
136.1959,95.2767
136.2712,95.2831
136.3427,95.2921
136.4101,95.3068
136.4613,95.3273
136.4918,95.3463
136.5164,95.3688
136.5359,95.3949
136.5500,95.4248
136.5590,95.4611
136.5622,95.5053
136.5588,95.5465
136.5491,95.5829
136.5332,95.6152
136.5106,95.6443
136.4834,95.6680
136.4534,95.6849
136.4200,95.6952
136.3824,95.6988
136.3506,95.6969
136.3227,95.6916
136.2959,95.6828
136.2701,95.6707
136.2313,95.6439
136.1969,95.6150
136.1969,95.6800
136.0262,95.6800
136.0262,95.5205
136.1969,95.5205
136.2184,95.5382
136.2435,95.5523
136.2702,95.5614
136.2958,95.5643
136.3262,95.5628
136.3437,95.5591
136.3580,95.5524
136.3699,95.5430
136.3796,95.5313
136.3843,95.5200
136.3872,95.4888
136.3836,95.4619
136.3735,95.4420
136.3575,95.4267
136.3341,95.4148
136.3105,95.4082
136.2725,95.4014
136.1969,95.3924
136.1969,95.5205
136.0262,95.5205
136.0262,95.2622
136.0307,95.2081
136.0434,95.1644
136.0635,95.1289
136.0914,95.1002
136.1242,95.0799
136.1685,95.0636
136.2271,95.0526
136.3035,95.0485
Z" /> 
<path style="fill:#000000; fill-opacity:1.0000; stroke:none;fill-rule:evenodd;"
d="M 135.5242,95.6749
135.5830,95.6878
135.6591,95.6925
135.7103,95.6890
135.7511,95.6795
135.7833,95.6650
135.8085,95.6462
135.8285,95.6212
135.8438,95.5880
135.8538,95.5444
135.8575,95.4877
135.8575,95.2017
135.9283,95.2017
135.9283,95.0672
135.8575,95.0672
135.8575,94.8922
135.6854,94.8922
135.6854,95.0672
135.5242,95.0672
135.5242,95.2017
135.6854,95.2017
135.6854,95.4179
135.6849,95.4739
135.6827,95.4969
135.6773,95.5168
135.6681,95.5337
135.6536,95.5469
135.6344,95.5549
135.6041,95.5581
135.5689,95.5515
135.5386,95.5393
135.5242,95.5393
Z" /> 
<path style="fill:#000000; fill-opacity:1.0000; stroke:none;fill-rule:evenodd;"
d="M 135.2165,95.2830
135.3954,95.2830
135.3954,95.0672
135.2165,95.0672
Z" /> 
<path style="fill:#000000; fill-opacity:1.0000; stroke:none;fill-rule:evenodd;"
d="M 135.2165,95.6800
135.3954,95.6800
135.3954,95.4643
135.2165,95.4643
Z" /> 
<path style="fill:#000000; fill-opacity:1.0000; stroke:none;fill-rule:evenodd;"
d="M 139.8466,97.0240
140.0187,97.0240
140.0187,96.1736
139.8466,96.1736
Z" /> 
<path style="fill:#000000; fill-opacity:1.0000; stroke:none;fill-rule:evenodd;"
d="M 139.4856,96.3964
139.5344,96.4075
139.5767,96.4252
139.6136,96.4490
139.6458,96.4791
139.6730,96.5153
139.6944,96.5564
139.7102,96.6032
139.7200,96.6566
139.7235,96.7179
139.7201,96.7787
139.7103,96.8318
139.6947,96.8785
139.6734,96.9196
139.6463,96.9558
139.6143,96.9860
139.5775,97.0099
139.5351,97.0276
139.4861,97.0388
139.4294,97.0428
139.3728,97.0388
139.3238,97.0276
139.2813,97.0099
139.2445,96.9860
139.2126,96.9558
139.1855,96.9196
139.1642,96.8785
139.1486,96.8318
139.1388,96.7787
139.1354,96.7190
139.3137,96.7190
139.3161,96.7739
139.3221,96.8099
139.3327,96.8408
139.3472,96.8661
139.3637,96.8843
139.3833,96.8963
139.4050,96.9029
139.4280,96.9052
139.4543,96.9026
139.4766,96.8954
139.4962,96.8829
139.5131,96.8645
139.5266,96.8397
139.5370,96.8056
139.5430,96.7672
139.5452,96.7190
139.5426,96.6655
139.5358,96.6261
139.5244,96.5919
139.5107,96.5680
139.4920,96.5485
139.4737,96.5377
139.4535,96.5320
139.4294,96.5300
139.4052,96.5324
139.3831,96.5393
139.3633,96.5516
139.3462,96.5708
139.3331,96.5950
139.3223,96.6289
139.3161,96.6674
139.3137,96.7190
139.1354,96.7190
139.1353,96.7179
139.1388,96.6571
139.1485,96.6039
139.1640,96.5572
139.1852,96.5160
139.2121,96.4797
139.2439,96.4495
139.2806,96.4255
139.3231,96.4077
139.3723,96.3965
139.4294,96.3925
Z" /> 
<path style="fill:#000000; fill-opacity:1.0000; stroke:none;fill-rule:evenodd;"
d="M 138.6228,96.6019
138.6381,96.6019
138.6735,96.5949
138.7141,96.5926
138.7499,96.5940
138.7792,96.5980
138.8077,96.6051
138.8399,96.6164
138.8399,97.0240
139.0120,97.0240
139.0120,96.4112
138.8399,96.4112
138.8399,96.5014
138.8004,96.4659
138.7678,96.4425
138.7409,96.4285
138.6993,96.4153
138.6634,96.4112
138.6429,96.4118
138.6228,96.4134
Z" /> 
<path style="fill:#000000; fill-opacity:1.0000; stroke:none;fill-rule:evenodd;"
d="M 138.1751,96.4340
138.2385,96.4043
138.2716,96.3957
138.3176,96.3925
138.3635,96.3981
138.4103,96.4152
138.4534,96.4428
138.4892,96.4792
138.5197,96.5262
138.5435,96.5832
138.5543,96.6242
138.5610,96.6703
138.5634,96.7223
138.5592,96.7962
138.5475,96.8587
138.5292,96.9114
138.5045,96.9561
138.4724,96.9943
138.4362,97.0210
138.3950,97.0371
138.3477,97.0428
138.2991,97.0374
138.2583,97.0222
138.2197,96.9976
138.1751,96.9601
138.1751,97.0240
138.0029,97.0240
138.0029,96.5528
138.1751,96.5528
138.1751,96.8559
138.1964,96.8706
138.2215,96.8825
138.2476,96.8903
138.2712,96.8927
138.3097,96.8876
138.3380,96.8737
138.3588,96.8517
138.3727,96.8225
138.3823,96.7801
138.3860,96.7200
138.3817,96.6636
138.3701,96.6195
138.3520,96.5850
138.3336,96.5643
138.3111,96.5492
138.2837,96.5397
138.2502,96.5363
138.2133,96.5402
138.1751,96.5528
138.0029,96.5528
138.0029,96.1736
138.1751,96.1736
Z" /> 
<path style="fill:#000000; fill-opacity:1.0000; stroke:none;fill-rule:evenodd;"
d="M 137.3732,96.8304
137.3778,96.8758
137.3914,96.9158
137.4142,96.9517
137.4477,96.9843
137.4857,97.0085
137.5313,97.0267
137.5862,97.0385
137.6519,97.0428
137.7218,97.0388
137.7820,97.0276
137.8372,97.0106
137.8757,96.9939
137.8757,96.8333
137.8600,96.8333
137.8301,96.8546
137.7820,96.8796
137.7213,96.8999
137.6866,96.9062
137.6486,96.9083
137.6013,96.9047
137.5735,96.8961
137.5593,96.8860
137.5517,96.8742
137.5491,96.8600
137.5529,96.8403
137.5635,96.8274
137.5813,96.8185
137.6180,96.8079
137.6699,96.7972
137.7294,96.7832
137.7765,96.7646
137.8119,96.7417
137.8379,96.7149
137.8574,96.6820
137.8692,96.6439
137.8733,96.5994
137.8689,96.5573
137.8557,96.5194
137.8332,96.4843
137.7999,96.4515
137.7626,96.4271
137.7176,96.4086
137.6638,96.3967
137.5993,96.3925
137.5399,96.3960
137.4839,96.4065
137.4319,96.4220
137.3976,96.4364
137.3976,96.5926
137.4124,96.5926
137.4527,96.5665
137.4997,96.5452
137.5491,96.5315
137.5989,96.5269
137.6386,96.5303
137.6689,96.5394
137.6859,96.5499
137.6946,96.5615
137.6974,96.5747
137.6940,96.5944
137.6844,96.6082
137.6669,96.6181
137.6237,96.6312
137.5671,96.6430
137.5061,96.6575
137.4624,96.6748
137.4297,96.6963
137.4057,96.7215
137.3879,96.7524
137.3770,96.7882
Z" /> 
<path style="fill:#000000; fill-opacity:1.0000; stroke:none;fill-rule:evenodd;"
d="M 137.2586,97.0240
137.0936,97.0240
137.0864,96.9934
137.0550,97.0118
137.0219,97.0253
136.9864,97.0335
136.9430,97.0365
136.8924,97.0307
136.8471,97.0137
136.8059,96.9856
136.7682,96.9451
136.7382,96.8973
136.7164,96.8429
136.7029,96.7805
136.6985,96.7142
136.8755,96.7142
136.8799,96.7747
136.8915,96.8197
136.9090,96.8527
136.9271,96.8723
136.9494,96.8866
136.9769,96.8957
137.0109,96.8989
137.0510,96.8962
137.0864,96.8858
137.0864,96.5756
137.0624,96.5614
137.0372,96.5511
137.0114,96.5446
136.9870,96.5425
136.9559,96.5458
136.9321,96.5547
136.9137,96.5684
136.9000,96.5871
136.8872,96.6181
136.8787,96.6596
136.8755,96.7142
136.6985,96.7142
136.6981,96.7085
136.7021,96.6337
136.7131,96.5714
136.7303,96.5196
136.7531,96.4766
136.7833,96.4400
136.8187,96.4141
136.8604,96.3981
136.9100,96.3925
136.9456,96.3951
136.9772,96.4027
137.0054,96.4149
137.0458,96.4403
137.0864,96.4733
137.0864,96.1736
137.2586,96.1736
Z" /> 
<path style="fill:#000000; fill-opacity:1.0000; stroke:none;fill-rule:evenodd;"
d="M 136.3746,96.3964
136.4234,96.4075
136.4658,96.4252
136.5027,96.4490
136.5348,96.4791
136.5621,96.5153
136.5835,96.5564
136.5992,96.6032
136.6090,96.6566
136.6125,96.7179
136.6091,96.7787
136.5993,96.8318
136.5837,96.8785
136.5624,96.9196
136.5353,96.9558
136.5034,96.9860
136.4665,97.0099
136.4241,97.0276
136.3751,97.0388
136.3184,97.0428
136.2618,97.0388
136.2128,97.0276
136.1704,97.0099
136.1336,96.9860
136.1016,96.9558
136.0745,96.9196
136.0532,96.8785
136.0376,96.8318
136.0278,96.7787
136.0244,96.7190
136.2027,96.7190
136.2051,96.7739
136.2111,96.8099
136.2218,96.8408
136.2362,96.8661
136.2527,96.8843
136.2723,96.8963
136.2941,96.9029
136.3170,96.9052
136.3433,96.9026
136.3656,96.8954
136.3852,96.8829
136.4021,96.8645
136.4156,96.8397
136.4261,96.8056
136.4320,96.7672
136.4342,96.7190
136.4316,96.6655
136.4249,96.6261
136.4134,96.5919
136.3997,96.5680
136.3810,96.5485
136.3627,96.5377
136.3425,96.5320
136.3184,96.5300
136.2942,96.5324
136.2721,96.5393
136.2523,96.5516
136.2353,96.5708
136.2221,96.5950
136.2114,96.6289
136.2051,96.6674
136.2027,96.7190
136.0244,96.7190
136.0244,96.7179
136.0278,96.6571
136.0375,96.6039
136.0531,96.5572
136.0742,96.5160
136.1011,96.4797
136.1329,96.4495
136.1696,96.4255
136.2121,96.4077
136.2614,96.3965
136.3184,96.3925
Z" /> 
<path style="fill:#000000; fill-opacity:1.0000; stroke:none;fill-rule:evenodd;"
d="M 135.7441,96.3953
135.8057,96.4037
135.8944,96.4230
135.8944,96.5707
135.8786,96.5707
135.8093,96.5442
135.7614,96.5310
135.7184,96.5269
135.6710,96.5296
135.6362,96.5365
135.6113,96.5465
135.5912,96.5629
135.5792,96.5858
135.5749,96.6174
135.5749,96.6207
135.6503,96.6271
135.7218,96.6361
135.7892,96.6508
135.8403,96.6713
135.8708,96.6903
135.8954,96.7128
135.9150,96.7389
135.9291,96.7688
135.9380,96.8051
135.9412,96.8493
135.9379,96.8905
135.9282,96.9269
135.9122,96.9592
135.8896,96.9883
135.8625,97.0120
135.8325,97.0289
135.7990,97.0392
135.7615,97.0428
135.7297,97.0409
135.7017,97.0356
135.6749,97.0268
135.6491,97.0147
135.6104,96.9879
135.5759,96.9590
135.5759,97.0240
135.4052,97.0240
135.4052,96.8645
135.5759,96.8645
135.5974,96.8822
135.6226,96.8963
135.6492,96.9054
135.6749,96.9083
135.7052,96.9068
135.7227,96.9031
135.7371,96.8964
135.7490,96.8870
135.7586,96.8753
135.7633,96.8640
135.7662,96.8328
135.7626,96.8059
135.7526,96.7860
135.7366,96.7707
135.7131,96.7588
135.6896,96.7522
135.6515,96.7454
135.5759,96.7364
135.5759,96.8645
135.4052,96.8645
135.4052,96.6062
135.4097,96.5521
135.4224,96.5084
135.4425,96.4729
135.4705,96.4442
135.5033,96.4239
135.5475,96.4076
135.6062,96.3966
135.6825,96.3925
Z" /> 
<path style="fill:#000000; fill-opacity:1.0000; stroke:none;fill-rule:evenodd;"
d="M 134.8573,96.6019
134.8726,96.6019
134.9080,96.5949
134.9487,96.5926
134.9844,96.5940
135.0137,96.5980
135.0423,96.6051
135.0745,96.6164
135.0745,97.0240
135.2466,97.0240
135.2466,96.4112
135.0745,96.4112
135.0745,96.5014
135.0350,96.4659
135.0024,96.4425
134.9755,96.4285
134.9339,96.4153
134.8980,96.4112
134.8774,96.4118
134.8573,96.4134
Z" /> 
<path style="fill:#000000; fill-opacity:1.0000; stroke:none;fill-rule:evenodd;"
d="M 134.4096,96.4340
134.4730,96.4043
134.5062,96.3957
134.5522,96.3925
134.5980,96.3981
134.6449,96.4152
134.6880,96.4428
134.7238,96.4792
134.7542,96.5262
134.7781,96.5832
134.7888,96.6242
134.7956,96.6703
134.7979,96.7223
134.7938,96.7962
134.7821,96.8587
134.7637,96.9114
134.7391,96.9561
134.7069,96.9943
134.6707,97.0210
134.6296,97.0371
134.5823,97.0428
134.5336,97.0374
134.4929,97.0222
134.4543,96.9976
134.4096,96.9601
134.4096,97.0240
134.2375,97.0240
134.2375,96.5528
134.4096,96.5528
134.4096,96.8559
134.4310,96.8706
134.4561,96.8825
134.4822,96.8903
134.5058,96.8927
134.5443,96.8876
134.5726,96.8737
134.5933,96.8517
134.6072,96.8225
134.6168,96.7801
134.6205,96.7200
134.6163,96.6636
134.6047,96.6195
134.5866,96.5850
134.5681,96.5643
134.5456,96.5492
134.5182,96.5397
134.4847,96.5363
134.4479,96.5402
134.4096,96.5528
134.2375,96.5528
134.2375,96.1736
134.4096,96.1736
Z" /> 
<path style="fill:#000000; fill-opacity:1.0000; stroke:none;fill-rule:evenodd;"
d="M 133.6077,96.8304
133.6124,96.8758
133.6260,96.9158
133.6488,96.9517
133.6823,96.9843
133.7202,97.0085
133.7659,97.0267
133.8207,97.0385
133.8865,97.0428
133.9564,97.0388
134.0165,97.0276
134.0718,97.0106
134.1103,96.9939
134.1103,96.8333
134.0945,96.8333
134.0646,96.8546
134.0165,96.8796
133.9559,96.8999
133.9212,96.9062
133.8831,96.9083
133.8359,96.9047
133.8081,96.8961
133.7939,96.8860
133.7862,96.8742
133.7837,96.8600
133.7874,96.8403
133.7980,96.8274
133.8158,96.8185
133.8525,96.8079
133.9044,96.7972
133.9640,96.7832
134.0110,96.7646
134.0465,96.7417
134.0725,96.7149
134.0919,96.6820
134.1038,96.6439
134.1079,96.5994
134.1034,96.5573
134.0902,96.5194
134.0678,96.4843
134.0345,96.4515
133.9971,96.4271
133.9522,96.4086
133.8983,96.3967
133.8339,96.3925
133.7745,96.3960
133.7184,96.4065
133.6664,96.4220
133.6321,96.4364
133.6321,96.5926
133.6470,96.5926
133.6873,96.5665
133.7342,96.5452
133.7837,96.5315
133.8334,96.5269
133.8732,96.5303
133.9035,96.5394
133.9205,96.5499
133.9292,96.5615
133.9319,96.5747
133.9286,96.5944
133.9190,96.6082
133.9014,96.6181
133.8583,96.6312
133.8016,96.6430
133.7406,96.6575
133.6970,96.6748
133.6642,96.6963
133.6402,96.7215
133.6224,96.7524
133.6115,96.7882
Z" /> 
<path style="fill:#000000; fill-opacity:1.0000; stroke:none;fill-rule:evenodd;"
d="M 133.3081,97.0240
133.4869,97.0240
133.4869,96.8083
133.3081,96.8083
Z" /> 
<path style="fill:#000000; fill-opacity:1.0000; stroke:none;fill-rule:evenodd;"
d="M 132.8598,97.0428
132.9283,97.0378
132.9882,97.0236
133.0258,97.0081
133.0594,96.9884
133.0893,96.9642
133.1154,96.9354
133.1374,96.9019
133.1553,96.8631
133.1680,96.8217
133.1760,96.7744
133.1788,96.7204
133.1757,96.6634
133.1672,96.6142
133.1537,96.5716
133.1345,96.5318
133.1112,96.4974
133.0836,96.4677
133.0534,96.4442
133.0201,96.4252
132.9832,96.4106
132.9254,96.3971
132.8651,96.3925
132.8114,96.3960
132.7637,96.4061
132.7185,96.4218
132.6772,96.4414
132.6772,96.6082
132.7016,96.6082
132.7257,96.5867
132.7604,96.5625
132.8034,96.5438
132.8279,96.5383
132.8579,96.5363
132.8919,96.5397
132.9201,96.5493
132.9439,96.5646
132.9638,96.5858
132.9837,96.6211
132.9964,96.6652
133.0009,96.7203
132.9961,96.7772
132.9831,96.8205
132.9629,96.8535
132.9351,96.8780
132.8999,96.8934
132.8551,96.8989
132.8235,96.8968
132.7965,96.8908
132.7717,96.8816
132.7532,96.8716
132.7245,96.8496
132.7016,96.8270
132.6772,96.8270
132.6772,96.9951
132.7186,97.0147
132.7621,97.0299
132.8076,97.0394
Z" /> 
<path style="fill:#000000; fill-opacity:1.0000; stroke:none;fill-rule:evenodd;"
d="M 132.3644,96.3964
132.4131,96.4075
132.4555,96.4252
132.4924,96.4490
132.5245,96.4791
132.5518,96.5153
132.5732,96.5564
132.5889,96.6032
132.5988,96.6566
132.6022,96.7179
132.5988,96.7787
132.5890,96.8318
132.5734,96.8785
132.5521,96.9196
132.5250,96.9558
132.4931,96.9860
132.4562,97.0099
132.4138,97.0276
132.3648,97.0388
132.3082,97.0428
132.2515,97.0388
132.2025,97.0276
132.1601,97.0099
132.1233,96.9860
132.0913,96.9558
132.0642,96.9196
132.0429,96.8785
132.0273,96.8318
132.0175,96.7787
132.0142,96.7190
132.1925,96.7190
132.1949,96.7739
132.2008,96.8099
132.2115,96.8408
132.2259,96.8661
132.2425,96.8843
132.2621,96.8963
132.2838,96.9029
132.3068,96.9052
132.3331,96.9026
132.3553,96.8954
132.3750,96.8829
132.3919,96.8645
132.4053,96.8397
132.4158,96.8056
132.4217,96.7672
132.4239,96.7190
132.4213,96.6655
132.4146,96.6261
132.4031,96.5919
132.3895,96.5680
132.3708,96.5485
132.3525,96.5377
132.3322,96.5320
132.3082,96.5300
132.2840,96.5324
132.2618,96.5393
132.2420,96.5516
132.2250,96.5708
132.2118,96.5950
132.2011,96.6289
132.1948,96.6674
132.1925,96.7190
132.0142,96.7190
132.0141,96.7179
132.0175,96.6571
132.0272,96.6039
132.0428,96.5572
132.0639,96.5160
132.0909,96.4797
132.1226,96.4495
132.1594,96.4255
132.2019,96.4077
132.2511,96.3965
132.3082,96.3925
Z" /> 
<path style="fill:#000000; fill-opacity:1.0000; stroke:none;fill-rule:evenodd;"
d="M 131.3657,96.5886
131.3657,97.0240
131.5388,97.0240
131.5388,96.7171
131.5408,96.6408
131.5446,96.6111
131.5513,96.5897
131.5621,96.5727
131.5774,96.5610
131.5967,96.5545
131.6264,96.5519
131.6513,96.5549
131.6756,96.5637
131.7187,96.5886
131.7187,97.0240
131.8908,97.0240
131.8908,96.4112
131.7187,96.4112
131.7187,96.4773
131.6739,96.4408
131.6335,96.4149
131.5912,96.3982
131.5436,96.3925
131.5089,96.3956
131.4779,96.4047
131.4499,96.4196
131.4250,96.4402
131.4039,96.4665
131.3863,96.4992
131.3340,96.4537
131.2859,96.4210
131.2527,96.4048
131.2210,96.3955
131.1902,96.3925
131.1472,96.3967
131.1117,96.4083
131.0823,96.4268
131.0580,96.4521
131.0393,96.4830
131.0252,96.5210
131.0161,96.5673
131.0129,96.6240
131.0129,97.0240
131.1860,97.0240
131.1860,96.7171
131.1876,96.6405
131.1913,96.6111
131.1979,96.5897
131.2084,96.5727
131.2237,96.5610
131.2434,96.5545
131.2735,96.5519
131.2947,96.5540
131.3155,96.5604
Z" /> 
<path style="fill:#000000; fill-opacity:1.0000; stroke:none;fill-rule:evenodd;"
d="M 130.3505,96.1736
130.7297,97.2022
130.8765,97.2022
130.4988,96.1736
Z" /> 
<path style="fill:#000000; fill-opacity:1.0000; stroke:none;fill-rule:evenodd;"
d="M 129.7891,96.6019
129.8044,96.6019
129.8398,96.5949
129.8804,96.5926
129.9162,96.5940
129.9455,96.5980
129.9740,96.6051
130.0062,96.6164
130.0062,97.0240
130.1784,97.0240
130.1784,96.4112
130.0062,96.4112
130.0062,96.5014
129.9667,96.4659
129.9341,96.4425
129.9072,96.4285
129.8657,96.4153
129.8297,96.4112
129.8092,96.4118
129.7891,96.4134
Z" /> 
<path style="fill:#000000; fill-opacity:1.0000; stroke:none;fill-rule:evenodd;"
d="M 129.4928,96.3964
129.5415,96.4075
129.5839,96.4252
129.6208,96.4490
129.6529,96.4791
129.6802,96.5153
129.7016,96.5564
129.7173,96.6032
129.7272,96.6566
129.7306,96.7179
129.7272,96.7787
129.7174,96.8318
129.7018,96.8785
129.6805,96.9196
129.6534,96.9558
129.6215,96.9860
129.5846,97.0099
129.5422,97.0276
129.4932,97.0388
129.4366,97.0428
129.3799,97.0388
129.3309,97.0276
129.2885,97.0099
129.2517,96.9860
129.2197,96.9558
129.1926,96.9196
129.1713,96.8785
129.1557,96.8318
129.1459,96.7787
129.1426,96.7190
129.3209,96.7190
129.3232,96.7739
129.3292,96.8099
129.3399,96.8408
129.3543,96.8661
129.3709,96.8843
129.3904,96.8963
129.4122,96.9029
129.4351,96.9052
129.4614,96.9026
129.4837,96.8954
129.5034,96.8829
129.5202,96.8645
129.5337,96.8397
129.5442,96.8056
129.5501,96.7672
129.5523,96.7190
129.5497,96.6655
129.5430,96.6261
129.5315,96.5919
129.5179,96.5680
129.4991,96.5485
129.4808,96.5377
129.4606,96.5320
129.4366,96.5300
129.4123,96.5324
129.3902,96.5393
129.3704,96.5516
129.3534,96.5708
129.3402,96.5950
129.3295,96.6289
129.3232,96.6674
129.3209,96.7190
129.1426,96.7190
129.1425,96.7179
129.1459,96.6571
129.1556,96.6039
129.1712,96.5572
129.1923,96.5160
129.2193,96.4797
129.2510,96.4495
129.2878,96.4255
129.3303,96.4077
129.3795,96.3965
129.4366,96.3925
Z" /> 
<path style="fill:#000000; fill-opacity:1.0000; stroke:none;fill-rule:evenodd;"
d="M 128.7767,96.8082
128.6543,96.4112
128.4774,96.4112
128.7758,97.2491
128.9623,97.2491
128.8771,97.0209
129.0861,96.4112
128.9054,96.4112
Z" /> 
<path style="fill:#000000; fill-opacity:1.0000; stroke:none;fill-rule:evenodd;"
d="M 128.2248,96.3953
128.2864,96.4037
128.3751,96.4230
128.3751,96.5707
128.3593,96.5707
128.2900,96.5442
128.2421,96.5310
128.1991,96.5269
128.1518,96.5296
128.1170,96.5365
128.0920,96.5465
128.0720,96.5629
128.0600,96.5858
128.0557,96.6174
128.0557,96.6207
128.1310,96.6271
128.2025,96.6361
128.2699,96.6508
128.3211,96.6713
128.3515,96.6903
128.3762,96.7128
128.3957,96.7389
128.4098,96.7688
128.4188,96.8051
128.4220,96.8493
128.4186,96.8905
128.4089,96.9269
128.3929,96.9592
128.3703,96.9883
128.3432,97.0120
128.3132,97.0289
128.2798,97.0392
128.2422,97.0428
128.2104,97.0409
128.1825,97.0356
128.1557,97.0268
128.1298,97.0147
128.0911,96.9879
128.0567,96.9590
128.0567,97.0240
127.8859,97.0240
127.8859,96.8645
128.0567,96.8645
128.0781,96.8822
128.1033,96.8963
128.1299,96.9054
128.1556,96.9083
128.1860,96.9068
128.2034,96.9031
128.2178,96.8964
128.2297,96.8870
128.2394,96.8753
128.2441,96.8640
128.2469,96.8328
128.2434,96.8059
128.2333,96.7860
128.2173,96.7707
128.1939,96.7588
128.1703,96.7522
128.1322,96.7454
128.0567,96.7364
128.0567,96.8645
127.8859,96.8645
127.8859,96.6062
127.8905,96.5521
127.9031,96.5084
127.9233,96.4729
127.9512,96.4442
127.9840,96.4239
128.0283,96.4076
128.0869,96.3966
128.1633,96.3925
Z" /> 
<path style="fill:#000000; fill-opacity:1.0000; stroke:none;fill-rule:evenodd;"
d="M 127.5552,97.0240
127.7273,97.0240
127.7273,96.1736
127.5552,96.1736
Z" /> 
<path style="fill:#000000; fill-opacity:1.0000; stroke:none;fill-rule:evenodd;"
d="M 127.3929,97.0240
127.2280,97.0240
127.2208,96.9934
127.1893,97.0118
127.1562,97.0253
127.1208,97.0335
127.0773,97.0365
127.0267,97.0307
126.9814,97.0137
126.9403,96.9856
126.9025,96.9451
126.8726,96.8973
126.8508,96.8429
126.8372,96.7805
126.8328,96.7142
127.0099,96.7142
127.0142,96.7747
127.0258,96.8197
127.0434,96.8527
127.0614,96.8723
127.0838,96.8866
127.1113,96.8957
127.1452,96.8989
127.1854,96.8962
127.2208,96.8858
127.2208,96.5756
127.1967,96.5614
127.1715,96.5511
127.1458,96.5446
127.1213,96.5425
127.0903,96.5458
127.0664,96.5547
127.0481,96.5684
127.0343,96.5871
127.0216,96.6181
127.0131,96.6596
127.0099,96.7142
126.8328,96.7142
126.8325,96.7085
126.8364,96.6337
126.8475,96.5714
126.8647,96.5196
126.8875,96.4766
126.9177,96.4400
126.9531,96.4141
126.9948,96.3981
127.0443,96.3925
127.0799,96.3951
127.1115,96.4027
127.1397,96.4149
127.1802,96.4403
127.2208,96.4733
127.2208,96.1736
127.3929,96.1736
Z" /> 
<path style="fill:#000000; fill-opacity:1.0000; stroke:none;fill-rule:evenodd;"
d="M 126.5355,97.0240
126.7077,97.0240
126.7077,96.1736
126.5355,96.1736
Z" /> 
<path style="fill:#000000; fill-opacity:1.0000; stroke:none;fill-rule:evenodd;"
d="M 125.8382,97.0240
126.0103,97.0240
126.0103,96.9580
126.0579,96.9958
126.0979,97.0212
126.1249,97.0328
126.1562,97.0402
126.1925,97.0428
126.2366,97.0387
126.2733,97.0272
126.3040,97.0091
126.3295,96.9842
126.3494,96.9536
126.3644,96.9157
126.3741,96.8689
126.3776,96.8113
126.3776,96.4112
126.2045,96.4112
126.2045,96.7159
126.2018,96.7933
126.1972,96.8226
126.1896,96.8445
126.1782,96.8620
126.1621,96.8740
126.1417,96.8807
126.1107,96.8833
126.0883,96.8811
126.0620,96.8740
126.0358,96.8626
126.0103,96.8467
126.0103,96.4112
125.8382,96.4112
Z" /> 
<path style="fill:#000000; fill-opacity:1.0000; stroke:none;fill-rule:evenodd;"
d="M 125.4673,96.3965
125.5174,96.4078
125.5612,96.4259
125.5997,96.4504
125.6334,96.4814
125.6622,96.5187
125.6846,96.5606
125.7011,96.6080
125.7113,96.6616
125.7149,96.7226
125.7111,96.7842
125.7002,96.8375
125.6829,96.8839
125.6592,96.9243
125.6288,96.9596
125.5940,96.9878
125.5529,97.0106
125.5045,97.0278
125.4478,97.0388
125.3811,97.0428
125.3200,97.0396
125.2669,97.0307
125.2148,97.0154
125.1569,96.9918
125.1569,96.8333
125.1760,96.8333
125.2090,96.8574
125.2568,96.8823
125.3089,96.8995
125.3625,96.9052
125.4191,96.9002
125.4614,96.8868
125.4928,96.8666
125.5174,96.8376
125.5334,96.8012
125.5408,96.7551
125.1468,96.7551
125.1468,96.6862
125.1499,96.6395
125.3180,96.6395
125.5413,96.6395
125.5350,96.5974
125.5229,96.5665
125.5055,96.5442
125.4828,96.5280
125.4559,96.5180
125.4237,96.5144
125.3891,96.5184
125.3635,96.5292
125.3448,96.5458
125.3313,96.5685
125.3221,96.5990
125.3180,96.6395
125.1499,96.6395
125.1515,96.6152
125.1646,96.5566
125.1851,96.5082
125.2128,96.4682
125.2476,96.4367
125.2907,96.4132
125.3440,96.3980
125.4098,96.3925
Z" /> 
<path style="fill:#000000; fill-opacity:1.0000; stroke:none;fill-rule:evenodd;"
d="M 124.4745,96.7477
124.4768,96.7894
124.4838,96.8285
124.4953,96.8653
124.5112,96.8998
124.5313,96.9307
124.5557,96.9583
124.5863,96.9835
124.6199,97.0039
124.6569,97.0198
124.7163,97.0344
124.7872,97.0396
124.8694,97.0351
124.9318,97.0241
124.9879,97.0074
125.0282,96.9906
125.0282,96.8114
125.0081,96.8114
124.9632,96.8383
124.9144,96.8606
124.8639,96.8754
124.8144,96.8802
124.7838,96.8783
124.7492,96.8724
124.7167,96.8608
124.6935,96.8439
124.6788,96.8265
124.6688,96.8098
124.6629,96.7899
124.6605,96.7562
124.6634,96.7295
124.6717,96.7078
124.6846,96.6894
124.7006,96.6750
124.7283,96.6604
124.7628,96.6514
124.8288,96.6457
124.8713,96.6479
124.9113,96.6542
124.9804,96.6707
125.0014,96.6707
125.0014,96.2112
124.4950,96.2112
124.4950,96.3675
124.8288,96.3675
124.8288,96.4984
124.7913,96.4965
124.7513,96.4957
124.6942,96.4990
124.6464,96.5085
124.6024,96.5243
124.5667,96.5442
124.5397,96.5665
124.5172,96.5929
124.4989,96.6236
124.4858,96.6576
124.4774,96.6985
Z" /> 
<path style="fill:#000000; fill-opacity:1.0000; stroke:none;fill-rule:evenodd;"
d="M 124.3702,96.6809
124.3702,96.8364
124.0255,96.8364
124.0255,97.0271
123.8500,97.0271
123.8500,96.8364
123.7529,96.8364
123.7529,96.6864
123.8500,96.6864
124.0255,96.6864
124.2325,96.6864
124.0255,96.3923
124.0255,96.6864
123.8500,96.6864
123.8500,96.2112
124.0370,96.2112
Z" /> 
<path style="fill:#000000; fill-opacity:1.0000; stroke:none;fill-rule:evenodd;"
d="M 123.4608,97.0240
123.6329,97.0240
123.6329,96.1736
123.4608,96.1736
Z" /> 
<path style="fill:#000000; fill-opacity:1.0000; stroke:none;fill-rule:evenodd;"
d="M 149.0168,113.6620
148.8318,113.6620
148.7826,113.4963
148.5186,113.4963
148.4693,113.6620
148.2795,113.6620
148.3806,113.3494
148.5631,113.3494
148.7381,113.3494
148.6506,113.0574
148.5631,113.3494
148.3806,113.3494
148.5425,112.8492
148.7538,112.8492
Z" /> 
<path style="fill:#000000; fill-opacity:1.0000; stroke:none;fill-rule:evenodd;"
d="M 147.6204,113.6620
148.1794,113.6620
148.1794,113.5270
148.0510,113.4151
147.9904,113.3573
147.9480,113.3129
147.8957,113.2497
147.8657,113.2021
147.8518,113.1697
147.8439,113.1388
147.8413,113.1087
147.8451,113.0734
147.8556,113.0454
147.8727,113.0231
147.8950,113.0072
147.9244,112.9968
147.9628,112.9930
148.0070,112.9978
148.0553,113.0132
148.1023,113.0364
148.1454,113.0649
148.1607,113.0649
148.1607,112.8843
148.1225,112.8687
148.0606,112.8505
147.9941,112.8377
147.9279,112.8335
147.8599,112.8383
147.8046,112.8513
147.7598,112.8713
147.7237,112.8976
147.6933,112.9325
147.6716,112.9734
147.6581,113.0216
147.6534,113.0788
147.6571,113.1291
147.6683,113.1776
147.6871,113.2250
147.7119,113.2691
147.7458,113.3165
147.7902,113.3678
147.8342,113.4121
147.8777,113.4520
147.9403,113.5057
147.6204,113.5057
Z" /> 
<path style="fill:#000000; fill-opacity:1.0000; stroke:none;fill-rule:evenodd;"
d="M 161.1141,96.1391
161.1693,96.1550
161.2171,96.1804
161.2588,96.2154
161.2875,96.2501
161.3095,96.2881
161.3253,96.3298
161.3350,96.3759
161.3383,96.4273
161.3354,96.4801
161.3273,96.5237
161.3147,96.5597
161.2969,96.5928
161.2758,96.6209
161.2513,96.6443
161.2197,96.6646
161.1846,96.6789
161.1474,96.6872
161.1079,96.6900
161.0572,96.6861
161.0192,96.6756
160.9833,96.6586
160.9419,96.6340
160.9515,96.6831
160.9664,96.7223
160.9871,96.7561
161.0127,96.7835
161.0406,96.8030
161.0744,96.8170
161.1106,96.8249
161.1476,96.8276
161.1910,96.8251
161.2200,96.8189
161.2609,96.8026
161.2800,96.8026
161.2800,96.9639
161.2260,96.9726
161.1495,96.9776
161.0833,96.9737
161.0253,96.9627
160.9745,96.9452
160.9266,96.9197
160.8849,96.8873
160.8487,96.8478
160.8206,96.8057
160.7973,96.7567
160.7789,96.7001
160.7663,96.6410
160.7586,96.5779
160.7559,96.5103
160.7571,96.4803
160.9391,96.4803
160.9398,96.5135
160.9405,96.5304
160.9797,96.5431
161.0266,96.5493
161.0528,96.5478
161.0761,96.5434
161.0976,96.5352
161.1155,96.5229
161.1311,96.5054
161.1433,96.4822
161.1506,96.4547
161.1533,96.4188
161.1508,96.3815
161.1440,96.3519
161.1330,96.3259
161.1198,96.3066
161.1034,96.2911
161.0871,96.2815
161.0697,96.2760
161.0515,96.2742
161.0318,96.2761
161.0132,96.2818
160.9962,96.2917
160.9811,96.3066
160.9643,96.3332
160.9503,96.3721
160.9422,96.4175
160.9391,96.4803
160.7571,96.4803
160.7587,96.4410
160.7662,96.3826
160.7779,96.3337
160.7954,96.2872
160.8172,96.2477
160.8434,96.2142
160.8697,96.1894
160.8991,96.1692
160.9322,96.1535
160.9858,96.1388
161.0500,96.1335
Z" /> 
<path style="fill:#000000; fill-opacity:1.0000; stroke:none;fill-rule:evenodd;"
d="M 148.7444,96.6670
148.7480,96.7275
148.7583,96.7797
148.7745,96.8247
148.7966,96.8638
148.8248,96.8975
148.8573,96.9246
148.8961,96.9465
148.9422,96.9631
148.9968,96.9738
149.0614,96.9776
149.1261,96.9738
149.1807,96.9631
149.2267,96.9465
149.2655,96.9246
149.2979,96.8975
149.3260,96.8638
149.3480,96.8248
149.3642,96.7798
149.3744,96.7278
149.3780,96.6675
149.3780,96.1492
149.1934,96.1492
149.1934,96.6567
149.1894,96.7122
149.1786,96.7531
149.1624,96.7829
149.1391,96.8049
149.1065,96.8191
149.0614,96.8244
149.0169,96.8193
148.9843,96.8056
148.9608,96.7846
148.9443,96.7556
148.9332,96.7144
148.9290,96.6567
148.9290,96.1492
148.7444,96.1492
Z" /> 
<path style="fill:#000000; fill-opacity:1.0000; stroke:none;fill-rule:evenodd;"
d="M 148.0026,96.7069
148.0063,96.7535
148.0168,96.7956
148.0342,96.8341
148.0589,96.8696
148.0918,96.9025
148.1375,96.9337
148.1919,96.9572
148.2568,96.9723
148.3340,96.9776
148.4195,96.9728
148.4882,96.9598
148.5525,96.9392
148.6114,96.9144
148.6114,96.7181
148.5913,96.7181
148.5519,96.7515
148.5095,96.7793
148.4639,96.8016
148.4163,96.8181
148.3712,96.8276
148.3283,96.8307
148.2843,96.8273
148.2584,96.8224
148.2398,96.8158
148.2202,96.8040
148.2051,96.7902
148.1952,96.7721
148.1915,96.7446
148.1963,96.7199
148.2114,96.6984
148.2343,96.6820
148.2695,96.6685
148.3543,96.6480
148.3982,96.6370
148.4383,96.6237
148.4961,96.5968
148.5381,96.5665
148.5676,96.5332
148.5891,96.4929
148.6024,96.4462
148.6071,96.3912
148.6035,96.3474
148.5931,96.3076
148.5758,96.2711
148.5511,96.2371
148.5179,96.2055
148.4722,96.1751
148.4196,96.1527
148.3589,96.1385
148.2886,96.1335
148.2187,96.1374
148.1497,96.1490
148.0837,96.1671
148.0308,96.1878
148.0308,96.3743
148.0505,96.3743
148.0971,96.3383
148.1559,96.3074
148.1980,96.2924
148.2404,96.2834
148.2833,96.2805
148.3290,96.2842
148.3513,96.2895
148.3727,96.2980
148.3901,96.3087
148.4048,96.3239
148.4149,96.3425
148.4182,96.3633
148.4157,96.3836
148.4086,96.3997
148.3967,96.4128
148.3699,96.4276
148.3154,96.4443
148.2401,96.4623
148.1624,96.4864
148.1097,96.5109
148.0703,96.5389
148.0416,96.5698
148.0205,96.6073
148.0073,96.6523
Z" /> 
<path style="fill:#000000; fill-opacity:1.0000; stroke:none;fill-rule:evenodd;"
d="M 147.8764,96.9620
147.5656,96.9620
147.4916,96.9578
147.4377,96.9468
147.3894,96.9264
147.3452,96.8956
147.3127,96.8612
147.2880,96.8188
147.2766,96.7872
147.2696,96.7523
147.2672,96.7138
147.2674,96.7116
147.4575,96.7116
147.4603,96.7398
147.4683,96.7639
147.4827,96.7836
147.5078,96.8003
147.5370,96.8106
147.5694,96.8145
147.6804,96.8151
147.6938,96.8151
147.6938,96.6119
147.6536,96.6119
147.5747,96.6124
147.5390,96.6148
147.5154,96.6201
147.4874,96.6339
147.4707,96.6516
147.4612,96.6755
147.4575,96.7116
147.2674,96.7116
147.2721,96.6615
147.2858,96.6186
147.3081,96.5831
147.3377,96.5545
147.3741,96.5326
147.4188,96.5177
147.4188,96.5133
147.3875,96.4938
147.3621,96.4704
147.3418,96.4430
147.3268,96.4116
147.3180,96.3784
147.5025,96.3784
147.5045,96.4040
147.5102,96.4253
147.5214,96.4430
147.5427,96.4584
147.5622,96.4656
147.5910,96.4695
147.6651,96.4712
147.6938,96.4712
147.6938,96.2961
147.6765,96.2961
147.5926,96.2969
147.5641,96.3000
147.5427,96.3066
147.5232,96.3197
147.5113,96.3372
147.5047,96.3581
147.5025,96.3784
147.3180,96.3784
147.3177,96.3771
147.3146,96.3386
147.3197,96.2899
147.3344,96.2480
147.3496,96.2238
147.3696,96.2027
147.3949,96.1848
147.4347,96.1661
147.4740,96.1558
147.5198,96.1511
147.6000,96.1492
147.8764,96.1492
Z" /> 
<path style="fill:#000000; fill-opacity:1.0000; stroke:none;fill-rule:evenodd;"
d="M 171.6166,113.4069
171.6202,113.4535
171.6308,113.4956
171.6482,113.5341
171.6729,113.5696
171.7058,113.6025
171.7515,113.6337
171.8059,113.6572
171.8708,113.6723
171.9480,113.6776
172.0335,113.6728
172.1022,113.6598
172.1665,113.6392
172.2254,113.6144
172.2254,113.4181
172.2053,113.4181
172.1659,113.4515
172.1235,113.4793
172.0779,113.5016
172.0303,113.5181
171.9852,113.5276
171.9423,113.5307
171.8983,113.5273
171.8724,113.5224
171.8538,113.5158
171.8342,113.5040
171.8191,113.4902
171.8092,113.4721
171.8055,113.4446
171.8103,113.4199
171.8254,113.3984
171.8483,113.3820
171.8835,113.3685
171.9683,113.3481
172.0122,113.3370
172.0522,113.3237
172.1101,113.2968
172.1521,113.2665
172.1816,113.2332
172.2031,113.1929
172.2164,113.1462
172.2210,113.0912
172.2175,113.0474
172.2071,113.0076
172.1898,112.9711
172.1651,112.9371
172.1319,112.9055
172.0862,112.8751
172.0336,112.8527
171.9729,112.8385
171.9026,112.8335
171.8327,112.8374
171.7637,112.8490
171.6977,112.8671
171.6448,112.8878
171.6448,113.0743
171.6644,113.0743
171.7111,113.0383
171.7699,113.0074
171.8120,112.9924
171.8544,112.9834
171.8973,112.9805
171.9430,112.9842
171.9653,112.9895
171.9867,112.9980
172.0040,113.0087
172.0188,113.0239
172.0289,113.0425
172.0322,113.0633
172.0297,113.0836
172.0226,113.0997
172.0107,113.1128
171.9839,113.1276
171.9294,113.1443
171.8541,113.1623
171.7763,113.1864
171.7237,113.2109
171.6843,113.2389
171.6556,113.2698
171.6345,113.3073
171.6213,113.3523
Z" /> 
<path style="fill:#000000; fill-opacity:1.0000; stroke:none;fill-rule:evenodd;"
d="M 170.8520,113.6620
171.0357,113.6620
171.0357,113.3025
171.3068,113.3025
171.3068,113.6620
171.4904,113.6620
171.4904,112.8492
171.3068,112.8492
171.3068,113.1462
171.0357,113.1462
171.0357,112.8492
170.8520,112.8492
Z" /> 
<path style="fill:#000000; fill-opacity:1.0000; stroke:none;fill-rule:evenodd;"
d="M 170.6697,113.6620
170.4861,113.6620
170.4861,113.3963
170.3718,113.3963
170.3201,113.3932
170.2771,113.3848
170.2415,113.3717
170.2080,113.3530
170.1764,113.3289
170.1466,113.2993
170.1194,113.2602
170.0988,113.2118
170.0862,113.1591
170.0825,113.1108
170.2719,113.1108
170.2740,113.1439
170.2798,113.1694
170.2901,113.1916
170.3054,113.2107
170.3279,113.2267
170.3563,113.2366
170.3887,113.2413
170.4335,113.2431
170.4861,113.2431
170.4861,113.0023
170.4546,113.0023
170.3819,113.0037
170.3547,113.0078
170.3259,113.0180
170.3061,113.0311
170.2882,113.0523
170.2761,113.0788
170.2719,113.1108
170.0825,113.1108
170.0821,113.1053
170.0848,113.0590
170.0925,113.0192
170.1048,112.9849
170.1221,112.9535
170.1439,112.9262
170.1706,112.9026
170.2085,112.8795
170.2530,112.8625
170.3024,112.8528
170.3676,112.8492
170.6697,112.8492
Z" /> 
<path style="fill:#000000; fill-opacity:1.0000; stroke:none;fill-rule:evenodd;"
d="M 151.5568,113.6620
151.3718,113.6620
151.3226,113.4963
151.0586,113.4963
151.0093,113.6620
150.8195,113.6620
150.9206,113.3494
151.1031,113.3494
151.2781,113.3494
151.1906,113.0574
151.1031,113.3494
150.9206,113.3494
151.0825,112.8492
151.2938,112.8492
Z" /> 
<path style="fill:#000000; fill-opacity:1.0000; stroke:none;fill-rule:evenodd;"
d="M 150.2302,113.2796
150.2091,113.3045
150.1929,113.3331
150.1829,113.3667
150.1790,113.4145
150.1841,113.4702
150.1989,113.5215
150.2143,113.5527
150.2345,113.5810
150.2599,113.6067
150.3029,113.6366
150.3543,113.6594
150.4116,113.6727
150.4860,113.6776
150.5714,113.6733
150.6379,113.6617
150.6980,113.6439
150.7409,113.6260
150.7409,113.4463
150.7223,113.4463
150.6785,113.4728
150.6240,113.4968
150.5677,113.5132
150.5195,113.5182
150.4593,113.5130
150.4286,113.5043
150.4043,113.4900
150.3883,113.4746
150.3761,113.4565
150.3685,113.4342
150.3656,113.3997
150.3695,113.3666
150.3799,113.3441
150.3963,113.3274
150.4177,113.3161
150.4424,113.3095
150.4741,113.3064
150.5353,113.3056
150.5745,113.3056
150.5745,113.1649
150.5338,113.1649
150.4679,113.1622
150.4404,113.1575
150.4191,113.1497
150.4002,113.1373
150.3875,113.1224
150.3800,113.1028
150.3770,113.0722
150.3799,113.0496
150.3880,113.0329
150.4003,113.0196
150.4157,113.0092
150.4355,113.0013
150.4598,112.9962
150.5033,112.9930
150.5489,112.9972
150.6008,113.0107
150.6523,113.0322
150.7027,113.0617
150.7204,113.0617
150.7204,112.8850
150.6774,112.8683
150.6138,112.8502
150.5459,112.8377
150.4770,112.8335
150.4117,112.8371
150.3588,112.8468
150.3109,112.8631
150.2752,112.8824
150.2404,112.9125
150.2169,112.9470
150.2027,112.9873
150.1977,113.0359
150.2018,113.0793
150.2140,113.1190
150.2346,113.1561
150.2616,113.1870
150.2936,113.2094
150.3316,113.2236
150.3316,113.2310
150.3070,113.2366
150.2799,113.2463
150.2539,113.2603
Z" /> 
<path style="fill:#000000; fill-opacity:1.0000; stroke:none;fill-rule:evenodd;"
d="M 138.5908,112.8492
138.8505,113.6620
139.0561,113.6620
139.3157,112.8492
139.1230,112.8492
138.9509,113.4201
138.7787,112.8492
Z" /> 
<path style="fill:#000000; fill-opacity:1.0000; stroke:none;fill-rule:evenodd;"
d="M 138.4882,113.6620
138.2372,113.6620
138.1549,113.6582
138.0899,113.6478
138.0300,113.6280
137.9756,113.5976
137.9327,113.5616
137.8945,113.5160
137.8608,113.4598
137.8359,113.3980
137.8206,113.3307
137.8154,113.2564
137.8155,113.2550
138.0052,113.2550
138.0081,113.3082
138.0161,113.3527
138.0287,113.3901
138.0470,113.4237
138.0713,113.4527
138.1023,113.4773
138.1320,113.4925
138.1621,113.5020
138.1970,113.5068
138.2582,113.5088
138.3046,113.5088
138.3046,113.0023
138.2582,113.0023
138.2026,113.0040
138.1695,113.0081
138.1406,113.0162
138.1119,113.0295
138.0776,113.0542
138.0509,113.0837
138.0308,113.1184
138.0170,113.1573
138.0083,113.2024
138.0052,113.2550
137.8155,113.2550
137.8204,113.1790
137.8347,113.1112
137.8577,113.0514
137.8896,112.9971
137.9280,112.9512
137.9737,112.9130
138.0201,112.8867
138.0799,112.8658
138.1460,112.8537
138.2300,112.8492
138.4882,112.8492
Z" /> 
<path style="fill:#000000; fill-opacity:1.0000; stroke:none;fill-rule:evenodd;"
d="M 137.6750,113.6620
137.4240,113.6620
137.3418,113.6582
137.2768,113.6478
137.2168,113.6280
137.1625,113.5976
137.1196,113.5616
137.0814,113.5160
137.0477,113.4598
137.0227,113.3980
137.0075,113.3307
137.0023,113.2564
137.0024,113.2550
137.1921,113.2550
137.1950,113.3082
137.2030,113.3527
137.2155,113.3901
137.2339,113.4237
137.2582,113.4527
137.2892,113.4773
137.3189,113.4925
137.3489,113.5020
137.3839,113.5068
137.4450,113.5088
137.4914,113.5088
137.4914,113.0023
137.4450,113.0023
137.3895,113.0040
137.3564,113.0081
137.3274,113.0162
137.2987,113.0295
137.2644,113.0542
137.2377,113.0837
137.2177,113.1184
137.2039,113.1573
137.1952,113.2024
137.1921,113.2550
137.0024,113.2550
137.0073,113.1790
137.0216,113.1112
137.0446,113.0514
137.0764,112.9971
137.1149,112.9512
137.1606,112.9130
137.2069,112.8867
137.2667,112.8658
137.3329,112.8537
137.4168,112.8492
137.6750,112.8492
Z" /> 
<path style="fill:#000000; fill-opacity:1.0000; stroke:none;fill-rule:evenodd;"
d="M 168.6799,113.0055
168.9022,113.0055
168.9022,113.6620
169.0858,113.6620
169.0858,113.0055
169.3082,113.0055
169.3082,112.8492
168.6799,112.8492
Z" /> 
<path style="fill:#000000; fill-opacity:1.0000; stroke:none;fill-rule:evenodd;"
d="M 167.9239,113.6620
168.1362,113.6620
168.2897,113.3945
168.4461,113.6620
168.6488,113.6620
168.3964,113.2526
168.6436,112.8492
168.4318,112.8492
168.2835,113.1024
168.1310,112.8492
167.9278,112.8492
168.1764,113.2444
Z" /> 
<path style="fill:#000000; fill-opacity:1.0000; stroke:none;fill-rule:evenodd;"
d="M 156.6368,113.6620
156.4518,113.6620
156.4026,113.4963
156.1386,113.4963
156.0893,113.6620
155.8995,113.6620
156.0006,113.3494
156.1831,113.3494
156.3581,113.3494
156.2706,113.0574
156.1831,113.3494
156.0006,113.3494
156.1625,112.8492
156.3738,112.8492
Z" /> 
<path style="fill:#000000; fill-opacity:1.0000; stroke:none;fill-rule:evenodd;"
d="M 155.2557,113.3857
155.2581,113.4274
155.2650,113.4665
155.2765,113.5033
155.2925,113.5378
155.3126,113.5687
155.3370,113.5963
155.3676,113.6215
155.4012,113.6419
155.4381,113.6577
155.4976,113.6724
155.5684,113.6776
155.6507,113.6731
155.7131,113.6621
155.7692,113.6454
155.8094,113.6286
155.8094,113.4494
155.7893,113.4494
155.7444,113.4763
155.6956,113.4986
155.6451,113.5134
155.5957,113.5182
155.5650,113.5163
155.5304,113.5104
155.4980,113.4988
155.4747,113.4819
155.4601,113.4645
155.4501,113.4478
155.4442,113.4279
155.4417,113.3942
155.4446,113.3675
155.4530,113.3458
155.4658,113.3274
155.4819,113.3130
155.5096,113.2984
155.5441,113.2894
155.6100,113.2837
155.6525,113.2859
155.6925,113.2922
155.7616,113.3087
155.7827,113.3087
155.7827,112.8492
155.2763,112.8492
155.2763,113.0055
155.6100,113.0055
155.6100,113.1364
155.5725,113.1345
155.5326,113.1337
155.4755,113.1370
155.4276,113.1465
155.3836,113.1623
155.3480,113.1822
155.3209,113.2045
155.2984,113.2309
155.2801,113.2616
155.2670,113.2956
155.2587,113.3365
Z" /> 
<path style="fill:#000000; fill-opacity:1.0000; stroke:none;fill-rule:evenodd;"
d="M 153.5137,96.9620
153.9890,96.9620
153.9890,96.8213
153.8388,96.8213
153.8388,96.3899
153.9890,96.3899
153.9890,96.2586
153.9230,96.2540
153.8930,96.2474
153.8704,96.2381
153.8482,96.2222
153.8331,96.2031
153.8235,96.1796
153.8187,96.1492
153.6605,96.1492
153.6605,96.8213
153.5137,96.8213
Z" /> 
<path style="fill:#000000; fill-opacity:1.0000; stroke:none;fill-rule:evenodd;"
d="M 152.7725,96.9620
153.3315,96.9620
153.3315,96.8270
153.2032,96.7151
153.1425,96.6573
153.1001,96.6129
153.0479,96.5497
153.0179,96.5021
153.0040,96.4697
152.9960,96.4388
152.9935,96.4087
152.9972,96.3734
153.0077,96.3454
153.0248,96.3231
153.0472,96.3072
153.0766,96.2968
153.1149,96.2930
153.1591,96.2978
153.2075,96.3132
153.2545,96.3364
153.2976,96.3649
153.3129,96.3649
153.3129,96.1843
153.2747,96.1687
153.2127,96.1505
153.1463,96.1377
153.0800,96.1335
153.0120,96.1383
152.9567,96.1513
152.9119,96.1713
152.8758,96.1976
152.8454,96.2325
152.8237,96.2734
152.8103,96.3216
152.8055,96.3788
152.8093,96.4291
152.8204,96.4776
152.8393,96.5250
152.8641,96.5691
152.8979,96.6165
152.9423,96.6678
152.9863,96.7121
153.0298,96.7520
153.0925,96.8057
152.7725,96.8057
Z" /> 
</g>
<g style="fill:none; 
stroke:#000000; stroke-width:0.1200; stroke-opacity:1; 
stroke-linecap:round; stroke-linejoin:round;">
<path d="M151.8600 105.6300
L151.8600 107.0300
" />
<path d="M152.5600 107.7300
L153.1600 107.7300
" />
<path d="M153.1600 104.9300
L152.5600 104.9300
" />
<path d="M153.8600 107.0300
L153.8600 105.6300
" />
<path d="M152.5600 104.9300 A0.7000 0.7000 0.0 0 0 151.8600 105.6300" />
<path d="M151.8600 107.0300 A0.7000 0.7000 0.0 0 0 152.5600 107.7300" />
<path d="M153.8600 105.6300 A0.7000 0.7000 0.0 0 0 153.1600 104.9300" />
<path d="M153.1600 107.7300 A0.7000 0.7000 0.0 0 0 153.8600 107.0300" />
<circle cx="136.7000" cy="102.3800" r="0.9500" /> 
<circle cx="139.1000" cy="99.9800" r="0.9500" /> 
<circle cx="122.3000" cy="108.5800" r="0.9500" /> 
<circle cx="122.4000" cy="103.7800" r="0.9500" /> 
<circle cx="170.3600" cy="102.4800" r="1.2000" /> 
<circle cx="165.5100" cy="107.4800" r="1.2000" /> 
<circle cx="139.1000" cy="102.3800" r="0.9500" /> 
<circle cx="122.3000" cy="101.3800" r="0.9500" /> 
<circle cx="136.7000" cy="99.9800" r="0.9500" /> 
<circle cx="122.4000" cy="106.1800" r="0.9500" /> 
<circle cx="170.3600" cy="107.4800" r="1.2000" /> 
<path d="M127.3400 106.2425
L127.3400 106.8775
" />
<path d="M127.3400 106.8775
L127.9750 106.8775
" />
<circle cx="165.3600" cy="102.4800" r="1.2000" /> 
</g> 
</svg>
