<?xml version="1.0" standalone="no"?>
 <!DOCTYPE svg PUBLIC "-//W3C//DTD SVG 1.1//EN" 
 "http://www.w3.org/Graphics/SVG/1.1/DTD/svg11.dtd"> 
<svg
  xmlns:svg="http://www.w3.org/2000/svg"
  xmlns="http://www.w3.org/2000/svg"
  xmlns:xlink="http://www.w3.org/1999/xlink"
  version="1.1"
  width="297.0022mm" height="210.0072mm" viewBox="0.0000 0.0000 297.0022 210.0072">
<title>SVG Image created as RoyalBlue54L-Feather-B_Mask.svg date 2026/01/28 15:57:01 </title>
  <desc>Image generated by PCBNEW </desc>
<g style="fill:#000000; fill-opacity:1.0000;stroke:#000000; stroke-opacity:1.0000;
stroke-linecap:round; stroke-linejoin:round;"
 transform="translate(0 0) scale(1 1)">
</g>
<g style="fill:#000000; fill-opacity:1.0000; stroke:none;">
<circle cx="174.9800" cy="113.8700" r="1.2500" /> 
</g>
<g style="fill:#000000; fill-opacity:1.0000; stroke:none;">
<circle cx="174.9800" cy="96.0900" r="1.2500" /> 
</g>
<g style="fill:#000000; fill-opacity:1.0000; stroke:none;">
<circle cx="123.9600" cy="102.0900" r="0.3250" /> 
</g>
<g style="fill:#000000; fill-opacity:1.0000; stroke:none;">
<circle cx="123.9600" cy="107.8700" r="0.3250" /> 
</g>
<g style="fill:none; 
stroke:#000000; stroke-width:1.0000; stroke-opacity:1; 
stroke-linecap:round; stroke-linejoin:round;">
<path d="M125.0400 100.6600
L123.9400 100.6600
" />
<path d="M120.6100 100.6600
L120.0100 100.6600
" />
<path d="M125.0400 109.3000
L123.9400 109.3000
" />
<path d="M120.6100 109.3000
L120.0100 109.3000
" />
</g>
<g style="fill:#000000; fill-opacity:1.0000; stroke:none;">
<circle cx="121.6400" cy="113.8700" r="1.2500" /> 
</g>
<g style="fill:#000000; fill-opacity:1.0000; stroke:none;">
<circle cx="121.6400" cy="96.0900" r="1.2500" /> 
<path style="fill:#000000; fill-opacity:1.0000; stroke:none;fill-rule:evenodd;"
d="M 142.8050,95.6700
142.3800,95.2450
142.3800,94.3950
142.8050,93.9700
143.6550,93.9700
144.0800,94.3950
144.0800,95.2450
143.6550,95.6700
Z" /> 
<path style="fill:#000000; fill-opacity:1.0000; stroke:none;fill-rule:evenodd;"
d="M 142.8050,95.6700
142.3800,95.2450
142.3800,94.3950
142.8050,93.9700
143.6550,93.9700
144.0800,94.3950
144.0800,95.2450
143.6550,95.6700
Z" /> 
<path style="fill:#000000; fill-opacity:1.0000; stroke:none;fill-rule:evenodd;"
d="M 144.0800,94.4000
142.3800,94.4000
142.3800,92.7000
144.0800,92.7000
Z" /> 
</g>
<g style="fill:#000000; fill-opacity:1.0000; stroke:none;">
<circle cx="145.7700" cy="94.8200" r="0.8500" /> 
<path style="fill:#000000; fill-opacity:1.0000; stroke:none;fill-rule:evenodd;"
d="M 146.6200,94.8200
144.9200,94.8200
144.9200,92.7000
146.6200,92.7000
Z" /> 
<path style="fill:#000000; fill-opacity:1.0000; stroke:none;fill-rule:evenodd;"
d="M 147.8850,95.6700
147.4600,95.2450
147.4600,94.3950
147.8850,93.9700
148.7350,93.9700
149.1600,94.3950
149.1600,95.2450
148.7350,95.6700
Z" /> 
<path style="fill:#000000; fill-opacity:1.0000; stroke:none;fill-rule:evenodd;"
d="M 149.1600,94.8200
147.4600,94.8200
147.4600,92.7000
149.1600,92.7000
Z" /> 
<circle cx="150.8500" cy="94.8200" r="0.8500" /> 
<path style="fill:#000000; fill-opacity:1.0000; stroke:none;fill-rule:evenodd;"
d="M 151.7000,94.8200
150.0000,94.8200
150.0000,92.7000
151.7000,92.7000
Z" /> 
<circle cx="153.3900" cy="94.8200" r="0.8500" /> 
<path style="fill:#000000; fill-opacity:1.0000; stroke:none;fill-rule:evenodd;"
d="M 154.2400,94.8200
152.5400,94.8200
152.5400,92.7000
154.2400,92.7000
Z" /> 
<circle cx="155.9300" cy="94.8200" r="0.8500" /> 
<path style="fill:#000000; fill-opacity:1.0000; stroke:none;fill-rule:evenodd;"
d="M 156.7800,94.8200
155.0800,94.8200
155.0800,92.7000
156.7800,92.7000
Z" /> 
<circle cx="158.4700" cy="94.8200" r="0.8500" /> 
<path style="fill:#000000; fill-opacity:1.0000; stroke:none;fill-rule:evenodd;"
d="M 159.3200,94.8200
157.6200,94.8200
157.6200,92.7000
159.3200,92.7000
Z" /> 
<circle cx="161.0100" cy="94.8200" r="0.8500" /> 
<path style="fill:#000000; fill-opacity:1.0000; stroke:none;fill-rule:evenodd;"
d="M 161.8600,94.8200
160.1600,94.8200
160.1600,92.7000
161.8600,92.7000
Z" /> 
<circle cx="163.5500" cy="94.8200" r="0.8500" /> 
<path style="fill:#000000; fill-opacity:1.0000; stroke:none;fill-rule:evenodd;"
d="M 164.4000,94.8200
162.7000,94.8200
162.7000,92.7000
164.4000,92.7000
Z" /> 
<circle cx="166.0900" cy="94.8200" r="0.8500" /> 
<path style="fill:#000000; fill-opacity:1.0000; stroke:none;fill-rule:evenodd;"
d="M 166.9400,94.8200
165.2400,94.8200
165.2400,92.7000
166.9400,92.7000
Z" /> 
<circle cx="168.6300" cy="94.8200" r="0.8500" /> 
<path style="fill:#000000; fill-opacity:1.0000; stroke:none;fill-rule:evenodd;"
d="M 169.4800,94.8200
167.7800,94.8200
167.7800,92.7000
169.4800,92.7000
Z" /> 
<circle cx="171.1700" cy="94.8200" r="0.8500" /> 
<path style="fill:#000000; fill-opacity:1.0000; stroke:none;fill-rule:evenodd;"
d="M 172.0200,94.8200
170.3200,94.8200
170.3200,92.7000
172.0200,92.7000
Z" /> 
<path style="fill:#000000; fill-opacity:1.0000; stroke:none;fill-rule:evenodd;"
d="M 153.6100,106.4800
153.6100,106.9800
153.6057,106.9800
153.6057,107.0453
153.5719,107.1713
153.5067,107.2844
153.4144,107.3767
153.3013,107.4419
153.1753,107.4757
153.1100,107.4757
153.1100,107.4800
152.6100,107.4800
152.6100,107.4757
152.5447,107.4757
152.4187,107.4419
152.3056,107.3767
152.2133,107.2844
152.1481,107.1713
152.1143,107.0453
152.1143,106.9800
152.1100,106.9800
152.1100,106.4800
Z" /> 
<path style="fill:#000000; fill-opacity:1.0000; stroke:none;fill-rule:evenodd;"
d="M 152.1143,105.6800
152.1143,105.6147
152.1481,105.4887
152.2133,105.3756
152.3056,105.2833
152.4187,105.2181
152.5447,105.1843
152.6100,105.1843
152.6100,105.1800
153.1100,105.1800
153.1100,105.1843
153.1753,105.1843
153.3013,105.2181
153.4144,105.2833
153.5067,105.3756
153.5719,105.4887
153.6057,105.6147
153.6057,105.6800
153.6100,105.6800
153.6100,106.1800
152.1100,106.1800
152.1100,105.6800
Z" /> 
<circle cx="136.7000" cy="102.3800" r="0.7500" /> 
</g>
<g style="fill:#000000; fill-opacity:1.0000; stroke:none;">
<circle cx="139.1000" cy="99.9800" r="0.7500" /> 
</g>
<g style="fill:#000000; fill-opacity:1.0000; stroke:none;">
<circle cx="133.0700" cy="115.1400" r="0.8500" /> 
<path style="fill:#000000; fill-opacity:1.0000; stroke:none;fill-rule:evenodd;"
d="M 132.2200,115.1400
133.9200,115.1400
133.9200,117.2600
132.2200,117.2600
Z" /> 
<path style="fill:#000000; fill-opacity:1.0000; stroke:none;fill-rule:evenodd;"
d="M 136.0350,114.2900
136.4600,114.7150
136.4600,115.5650
136.0350,115.9900
135.1850,115.9900
134.7600,115.5650
134.7600,114.7150
135.1850,114.2900
Z" /> 
<path style="fill:#000000; fill-opacity:1.0000; stroke:none;fill-rule:evenodd;"
d="M 134.7600,115.1400
136.4600,115.1400
136.4600,117.2600
134.7600,117.2600
Z" /> 
<path style="fill:#000000; fill-opacity:1.0000; stroke:none;fill-rule:evenodd;"
d="M 138.5750,114.2900
139.0000,114.7150
139.0000,115.5650
138.5750,115.9900
137.7250,115.9900
137.3000,115.5650
137.3000,114.7150
137.3208,114.5837
137.3812,114.4652
137.4752,114.3712
137.5937,114.3108
137.7250,114.2900
Z" /> 
<path style="fill:#000000; fill-opacity:1.0000; stroke:none;fill-rule:evenodd;"
d="M 137.3000,115.1400
139.0000,115.1400
139.0000,117.2600
137.3000,117.2600
Z" /> 
<path style="fill:#000000; fill-opacity:1.0000; stroke:none;fill-rule:evenodd;"
d="M 139.8400,114.2900
141.5400,114.2900
141.5400,115.9900
139.8400,115.9900
Z" /> 
<path style="fill:#000000; fill-opacity:1.0000; stroke:none;fill-rule:evenodd;"
d="M 139.8400,115.1400
141.5400,115.1400
141.5400,117.2600
139.8400,117.2600
Z" /> 
<circle cx="143.2300" cy="115.1400" r="0.8500" /> 
<path style="fill:#000000; fill-opacity:1.0000; stroke:none;fill-rule:evenodd;"
d="M 142.3800,115.1400
144.0800,115.1400
144.0800,117.2600
142.3800,117.2600
Z" /> 
<circle cx="145.7700" cy="115.1400" r="0.8500" /> 
<path style="fill:#000000; fill-opacity:1.0000; stroke:none;fill-rule:evenodd;"
d="M 144.9200,115.1400
146.6200,115.1400
146.6200,117.2600
144.9200,117.2600
Z" /> 
<circle cx="148.3100" cy="115.1400" r="0.8500" /> 
<path style="fill:#000000; fill-opacity:1.0000; stroke:none;fill-rule:evenodd;"
d="M 147.4600,115.1400
149.1600,115.1400
149.1600,117.2600
147.4600,117.2600
Z" /> 
<circle cx="150.8500" cy="115.1400" r="0.8500" /> 
<path style="fill:#000000; fill-opacity:1.0000; stroke:none;fill-rule:evenodd;"
d="M 150.0000,115.1400
151.7000,115.1400
151.7000,117.2600
150.0000,117.2600
Z" /> 
<circle cx="153.3900" cy="115.1400" r="0.8500" /> 
<path style="fill:#000000; fill-opacity:1.0000; stroke:none;fill-rule:evenodd;"
d="M 152.5400,115.1400
154.2400,115.1400
154.2400,117.2600
152.5400,117.2600
Z" /> 
<circle cx="155.9300" cy="115.1400" r="0.8500" /> 
<path style="fill:#000000; fill-opacity:1.0000; stroke:none;fill-rule:evenodd;"
d="M 155.0800,115.1400
156.7800,115.1400
156.7800,117.2600
155.0800,117.2600
Z" /> 
<circle cx="158.4700" cy="115.1400" r="0.8500" /> 
<path style="fill:#000000; fill-opacity:1.0000; stroke:none;fill-rule:evenodd;"
d="M 157.6200,115.1400
159.3200,115.1400
159.3200,117.2600
157.6200,117.2600
Z" /> 
<circle cx="161.0100" cy="115.1400" r="0.8500" /> 
<path style="fill:#000000; fill-opacity:1.0000; stroke:none;fill-rule:evenodd;"
d="M 160.1600,115.1400
161.8600,115.1400
161.8600,117.2600
160.1600,117.2600
Z" /> 
<circle cx="163.5500" cy="115.1400" r="0.8500" /> 
<path style="fill:#000000; fill-opacity:1.0000; stroke:none;fill-rule:evenodd;"
d="M 162.7000,115.1400
164.4000,115.1400
164.4000,117.2600
162.7000,117.2600
Z" /> 
<circle cx="166.0900" cy="115.1400" r="0.8500" /> 
<path style="fill:#000000; fill-opacity:1.0000; stroke:none;fill-rule:evenodd;"
d="M 165.2400,115.1400
166.9400,115.1400
166.9400,117.2600
165.2400,117.2600
Z" /> 
<circle cx="168.6300" cy="115.1400" r="0.8500" /> 
<path style="fill:#000000; fill-opacity:1.0000; stroke:none;fill-rule:evenodd;"
d="M 167.7800,115.1400
169.4800,115.1400
169.4800,117.2600
167.7800,117.2600
Z" /> 
<circle cx="171.1700" cy="115.1400" r="0.8500" /> 
<path style="fill:#000000; fill-opacity:1.0000; stroke:none;fill-rule:evenodd;"
d="M 170.3200,115.1400
172.0200,115.1400
172.0200,117.2600
170.3200,117.2600
Z" /> 
<circle cx="122.3000" cy="108.5800" r="0.7500" /> 
</g>
<g style="fill:#000000; fill-opacity:1.0000; stroke:none;">
<circle cx="122.4000" cy="103.7800" r="0.7500" /> 
</g>
<g style="fill:#000000; fill-opacity:1.0000; stroke:none;">
<circle cx="170.3600" cy="102.4800" r="1.0000" /> 
</g>
<g style="fill:#000000; fill-opacity:1.0000; stroke:none;">
<circle cx="165.5100" cy="107.4800" r="1.0000" /> 
</g>
<g style="fill:#000000; fill-opacity:1.0000; stroke:none;">
<circle cx="139.1000" cy="102.3800" r="0.7500" /> 
</g>
<g style="fill:#000000; fill-opacity:1.0000; stroke:none;">
<circle cx="122.3000" cy="101.3800" r="0.7500" /> 
</g>
<g style="fill:#000000; fill-opacity:1.0000; stroke:none;">
<circle cx="136.7000" cy="99.9800" r="0.7500" /> 
</g>
<g style="fill:#000000; fill-opacity:1.0000; stroke:none;">
<circle cx="122.4000" cy="106.1800" r="0.7500" /> 
</g>
<g style="fill:#000000; fill-opacity:1.0000; stroke:none;">
<circle cx="170.3600" cy="107.4800" r="1.0000" /> 
</g>
<g style="fill:#000000; fill-opacity:1.0000; stroke:none;">
<circle cx="128.6100" cy="107.5125" r="0.4953" /> 
</g>
<g style="fill:#000000; fill-opacity:1.0000; stroke:none;">
<circle cx="127.5940" cy="102.4325" r="0.4953" /> 
</g>
<g style="fill:#000000; fill-opacity:1.0000; stroke:none;">
<circle cx="129.6260" cy="102.4325" r="0.4953" /> 
</g>
<g style="fill:#000000; fill-opacity:1.0000; stroke:none;">
<circle cx="127.9750" cy="106.2425" r="0.3937" /> 
</g>
<g style="fill:#000000; fill-opacity:1.0000; stroke:none;">
<circle cx="129.2450" cy="106.2425" r="0.3937" /> 
</g>
<g style="fill:#000000; fill-opacity:1.0000; stroke:none;">
<circle cx="127.9750" cy="104.9725" r="0.3937" /> 
</g>
<g style="fill:#000000; fill-opacity:1.0000; stroke:none;">
<circle cx="129.2450" cy="104.9725" r="0.3937" /> 
</g>
<g style="fill:#000000; fill-opacity:1.0000; stroke:none;">
<circle cx="127.9750" cy="103.7025" r="0.3937" /> 
</g>
<g style="fill:#000000; fill-opacity:1.0000; stroke:none;">
<circle cx="129.2450" cy="103.7025" r="0.3937" /> 
</g>
<g style="fill:#000000; fill-opacity:1.0000; stroke:none;">
<circle cx="165.3600" cy="102.4800" r="1.0000" /> 
</g> 
</svg>
