%TF.GenerationSoftware,KiCad,Pcbnew,9.0.7*%
%TF.CreationDate,2026-01-28T15:54:31+01:00*%
%TF.ProjectId,RoyalBlue54L-Feather,526f7961-6c42-46c7-9565-35344c2d4665,rev?*%
%TF.SameCoordinates,Original*%
%TF.FileFunction,Paste,Top*%
%TF.FilePolarity,Positive*%
%FSLAX46Y46*%
G04 Gerber Fmt 4.6, Leading zero omitted, Abs format (unit mm)*
G04 Created by KiCad (PCBNEW 9.0.7) date 2026-01-28 15:54:31*
%MOMM*%
%LPD*%
G01*
G04 APERTURE LIST*
G04 Aperture macros list*
%AMRoundRect*
0 Rectangle with rounded corners*
0 $1 Rounding radius*
0 $2 $3 $4 $5 $6 $7 $8 $9 X,Y pos of 4 corners*
0 Add a 4 corners polygon primitive as box body*
4,1,4,$2,$3,$4,$5,$6,$7,$8,$9,$2,$3,0*
0 Add four circle primitives for the rounded corners*
1,1,$1+$1,$2,$3*
1,1,$1+$1,$4,$5*
1,1,$1+$1,$6,$7*
1,1,$1+$1,$8,$9*
0 Add four rect primitives between the rounded corners*
20,1,$1+$1,$2,$3,$4,$5,0*
20,1,$1+$1,$4,$5,$6,$7,0*
20,1,$1+$1,$6,$7,$8,$9,0*
20,1,$1+$1,$8,$9,$2,$3,0*%
%AMFreePoly0*
4,1,19,0.290204,0.301344,0.321117,0.247801,0.322490,0.232106,0.322490,-0.157228,0.301344,-0.215326,0.296017,-0.221139,0.221139,-0.296017,0.165105,-0.322146,0.157228,-0.322490,-0.232106,-0.322490,-0.290204,-0.301344,-0.321117,-0.247801,-0.322490,-0.232106,-0.322490,0.232106,-0.301344,0.290204,-0.247801,0.321117,-0.232106,0.322490,0.232106,0.322490,0.290204,0.301344,0.290204,0.301344,
$1*%
%AMFreePoly1*
4,1,21,0.231572,0.385173,0.236504,0.380653,0.300030,0.317127,0.322198,0.269587,0.322490,0.262904,0.322490,-0.262904,0.304550,-0.312195,0.300030,-0.317127,0.236504,-0.380653,0.188964,-0.402821,0.182281,-0.403113,-0.245807,-0.403113,-0.295098,-0.385173,-0.321325,-0.339746,-0.322490,-0.326430,-0.322490,0.326430,-0.304550,0.375721,-0.259123,0.401948,-0.245807,0.403113,0.182281,0.403113,
0.231572,0.385173,0.231572,0.385173,$1*%
%AMFreePoly2*
4,1,19,0.215326,0.301344,0.221139,0.296017,0.296017,0.221139,0.322146,0.165105,0.322490,0.157228,0.322490,-0.232106,0.301344,-0.290204,0.247801,-0.321117,0.232106,-0.322490,-0.232106,-0.322490,-0.290204,-0.301344,-0.321117,-0.247801,-0.322490,-0.232106,-0.322490,0.232106,-0.301344,0.290204,-0.247801,0.321117,-0.232106,0.322490,0.157228,0.322490,0.215326,0.301344,0.215326,0.301344,
$1*%
%AMFreePoly3*
4,1,21,0.375721,0.304550,0.401948,0.259123,0.403113,0.245807,0.403113,-0.182281,0.385173,-0.231572,0.380653,-0.236504,0.317127,-0.300030,0.269587,-0.322198,0.262904,-0.322490,-0.262904,-0.322490,-0.312195,-0.304550,-0.317127,-0.300030,-0.380653,-0.236504,-0.402821,-0.188964,-0.403113,-0.182281,-0.403113,0.245807,-0.385173,0.295098,-0.339746,0.321325,-0.326430,0.322490,0.326430,0.322490,
0.375721,0.304550,0.375721,0.304550,$1*%
%AMFreePoly4*
4,1,21,0.312195,0.304550,0.317127,0.300030,0.380653,0.236504,0.402821,0.188964,0.403113,0.182281,0.403113,-0.245807,0.385173,-0.295098,0.339746,-0.321325,0.326430,-0.322490,-0.326430,-0.322490,-0.375721,-0.304550,-0.401948,-0.259123,-0.403113,-0.245807,-0.403113,0.182281,-0.385173,0.231572,-0.380653,0.236504,-0.317127,0.300030,-0.269587,0.322198,-0.262904,0.322490,0.262904,0.322490,
0.312195,0.304550,0.312195,0.304550,$1*%
%AMFreePoly5*
4,1,19,0.290204,0.301344,0.321117,0.247801,0.322490,0.232106,0.322490,-0.232106,0.301344,-0.290204,0.247801,-0.321117,0.232106,-0.322490,-0.157228,-0.322490,-0.215326,-0.301344,-0.221139,-0.296017,-0.296017,-0.221139,-0.322146,-0.165105,-0.322490,-0.157228,-0.322490,0.232106,-0.301344,0.290204,-0.247801,0.321117,-0.232106,0.322490,0.232106,0.322490,0.290204,0.301344,0.290204,0.301344,
$1*%
%AMFreePoly6*
4,1,21,0.295098,0.385173,0.321325,0.339746,0.322490,0.326430,0.322490,-0.326430,0.304550,-0.375721,0.259123,-0.401948,0.245807,-0.403113,-0.182281,-0.403113,-0.231572,-0.385173,-0.236504,-0.380653,-0.300030,-0.317127,-0.322198,-0.269587,-0.322490,-0.262904,-0.322490,0.262904,-0.304550,0.312195,-0.300030,0.317127,-0.236504,0.380653,-0.188964,0.402821,-0.182281,0.403113,0.245807,0.403113,
0.295098,0.385173,0.295098,0.385173,$1*%
%AMFreePoly7*
4,1,19,0.290204,0.301344,0.321117,0.247801,0.322490,0.232106,0.322490,-0.232106,0.301344,-0.290204,0.247801,-0.321117,0.232106,-0.322490,-0.232106,-0.322490,-0.290204,-0.301344,-0.321117,-0.247801,-0.322490,-0.232106,-0.322490,0.157228,-0.301344,0.215326,-0.296017,0.221139,-0.221139,0.296017,-0.165105,0.322146,-0.157228,0.322490,0.232106,0.322490,0.290204,0.301344,0.290204,0.301344,
$1*%
%AMFreePoly8*
4,1,15,0.115000,-0.348505,0.112310,-0.355000,0.112310,-0.377340,0.095212,-0.418617,0.063617,-0.450212,0.022340,-0.467310,-0.022340,-0.467310,-0.063617,-0.450212,-0.095212,-0.418617,-0.112310,-0.377340,-0.112310,-0.355000,-0.115000,-0.348505,-0.115000,0.330000,0.115000,0.330000,0.115000,-0.348505,0.115000,-0.348505,$1*%
%AMFreePoly9*
4,1,15,0.355000,0.112310,0.377340,0.112310,0.418617,0.095212,0.450212,0.063617,0.467310,0.022340,0.467310,-0.022340,0.450212,-0.063617,0.418617,-0.095212,0.377340,-0.112310,0.355000,-0.112310,0.348505,-0.115000,-0.330000,-0.115000,-0.330000,0.115000,0.348505,0.115000,0.355000,0.112310,0.355000,0.112310,$1*%
%AMFreePoly10*
4,1,15,0.063617,0.450212,0.095212,0.418617,0.112310,0.377340,0.112310,0.355000,0.115000,0.348505,0.115000,-0.330000,-0.115000,-0.330000,-0.115000,0.348505,-0.112310,0.355000,-0.112310,0.377340,-0.095212,0.418617,-0.063617,0.450212,-0.022340,0.467310,0.022340,0.467310,0.063617,0.450212,0.063617,0.450212,$1*%
%AMFreePoly11*
4,1,16,0.330000,-0.115000,-0.330000,-0.115000,-0.348505,-0.115000,-0.355000,-0.112310,-0.377340,-0.112310,-0.418617,-0.095212,-0.450212,-0.063617,-0.467310,-0.022340,-0.467310,0.022340,-0.450212,0.063617,-0.418617,0.095212,-0.377340,0.112310,-0.355000,0.112310,-0.348505,0.115000,0.330000,0.115000,0.330000,-0.115000,0.330000,-0.115000,$1*%
%AMFreePoly12*
4,1,25,0.301737,0.444662,0.322810,0.427681,0.427681,0.322810,0.461865,0.260206,0.464758,0.233297,0.464758,-0.233297,0.444662,-0.301737,0.427681,-0.322810,0.322810,-0.427681,0.260206,-0.461865,0.233297,-0.464758,-0.233297,-0.464758,-0.301737,-0.444662,-0.322810,-0.427681,-0.427681,-0.322810,-0.461865,-0.260206,-0.464758,-0.233297,-0.464758,0.233297,-0.444662,0.301737,-0.427681,0.322810,
-0.322810,0.427681,-0.260206,0.461865,-0.233297,0.464758,0.233297,0.464758,0.301737,0.444662,0.301737,0.444662,$1*%
G04 Aperture macros list end*
%ADD10RoundRect,0.140000X-0.140000X-0.170000X0.140000X-0.170000X0.140000X0.170000X-0.140000X0.170000X0*%
%ADD11RoundRect,0.135000X0.135000X0.185000X-0.135000X0.185000X-0.135000X-0.185000X0.135000X-0.185000X0*%
%ADD12RoundRect,0.250000X0.250000X1.500000X-0.250000X1.500000X-0.250000X-1.500000X0.250000X-1.500000X0*%
%ADD13RoundRect,0.250001X0.499999X1.449999X-0.499999X1.449999X-0.499999X-1.449999X0.499999X-1.449999X0*%
%ADD14C,0.400000*%
%ADD15R,0.500000X0.400000*%
%ADD16RoundRect,0.135000X-0.135000X-0.185000X0.135000X-0.185000X0.135000X0.185000X-0.135000X0.185000X0*%
%ADD17RoundRect,0.140000X-0.170000X0.140000X-0.170000X-0.140000X0.170000X-0.140000X0.170000X0.140000X0*%
%ADD18RoundRect,0.100000X-0.100000X-0.100000X0.100000X-0.100000X0.100000X0.100000X-0.100000X0.100000X0*%
%ADD19FreePoly0,90.000000*%
%ADD20FreePoly1,90.000000*%
%ADD21FreePoly2,90.000000*%
%ADD22FreePoly3,90.000000*%
%ADD23RoundRect,0.201557X0.201556X-0.201556X0.201556X0.201556X-0.201556X0.201556X-0.201556X-0.201556X0*%
%ADD24FreePoly4,90.000000*%
%ADD25FreePoly5,90.000000*%
%ADD26FreePoly6,90.000000*%
%ADD27FreePoly7,90.000000*%
%ADD28RoundRect,0.062500X0.062500X-0.337500X0.062500X0.337500X-0.062500X0.337500X-0.062500X-0.337500X0*%
%ADD29RoundRect,0.062500X0.337500X-0.062500X0.337500X0.062500X-0.337500X0.062500X-0.337500X-0.062500X0*%
%ADD30RoundRect,0.135000X0.185000X-0.135000X0.185000X0.135000X-0.185000X0.135000X-0.185000X-0.135000X0*%
%ADD31RoundRect,0.140000X0.170000X-0.140000X0.170000X0.140000X-0.170000X0.140000X-0.170000X-0.140000X0*%
%ADD32R,1.450000X0.600000*%
%ADD33R,1.450000X0.300000*%
%ADD34RoundRect,0.040000X-0.605000X0.040000X-0.605000X-0.040000X0.605000X-0.040000X0.605000X0.040000X0*%
%ADD35RoundRect,0.062500X-0.062500X0.387500X-0.062500X-0.387500X0.062500X-0.387500X0.062500X0.387500X0*%
%ADD36RoundRect,0.225000X0.250000X-0.225000X0.250000X0.225000X-0.250000X0.225000X-0.250000X-0.225000X0*%
%ADD37R,0.800000X0.900000*%
%ADD38RoundRect,0.140000X0.140000X0.170000X-0.140000X0.170000X-0.140000X-0.170000X0.140000X-0.170000X0*%
%ADD39RoundRect,0.135000X-0.185000X0.135000X-0.185000X-0.135000X0.185000X-0.135000X0.185000X0.135000X0*%
%ADD40RoundRect,0.218750X0.218750X0.256250X-0.218750X0.256250X-0.218750X-0.256250X0.218750X-0.256250X0*%
%ADD41R,1.050000X0.650000*%
%ADD42R,0.820000X1.070000*%
%ADD43FreePoly8,0.000000*%
%ADD44FreePoly9,0.000000*%
%ADD45FreePoly10,0.000000*%
%ADD46FreePoly11,0.000000*%
%ADD47RoundRect,0.225000X-0.225000X-0.250000X0.225000X-0.250000X0.225000X0.250000X-0.225000X0.250000X0*%
%ADD48R,1.000000X1.800000*%
%ADD49RoundRect,0.075000X-0.075000X-0.325000X0.075000X-0.325000X0.075000X0.325000X-0.075000X0.325000X0*%
%ADD50RoundRect,0.100000X-0.100000X-0.300000X0.100000X-0.300000X0.100000X0.300000X-0.100000X0.300000X0*%
%ADD51RoundRect,0.087500X-0.250000X-0.087500X0.250000X-0.087500X0.250000X0.087500X-0.250000X0.087500X0*%
%ADD52RoundRect,0.218750X0.256250X-0.218750X0.256250X0.218750X-0.256250X0.218750X-0.256250X-0.218750X0*%
%ADD53RoundRect,0.150000X0.150000X0.625000X-0.150000X0.625000X-0.150000X-0.625000X0.150000X-0.625000X0*%
%ADD54RoundRect,0.250000X0.350000X0.650000X-0.350000X0.650000X-0.350000X-0.650000X0.350000X-0.650000X0*%
%ADD55RoundRect,0.225000X0.225000X0.250000X-0.225000X0.250000X-0.225000X-0.250000X0.225000X-0.250000X0*%
%ADD56FreePoly12,180.000000*%
%ADD57RoundRect,0.062500X0.350000X0.062500X-0.350000X0.062500X-0.350000X-0.062500X0.350000X-0.062500X0*%
%ADD58RoundRect,0.062500X0.062500X0.350000X-0.062500X0.350000X-0.062500X-0.350000X0.062500X-0.350000X0*%
G04 APERTURE END LIST*
D10*
%TO.C,C25*%
X153230000Y-101810000D03*
X154190000Y-101810000D03*
%TD*%
D11*
%TO.C,R5*%
X170210000Y-112070000D03*
X169190000Y-112070000D03*
%TD*%
D12*
%TO.C,J4*%
X137880000Y-101308000D03*
X135880000Y-101308000D03*
D13*
X140230000Y-95558000D03*
X133530000Y-95558000D03*
%TD*%
D14*
%TO.C,U1*%
X168920000Y-100930000D03*
X167120000Y-100930000D03*
X161720000Y-100930000D03*
D15*
X161470000Y-100930000D03*
D14*
X168920000Y-101830000D03*
X168020000Y-101830000D03*
X167120000Y-101830000D03*
X166220000Y-101830000D03*
X165320000Y-101830000D03*
X164420000Y-101830000D03*
X163520000Y-101830000D03*
X162620000Y-101830000D03*
X161720000Y-101830000D03*
D15*
X161470000Y-101830000D03*
D14*
X162620000Y-102730000D03*
X161720000Y-102730000D03*
D15*
X161470000Y-102730000D03*
D14*
X168920000Y-103630000D03*
X162620000Y-103630000D03*
X161720000Y-103630000D03*
D15*
X161470000Y-103630000D03*
D14*
X168920000Y-104530000D03*
X162620000Y-104530000D03*
X161720000Y-104530000D03*
D15*
X161470000Y-104530000D03*
D14*
X168920000Y-105430000D03*
X162620000Y-105430000D03*
X161720000Y-105430000D03*
D15*
X161470000Y-105430000D03*
D14*
X168020000Y-106330000D03*
X162620000Y-106330000D03*
X161720000Y-106330000D03*
D15*
X161470000Y-106330000D03*
D14*
X168020000Y-107230000D03*
X162620000Y-107230000D03*
X161720000Y-107230000D03*
D15*
X161470000Y-107230000D03*
D14*
X168020000Y-108130000D03*
X167120000Y-108130000D03*
X166220000Y-108130000D03*
X165320000Y-108130000D03*
X164420000Y-108130000D03*
X163520000Y-108130000D03*
X162620000Y-108130000D03*
X161720000Y-108130000D03*
D15*
X161470000Y-108130000D03*
D14*
X168020000Y-109030000D03*
X167120000Y-109030000D03*
X166220000Y-109030000D03*
X165320000Y-109030000D03*
X164420000Y-109030000D03*
X163520000Y-109030000D03*
X162620000Y-109030000D03*
X161720000Y-109030000D03*
D15*
X161470000Y-109030000D03*
%TD*%
D16*
%TO.C,R6*%
X166940000Y-111650000D03*
X167960000Y-111650000D03*
%TD*%
D17*
%TO.C,C10*%
X140440000Y-107280000D03*
X140440000Y-108240000D03*
%TD*%
D11*
%TO.C,R7*%
X170210000Y-111130000D03*
X169190000Y-111130000D03*
%TD*%
D18*
%TO.C,D3*%
X142480000Y-104580000D03*
X143280000Y-104580000D03*
X143280000Y-105380000D03*
X142480000Y-105380000D03*
%TD*%
D19*
%TO.C,U2*%
X146180000Y-105860000D03*
D20*
X147080000Y-105860000D03*
X148080000Y-105860000D03*
D21*
X148980000Y-105860000D03*
D22*
X146180000Y-104960000D03*
D23*
X147080000Y-104960000D03*
X148080000Y-104960000D03*
D24*
X148980000Y-104960000D03*
D22*
X146180000Y-103960000D03*
D23*
X147080000Y-103960000D03*
X148080000Y-103960000D03*
D24*
X148980000Y-103960000D03*
D25*
X146180000Y-103060000D03*
D26*
X147080000Y-103060000D03*
X148080000Y-103060000D03*
D27*
X148980000Y-103060000D03*
D28*
X145830000Y-106910000D03*
X146330000Y-106910000D03*
X146830000Y-106910000D03*
X147330000Y-106910000D03*
X147830000Y-106910000D03*
X148330000Y-106910000D03*
X148830000Y-106910000D03*
X149330000Y-106910000D03*
D29*
X150030000Y-106210000D03*
X150030000Y-105710000D03*
X150030000Y-105210000D03*
X150030000Y-104710000D03*
X150030000Y-104210000D03*
X150030000Y-103710000D03*
X150030000Y-103210000D03*
X150030000Y-102710000D03*
D28*
X149330000Y-102010000D03*
X148830000Y-102010000D03*
X148330000Y-102010000D03*
X147830000Y-102010000D03*
X147330000Y-102010000D03*
X146830000Y-102010000D03*
X146330000Y-102010000D03*
X145830000Y-102010000D03*
D29*
X145130000Y-102710000D03*
X145130000Y-103210000D03*
X145130000Y-103710000D03*
X145130000Y-104210000D03*
X145130000Y-104710000D03*
X145130000Y-105210000D03*
X145130000Y-105710000D03*
X145130000Y-106210000D03*
%TD*%
D10*
%TO.C,C23*%
X138920000Y-104570000D03*
X139880000Y-104570000D03*
%TD*%
D30*
%TO.C,R2*%
X127103416Y-101355058D03*
X127103416Y-100335058D03*
%TD*%
D31*
%TO.C,C24*%
X158060000Y-103420000D03*
X158060000Y-102460000D03*
%TD*%
D17*
%TO.C,C19*%
X140440000Y-110050000D03*
X140440000Y-111010000D03*
%TD*%
%TO.C,C1*%
X151140000Y-105210000D03*
X151140000Y-106170000D03*
%TD*%
D32*
%TO.C,J3*%
X125405000Y-101730000D03*
X125405000Y-102530000D03*
D33*
X125405000Y-103730000D03*
X125405000Y-104730000D03*
X125405000Y-105230000D03*
X125405000Y-106230000D03*
D32*
X125405000Y-107430000D03*
X125405000Y-108230000D03*
X125405000Y-108230000D03*
X125405000Y-107430000D03*
D33*
X125405000Y-106730000D03*
X125405000Y-105730000D03*
X125405000Y-104230000D03*
X125405000Y-103230000D03*
D32*
X125405000Y-102530000D03*
X125405000Y-101730000D03*
%TD*%
D17*
%TO.C,C18*%
X129930000Y-108820000D03*
X129930000Y-109780000D03*
%TD*%
D34*
%TO.C,U4*%
X159460000Y-106530000D03*
D35*
X160210000Y-105105000D03*
X159710000Y-105105000D03*
X159210000Y-105105000D03*
X158710000Y-105105000D03*
X158710000Y-107955000D03*
X159210000Y-107955000D03*
X159710000Y-107955000D03*
X160210000Y-107955000D03*
%TD*%
D36*
%TO.C,C4*%
X148580000Y-99595000D03*
X148580000Y-98045000D03*
%TD*%
D37*
%TO.C,Y2*%
X131140000Y-109500000D03*
X131140000Y-110900000D03*
X132240000Y-110900000D03*
X132240000Y-109500000D03*
%TD*%
D38*
%TO.C,C16*%
X134440000Y-111710000D03*
X133480000Y-111710000D03*
%TD*%
%TO.C,C22*%
X133260000Y-106780000D03*
X132300000Y-106780000D03*
%TD*%
D31*
%TO.C,C9*%
X160260000Y-100870000D03*
X160260000Y-99910000D03*
%TD*%
D36*
%TO.C,C6*%
X144880000Y-99595000D03*
X144880000Y-98045000D03*
%TD*%
D39*
%TO.C,R8*%
X143110000Y-107010000D03*
X143110000Y-108030000D03*
%TD*%
D40*
%TO.C,D1*%
X165637500Y-111650000D03*
X164062500Y-111650000D03*
%TD*%
D10*
%TO.C,C13*%
X128310000Y-111855000D03*
X129270000Y-111855000D03*
%TD*%
D41*
%TO.C,SW1*%
X157835000Y-111605000D03*
X153685000Y-111605000D03*
X157835000Y-109455000D03*
X153710000Y-109455000D03*
%TD*%
D42*
%TO.C,U6*%
X154640000Y-104235000D03*
X154640000Y-105605000D03*
X155760000Y-104235000D03*
X155760000Y-105605000D03*
D43*
X154450000Y-102875000D03*
D44*
X153405000Y-103670000D03*
X153405000Y-104170000D03*
X153405000Y-104670000D03*
X153405000Y-105170000D03*
X153405000Y-105670000D03*
X153405000Y-106170000D03*
D45*
X154450000Y-106965000D03*
X155950000Y-106965000D03*
D46*
X156995000Y-106170000D03*
X156995000Y-105670000D03*
X156995000Y-105170000D03*
X156995000Y-104670000D03*
X156995000Y-104170000D03*
X156995000Y-103670000D03*
D43*
X155950000Y-102875000D03*
%TD*%
D30*
%TO.C,R4*%
X151200000Y-102800000D03*
X151200000Y-101780000D03*
%TD*%
D47*
%TO.C,C11*%
X150045000Y-100590000D03*
X151595000Y-100590000D03*
%TD*%
D48*
%TO.C,Y1*%
X159840000Y-98230000D03*
X162340000Y-98230000D03*
%TD*%
D41*
%TO.C,SW2*%
X157835000Y-100505000D03*
X153685000Y-100505000D03*
X157835000Y-98355000D03*
X153710000Y-98355000D03*
%TD*%
D49*
%TO.C,J6*%
X126810000Y-113280000D03*
X127310000Y-113280000D03*
X127810000Y-113280000D03*
X128310000Y-113280000D03*
X128810000Y-113280000D03*
D50*
X125810000Y-115780000D03*
X129810000Y-115780000D03*
%TD*%
D36*
%TO.C,C8*%
X150370000Y-111705000D03*
X150370000Y-110155000D03*
%TD*%
D47*
%TO.C,C2*%
X148085000Y-108670000D03*
X149635000Y-108670000D03*
%TD*%
D30*
%TO.C,R3*%
X128043416Y-101355058D03*
X128043416Y-100335058D03*
%TD*%
D10*
%TO.C,C15*%
X138590000Y-111690000D03*
X139550000Y-111690000D03*
%TD*%
D51*
%TO.C,U3*%
X127897500Y-104472500D03*
X127897500Y-104972500D03*
X127897500Y-105472500D03*
X129322500Y-105472500D03*
X129322500Y-104472500D03*
%TD*%
D52*
%TO.C,L1*%
X148860000Y-111717500D03*
X148860000Y-110142500D03*
%TD*%
D38*
%TO.C,C14*%
X127310000Y-111855000D03*
X126350000Y-111855000D03*
%TD*%
D36*
%TO.C,C5*%
X147010000Y-99595000D03*
X147010000Y-98045000D03*
%TD*%
D31*
%TO.C,C7*%
X140440000Y-106420000D03*
X140440000Y-105460000D03*
%TD*%
D16*
%TO.C,R1*%
X155250000Y-108040000D03*
X156270000Y-108040000D03*
%TD*%
D38*
%TO.C,C21*%
X132780000Y-107740000D03*
X131820000Y-107740000D03*
%TD*%
D53*
%TO.C,J5*%
X129490000Y-98633000D03*
X128490000Y-98633000D03*
X127490000Y-98633000D03*
X126490000Y-98633000D03*
D54*
X130790000Y-94758000D03*
X125190000Y-94758000D03*
%TD*%
D55*
%TO.C,C3*%
X146615000Y-108670000D03*
X145065000Y-108670000D03*
%TD*%
D38*
%TO.C,C17*%
X135870000Y-104400000D03*
X134910000Y-104400000D03*
%TD*%
D56*
%TO.C,U5*%
X137913333Y-109163333D03*
X137913333Y-108130000D03*
X137913333Y-107096667D03*
X136880000Y-109163333D03*
X136880000Y-108130000D03*
X136880000Y-107096667D03*
X135846667Y-109163333D03*
X135846667Y-108130000D03*
X135846667Y-107096667D03*
D57*
X139317500Y-109930000D03*
X139317500Y-109530000D03*
X139317500Y-109130000D03*
X139317500Y-108730000D03*
X139317500Y-108330000D03*
X139317500Y-107930000D03*
X139317500Y-107530000D03*
X139317500Y-107130000D03*
X139317500Y-106730000D03*
X139317500Y-106330000D03*
D58*
X138680000Y-105692500D03*
X138280000Y-105692500D03*
X137880000Y-105692500D03*
X137480000Y-105692500D03*
X137080000Y-105692500D03*
X136680000Y-105692500D03*
X136280000Y-105692500D03*
X135880000Y-105692500D03*
X135480000Y-105692500D03*
X135080000Y-105692500D03*
D57*
X134442500Y-106330000D03*
X134442500Y-106730000D03*
X134442500Y-107130000D03*
X134442500Y-107530000D03*
X134442500Y-107930000D03*
X134442500Y-108330000D03*
X134442500Y-108730000D03*
X134442500Y-109130000D03*
X134442500Y-109530000D03*
X134442500Y-109930000D03*
D58*
X135080000Y-110567500D03*
X135480000Y-110567500D03*
X135880000Y-110567500D03*
X136280000Y-110567500D03*
X136680000Y-110567500D03*
X137080000Y-110567500D03*
X137480000Y-110567500D03*
X137880000Y-110567500D03*
X138280000Y-110567500D03*
X138680000Y-110567500D03*
%TD*%
D17*
%TO.C,C12*%
X160210000Y-109140000D03*
X160210000Y-110100000D03*
%TD*%
D10*
%TO.C,C20*%
X131210000Y-112060000D03*
X132170000Y-112060000D03*
%TD*%
M02*
