%TF.GenerationSoftware,KiCad,Pcbnew,9.0.7*%
%TF.CreationDate,2026-01-28T15:54:31+01:00*%
%TF.ProjectId,RoyalBlue54L-Feather,526f7961-6c42-46c7-9565-35344c2d4665,rev?*%
%TF.SameCoordinates,Original*%
%TF.FileFunction,Soldermask,Top*%
%TF.FilePolarity,Negative*%
%FSLAX46Y46*%
G04 Gerber Fmt 4.6, Leading zero omitted, Abs format (unit mm)*
G04 Created by KiCad (PCBNEW 9.0.7) date 2026-01-28 15:54:31*
%MOMM*%
%LPD*%
G01*
G04 APERTURE LIST*
G04 Aperture macros list*
%AMRoundRect*
0 Rectangle with rounded corners*
0 $1 Rounding radius*
0 $2 $3 $4 $5 $6 $7 $8 $9 X,Y pos of 4 corners*
0 Add a 4 corners polygon primitive as box body*
4,1,4,$2,$3,$4,$5,$6,$7,$8,$9,$2,$3,0*
0 Add four circle primitives for the rounded corners*
1,1,$1+$1,$2,$3*
1,1,$1+$1,$4,$5*
1,1,$1+$1,$6,$7*
1,1,$1+$1,$8,$9*
0 Add four rect primitives between the rounded corners*
20,1,$1+$1,$2,$3,$4,$5,0*
20,1,$1+$1,$4,$5,$6,$7,0*
20,1,$1+$1,$6,$7,$8,$9,0*
20,1,$1+$1,$8,$9,$2,$3,0*%
%AMOutline5P*
0 Free polygon, 5 corners , with rotation*
0 The origin of the aperture is its center*
0 number of corners: always 5*
0 $1 to $10 corner X, Y*
0 $11 Rotation angle, in degrees counterclockwise*
0 create outline with 5 corners*
4,1,5,$1,$2,$3,$4,$5,$6,$7,$8,$9,$10,$1,$2,$11*%
%AMOutline6P*
0 Free polygon, 6 corners , with rotation*
0 The origin of the aperture is its center*
0 number of corners: always 6*
0 $1 to $12 corner X, Y*
0 $13 Rotation angle, in degrees counterclockwise*
0 create outline with 6 corners*
4,1,6,$1,$2,$3,$4,$5,$6,$7,$8,$9,$10,$11,$12,$1,$2,$13*%
%AMOutline7P*
0 Free polygon, 7 corners , with rotation*
0 The origin of the aperture is its center*
0 number of corners: always 7*
0 $1 to $14 corner X, Y*
0 $15 Rotation angle, in degrees counterclockwise*
0 create outline with 7 corners*
4,1,7,$1,$2,$3,$4,$5,$6,$7,$8,$9,$10,$11,$12,$13,$14,$1,$2,$15*%
%AMOutline8P*
0 Free polygon, 8 corners , with rotation*
0 The origin of the aperture is its center*
0 number of corners: always 8*
0 $1 to $16 corner X, Y*
0 $17 Rotation angle, in degrees counterclockwise*
0 create outline with 8 corners*
4,1,8,$1,$2,$3,$4,$5,$6,$7,$8,$9,$10,$11,$12,$13,$14,$15,$16,$1,$2,$17*%
%AMFreePoly0*
4,1,15,0.140000,-0.355000,0.137310,-0.355000,0.137310,-0.382313,0.116406,-0.432780,0.077780,-0.471406,0.027313,-0.492310,-0.027313,-0.492310,-0.077780,-0.471406,-0.116406,-0.432780,-0.137310,-0.382313,-0.137310,-0.355000,-0.140000,-0.355000,-0.140000,0.355000,0.140000,0.355000,0.140000,-0.355000,0.140000,-0.355000,$1*%
%AMFreePoly1*
4,1,15,0.355000,0.137310,0.382313,0.137310,0.432780,0.116406,0.471406,0.077780,0.492310,0.027313,0.492310,-0.027313,0.471406,-0.077780,0.432780,-0.116406,0.382313,-0.137310,0.355000,-0.137310,0.355000,-0.140000,-0.355000,-0.140000,-0.355000,0.140000,0.355000,0.140000,0.355000,0.137310,0.355000,0.137310,$1*%
%AMFreePoly2*
4,1,15,0.077780,0.471406,0.116406,0.432780,0.137310,0.382313,0.137310,0.355000,0.140000,0.355000,0.140000,-0.355000,-0.140000,-0.355000,-0.140000,0.355000,-0.137310,0.355000,-0.137310,0.382313,-0.116406,0.432780,-0.077780,0.471406,-0.027313,0.492310,0.027313,0.492310,0.077780,0.471406,0.077780,0.471406,$1*%
%AMFreePoly3*
4,1,15,0.355000,-0.140000,-0.355000,-0.140000,-0.355000,-0.137310,-0.382313,-0.137310,-0.432780,-0.116406,-0.471406,-0.077780,-0.492310,-0.027313,-0.492310,0.027313,-0.471406,0.077780,-0.432780,0.116406,-0.382313,0.137310,-0.355000,0.137310,-0.355000,0.140000,0.355000,0.140000,0.355000,-0.140000,0.355000,-0.140000,$1*%
%AMFreePoly4*
4,1,13,-0.850000,0.425000,-0.425000,0.850000,0.425000,0.850000,0.850000,0.425000,0.850000,-0.425000,0.425000,-0.850000,-0.425000,-0.850000,-0.556332,-0.829199,-0.674809,-0.768832,-0.768832,-0.674809,-0.829199,-0.556332,-0.850000,-0.425000,-0.850000,0.425000,-0.850000,0.425000,$1*%
G04 Aperture macros list end*
%ADD10C,2.500000*%
%ADD11RoundRect,0.140000X-0.140000X-0.170000X0.140000X-0.170000X0.140000X0.170000X-0.140000X0.170000X0*%
%ADD12RoundRect,0.135000X0.135000X0.185000X-0.135000X0.185000X-0.135000X-0.185000X0.135000X-0.185000X0*%
%ADD13RoundRect,0.250000X0.250000X1.500000X-0.250000X1.500000X-0.250000X-1.500000X0.250000X-1.500000X0*%
%ADD14RoundRect,0.250001X0.499999X1.449999X-0.499999X1.449999X-0.499999X-1.449999X0.499999X-1.449999X0*%
%ADD15C,0.400000*%
%ADD16R,0.500000X0.400000*%
%ADD17RoundRect,0.135000X-0.135000X-0.185000X0.135000X-0.185000X0.135000X0.185000X-0.135000X0.185000X0*%
%ADD18RoundRect,0.140000X-0.170000X0.140000X-0.170000X-0.140000X0.170000X-0.140000X0.170000X0.140000X0*%
%ADD19RoundRect,0.100000X-0.100000X-0.100000X0.100000X-0.100000X0.100000X0.100000X-0.100000X0.100000X0*%
%ADD20RoundRect,0.062500X0.062500X-0.337500X0.062500X0.337500X-0.062500X0.337500X-0.062500X-0.337500X0*%
%ADD21RoundRect,0.062500X0.337500X-0.062500X0.337500X0.062500X-0.337500X0.062500X-0.337500X-0.062500X0*%
%ADD22R,3.600000X3.600000*%
%ADD23RoundRect,0.135000X0.185000X-0.135000X0.185000X0.135000X-0.185000X0.135000X-0.185000X-0.135000X0*%
%ADD24RoundRect,0.140000X0.170000X-0.140000X0.170000X0.140000X-0.170000X0.140000X-0.170000X-0.140000X0*%
%ADD25C,0.650000*%
%ADD26R,1.450000X0.600000*%
%ADD27R,1.450000X0.300000*%
%ADD28O,2.100000X1.000000*%
%ADD29O,1.600000X1.000000*%
%ADD30RoundRect,0.062500X-0.062500X0.387500X-0.062500X-0.387500X0.062500X-0.387500X0.062500X0.387500X0*%
%ADD31R,1.600000X0.200000*%
%ADD32RoundRect,0.225000X0.250000X-0.225000X0.250000X0.225000X-0.250000X0.225000X-0.250000X-0.225000X0*%
%ADD33R,0.800000X0.900000*%
%ADD34RoundRect,0.140000X0.140000X0.170000X-0.140000X0.170000X-0.140000X-0.170000X0.140000X-0.170000X0*%
%ADD35RoundRect,0.135000X-0.185000X0.135000X-0.185000X-0.135000X0.185000X-0.135000X0.185000X0.135000X0*%
%ADD36RoundRect,0.218750X0.218750X0.256250X-0.218750X0.256250X-0.218750X-0.256250X0.218750X-0.256250X0*%
%ADD37R,1.050000X0.650000*%
%ADD38FreePoly0,0.000000*%
%ADD39FreePoly1,0.000000*%
%ADD40FreePoly2,0.000000*%
%ADD41FreePoly3,0.000000*%
%ADD42R,2.050000X2.550000*%
%ADD43RoundRect,0.225000X-0.225000X-0.250000X0.225000X-0.250000X0.225000X0.250000X-0.225000X0.250000X0*%
%ADD44R,1.000000X1.800000*%
%ADD45Outline8P,-0.850000X0.425000X-0.425000X0.850000X0.425000X0.850000X0.850000X0.425000X0.850000X-0.425000X0.425000X-0.850000X-0.425000X-0.850000X-0.850000X-0.425000X90.000000*%
%ADD46R,1.700000X1.700000*%
%ADD47O,1.700000X1.700000*%
%ADD48R,1.700000X2.120000*%
%ADD49RoundRect,0.075000X-0.075000X-0.325000X0.075000X-0.325000X0.075000X0.325000X-0.075000X0.325000X0*%
%ADD50RoundRect,0.100000X-0.100000X-0.300000X0.100000X-0.300000X0.100000X0.300000X-0.100000X0.300000X0*%
%ADD51RoundRect,0.087500X-0.250000X-0.087500X0.250000X-0.087500X0.250000X0.087500X-0.250000X0.087500X0*%
%ADD52RoundRect,0.218750X0.256250X-0.218750X0.256250X0.218750X-0.256250X0.218750X-0.256250X-0.218750X0*%
%ADD53RoundRect,0.150000X0.150000X0.625000X-0.150000X0.625000X-0.150000X-0.625000X0.150000X-0.625000X0*%
%ADD54RoundRect,0.250000X0.350000X0.650000X-0.350000X0.650000X-0.350000X-0.650000X0.350000X-0.650000X0*%
%ADD55RoundRect,0.225000X0.225000X0.250000X-0.225000X0.250000X-0.225000X-0.250000X0.225000X-0.250000X0*%
%ADD56RoundRect,0.062500X0.350000X0.062500X-0.350000X0.062500X-0.350000X-0.062500X0.350000X-0.062500X0*%
%ADD57RoundRect,0.062500X0.062500X0.350000X-0.062500X0.350000X-0.062500X-0.350000X0.062500X-0.350000X0*%
%ADD58Outline8P,-0.850000X0.425000X-0.425000X0.850000X0.425000X0.850000X0.850000X0.425000X0.850000X-0.425000X0.425000X-0.850000X-0.425000X-0.850000X-0.850000X-0.425000X270.000000*%
%ADD59FreePoly4,270.000000*%
%ADD60C,0.990600*%
G04 APERTURE END LIST*
D10*
%TO.C,H4*%
X174980000Y-113870000D03*
%TD*%
D11*
%TO.C,C25*%
X153230000Y-101810000D03*
X154190000Y-101810000D03*
%TD*%
D12*
%TO.C,R5*%
X170210000Y-112070000D03*
X169190000Y-112070000D03*
%TD*%
D13*
%TO.C,J4*%
X137880000Y-101308000D03*
X135880000Y-101308000D03*
D14*
X140230000Y-95558000D03*
X133530000Y-95558000D03*
%TD*%
D15*
%TO.C,U1*%
X168920000Y-100930000D03*
X167120000Y-100930000D03*
X161720000Y-100930000D03*
D16*
X161470000Y-100930000D03*
D15*
X168920000Y-101830000D03*
X168020000Y-101830000D03*
X167120000Y-101830000D03*
X166220000Y-101830000D03*
X165320000Y-101830000D03*
X164420000Y-101830000D03*
X163520000Y-101830000D03*
X162620000Y-101830000D03*
X161720000Y-101830000D03*
D16*
X161470000Y-101830000D03*
D15*
X162620000Y-102730000D03*
X161720000Y-102730000D03*
D16*
X161470000Y-102730000D03*
D15*
X168920000Y-103630000D03*
X162620000Y-103630000D03*
X161720000Y-103630000D03*
D16*
X161470000Y-103630000D03*
D15*
X168920000Y-104530000D03*
X162620000Y-104530000D03*
X161720000Y-104530000D03*
D16*
X161470000Y-104530000D03*
D15*
X168920000Y-105430000D03*
X162620000Y-105430000D03*
X161720000Y-105430000D03*
D16*
X161470000Y-105430000D03*
D15*
X168020000Y-106330000D03*
X162620000Y-106330000D03*
X161720000Y-106330000D03*
D16*
X161470000Y-106330000D03*
D15*
X168020000Y-107230000D03*
X162620000Y-107230000D03*
X161720000Y-107230000D03*
D16*
X161470000Y-107230000D03*
D15*
X168020000Y-108130000D03*
X167120000Y-108130000D03*
X166220000Y-108130000D03*
X165320000Y-108130000D03*
X164420000Y-108130000D03*
X163520000Y-108130000D03*
X162620000Y-108130000D03*
X161720000Y-108130000D03*
D16*
X161470000Y-108130000D03*
D15*
X168020000Y-109030000D03*
X167120000Y-109030000D03*
X166220000Y-109030000D03*
X165320000Y-109030000D03*
X164420000Y-109030000D03*
X163520000Y-109030000D03*
X162620000Y-109030000D03*
X161720000Y-109030000D03*
D16*
X161470000Y-109030000D03*
%TD*%
D17*
%TO.C,R6*%
X166940000Y-111650000D03*
X167960000Y-111650000D03*
%TD*%
D18*
%TO.C,C10*%
X140440000Y-107280000D03*
X140440000Y-108240000D03*
%TD*%
D12*
%TO.C,R7*%
X170210000Y-111130000D03*
X169190000Y-111130000D03*
%TD*%
D19*
%TO.C,D3*%
X142480000Y-104580000D03*
X143280000Y-104580000D03*
X143280000Y-105380000D03*
X142480000Y-105380000D03*
%TD*%
D20*
%TO.C,U2*%
X145830000Y-106910000D03*
X146330000Y-106910000D03*
X146830000Y-106910000D03*
X147330000Y-106910000D03*
X147830000Y-106910000D03*
X148330000Y-106910000D03*
X148830000Y-106910000D03*
X149330000Y-106910000D03*
D21*
X150030000Y-106210000D03*
X150030000Y-105710000D03*
X150030000Y-105210000D03*
X150030000Y-104710000D03*
X150030000Y-104210000D03*
X150030000Y-103710000D03*
X150030000Y-103210000D03*
X150030000Y-102710000D03*
D20*
X149330000Y-102010000D03*
X148830000Y-102010000D03*
X148330000Y-102010000D03*
X147830000Y-102010000D03*
X147330000Y-102010000D03*
X146830000Y-102010000D03*
X146330000Y-102010000D03*
X145830000Y-102010000D03*
D21*
X145130000Y-102710000D03*
X145130000Y-103210000D03*
X145130000Y-103710000D03*
X145130000Y-104210000D03*
X145130000Y-104710000D03*
X145130000Y-105210000D03*
X145130000Y-105710000D03*
X145130000Y-106210000D03*
D22*
X147580000Y-104460000D03*
%TD*%
D11*
%TO.C,C23*%
X138920000Y-104570000D03*
X139880000Y-104570000D03*
%TD*%
D23*
%TO.C,R2*%
X127103416Y-101355058D03*
X127103416Y-100335058D03*
%TD*%
D24*
%TO.C,C24*%
X158060000Y-103420000D03*
X158060000Y-102460000D03*
%TD*%
D10*
%TO.C,H2*%
X174980000Y-96090000D03*
%TD*%
D18*
%TO.C,C19*%
X140440000Y-110050000D03*
X140440000Y-111010000D03*
%TD*%
%TO.C,C1*%
X151140000Y-105210000D03*
X151140000Y-106170000D03*
%TD*%
D25*
%TO.C,J3*%
X123960000Y-102090000D03*
X123960000Y-107870000D03*
D26*
X125405000Y-101730000D03*
X125405000Y-102530000D03*
D27*
X125405000Y-103730000D03*
X125405000Y-104730000D03*
X125405000Y-105230000D03*
X125405000Y-106230000D03*
D26*
X125405000Y-107430000D03*
X125405000Y-108230000D03*
X125405000Y-108230000D03*
X125405000Y-107430000D03*
D27*
X125405000Y-106730000D03*
X125405000Y-105730000D03*
X125405000Y-104230000D03*
X125405000Y-103230000D03*
D26*
X125405000Y-102530000D03*
X125405000Y-101730000D03*
D28*
X124490000Y-100660000D03*
D29*
X120310000Y-100660000D03*
D28*
X124490000Y-109300000D03*
D29*
X120310000Y-109300000D03*
%TD*%
D18*
%TO.C,C18*%
X129930000Y-108820000D03*
X129930000Y-109780000D03*
%TD*%
D30*
%TO.C,U4*%
X160210000Y-105105000D03*
X159710000Y-105105000D03*
X159210000Y-105105000D03*
X158710000Y-105105000D03*
X158710000Y-107955000D03*
X159210000Y-107955000D03*
X159710000Y-107955000D03*
X160210000Y-107955000D03*
D31*
X159460000Y-106530000D03*
%TD*%
D32*
%TO.C,C4*%
X148580000Y-99595000D03*
X148580000Y-98045000D03*
%TD*%
D33*
%TO.C,Y2*%
X131140000Y-109500000D03*
X131140000Y-110900000D03*
X132240000Y-110900000D03*
X132240000Y-109500000D03*
%TD*%
D34*
%TO.C,C16*%
X134440000Y-111710000D03*
X133480000Y-111710000D03*
%TD*%
%TO.C,C22*%
X133260000Y-106780000D03*
X132300000Y-106780000D03*
%TD*%
D24*
%TO.C,C9*%
X160260000Y-100870000D03*
X160260000Y-99910000D03*
%TD*%
D32*
%TO.C,C6*%
X144880000Y-99595000D03*
X144880000Y-98045000D03*
%TD*%
D10*
%TO.C,H3*%
X121640000Y-113870000D03*
%TD*%
D35*
%TO.C,R8*%
X143110000Y-107010000D03*
X143110000Y-108030000D03*
%TD*%
D36*
%TO.C,D1*%
X165637500Y-111650000D03*
X164062500Y-111650000D03*
%TD*%
D11*
%TO.C,C13*%
X128310000Y-111855000D03*
X129270000Y-111855000D03*
%TD*%
D37*
%TO.C,SW1*%
X157835000Y-111605000D03*
X153685000Y-111605000D03*
X157835000Y-109455000D03*
X153710000Y-109455000D03*
%TD*%
D38*
%TO.C,U6*%
X154450000Y-102875000D03*
D39*
X153405000Y-103670000D03*
X153405000Y-104170000D03*
X153405000Y-104670000D03*
X153405000Y-105170000D03*
X153405000Y-105670000D03*
X153405000Y-106170000D03*
D40*
X154450000Y-106965000D03*
X155950000Y-106965000D03*
D41*
X156995000Y-106170000D03*
X156995000Y-105670000D03*
X156995000Y-105170000D03*
X156995000Y-104670000D03*
X156995000Y-104170000D03*
X156995000Y-103670000D03*
D38*
X155950000Y-102875000D03*
D42*
X155200000Y-104920000D03*
%TD*%
D23*
%TO.C,R4*%
X151200000Y-102800000D03*
X151200000Y-101780000D03*
%TD*%
D43*
%TO.C,C11*%
X150045000Y-100590000D03*
X151595000Y-100590000D03*
%TD*%
D44*
%TO.C,Y1*%
X159840000Y-98230000D03*
X162340000Y-98230000D03*
%TD*%
D10*
%TO.C,H1*%
X121640000Y-96090000D03*
%TD*%
D37*
%TO.C,SW2*%
X157835000Y-100505000D03*
X153685000Y-100505000D03*
X157835000Y-98355000D03*
X153710000Y-98355000D03*
%TD*%
D45*
%TO.C,J2*%
X143230000Y-94820000D03*
X143230000Y-94820000D03*
D46*
X143230000Y-93550000D03*
D47*
X145770000Y-94820000D03*
D48*
X145770000Y-93760000D03*
D45*
X148310000Y-94820000D03*
D48*
X148310000Y-93760000D03*
D47*
X150850000Y-94820000D03*
D48*
X150850000Y-93760000D03*
D47*
X153390000Y-94820000D03*
D48*
X153390000Y-93760000D03*
D47*
X155930000Y-94820000D03*
D48*
X155930000Y-93760000D03*
D47*
X158470000Y-94820000D03*
D48*
X158470000Y-93760000D03*
D47*
X161010000Y-94820000D03*
D48*
X161010000Y-93760000D03*
D47*
X163550000Y-94820000D03*
D48*
X163550000Y-93760000D03*
D47*
X166090000Y-94820000D03*
D48*
X166090000Y-93760000D03*
D47*
X168630000Y-94820000D03*
D48*
X168630000Y-93760000D03*
D47*
X171170000Y-94820000D03*
D48*
X171170000Y-93760000D03*
%TD*%
D49*
%TO.C,J6*%
X126810000Y-113280000D03*
X127310000Y-113280000D03*
X127810000Y-113280000D03*
X128310000Y-113280000D03*
X128810000Y-113280000D03*
D50*
X125810000Y-115780000D03*
X129810000Y-115780000D03*
%TD*%
D32*
%TO.C,C8*%
X150370000Y-111705000D03*
X150370000Y-110155000D03*
%TD*%
D43*
%TO.C,C2*%
X148085000Y-108670000D03*
X149635000Y-108670000D03*
%TD*%
D23*
%TO.C,R3*%
X128043416Y-101355058D03*
X128043416Y-100335058D03*
%TD*%
D11*
%TO.C,C15*%
X138590000Y-111690000D03*
X139550000Y-111690000D03*
%TD*%
D51*
%TO.C,U3*%
X127897500Y-104472500D03*
X127897500Y-104972500D03*
X127897500Y-105472500D03*
X129322500Y-105472500D03*
X129322500Y-104472500D03*
%TD*%
D52*
%TO.C,L1*%
X148860000Y-111717500D03*
X148860000Y-110142500D03*
%TD*%
D34*
%TO.C,C14*%
X127310000Y-111855000D03*
X126350000Y-111855000D03*
%TD*%
D32*
%TO.C,C5*%
X147010000Y-99595000D03*
X147010000Y-98045000D03*
%TD*%
D24*
%TO.C,C7*%
X140440000Y-106420000D03*
X140440000Y-105460000D03*
%TD*%
D17*
%TO.C,R1*%
X155250000Y-108040000D03*
X156270000Y-108040000D03*
%TD*%
D34*
%TO.C,C21*%
X132780000Y-107740000D03*
X131820000Y-107740000D03*
%TD*%
D53*
%TO.C,J5*%
X129490000Y-98633000D03*
X128490000Y-98633000D03*
X127490000Y-98633000D03*
X126490000Y-98633000D03*
D54*
X130790000Y-94758000D03*
X125190000Y-94758000D03*
%TD*%
D55*
%TO.C,C3*%
X146615000Y-108670000D03*
X145065000Y-108670000D03*
%TD*%
D34*
%TO.C,C17*%
X135870000Y-104400000D03*
X134910000Y-104400000D03*
%TD*%
D56*
%TO.C,U5*%
X139317500Y-109930000D03*
X139317500Y-109530000D03*
X139317500Y-109130000D03*
X139317500Y-108730000D03*
X139317500Y-108330000D03*
X139317500Y-107930000D03*
X139317500Y-107530000D03*
X139317500Y-107130000D03*
X139317500Y-106730000D03*
X139317500Y-106330000D03*
D57*
X138680000Y-105692500D03*
X138280000Y-105692500D03*
X137880000Y-105692500D03*
X137480000Y-105692500D03*
X137080000Y-105692500D03*
X136680000Y-105692500D03*
X136280000Y-105692500D03*
X135880000Y-105692500D03*
X135480000Y-105692500D03*
X135080000Y-105692500D03*
D56*
X134442500Y-106330000D03*
X134442500Y-106730000D03*
X134442500Y-107130000D03*
X134442500Y-107530000D03*
X134442500Y-107930000D03*
X134442500Y-108330000D03*
X134442500Y-108730000D03*
X134442500Y-109130000D03*
X134442500Y-109530000D03*
X134442500Y-109930000D03*
D57*
X135080000Y-110567500D03*
X135480000Y-110567500D03*
X135880000Y-110567500D03*
X136280000Y-110567500D03*
X136680000Y-110567500D03*
X137080000Y-110567500D03*
X137480000Y-110567500D03*
X137880000Y-110567500D03*
X138280000Y-110567500D03*
X138680000Y-110567500D03*
D22*
X136880000Y-108130000D03*
%TD*%
D18*
%TO.C,C12*%
X160210000Y-109140000D03*
X160210000Y-110100000D03*
%TD*%
D11*
%TO.C,C20*%
X131210000Y-112060000D03*
X132170000Y-112060000D03*
%TD*%
D47*
%TO.C,J1*%
X133070000Y-115140000D03*
D48*
X133070000Y-116200000D03*
D58*
X135610000Y-115140000D03*
D48*
X135610000Y-116200000D03*
D59*
X138150000Y-115140000D03*
D48*
X138150000Y-116200000D03*
D46*
X140690000Y-115140000D03*
D48*
X140690000Y-116200000D03*
D47*
X143230000Y-115140000D03*
D48*
X143230000Y-116200000D03*
D47*
X145770000Y-115140000D03*
D48*
X145770000Y-116200000D03*
D47*
X148310000Y-115140000D03*
D48*
X148310000Y-116200000D03*
D47*
X150850000Y-115140000D03*
D48*
X150850000Y-116200000D03*
D47*
X153390000Y-115140000D03*
D48*
X153390000Y-116200000D03*
D47*
X155930000Y-115140000D03*
D48*
X155930000Y-116200000D03*
D47*
X158470000Y-115140000D03*
D48*
X158470000Y-116200000D03*
D47*
X161010000Y-115140000D03*
D48*
X161010000Y-116200000D03*
D47*
X163550000Y-115140000D03*
D48*
X163550000Y-116200000D03*
D47*
X166090000Y-115140000D03*
D48*
X166090000Y-116200000D03*
D47*
X168630000Y-115140000D03*
D48*
X168630000Y-116200000D03*
D47*
X171170000Y-115140000D03*
D48*
X171170000Y-116200000D03*
%TD*%
D60*
%TO.C,J8*%
X128610000Y-107512500D03*
X127594000Y-102432500D03*
X129626000Y-102432500D03*
%TD*%
M02*
