%TF.GenerationSoftware,KiCad,Pcbnew,9.0.7*%
%TF.CreationDate,2026-01-28T15:54:31+01:00*%
%TF.ProjectId,RoyalBlue54L-Feather,526f7961-6c42-46c7-9565-35344c2d4665,rev?*%
%TF.SameCoordinates,Original*%
%TF.FileFunction,Other,Comment*%
%FSLAX46Y46*%
G04 Gerber Fmt 4.6, Leading zero omitted, Abs format (unit mm)*
G04 Created by KiCad (PCBNEW 9.0.7) date 2026-01-28 15:54:31*
%MOMM*%
%LPD*%
G01*
G04 APERTURE LIST*
%ADD10C,0.125000*%
%ADD11C,0.070000*%
%ADD12C,0.150000*%
G04 APERTURE END LIST*
D10*
X174338047Y-101908573D02*
X174338047Y-102146668D01*
X174195190Y-101860954D02*
X174695190Y-102027620D01*
X174695190Y-102027620D02*
X174195190Y-102194287D01*
X174528523Y-102360953D02*
X174195190Y-102360953D01*
X174480904Y-102360953D02*
X174504714Y-102384763D01*
X174504714Y-102384763D02*
X174528523Y-102432382D01*
X174528523Y-102432382D02*
X174528523Y-102503810D01*
X174528523Y-102503810D02*
X174504714Y-102551429D01*
X174504714Y-102551429D02*
X174457095Y-102575239D01*
X174457095Y-102575239D02*
X174195190Y-102575239D01*
X174528523Y-102741906D02*
X174528523Y-102932382D01*
X174695190Y-102813334D02*
X174266619Y-102813334D01*
X174266619Y-102813334D02*
X174219000Y-102837144D01*
X174219000Y-102837144D02*
X174195190Y-102884763D01*
X174195190Y-102884763D02*
X174195190Y-102932382D01*
X174219000Y-103289524D02*
X174195190Y-103241905D01*
X174195190Y-103241905D02*
X174195190Y-103146667D01*
X174195190Y-103146667D02*
X174219000Y-103099048D01*
X174219000Y-103099048D02*
X174266619Y-103075239D01*
X174266619Y-103075239D02*
X174457095Y-103075239D01*
X174457095Y-103075239D02*
X174504714Y-103099048D01*
X174504714Y-103099048D02*
X174528523Y-103146667D01*
X174528523Y-103146667D02*
X174528523Y-103241905D01*
X174528523Y-103241905D02*
X174504714Y-103289524D01*
X174504714Y-103289524D02*
X174457095Y-103313334D01*
X174457095Y-103313334D02*
X174409476Y-103313334D01*
X174409476Y-103313334D02*
X174361857Y-103075239D01*
X174528523Y-103527619D02*
X174195190Y-103527619D01*
X174480904Y-103527619D02*
X174504714Y-103551429D01*
X174504714Y-103551429D02*
X174528523Y-103599048D01*
X174528523Y-103599048D02*
X174528523Y-103670476D01*
X174528523Y-103670476D02*
X174504714Y-103718095D01*
X174504714Y-103718095D02*
X174457095Y-103741905D01*
X174457095Y-103741905D02*
X174195190Y-103741905D01*
X174528523Y-103980000D02*
X174195190Y-103980000D01*
X174480904Y-103980000D02*
X174504714Y-104003810D01*
X174504714Y-104003810D02*
X174528523Y-104051429D01*
X174528523Y-104051429D02*
X174528523Y-104122857D01*
X174528523Y-104122857D02*
X174504714Y-104170476D01*
X174504714Y-104170476D02*
X174457095Y-104194286D01*
X174457095Y-104194286D02*
X174195190Y-104194286D01*
X174195190Y-104646667D02*
X174457095Y-104646667D01*
X174457095Y-104646667D02*
X174504714Y-104622857D01*
X174504714Y-104622857D02*
X174528523Y-104575238D01*
X174528523Y-104575238D02*
X174528523Y-104480000D01*
X174528523Y-104480000D02*
X174504714Y-104432381D01*
X174219000Y-104646667D02*
X174195190Y-104599048D01*
X174195190Y-104599048D02*
X174195190Y-104480000D01*
X174195190Y-104480000D02*
X174219000Y-104432381D01*
X174219000Y-104432381D02*
X174266619Y-104408572D01*
X174266619Y-104408572D02*
X174314238Y-104408572D01*
X174314238Y-104408572D02*
X174361857Y-104432381D01*
X174361857Y-104432381D02*
X174385666Y-104480000D01*
X174385666Y-104480000D02*
X174385666Y-104599048D01*
X174385666Y-104599048D02*
X174409476Y-104646667D01*
X174195190Y-105265714D02*
X174695190Y-105265714D01*
X174195190Y-105551428D02*
X174480904Y-105337143D01*
X174695190Y-105551428D02*
X174409476Y-105265714D01*
X174219000Y-105956190D02*
X174195190Y-105908571D01*
X174195190Y-105908571D02*
X174195190Y-105813333D01*
X174195190Y-105813333D02*
X174219000Y-105765714D01*
X174219000Y-105765714D02*
X174266619Y-105741905D01*
X174266619Y-105741905D02*
X174457095Y-105741905D01*
X174457095Y-105741905D02*
X174504714Y-105765714D01*
X174504714Y-105765714D02*
X174528523Y-105813333D01*
X174528523Y-105813333D02*
X174528523Y-105908571D01*
X174528523Y-105908571D02*
X174504714Y-105956190D01*
X174504714Y-105956190D02*
X174457095Y-105980000D01*
X174457095Y-105980000D02*
X174409476Y-105980000D01*
X174409476Y-105980000D02*
X174361857Y-105741905D01*
X174219000Y-106384761D02*
X174195190Y-106337142D01*
X174195190Y-106337142D02*
X174195190Y-106241904D01*
X174195190Y-106241904D02*
X174219000Y-106194285D01*
X174219000Y-106194285D02*
X174266619Y-106170476D01*
X174266619Y-106170476D02*
X174457095Y-106170476D01*
X174457095Y-106170476D02*
X174504714Y-106194285D01*
X174504714Y-106194285D02*
X174528523Y-106241904D01*
X174528523Y-106241904D02*
X174528523Y-106337142D01*
X174528523Y-106337142D02*
X174504714Y-106384761D01*
X174504714Y-106384761D02*
X174457095Y-106408571D01*
X174457095Y-106408571D02*
X174409476Y-106408571D01*
X174409476Y-106408571D02*
X174361857Y-106170476D01*
X174528523Y-106622856D02*
X174028523Y-106622856D01*
X174504714Y-106622856D02*
X174528523Y-106670475D01*
X174528523Y-106670475D02*
X174528523Y-106765713D01*
X174528523Y-106765713D02*
X174504714Y-106813332D01*
X174504714Y-106813332D02*
X174480904Y-106837142D01*
X174480904Y-106837142D02*
X174433285Y-106860951D01*
X174433285Y-106860951D02*
X174290428Y-106860951D01*
X174290428Y-106860951D02*
X174242809Y-106837142D01*
X174242809Y-106837142D02*
X174219000Y-106813332D01*
X174219000Y-106813332D02*
X174195190Y-106765713D01*
X174195190Y-106765713D02*
X174195190Y-106670475D01*
X174195190Y-106670475D02*
X174219000Y-106622856D01*
X174195190Y-107146666D02*
X174219000Y-107099047D01*
X174219000Y-107099047D02*
X174242809Y-107075237D01*
X174242809Y-107075237D02*
X174290428Y-107051428D01*
X174290428Y-107051428D02*
X174433285Y-107051428D01*
X174433285Y-107051428D02*
X174480904Y-107075237D01*
X174480904Y-107075237D02*
X174504714Y-107099047D01*
X174504714Y-107099047D02*
X174528523Y-107146666D01*
X174528523Y-107146666D02*
X174528523Y-107218094D01*
X174528523Y-107218094D02*
X174504714Y-107265713D01*
X174504714Y-107265713D02*
X174480904Y-107289523D01*
X174480904Y-107289523D02*
X174433285Y-107313332D01*
X174433285Y-107313332D02*
X174290428Y-107313332D01*
X174290428Y-107313332D02*
X174242809Y-107289523D01*
X174242809Y-107289523D02*
X174219000Y-107265713D01*
X174219000Y-107265713D02*
X174195190Y-107218094D01*
X174195190Y-107218094D02*
X174195190Y-107146666D01*
X174528523Y-107741904D02*
X174195190Y-107741904D01*
X174528523Y-107527618D02*
X174266619Y-107527618D01*
X174266619Y-107527618D02*
X174219000Y-107551428D01*
X174219000Y-107551428D02*
X174195190Y-107599047D01*
X174195190Y-107599047D02*
X174195190Y-107670475D01*
X174195190Y-107670475D02*
X174219000Y-107718094D01*
X174219000Y-107718094D02*
X174242809Y-107741904D01*
X174528523Y-107908571D02*
X174528523Y-108099047D01*
X174695190Y-107979999D02*
X174266619Y-107979999D01*
X174266619Y-107979999D02*
X174219000Y-108003809D01*
X174219000Y-108003809D02*
X174195190Y-108051428D01*
X174195190Y-108051428D02*
X174195190Y-108099047D01*
D11*
X128791407Y-106210595D02*
X128391407Y-106210595D01*
X128791407Y-105982024D02*
X128562836Y-106153453D01*
X128391407Y-105982024D02*
X128619979Y-106210595D01*
X128581883Y-105810595D02*
X128581883Y-105677262D01*
X128791407Y-105620119D02*
X128791407Y-105810595D01*
X128791407Y-105810595D02*
X128391407Y-105810595D01*
X128391407Y-105810595D02*
X128391407Y-105620119D01*
X128581883Y-105448690D02*
X128581883Y-105315357D01*
X128791407Y-105258214D02*
X128791407Y-105448690D01*
X128791407Y-105448690D02*
X128391407Y-105448690D01*
X128391407Y-105448690D02*
X128391407Y-105258214D01*
X128791407Y-105086785D02*
X128391407Y-105086785D01*
X128391407Y-105086785D02*
X128391407Y-104934404D01*
X128391407Y-104934404D02*
X128410455Y-104896309D01*
X128410455Y-104896309D02*
X128429502Y-104877262D01*
X128429502Y-104877262D02*
X128467598Y-104858214D01*
X128467598Y-104858214D02*
X128524740Y-104858214D01*
X128524740Y-104858214D02*
X128562836Y-104877262D01*
X128562836Y-104877262D02*
X128581883Y-104896309D01*
X128581883Y-104896309D02*
X128600931Y-104934404D01*
X128600931Y-104934404D02*
X128600931Y-105086785D01*
X128391407Y-104610595D02*
X128391407Y-104534404D01*
X128391407Y-104534404D02*
X128410455Y-104496309D01*
X128410455Y-104496309D02*
X128448550Y-104458214D01*
X128448550Y-104458214D02*
X128524740Y-104439166D01*
X128524740Y-104439166D02*
X128658074Y-104439166D01*
X128658074Y-104439166D02*
X128734264Y-104458214D01*
X128734264Y-104458214D02*
X128772360Y-104496309D01*
X128772360Y-104496309D02*
X128791407Y-104534404D01*
X128791407Y-104534404D02*
X128791407Y-104610595D01*
X128791407Y-104610595D02*
X128772360Y-104648690D01*
X128772360Y-104648690D02*
X128734264Y-104686785D01*
X128734264Y-104686785D02*
X128658074Y-104705833D01*
X128658074Y-104705833D02*
X128524740Y-104705833D01*
X128524740Y-104705833D02*
X128448550Y-104686785D01*
X128448550Y-104686785D02*
X128410455Y-104648690D01*
X128410455Y-104648690D02*
X128391407Y-104610595D01*
X128391407Y-104267737D02*
X128715217Y-104267737D01*
X128715217Y-104267737D02*
X128753312Y-104248690D01*
X128753312Y-104248690D02*
X128772360Y-104229642D01*
X128772360Y-104229642D02*
X128791407Y-104191547D01*
X128791407Y-104191547D02*
X128791407Y-104115356D01*
X128791407Y-104115356D02*
X128772360Y-104077261D01*
X128772360Y-104077261D02*
X128753312Y-104058214D01*
X128753312Y-104058214D02*
X128715217Y-104039166D01*
X128715217Y-104039166D02*
X128391407Y-104039166D01*
X128391407Y-103905832D02*
X128391407Y-103677261D01*
X128791407Y-103791547D02*
X128391407Y-103791547D01*
D12*
%TO.C,H4*%
X177480000Y-113870000D02*
G75*
G02*
X172480000Y-113870000I-2500000J0D01*
G01*
X172480000Y-113870000D02*
G75*
G02*
X177480000Y-113870000I2500000J0D01*
G01*
%TO.C,H2*%
X177480000Y-96090000D02*
G75*
G02*
X172480000Y-96090000I-2500000J0D01*
G01*
X172480000Y-96090000D02*
G75*
G02*
X177480000Y-96090000I2500000J0D01*
G01*
%TO.C,H3*%
X124140000Y-113870000D02*
G75*
G02*
X119140000Y-113870000I-2500000J0D01*
G01*
X119140000Y-113870000D02*
G75*
G02*
X124140000Y-113870000I2500000J0D01*
G01*
%TO.C,H1*%
X124140000Y-96090000D02*
G75*
G02*
X119140000Y-96090000I-2500000J0D01*
G01*
X119140000Y-96090000D02*
G75*
G02*
X124140000Y-96090000I2500000J0D01*
G01*
%TD*%
M02*
