%TF.GenerationSoftware,KiCad,Pcbnew,9.0.7*%
%TF.CreationDate,2026-01-28T15:54:31+01:00*%
%TF.ProjectId,RoyalBlue54L-Feather,526f7961-6c42-46c7-9565-35344c2d4665,rev?*%
%TF.SameCoordinates,Original*%
%TF.FileFunction,Legend,Bot*%
%TF.FilePolarity,Positive*%
%FSLAX46Y46*%
G04 Gerber Fmt 4.6, Leading zero omitted, Abs format (unit mm)*
G04 Created by KiCad (PCBNEW 9.0.7) date 2026-01-28 15:54:31*
%MOMM*%
%LPD*%
G01*
G04 APERTURE LIST*
%ADD10C,0.160000*%
%ADD11C,0.120000*%
G04 APERTURE END LIST*
D10*
G36*
X167812368Y-108111263D02*
G01*
X167815451Y-108163776D01*
X167824445Y-108212481D01*
X167839088Y-108257827D01*
X167860115Y-108300996D01*
X167886642Y-108339323D01*
X167918760Y-108373317D01*
X167956351Y-108402689D01*
X168000111Y-108427629D01*
X168050798Y-108448159D01*
X168104380Y-108462517D01*
X168164967Y-108471541D01*
X168233589Y-108474702D01*
X168297466Y-108471744D01*
X168355609Y-108463183D01*
X168408711Y-108449356D01*
X168459172Y-108429653D01*
X168503918Y-108405133D01*
X168543533Y-108375711D01*
X168576366Y-108342856D01*
X168604187Y-108304745D01*
X168627016Y-108260733D01*
X168643174Y-108214326D01*
X168653079Y-108164512D01*
X168656471Y-108110793D01*
X168654949Y-108066922D01*
X168650707Y-108029753D01*
X168635662Y-107963032D01*
X168612361Y-107904945D01*
X168588523Y-107859253D01*
X168390735Y-107859253D01*
X168390735Y-107880282D01*
X168422242Y-107914049D01*
X168458146Y-107960168D01*
X168474340Y-107987325D01*
X168487993Y-108017058D01*
X168497059Y-108048443D01*
X168500156Y-108082582D01*
X168496637Y-108120561D01*
X168486234Y-108156228D01*
X168468018Y-108189424D01*
X168440072Y-108220769D01*
X168404965Y-108245696D01*
X168357567Y-108266461D01*
X168303056Y-108279213D01*
X168233052Y-108283900D01*
X168182318Y-108281557D01*
X168140147Y-108275050D01*
X168105215Y-108265007D01*
X168058148Y-108242957D01*
X168024420Y-108217435D01*
X167998561Y-108186399D01*
X167981531Y-108152381D01*
X167971838Y-108116439D01*
X167968683Y-108081599D01*
X167971585Y-108048411D01*
X167980358Y-108015391D01*
X167994195Y-107983737D01*
X168012012Y-107954911D01*
X168046450Y-107911399D01*
X168078104Y-107878402D01*
X168078104Y-107859253D01*
X167882661Y-107859253D01*
X167856820Y-107910458D01*
X167835962Y-107961578D01*
X167818425Y-108027103D01*
X167814098Y-108060575D01*
X167812368Y-108111263D01*
G37*
G36*
X167828000Y-107211020D02*
G01*
X167828000Y-107724571D01*
X168640840Y-107724571D01*
X168640840Y-107540950D01*
X167984315Y-107540950D01*
X167984315Y-107211020D01*
X167828000Y-107211020D01*
G37*
G36*
X167828000Y-106435543D02*
G01*
X167828000Y-106660753D01*
X168153282Y-106873525D01*
X168094127Y-106916567D01*
X167828000Y-106916567D01*
X167828000Y-107100189D01*
X168640840Y-107100189D01*
X168640840Y-106916567D01*
X168272521Y-106916567D01*
X168640840Y-106662207D01*
X168640840Y-106449392D01*
X168264706Y-106727688D01*
X167828000Y-106435543D01*
G37*
G36*
X168310966Y-102811095D02*
G01*
X168378768Y-102825396D01*
X168438558Y-102848416D01*
X168492855Y-102880252D01*
X168538766Y-102918732D01*
X168576995Y-102964376D01*
X168603304Y-103010759D01*
X168624182Y-103070549D01*
X168636343Y-103136692D01*
X168640840Y-103220661D01*
X168640840Y-103478868D01*
X167828000Y-103478868D01*
X167828000Y-103248871D01*
X167981189Y-103248871D01*
X167981189Y-103295246D01*
X168487651Y-103295246D01*
X168487651Y-103248871D01*
X168485968Y-103193336D01*
X168481935Y-103160180D01*
X168473782Y-103131249D01*
X168460491Y-103102563D01*
X168435770Y-103068251D01*
X168406253Y-103041551D01*
X168371586Y-103021523D01*
X168332704Y-103007708D01*
X168287552Y-102998997D01*
X168234957Y-102995920D01*
X168181840Y-102998789D01*
X168137291Y-103006813D01*
X168099939Y-103019343D01*
X168066301Y-103037713D01*
X168037344Y-103062020D01*
X168012696Y-103092989D01*
X167997463Y-103122719D01*
X167987979Y-103152743D01*
X167983214Y-103187719D01*
X167981189Y-103248871D01*
X167828000Y-103248871D01*
X167828000Y-103227841D01*
X167831823Y-103145614D01*
X167842166Y-103080593D01*
X167861962Y-103020645D01*
X167892431Y-102966300D01*
X167928411Y-102923404D01*
X167973961Y-102885228D01*
X168030233Y-102851536D01*
X168091951Y-102826544D01*
X168159319Y-102811326D01*
X168233589Y-102806101D01*
X168310966Y-102811095D01*
G37*
G36*
X167828000Y-102280796D02*
G01*
X167828000Y-102697792D01*
X167974936Y-102697792D01*
X167974936Y-102581105D01*
X168493903Y-102581105D01*
X168493903Y-102697792D01*
X168640840Y-102697792D01*
X168640840Y-102280796D01*
X168493903Y-102280796D01*
X168493903Y-102397483D01*
X167974936Y-102397483D01*
X167974936Y-102280796D01*
X167828000Y-102280796D01*
G37*
G36*
X168312885Y-101442914D02*
G01*
X168381848Y-101455354D01*
X168442444Y-101475212D01*
X168495860Y-101502237D01*
X168542996Y-101536606D01*
X168582772Y-101577410D01*
X168614037Y-101623799D01*
X168637014Y-101676575D01*
X168651418Y-101736811D01*
X168656471Y-101805798D01*
X168651407Y-101875015D01*
X168636983Y-101935349D01*
X168613994Y-101988116D01*
X168582737Y-102034404D01*
X168542996Y-102075033D01*
X168495891Y-102109203D01*
X168442492Y-102136086D01*
X168381897Y-102155848D01*
X168312916Y-102168231D01*
X168234127Y-102172572D01*
X168156110Y-102168251D01*
X168087583Y-102155905D01*
X168027171Y-102136169D01*
X167973726Y-102109273D01*
X167926381Y-102075033D01*
X167886430Y-102034379D01*
X167855025Y-101988076D01*
X167831935Y-101935310D01*
X167817452Y-101874989D01*
X167812368Y-101805798D01*
X167812402Y-101805328D01*
X167965557Y-101805328D01*
X167969373Y-101839966D01*
X167980749Y-101872776D01*
X168000025Y-101902550D01*
X168028083Y-101928683D01*
X168063601Y-101949693D01*
X168110979Y-101967194D01*
X168164770Y-101977832D01*
X168234127Y-101981769D01*
X168302350Y-101977783D01*
X168358348Y-101966724D01*
X168407885Y-101948620D01*
X168442368Y-101927743D01*
X168470799Y-101900155D01*
X168489116Y-101871109D01*
X168499698Y-101839429D01*
X168503282Y-101805328D01*
X168499601Y-101771529D01*
X168488579Y-101739120D01*
X168469695Y-101709484D01*
X168441293Y-101682914D01*
X168406232Y-101661926D01*
X168358642Y-101644189D01*
X168304559Y-101633365D01*
X168234713Y-101629357D01*
X168169133Y-101632807D01*
X168116401Y-101642266D01*
X168068993Y-101658859D01*
X168029158Y-101681973D01*
X168000615Y-101708139D01*
X167981042Y-101737923D01*
X167969445Y-101770708D01*
X167965557Y-101805328D01*
X167812402Y-101805328D01*
X167817458Y-101736392D01*
X167831953Y-101675932D01*
X167855051Y-101623090D01*
X167886453Y-101576766D01*
X167926381Y-101536136D01*
X167973728Y-101501880D01*
X168027175Y-101474972D01*
X168087587Y-101455228D01*
X168156113Y-101442877D01*
X168234127Y-101438555D01*
X168312885Y-101442914D01*
G37*
G36*
X162875431Y-107978035D02*
G01*
X162855509Y-108030001D01*
X162833275Y-108104766D01*
X162817555Y-108183855D01*
X162812368Y-108262102D01*
X162817447Y-108335757D01*
X162831880Y-108399766D01*
X162854788Y-108455514D01*
X162885759Y-108504170D01*
X162924866Y-108546638D01*
X162971880Y-108582728D01*
X163025385Y-108611045D01*
X163086318Y-108631835D01*
X163155941Y-108644863D01*
X163235787Y-108649434D01*
X163311279Y-108644946D01*
X163378364Y-108632037D01*
X163438311Y-108611221D01*
X163492156Y-108582567D01*
X163540651Y-108545698D01*
X163580906Y-108502770D01*
X163612780Y-108453451D01*
X163636364Y-108396798D01*
X163651234Y-108331590D01*
X163656471Y-108256374D01*
X163652784Y-108187079D01*
X163642012Y-108122505D01*
X163621474Y-108058013D01*
X163584420Y-107980941D01*
X163393861Y-107980941D01*
X163393861Y-108001501D01*
X163425906Y-108040738D01*
X163461224Y-108090448D01*
X163476868Y-108119668D01*
X163490875Y-108155245D01*
X163500124Y-108193081D01*
X163503282Y-108233892D01*
X163499043Y-108281189D01*
X163486918Y-108322369D01*
X163466262Y-108359899D01*
X163436702Y-108393620D01*
X163400228Y-108420164D01*
X163353512Y-108441193D01*
X163300601Y-108454053D01*
X163237009Y-108458632D01*
X163169655Y-108454182D01*
X163114190Y-108441772D01*
X163068449Y-108422315D01*
X163030770Y-108396014D01*
X163000956Y-108363023D01*
X162978733Y-108322349D01*
X162964454Y-108272356D01*
X162959304Y-108210939D01*
X162959842Y-108187772D01*
X162961503Y-108164563D01*
X163121872Y-108164563D01*
X163121872Y-108306554D01*
X163275062Y-108306554D01*
X163275062Y-107978035D01*
X162875431Y-107978035D01*
G37*
G36*
X162828000Y-107165671D02*
G01*
X162828000Y-107342625D01*
X163385899Y-107644814D01*
X162828000Y-107644814D01*
X162828000Y-107813134D01*
X163640840Y-107813134D01*
X163640840Y-107593652D01*
X163175166Y-107333991D01*
X163640840Y-107333991D01*
X163640840Y-107165671D01*
X162828000Y-107165671D01*
G37*
G36*
X163310966Y-106315815D02*
G01*
X163378768Y-106330116D01*
X163438558Y-106353136D01*
X163492855Y-106384972D01*
X163538766Y-106423452D01*
X163576995Y-106469097D01*
X163603304Y-106515479D01*
X163624182Y-106575269D01*
X163636343Y-106641412D01*
X163640840Y-106725381D01*
X163640840Y-106983588D01*
X162828000Y-106983588D01*
X162828000Y-106753591D01*
X162981189Y-106753591D01*
X162981189Y-106799966D01*
X163487651Y-106799966D01*
X163487651Y-106753591D01*
X163485968Y-106698056D01*
X163481935Y-106664900D01*
X163473782Y-106635970D01*
X163460491Y-106607283D01*
X163435770Y-106572971D01*
X163406253Y-106546272D01*
X163371586Y-106526243D01*
X163332704Y-106512428D01*
X163287552Y-106503717D01*
X163234957Y-106500641D01*
X163181840Y-106503509D01*
X163137291Y-106511533D01*
X163099939Y-106524063D01*
X163066301Y-106542433D01*
X163037344Y-106566740D01*
X163012696Y-106597709D01*
X162997463Y-106627439D01*
X162987979Y-106657463D01*
X162983214Y-106692439D01*
X162981189Y-106753591D01*
X162828000Y-106753591D01*
X162828000Y-106732561D01*
X162831823Y-106650334D01*
X162842166Y-106585313D01*
X162861962Y-106525366D01*
X162892431Y-106471020D01*
X162928411Y-106428124D01*
X162973961Y-106389948D01*
X163030233Y-106356256D01*
X163091951Y-106331264D01*
X163159319Y-106316046D01*
X163233589Y-106310821D01*
X163310966Y-106315815D01*
G37*
G36*
X143936834Y-113662000D02*
G01*
X143751801Y-113662000D01*
X143702562Y-113496305D01*
X143438584Y-113496305D01*
X143389345Y-113662000D01*
X143199483Y-113662000D01*
X143300635Y-113349369D01*
X143483079Y-113349369D01*
X143658067Y-113349369D01*
X143570573Y-113057450D01*
X143483079Y-113349369D01*
X143300635Y-113349369D01*
X143462478Y-112849159D01*
X143673839Y-112849159D01*
X143936834Y-113662000D01*
G37*
G36*
X142891655Y-112836765D02*
G01*
X142936260Y-112845898D01*
X142974572Y-112860248D01*
X143010157Y-112881214D01*
X143040573Y-112907790D01*
X143066383Y-112940262D01*
X143087328Y-112977758D01*
X143104620Y-113021398D01*
X143118058Y-113072055D01*
X143129937Y-113153512D01*
X143134301Y-113255579D01*
X143130115Y-113354928D01*
X143118529Y-113437198D01*
X143105324Y-113488751D01*
X143088188Y-113532622D01*
X143067366Y-113569822D01*
X143041854Y-113602318D01*
X143011600Y-113629096D01*
X142976025Y-113650422D01*
X142937683Y-113665001D01*
X142892629Y-113674316D01*
X142839719Y-113677631D01*
X142785845Y-113674308D01*
X142740710Y-113665041D01*
X142702986Y-113650667D01*
X142667966Y-113629625D01*
X142637847Y-113603130D01*
X142612116Y-113570897D01*
X142591950Y-113534798D01*
X142574959Y-113491030D01*
X142561466Y-113438322D01*
X142549478Y-113354560D01*
X142545181Y-113255042D01*
X142730256Y-113255042D01*
X142733916Y-113352843D01*
X142743222Y-113419912D01*
X142756072Y-113463919D01*
X142771559Y-113492572D01*
X142790245Y-113511923D01*
X142812578Y-113523517D01*
X142839719Y-113527568D01*
X142866883Y-113523516D01*
X142889230Y-113511920D01*
X142907923Y-113492569D01*
X142923409Y-113463919D01*
X142936275Y-113419932D01*
X142945573Y-113353168D01*
X142949226Y-113256117D01*
X142945590Y-113156333D01*
X142936417Y-113089047D01*
X142923879Y-113045872D01*
X142908675Y-113018019D01*
X142890037Y-112999066D01*
X142867462Y-112987616D01*
X142839719Y-112983591D01*
X142811999Y-112987615D01*
X142789438Y-112999063D01*
X142770807Y-113018016D01*
X142755602Y-113045872D01*
X142743050Y-113089027D01*
X142733884Y-113156009D01*
X142730256Y-113255042D01*
X142545181Y-113255042D01*
X142549381Y-113155819D01*
X142560953Y-113074498D01*
X142574080Y-113023629D01*
X142591054Y-112980110D01*
X142611645Y-112942997D01*
X142637455Y-112909700D01*
X142667582Y-112882494D01*
X142702516Y-112861030D01*
X142740243Y-112846377D01*
X142785518Y-112836922D01*
X142839719Y-112833528D01*
X142891655Y-112836765D01*
G37*
G36*
X171674056Y-96706863D02*
G01*
X171677675Y-96753520D01*
X171688223Y-96795630D01*
X171705626Y-96834099D01*
X171730329Y-96869587D01*
X171763259Y-96902453D01*
X171808898Y-96933749D01*
X171863330Y-96957226D01*
X171928192Y-96972259D01*
X172005438Y-96977631D01*
X172090966Y-96972838D01*
X172159653Y-96959752D01*
X172223938Y-96939248D01*
X172282794Y-96914421D01*
X172282794Y-96718147D01*
X172262705Y-96718147D01*
X172223298Y-96751512D01*
X172180924Y-96779274D01*
X172135290Y-96801581D01*
X172087724Y-96818075D01*
X172042662Y-96827604D01*
X171999711Y-96830695D01*
X171955729Y-96827275D01*
X171929830Y-96822410D01*
X171911234Y-96815845D01*
X171891670Y-96804019D01*
X171876570Y-96790199D01*
X171866641Y-96772065D01*
X171862935Y-96744575D01*
X171867764Y-96719941D01*
X171882810Y-96698364D01*
X171905698Y-96681991D01*
X171940897Y-96668517D01*
X172025741Y-96648050D01*
X172069596Y-96637019D01*
X172109687Y-96623674D01*
X172167504Y-96596783D01*
X172209553Y-96566457D01*
X172239026Y-96533158D01*
X172260561Y-96492942D01*
X172273827Y-96446174D01*
X172278477Y-96391204D01*
X172274915Y-96347376D01*
X172264495Y-96307631D01*
X172247207Y-96271095D01*
X172222500Y-96237150D01*
X172189317Y-96205482D01*
X172143652Y-96175134D01*
X172091040Y-96152685D01*
X172030296Y-96138522D01*
X171960003Y-96133528D01*
X171890111Y-96137404D01*
X171821133Y-96149013D01*
X171755093Y-96167122D01*
X171702266Y-96187847D01*
X171702266Y-96374254D01*
X171721885Y-96374254D01*
X171768537Y-96338339D01*
X171827330Y-96307380D01*
X171869446Y-96292364D01*
X171911821Y-96283437D01*
X171954746Y-96280464D01*
X172000437Y-96284177D01*
X172022725Y-96289479D01*
X172044163Y-96298050D01*
X172061476Y-96308745D01*
X172076220Y-96323891D01*
X172086290Y-96342498D01*
X172089598Y-96363311D01*
X172087104Y-96383562D01*
X172080003Y-96399739D01*
X172068099Y-96412844D01*
X172041338Y-96427566D01*
X171986803Y-96444254D01*
X171911490Y-96462327D01*
X171833784Y-96486410D01*
X171781155Y-96510932D01*
X171741728Y-96538874D01*
X171713037Y-96569843D01*
X171691894Y-96607278D01*
X171678729Y-96652292D01*
X171674056Y-96706863D01*
G37*
G36*
X171547837Y-96962000D02*
G01*
X171296810Y-96962000D01*
X171214584Y-96958176D01*
X171149563Y-96947833D01*
X171089615Y-96928037D01*
X171035269Y-96897568D01*
X170992374Y-96861588D01*
X170954197Y-96816038D01*
X170920505Y-96759766D01*
X170895513Y-96698048D01*
X170880295Y-96630680D01*
X170875070Y-96556410D01*
X170875158Y-96555042D01*
X171064890Y-96555042D01*
X171067758Y-96608159D01*
X171075782Y-96652708D01*
X171088313Y-96690060D01*
X171106682Y-96723698D01*
X171130989Y-96752655D01*
X171161958Y-96777303D01*
X171191689Y-96792536D01*
X171221712Y-96802020D01*
X171256688Y-96806785D01*
X171317840Y-96808810D01*
X171364215Y-96808810D01*
X171364215Y-96302348D01*
X171317840Y-96302348D01*
X171262305Y-96304031D01*
X171229149Y-96308064D01*
X171200219Y-96316217D01*
X171171532Y-96329508D01*
X171137220Y-96354229D01*
X171110521Y-96383746D01*
X171090492Y-96418413D01*
X171076677Y-96457295D01*
X171067966Y-96502447D01*
X171064890Y-96555042D01*
X170875158Y-96555042D01*
X170880064Y-96479033D01*
X170894365Y-96411231D01*
X170917385Y-96351441D01*
X170949221Y-96297144D01*
X170987701Y-96251233D01*
X171033346Y-96213004D01*
X171079728Y-96186695D01*
X171139518Y-96165817D01*
X171205661Y-96153656D01*
X171289630Y-96149159D01*
X171547837Y-96149159D01*
X171547837Y-96962000D01*
G37*
G36*
X170814077Y-96962000D02*
G01*
X170629044Y-96962000D01*
X170579805Y-96796305D01*
X170315827Y-96796305D01*
X170266588Y-96962000D01*
X170076726Y-96962000D01*
X170177877Y-96649369D01*
X170360322Y-96649369D01*
X170535310Y-96649369D01*
X170447816Y-96357450D01*
X170360322Y-96649369D01*
X170177877Y-96649369D01*
X170339720Y-96149159D01*
X170551082Y-96149159D01*
X170814077Y-96962000D01*
G37*
G36*
X146476834Y-113662000D02*
G01*
X146291801Y-113662000D01*
X146242562Y-113496305D01*
X145978584Y-113496305D01*
X145929345Y-113662000D01*
X145739483Y-113662000D01*
X145840635Y-113349369D01*
X146023079Y-113349369D01*
X146198067Y-113349369D01*
X146110573Y-113057450D01*
X146023079Y-113349369D01*
X145840635Y-113349369D01*
X146002478Y-112849159D01*
X146213839Y-112849159D01*
X146476834Y-113662000D01*
G37*
G36*
X145125359Y-113662000D02*
G01*
X145600655Y-113662000D01*
X145600655Y-113521316D01*
X145450501Y-113521316D01*
X145450501Y-113089885D01*
X145600655Y-113089885D01*
X145600655Y-112958580D01*
X145534661Y-112953988D01*
X145504659Y-112947395D01*
X145482045Y-112938113D01*
X145459849Y-112922179D01*
X145444773Y-112903088D01*
X145435172Y-112879582D01*
X145430412Y-112849159D01*
X145272136Y-112849159D01*
X145272136Y-113521316D01*
X145125359Y-113521316D01*
X145125359Y-113662000D01*
G37*
G36*
X156053690Y-96962000D02*
G01*
X156528987Y-96962000D01*
X156528987Y-96821316D01*
X156378832Y-96821316D01*
X156378832Y-96389885D01*
X156528987Y-96389885D01*
X156528987Y-96258580D01*
X156462992Y-96253988D01*
X156432991Y-96247395D01*
X156410376Y-96238113D01*
X156388181Y-96222179D01*
X156373105Y-96203088D01*
X156363504Y-96179582D01*
X156358743Y-96149159D01*
X156200468Y-96149159D01*
X156200468Y-96821316D01*
X156053690Y-96821316D01*
X156053690Y-96962000D01*
G37*
G36*
X155357500Y-96962000D02*
G01*
X155832797Y-96962000D01*
X155832797Y-96821316D01*
X155682643Y-96821316D01*
X155682643Y-96389885D01*
X155832797Y-96389885D01*
X155832797Y-96258580D01*
X155766803Y-96253988D01*
X155736801Y-96247395D01*
X155714187Y-96238113D01*
X155691991Y-96222179D01*
X155676915Y-96203088D01*
X155667314Y-96179582D01*
X155662554Y-96149159D01*
X155504278Y-96149159D01*
X155504278Y-96821316D01*
X155357500Y-96821316D01*
X155357500Y-96962000D01*
G37*
G36*
X154940840Y-106780804D02*
G01*
X154128000Y-107040465D01*
X154128000Y-107246056D01*
X154940840Y-107505717D01*
X154940840Y-107313034D01*
X154369849Y-107140867D01*
X154940840Y-106968743D01*
X154940840Y-106780804D01*
G37*
G36*
X154610966Y-106010406D02*
G01*
X154678768Y-106024708D01*
X154738558Y-106047727D01*
X154792855Y-106079563D01*
X154838766Y-106118043D01*
X154876995Y-106163688D01*
X154903304Y-106210070D01*
X154924182Y-106269860D01*
X154936343Y-106336003D01*
X154940840Y-106419972D01*
X154940840Y-106678179D01*
X154128000Y-106678179D01*
X154128000Y-106448182D01*
X154281189Y-106448182D01*
X154281189Y-106494557D01*
X154787651Y-106494557D01*
X154787651Y-106448182D01*
X154785968Y-106392648D01*
X154781935Y-106359491D01*
X154773782Y-106330561D01*
X154760491Y-106301874D01*
X154735770Y-106267563D01*
X154706253Y-106240863D01*
X154671586Y-106220835D01*
X154632704Y-106207019D01*
X154587552Y-106198308D01*
X154534957Y-106195232D01*
X154481840Y-106198100D01*
X154437291Y-106206124D01*
X154399939Y-106218655D01*
X154366301Y-106237024D01*
X154337344Y-106261331D01*
X154312696Y-106292300D01*
X154297463Y-106322031D01*
X154287979Y-106352054D01*
X154283214Y-106387030D01*
X154281189Y-106448182D01*
X154128000Y-106448182D01*
X154128000Y-106427153D01*
X154131823Y-106344926D01*
X154142166Y-106279905D01*
X154161962Y-106219957D01*
X154192431Y-106165611D01*
X154228411Y-106122716D01*
X154273961Y-106084539D01*
X154330233Y-106050848D01*
X154391951Y-106025855D01*
X154459319Y-106010637D01*
X154533589Y-106005412D01*
X154610966Y-106010406D01*
G37*
G36*
X154610966Y-105197273D02*
G01*
X154678768Y-105211574D01*
X154738558Y-105234594D01*
X154792855Y-105266430D01*
X154838766Y-105304910D01*
X154876995Y-105350555D01*
X154903304Y-105396937D01*
X154924182Y-105456727D01*
X154936343Y-105522870D01*
X154940840Y-105606839D01*
X154940840Y-105865046D01*
X154128000Y-105865046D01*
X154128000Y-105635049D01*
X154281189Y-105635049D01*
X154281189Y-105681424D01*
X154787651Y-105681424D01*
X154787651Y-105635049D01*
X154785968Y-105579514D01*
X154781935Y-105546358D01*
X154773782Y-105517427D01*
X154760491Y-105488741D01*
X154735770Y-105454429D01*
X154706253Y-105427729D01*
X154671586Y-105407701D01*
X154632704Y-105393886D01*
X154587552Y-105385175D01*
X154534957Y-105382098D01*
X154481840Y-105384967D01*
X154437291Y-105392991D01*
X154399939Y-105405521D01*
X154366301Y-105423891D01*
X154337344Y-105448198D01*
X154312696Y-105479167D01*
X154297463Y-105508897D01*
X154287979Y-105538921D01*
X154283214Y-105573897D01*
X154281189Y-105635049D01*
X154128000Y-105635049D01*
X154128000Y-105614019D01*
X154131823Y-105531792D01*
X154142166Y-105466771D01*
X154161962Y-105406823D01*
X154192431Y-105352478D01*
X154228411Y-105309582D01*
X154273961Y-105271406D01*
X154330233Y-105237714D01*
X154391951Y-105212722D01*
X154459319Y-105197504D01*
X154533589Y-105192279D01*
X154610966Y-105197273D01*
G37*
G36*
X141178035Y-113614568D02*
G01*
X141230001Y-113634490D01*
X141304766Y-113656724D01*
X141383855Y-113672444D01*
X141462102Y-113677631D01*
X141535757Y-113672552D01*
X141599766Y-113658119D01*
X141655514Y-113635211D01*
X141704170Y-113604240D01*
X141746638Y-113565133D01*
X141782728Y-113518119D01*
X141811045Y-113464614D01*
X141831835Y-113403681D01*
X141844863Y-113334058D01*
X141849434Y-113254212D01*
X141844946Y-113178720D01*
X141832037Y-113111635D01*
X141811221Y-113051688D01*
X141782567Y-112997843D01*
X141745698Y-112949348D01*
X141702770Y-112909093D01*
X141653451Y-112877219D01*
X141596798Y-112853635D01*
X141531590Y-112838765D01*
X141456374Y-112833528D01*
X141387079Y-112837215D01*
X141322505Y-112847987D01*
X141258013Y-112868525D01*
X141180941Y-112905579D01*
X141180941Y-113096138D01*
X141201501Y-113096138D01*
X141240738Y-113064093D01*
X141290448Y-113028775D01*
X141319668Y-113013131D01*
X141355245Y-112999124D01*
X141393081Y-112989875D01*
X141433892Y-112986717D01*
X141481189Y-112990956D01*
X141522369Y-113003081D01*
X141559899Y-113023737D01*
X141593620Y-113053297D01*
X141620164Y-113089771D01*
X141641193Y-113136487D01*
X141654053Y-113189398D01*
X141658632Y-113252990D01*
X141654182Y-113320344D01*
X141641772Y-113375809D01*
X141622315Y-113421550D01*
X141596014Y-113459229D01*
X141563023Y-113489043D01*
X141522349Y-113511266D01*
X141472356Y-113525545D01*
X141410939Y-113530695D01*
X141387772Y-113530157D01*
X141364563Y-113528496D01*
X141364563Y-113368127D01*
X141506554Y-113368127D01*
X141506554Y-113214937D01*
X141178035Y-113214937D01*
X141178035Y-113614568D01*
G37*
G36*
X140365671Y-113662000D02*
G01*
X140542625Y-113662000D01*
X140844814Y-113104100D01*
X140844814Y-113662000D01*
X141013134Y-113662000D01*
X141013134Y-112849159D01*
X140793652Y-112849159D01*
X140533991Y-113314833D01*
X140533991Y-112849159D01*
X140365671Y-112849159D01*
X140365671Y-113662000D01*
G37*
G36*
X140183588Y-113662000D02*
G01*
X139932561Y-113662000D01*
X139850334Y-113658176D01*
X139785313Y-113647833D01*
X139725366Y-113628037D01*
X139671020Y-113597568D01*
X139628124Y-113561588D01*
X139589948Y-113516038D01*
X139556256Y-113459766D01*
X139531264Y-113398048D01*
X139516046Y-113330680D01*
X139510821Y-113256410D01*
X139510909Y-113255042D01*
X139700641Y-113255042D01*
X139703509Y-113308159D01*
X139711533Y-113352708D01*
X139724063Y-113390060D01*
X139742433Y-113423698D01*
X139766740Y-113452655D01*
X139797709Y-113477303D01*
X139827439Y-113492536D01*
X139857463Y-113502020D01*
X139892439Y-113506785D01*
X139953591Y-113508810D01*
X139999966Y-113508810D01*
X139999966Y-113002348D01*
X139953591Y-113002348D01*
X139898056Y-113004031D01*
X139864900Y-113008064D01*
X139835970Y-113016217D01*
X139807283Y-113029508D01*
X139772971Y-113054229D01*
X139746272Y-113083746D01*
X139726243Y-113118413D01*
X139712428Y-113157295D01*
X139703717Y-113202447D01*
X139700641Y-113255042D01*
X139510909Y-113255042D01*
X139515815Y-113179033D01*
X139530116Y-113111231D01*
X139553136Y-113051441D01*
X139584972Y-112997144D01*
X139623452Y-112951233D01*
X139669097Y-112913004D01*
X139715479Y-112886695D01*
X139775269Y-112865817D01*
X139841412Y-112853656D01*
X139925381Y-112849159D01*
X140183588Y-112849159D01*
X140183588Y-113662000D01*
G37*
G36*
X163175313Y-103005196D02*
G01*
X163203671Y-102962023D01*
X163235214Y-102927577D01*
X163269933Y-102900691D01*
X163309856Y-102880990D01*
X163358232Y-102868549D01*
X163417113Y-102864103D01*
X163460169Y-102866977D01*
X163496121Y-102875045D01*
X163526241Y-102887782D01*
X163565504Y-102915412D01*
X163597071Y-102951597D01*
X163619656Y-102992777D01*
X163632633Y-103036740D01*
X163638614Y-103084319D01*
X163640840Y-103145263D01*
X163640840Y-103453223D01*
X162828000Y-103453223D01*
X162828000Y-103270584D01*
X163124999Y-103270584D01*
X163124999Y-103214164D01*
X163271935Y-103214164D01*
X163271935Y-103270584D01*
X163493903Y-103270584D01*
X163493903Y-103204120D01*
X163491949Y-103146246D01*
X163488151Y-103122346D01*
X163481154Y-103102734D01*
X163465492Y-103079287D01*
X163446276Y-103064993D01*
X163422591Y-103056860D01*
X163393177Y-103053965D01*
X163360326Y-103056424D01*
X163337539Y-103062813D01*
X163318121Y-103073903D01*
X163299632Y-103090767D01*
X163285326Y-103112731D01*
X163276918Y-103140519D01*
X163273307Y-103171958D01*
X163271935Y-103214164D01*
X163124999Y-103214164D01*
X163124999Y-103185954D01*
X162828000Y-102991775D01*
X162828000Y-102767505D01*
X163175313Y-103005196D01*
G37*
G36*
X163083136Y-102117306D02*
G01*
X163036479Y-102120925D01*
X162994369Y-102131474D01*
X162955900Y-102148877D01*
X162920412Y-102173579D01*
X162887546Y-102206510D01*
X162856250Y-102252149D01*
X162832773Y-102306580D01*
X162817740Y-102371442D01*
X162812368Y-102448689D01*
X162817161Y-102534217D01*
X162830247Y-102602904D01*
X162850751Y-102667189D01*
X162875578Y-102726045D01*
X163071852Y-102726045D01*
X163071852Y-102705956D01*
X163038487Y-102666549D01*
X163010725Y-102624174D01*
X162988418Y-102578540D01*
X162971924Y-102530974D01*
X162962395Y-102485913D01*
X162959304Y-102442961D01*
X162962724Y-102398979D01*
X162967589Y-102373081D01*
X162974154Y-102354484D01*
X162985980Y-102334920D01*
X162999800Y-102319820D01*
X163017934Y-102309891D01*
X163045424Y-102306185D01*
X163070058Y-102311014D01*
X163091635Y-102326061D01*
X163108008Y-102348948D01*
X163121482Y-102384148D01*
X163141949Y-102468991D01*
X163152980Y-102512847D01*
X163166325Y-102552938D01*
X163193216Y-102610755D01*
X163223542Y-102652803D01*
X163256841Y-102682277D01*
X163297057Y-102703812D01*
X163343825Y-102717077D01*
X163398795Y-102721728D01*
X163442623Y-102718165D01*
X163482368Y-102707745D01*
X163518904Y-102690458D01*
X163552849Y-102665750D01*
X163584517Y-102632567D01*
X163614865Y-102586902D01*
X163637314Y-102534290D01*
X163651477Y-102473546D01*
X163656471Y-102403253D01*
X163652595Y-102333361D01*
X163640986Y-102264383D01*
X163622877Y-102198343D01*
X163602152Y-102145516D01*
X163415745Y-102145516D01*
X163415745Y-102165135D01*
X163451660Y-102211788D01*
X163482619Y-102270581D01*
X163497635Y-102312696D01*
X163506562Y-102355072D01*
X163509535Y-102397996D01*
X163505822Y-102443688D01*
X163500520Y-102465976D01*
X163491949Y-102487413D01*
X163481254Y-102504727D01*
X163466108Y-102519470D01*
X163447501Y-102529540D01*
X163426688Y-102532849D01*
X163406437Y-102530354D01*
X163390260Y-102523253D01*
X163377155Y-102511349D01*
X163362433Y-102484588D01*
X163345745Y-102430053D01*
X163327672Y-102354741D01*
X163303589Y-102277035D01*
X163279067Y-102224405D01*
X163251125Y-102184979D01*
X163220156Y-102156287D01*
X163182721Y-102135144D01*
X163137707Y-102121979D01*
X163083136Y-102117306D01*
G37*
G36*
X163484524Y-101434025D02*
G01*
X163484524Y-101656371D01*
X162828000Y-101656371D01*
X162828000Y-101839993D01*
X163484524Y-101839993D01*
X163484524Y-102062339D01*
X163640840Y-102062339D01*
X163640840Y-101434025D01*
X163484524Y-101434025D01*
G37*
X163812000Y-103474094D02*
X163812000Y-101484492D01*
G36*
X158879004Y-113406863D02*
G01*
X158882623Y-113453520D01*
X158893171Y-113495630D01*
X158910574Y-113534099D01*
X158935277Y-113569587D01*
X158968207Y-113602453D01*
X159013846Y-113633749D01*
X159068278Y-113657226D01*
X159133140Y-113672259D01*
X159210386Y-113677631D01*
X159295914Y-113672838D01*
X159364601Y-113659752D01*
X159428886Y-113639248D01*
X159487742Y-113614421D01*
X159487742Y-113418147D01*
X159467653Y-113418147D01*
X159428246Y-113451512D01*
X159385872Y-113479274D01*
X159340238Y-113501581D01*
X159292672Y-113518075D01*
X159247610Y-113527604D01*
X159204659Y-113530695D01*
X159160677Y-113527275D01*
X159134778Y-113522410D01*
X159116182Y-113515845D01*
X159096618Y-113504019D01*
X159081518Y-113490199D01*
X159071589Y-113472065D01*
X159067883Y-113444575D01*
X159072712Y-113419941D01*
X159087758Y-113398364D01*
X159110646Y-113381991D01*
X159145845Y-113368517D01*
X159230689Y-113348050D01*
X159274544Y-113337019D01*
X159314635Y-113323674D01*
X159372452Y-113296783D01*
X159414501Y-113266457D01*
X159443974Y-113233158D01*
X159465509Y-113192942D01*
X159478775Y-113146174D01*
X159483425Y-113091204D01*
X159479863Y-113047376D01*
X159469443Y-113007631D01*
X159452155Y-112971095D01*
X159427448Y-112937150D01*
X159394265Y-112905482D01*
X159348600Y-112875134D01*
X159295988Y-112852685D01*
X159235244Y-112838522D01*
X159164951Y-112833528D01*
X159095059Y-112837404D01*
X159026081Y-112849013D01*
X158960041Y-112867122D01*
X158907214Y-112887847D01*
X158907214Y-113074254D01*
X158926833Y-113074254D01*
X158973485Y-113038339D01*
X159032278Y-113007380D01*
X159074394Y-112992364D01*
X159116769Y-112983437D01*
X159159694Y-112980464D01*
X159205385Y-112984177D01*
X159227673Y-112989479D01*
X159249111Y-112998050D01*
X159266424Y-113008745D01*
X159281168Y-113023891D01*
X159291238Y-113042498D01*
X159294546Y-113063311D01*
X159292052Y-113083562D01*
X159284951Y-113099739D01*
X159273047Y-113112844D01*
X159246286Y-113127566D01*
X159191751Y-113144254D01*
X159116438Y-113162327D01*
X159038732Y-113186410D01*
X158986103Y-113210932D01*
X158946676Y-113238874D01*
X158917985Y-113269843D01*
X158896842Y-113307278D01*
X158883677Y-113352292D01*
X158879004Y-113406863D01*
G37*
G36*
X158430977Y-113677631D02*
G01*
X158483490Y-113674548D01*
X158532195Y-113665554D01*
X158577541Y-113650911D01*
X158620710Y-113629884D01*
X158659037Y-113603357D01*
X158693031Y-113571239D01*
X158722403Y-113533648D01*
X158747343Y-113489888D01*
X158767873Y-113439201D01*
X158782231Y-113385619D01*
X158791255Y-113325032D01*
X158794416Y-113256410D01*
X158791459Y-113192533D01*
X158782897Y-113134390D01*
X158769070Y-113081288D01*
X158749367Y-113030827D01*
X158724848Y-112986081D01*
X158695425Y-112946466D01*
X158662571Y-112913633D01*
X158624459Y-112885812D01*
X158580447Y-112862983D01*
X158534040Y-112846825D01*
X158484226Y-112836920D01*
X158430507Y-112833528D01*
X158386637Y-112835050D01*
X158349467Y-112839292D01*
X158282746Y-112854337D01*
X158224659Y-112877638D01*
X158178967Y-112901476D01*
X158178967Y-113099264D01*
X158199996Y-113099264D01*
X158233763Y-113067757D01*
X158279882Y-113031853D01*
X158307039Y-113015659D01*
X158336772Y-113002006D01*
X158368157Y-112992940D01*
X158402297Y-112989843D01*
X158440275Y-112993362D01*
X158475942Y-113003765D01*
X158509138Y-113021981D01*
X158540483Y-113049927D01*
X158565411Y-113085034D01*
X158586175Y-113132432D01*
X158598927Y-113186943D01*
X158603614Y-113256947D01*
X158601271Y-113307681D01*
X158594764Y-113349852D01*
X158584722Y-113384784D01*
X158562672Y-113431851D01*
X158537149Y-113465579D01*
X158506113Y-113491438D01*
X158472095Y-113508468D01*
X158436153Y-113518161D01*
X158401314Y-113521316D01*
X158368125Y-113518414D01*
X158335105Y-113509641D01*
X158303451Y-113495804D01*
X158274625Y-113477987D01*
X158231113Y-113443549D01*
X158198116Y-113411895D01*
X158178967Y-113411895D01*
X158178967Y-113607338D01*
X158230173Y-113633179D01*
X158281293Y-113654037D01*
X158346817Y-113671574D01*
X158380289Y-113675901D01*
X158430977Y-113677631D01*
G37*
G36*
X157379640Y-113662000D02*
G01*
X157604850Y-113662000D01*
X157817622Y-113336717D01*
X157860664Y-113395872D01*
X157860664Y-113662000D01*
X158044285Y-113662000D01*
X158044285Y-112849159D01*
X157860664Y-112849159D01*
X157860664Y-113217478D01*
X157606303Y-112849159D01*
X157393488Y-112849159D01*
X157671785Y-113225293D01*
X157379640Y-113662000D01*
G37*
G36*
X154096834Y-113662000D02*
G01*
X153911801Y-113662000D01*
X153862562Y-113496305D01*
X153598584Y-113496305D01*
X153549345Y-113662000D01*
X153359483Y-113662000D01*
X153460635Y-113349369D01*
X153643079Y-113349369D01*
X153818067Y-113349369D01*
X153730573Y-113057450D01*
X153643079Y-113349369D01*
X153460635Y-113349369D01*
X153622478Y-112849159D01*
X153833839Y-112849159D01*
X154096834Y-113662000D01*
G37*
G36*
X153307679Y-113318887D02*
G01*
X153307679Y-113474421D01*
X152962918Y-113474421D01*
X152962918Y-113665126D01*
X152787417Y-113665126D01*
X152787417Y-113474421D01*
X152690349Y-113474421D01*
X152690349Y-113324358D01*
X152787417Y-113324358D01*
X152962918Y-113324358D01*
X153169963Y-113324358D01*
X152962918Y-113030339D01*
X152962918Y-113324358D01*
X152787417Y-113324358D01*
X152787417Y-112849159D01*
X152974416Y-112849159D01*
X153307679Y-113318887D01*
G37*
G36*
X158593690Y-96962000D02*
G01*
X159068987Y-96962000D01*
X159068987Y-96821316D01*
X158918832Y-96821316D01*
X158918832Y-96389885D01*
X159068987Y-96389885D01*
X159068987Y-96258580D01*
X159002992Y-96253988D01*
X158972991Y-96247395D01*
X158950376Y-96238113D01*
X158928181Y-96222179D01*
X158913105Y-96203088D01*
X158903504Y-96179582D01*
X158898743Y-96149159D01*
X158740468Y-96149159D01*
X158740468Y-96821316D01*
X158593690Y-96821316D01*
X158593690Y-96962000D01*
G37*
G36*
X158203797Y-96136765D02*
G01*
X158248402Y-96145898D01*
X158286714Y-96160248D01*
X158322298Y-96181214D01*
X158352715Y-96207790D01*
X158378525Y-96240262D01*
X158399470Y-96277758D01*
X158416762Y-96321398D01*
X158430200Y-96372055D01*
X158442078Y-96453512D01*
X158446442Y-96555579D01*
X158442256Y-96654928D01*
X158430670Y-96737198D01*
X158417466Y-96788751D01*
X158400330Y-96832622D01*
X158379508Y-96869822D01*
X158353996Y-96902318D01*
X158323742Y-96929096D01*
X158288167Y-96950422D01*
X158249825Y-96965001D01*
X158204771Y-96974316D01*
X158151861Y-96977631D01*
X158097987Y-96974308D01*
X158052852Y-96965041D01*
X158015128Y-96950667D01*
X157980108Y-96929625D01*
X157949988Y-96903130D01*
X157924257Y-96870897D01*
X157904092Y-96834798D01*
X157887101Y-96791030D01*
X157873607Y-96738322D01*
X157861620Y-96654560D01*
X157857322Y-96555042D01*
X158042398Y-96555042D01*
X158046058Y-96652843D01*
X158055364Y-96719912D01*
X158068214Y-96763919D01*
X158083700Y-96792572D01*
X158102387Y-96811923D01*
X158124720Y-96823517D01*
X158151861Y-96827568D01*
X158179025Y-96823516D01*
X158201371Y-96811920D01*
X158220064Y-96792569D01*
X158235551Y-96763919D01*
X158248416Y-96719932D01*
X158257715Y-96653168D01*
X158261367Y-96556117D01*
X158257732Y-96456333D01*
X158248558Y-96389047D01*
X158236021Y-96345872D01*
X158220816Y-96318019D01*
X158202179Y-96299066D01*
X158179604Y-96287616D01*
X158151861Y-96283591D01*
X158124141Y-96287615D01*
X158101579Y-96299063D01*
X158082948Y-96318016D01*
X158067744Y-96345872D01*
X158055192Y-96389027D01*
X158046025Y-96456009D01*
X158042398Y-96555042D01*
X157857322Y-96555042D01*
X157861523Y-96455819D01*
X157873094Y-96374498D01*
X157886222Y-96323629D01*
X157903196Y-96280110D01*
X157923787Y-96242997D01*
X157949597Y-96209700D01*
X157979724Y-96182494D01*
X158014658Y-96161030D01*
X158052384Y-96146377D01*
X158097660Y-96136922D01*
X158151861Y-96133528D01*
X158203797Y-96136765D01*
G37*
G36*
X161510302Y-113406863D02*
G01*
X161513921Y-113453520D01*
X161524469Y-113495630D01*
X161541872Y-113534099D01*
X161566575Y-113569587D01*
X161599505Y-113602453D01*
X161645144Y-113633749D01*
X161699576Y-113657226D01*
X161764438Y-113672259D01*
X161841684Y-113677631D01*
X161927212Y-113672838D01*
X161995899Y-113659752D01*
X162060184Y-113639248D01*
X162119040Y-113614421D01*
X162119040Y-113418147D01*
X162098951Y-113418147D01*
X162059544Y-113451512D01*
X162017170Y-113479274D01*
X161971536Y-113501581D01*
X161923970Y-113518075D01*
X161878908Y-113527604D01*
X161835957Y-113530695D01*
X161791975Y-113527275D01*
X161766076Y-113522410D01*
X161747480Y-113515845D01*
X161727916Y-113504019D01*
X161712816Y-113490199D01*
X161702887Y-113472065D01*
X161699181Y-113444575D01*
X161704010Y-113419941D01*
X161719056Y-113398364D01*
X161741944Y-113381991D01*
X161777143Y-113368517D01*
X161861987Y-113348050D01*
X161905842Y-113337019D01*
X161945933Y-113323674D01*
X162003750Y-113296783D01*
X162045799Y-113266457D01*
X162075272Y-113233158D01*
X162096807Y-113192942D01*
X162110073Y-113146174D01*
X162114723Y-113091204D01*
X162111161Y-113047376D01*
X162100741Y-113007631D01*
X162083453Y-112971095D01*
X162058746Y-112937150D01*
X162025563Y-112905482D01*
X161979898Y-112875134D01*
X161927286Y-112852685D01*
X161866542Y-112838522D01*
X161796249Y-112833528D01*
X161726357Y-112837404D01*
X161657379Y-112849013D01*
X161591339Y-112867122D01*
X161538512Y-112887847D01*
X161538512Y-113074254D01*
X161558131Y-113074254D01*
X161604783Y-113038339D01*
X161663576Y-113007380D01*
X161705692Y-112992364D01*
X161748067Y-112983437D01*
X161790992Y-112980464D01*
X161836683Y-112984177D01*
X161858971Y-112989479D01*
X161880409Y-112998050D01*
X161897722Y-113008745D01*
X161912466Y-113023891D01*
X161922536Y-113042498D01*
X161925844Y-113063311D01*
X161923350Y-113083562D01*
X161916249Y-113099739D01*
X161904345Y-113112844D01*
X161877584Y-113127566D01*
X161823049Y-113144254D01*
X161747736Y-113162327D01*
X161670030Y-113186410D01*
X161617401Y-113210932D01*
X161577974Y-113238874D01*
X161549283Y-113269843D01*
X161528140Y-113307278D01*
X161514975Y-113352292D01*
X161510302Y-113406863D01*
G37*
G36*
X161384083Y-113662000D02*
G01*
X161133056Y-113662000D01*
X161050830Y-113658176D01*
X160985809Y-113647833D01*
X160925861Y-113628037D01*
X160871515Y-113597568D01*
X160828620Y-113561588D01*
X160790443Y-113516038D01*
X160756751Y-113459766D01*
X160731759Y-113398048D01*
X160716541Y-113330680D01*
X160711316Y-113256410D01*
X160711404Y-113255042D01*
X160901136Y-113255042D01*
X160904004Y-113308159D01*
X160912028Y-113352708D01*
X160924559Y-113390060D01*
X160942928Y-113423698D01*
X160967235Y-113452655D01*
X160998204Y-113477303D01*
X161027935Y-113492536D01*
X161057958Y-113502020D01*
X161092934Y-113506785D01*
X161154086Y-113508810D01*
X161200461Y-113508810D01*
X161200461Y-113002348D01*
X161154086Y-113002348D01*
X161098551Y-113004031D01*
X161065395Y-113008064D01*
X161036465Y-113016217D01*
X161007778Y-113029508D01*
X160973466Y-113054229D01*
X160946767Y-113083746D01*
X160926738Y-113118413D01*
X160912923Y-113157295D01*
X160904212Y-113202447D01*
X160901136Y-113255042D01*
X160711404Y-113255042D01*
X160716310Y-113179033D01*
X160730611Y-113111231D01*
X160753631Y-113051441D01*
X160785467Y-112997144D01*
X160823947Y-112951233D01*
X160869592Y-112913004D01*
X160915974Y-112886695D01*
X160975764Y-112865817D01*
X161041907Y-112853656D01*
X161125876Y-112849159D01*
X161384083Y-112849159D01*
X161384083Y-113662000D01*
G37*
G36*
X160315024Y-112838592D02*
G01*
X160375359Y-112853016D01*
X160428125Y-112876005D01*
X160474414Y-112907262D01*
X160515043Y-112947003D01*
X160549212Y-112994108D01*
X160576096Y-113047507D01*
X160595857Y-113108102D01*
X160608241Y-113177083D01*
X160612581Y-113255872D01*
X160608261Y-113333889D01*
X160595915Y-113402416D01*
X160576178Y-113462828D01*
X160549282Y-113516273D01*
X160515043Y-113563618D01*
X160474388Y-113603569D01*
X160428085Y-113634974D01*
X160375319Y-113658064D01*
X160314998Y-113672547D01*
X160245808Y-113677631D01*
X160176402Y-113672541D01*
X160115941Y-113658046D01*
X160063099Y-113634948D01*
X160016775Y-113603546D01*
X159976145Y-113563618D01*
X159941889Y-113516271D01*
X159914981Y-113462824D01*
X159895237Y-113402412D01*
X159882886Y-113333886D01*
X159878564Y-113255872D01*
X159878596Y-113255286D01*
X160069367Y-113255286D01*
X160072817Y-113320866D01*
X160082275Y-113373598D01*
X160098868Y-113421006D01*
X160121983Y-113460841D01*
X160148148Y-113489384D01*
X160177933Y-113508957D01*
X160210718Y-113520554D01*
X160245337Y-113524442D01*
X160279975Y-113520626D01*
X160312785Y-113509250D01*
X160342559Y-113489974D01*
X160368692Y-113461916D01*
X160389702Y-113426398D01*
X160407203Y-113379020D01*
X160417841Y-113325229D01*
X160421779Y-113255872D01*
X160417792Y-113187649D01*
X160406733Y-113131651D01*
X160388629Y-113082114D01*
X160367752Y-113047631D01*
X160340164Y-113019200D01*
X160311118Y-113000883D01*
X160279438Y-112990301D01*
X160245337Y-112986717D01*
X160211539Y-112990398D01*
X160179129Y-113001420D01*
X160149494Y-113020304D01*
X160122923Y-113048706D01*
X160101935Y-113083767D01*
X160084198Y-113131357D01*
X160073374Y-113185440D01*
X160069367Y-113255286D01*
X159878596Y-113255286D01*
X159882924Y-113177114D01*
X159895364Y-113108151D01*
X159915221Y-113047555D01*
X159942247Y-112994139D01*
X159976615Y-112947003D01*
X160017420Y-112907227D01*
X160063808Y-112875962D01*
X160116584Y-112852985D01*
X160176820Y-112838581D01*
X160245808Y-112833528D01*
X160315024Y-112838592D01*
G37*
G36*
X136050804Y-112849159D02*
G01*
X136310465Y-113662000D01*
X136516056Y-113662000D01*
X136775717Y-112849159D01*
X136583034Y-112849159D01*
X136410867Y-113420150D01*
X136238743Y-112849159D01*
X136050804Y-112849159D01*
G37*
G36*
X135948179Y-113662000D02*
G01*
X135697153Y-113662000D01*
X135614926Y-113658176D01*
X135549905Y-113647833D01*
X135489957Y-113628037D01*
X135435611Y-113597568D01*
X135392716Y-113561588D01*
X135354539Y-113516038D01*
X135320848Y-113459766D01*
X135295855Y-113398048D01*
X135280637Y-113330680D01*
X135275412Y-113256410D01*
X135275500Y-113255042D01*
X135465232Y-113255042D01*
X135468100Y-113308159D01*
X135476124Y-113352708D01*
X135488655Y-113390060D01*
X135507024Y-113423698D01*
X135531331Y-113452655D01*
X135562300Y-113477303D01*
X135592031Y-113492536D01*
X135622054Y-113502020D01*
X135657030Y-113506785D01*
X135718182Y-113508810D01*
X135764557Y-113508810D01*
X135764557Y-113002348D01*
X135718182Y-113002348D01*
X135662648Y-113004031D01*
X135629491Y-113008064D01*
X135600561Y-113016217D01*
X135571874Y-113029508D01*
X135537563Y-113054229D01*
X135510863Y-113083746D01*
X135490835Y-113118413D01*
X135477019Y-113157295D01*
X135468308Y-113202447D01*
X135465232Y-113255042D01*
X135275500Y-113255042D01*
X135280406Y-113179033D01*
X135294708Y-113111231D01*
X135317727Y-113051441D01*
X135349563Y-112997144D01*
X135388043Y-112951233D01*
X135433688Y-112913004D01*
X135480070Y-112886695D01*
X135539860Y-112865817D01*
X135606003Y-112853656D01*
X135689972Y-112849159D01*
X135948179Y-112849159D01*
X135948179Y-113662000D01*
G37*
G36*
X135135046Y-113662000D02*
G01*
X134884019Y-113662000D01*
X134801792Y-113658176D01*
X134736771Y-113647833D01*
X134676823Y-113628037D01*
X134622478Y-113597568D01*
X134579582Y-113561588D01*
X134541406Y-113516038D01*
X134507714Y-113459766D01*
X134482722Y-113398048D01*
X134467504Y-113330680D01*
X134462279Y-113256410D01*
X134462367Y-113255042D01*
X134652098Y-113255042D01*
X134654967Y-113308159D01*
X134662991Y-113352708D01*
X134675521Y-113390060D01*
X134693891Y-113423698D01*
X134718198Y-113452655D01*
X134749167Y-113477303D01*
X134778897Y-113492536D01*
X134808921Y-113502020D01*
X134843897Y-113506785D01*
X134905049Y-113508810D01*
X134951424Y-113508810D01*
X134951424Y-113002348D01*
X134905049Y-113002348D01*
X134849514Y-113004031D01*
X134816358Y-113008064D01*
X134787427Y-113016217D01*
X134758741Y-113029508D01*
X134724429Y-113054229D01*
X134697729Y-113083746D01*
X134677701Y-113118413D01*
X134663886Y-113157295D01*
X134655175Y-113202447D01*
X134652098Y-113255042D01*
X134462367Y-113255042D01*
X134467273Y-113179033D01*
X134481574Y-113111231D01*
X134504594Y-113051441D01*
X134536430Y-112997144D01*
X134574910Y-112951233D01*
X134620555Y-112913004D01*
X134666937Y-112886695D01*
X134726727Y-112865817D01*
X134792870Y-112853656D01*
X134876839Y-112849159D01*
X135135046Y-112849159D01*
X135135046Y-113662000D01*
G37*
G36*
X150973690Y-96962000D02*
G01*
X151448987Y-96962000D01*
X151448987Y-96821316D01*
X151298832Y-96821316D01*
X151298832Y-96389885D01*
X151448987Y-96389885D01*
X151448987Y-96258580D01*
X151382992Y-96253988D01*
X151352991Y-96247395D01*
X151330376Y-96238113D01*
X151308181Y-96222179D01*
X151293105Y-96203088D01*
X151283504Y-96179582D01*
X151278743Y-96149159D01*
X151120468Y-96149159D01*
X151120468Y-96821316D01*
X150973690Y-96821316D01*
X150973690Y-96962000D01*
G37*
G36*
X150302334Y-96579613D02*
G01*
X150281253Y-96604515D01*
X150265062Y-96633102D01*
X150255007Y-96666676D01*
X150251171Y-96714484D01*
X150256198Y-96770190D01*
X150271046Y-96821462D01*
X150286450Y-96852702D01*
X150306618Y-96881011D01*
X150331997Y-96906654D01*
X150375003Y-96936635D01*
X150426458Y-96959362D01*
X150483783Y-96972676D01*
X150558190Y-96977631D01*
X150643496Y-96973316D01*
X150710012Y-96961706D01*
X150770148Y-96943873D01*
X150813064Y-96925998D01*
X150813064Y-96746284D01*
X150794428Y-96746284D01*
X150750686Y-96772815D01*
X150696163Y-96796842D01*
X150639856Y-96813176D01*
X150591658Y-96818189D01*
X150531434Y-96812963D01*
X150500782Y-96804305D01*
X150476424Y-96789955D01*
X150460417Y-96774551D01*
X150448214Y-96756494D01*
X150440669Y-96734229D01*
X150437699Y-96699732D01*
X150441618Y-96666586D01*
X150452061Y-96644093D01*
X150468443Y-96627411D01*
X150489802Y-96616103D01*
X150514544Y-96609452D01*
X150546223Y-96606431D01*
X150607430Y-96605600D01*
X150646625Y-96605600D01*
X150646625Y-96464916D01*
X150605977Y-96464916D01*
X150540025Y-96462230D01*
X150512579Y-96457507D01*
X150491213Y-96449725D01*
X150472361Y-96437338D01*
X150459669Y-96422369D01*
X150452113Y-96402784D01*
X150449154Y-96372153D01*
X150452072Y-96349585D01*
X150460182Y-96332879D01*
X150472476Y-96319599D01*
X150487879Y-96309236D01*
X150507616Y-96301284D01*
X150531904Y-96296242D01*
X150575416Y-96292969D01*
X150621015Y-96297179D01*
X150672954Y-96310702D01*
X150724467Y-96332200D01*
X150774809Y-96361748D01*
X150792505Y-96361748D01*
X150792505Y-96184965D01*
X150749555Y-96168330D01*
X150685905Y-96150234D01*
X150618024Y-96137709D01*
X150549129Y-96133528D01*
X150483849Y-96137081D01*
X150430989Y-96146815D01*
X150383048Y-96163065D01*
X150347299Y-96182376D01*
X150312498Y-96212508D01*
X150288998Y-96246954D01*
X150274820Y-96287327D01*
X150269850Y-96335907D01*
X150273970Y-96379291D01*
X150286143Y-96419018D01*
X150306694Y-96456075D01*
X150333758Y-96487029D01*
X150365782Y-96509408D01*
X150403719Y-96523632D01*
X150403719Y-96531009D01*
X150379151Y-96536576D01*
X150352086Y-96546298D01*
X150326059Y-96560336D01*
X150302334Y-96579613D01*
G37*
G36*
X166746184Y-113662000D02*
G01*
X166563545Y-113662000D01*
X166563545Y-113365000D01*
X166478915Y-113365000D01*
X166284736Y-113662000D01*
X166060466Y-113662000D01*
X166298157Y-113314686D01*
X166254984Y-113286328D01*
X166220538Y-113254785D01*
X166193652Y-113220066D01*
X166173951Y-113180143D01*
X166161510Y-113131767D01*
X166158871Y-113096822D01*
X166346926Y-113096822D01*
X166349385Y-113129673D01*
X166355774Y-113152460D01*
X166366864Y-113171878D01*
X166383728Y-113190367D01*
X166405692Y-113204673D01*
X166433480Y-113213081D01*
X166464919Y-113216692D01*
X166507125Y-113218064D01*
X166563545Y-113218064D01*
X166563545Y-112996096D01*
X166497081Y-112996096D01*
X166439207Y-112998050D01*
X166415307Y-113001848D01*
X166395695Y-113008845D01*
X166372248Y-113024507D01*
X166357954Y-113043723D01*
X166349821Y-113067408D01*
X166346926Y-113096822D01*
X166158871Y-113096822D01*
X166157064Y-113072886D01*
X166159938Y-113029830D01*
X166168006Y-112993878D01*
X166180743Y-112963758D01*
X166208373Y-112924495D01*
X166244558Y-112892928D01*
X166285738Y-112870343D01*
X166329701Y-112857366D01*
X166377280Y-112851385D01*
X166438224Y-112849159D01*
X166746184Y-112849159D01*
X166746184Y-113662000D01*
G37*
G36*
X165334698Y-113662000D02*
G01*
X165547000Y-113662000D01*
X165700489Y-113394505D01*
X165856884Y-113662000D01*
X166059611Y-113662000D01*
X165807131Y-113252600D01*
X166054354Y-112849159D01*
X165842522Y-112849159D01*
X165694291Y-113102439D01*
X165541743Y-112849159D01*
X165338545Y-112849159D01*
X165587178Y-113244393D01*
X165334698Y-113662000D01*
G37*
G36*
X134033930Y-113662000D02*
G01*
X133851291Y-113662000D01*
X133851291Y-113365000D01*
X133766661Y-113365000D01*
X133572482Y-113662000D01*
X133348212Y-113662000D01*
X133585903Y-113314686D01*
X133542730Y-113286328D01*
X133508284Y-113254785D01*
X133481398Y-113220066D01*
X133461697Y-113180143D01*
X133449256Y-113131767D01*
X133446617Y-113096822D01*
X133634672Y-113096822D01*
X133637131Y-113129673D01*
X133643520Y-113152460D01*
X133654610Y-113171878D01*
X133671474Y-113190367D01*
X133693438Y-113204673D01*
X133721226Y-113213081D01*
X133752665Y-113216692D01*
X133794871Y-113218064D01*
X133851291Y-113218064D01*
X133851291Y-112996096D01*
X133784827Y-112996096D01*
X133726953Y-112998050D01*
X133703053Y-113001848D01*
X133683441Y-113008845D01*
X133659994Y-113024507D01*
X133645700Y-113043723D01*
X133637567Y-113067408D01*
X133634672Y-113096822D01*
X133446617Y-113096822D01*
X133444810Y-113072886D01*
X133447684Y-113029830D01*
X133455752Y-112993878D01*
X133468489Y-112963758D01*
X133496119Y-112924495D01*
X133532304Y-112892928D01*
X133573484Y-112870343D01*
X133617447Y-112857366D01*
X133665026Y-112851385D01*
X133725970Y-112849159D01*
X134033930Y-112849159D01*
X134033930Y-113662000D01*
G37*
G36*
X132698013Y-113406863D02*
G01*
X132701632Y-113453520D01*
X132712181Y-113495630D01*
X132729584Y-113534099D01*
X132754286Y-113569587D01*
X132787217Y-113602453D01*
X132832856Y-113633749D01*
X132887287Y-113657226D01*
X132952149Y-113672259D01*
X133029396Y-113677631D01*
X133114924Y-113672838D01*
X133183611Y-113659752D01*
X133247896Y-113639248D01*
X133306752Y-113614421D01*
X133306752Y-113418147D01*
X133286663Y-113418147D01*
X133247256Y-113451512D01*
X133204881Y-113479274D01*
X133159247Y-113501581D01*
X133111681Y-113518075D01*
X133066620Y-113527604D01*
X133023668Y-113530695D01*
X132979686Y-113527275D01*
X132953788Y-113522410D01*
X132935191Y-113515845D01*
X132915627Y-113504019D01*
X132900527Y-113490199D01*
X132890598Y-113472065D01*
X132886892Y-113444575D01*
X132891721Y-113419941D01*
X132906768Y-113398364D01*
X132929655Y-113381991D01*
X132964855Y-113368517D01*
X133049698Y-113348050D01*
X133093554Y-113337019D01*
X133133645Y-113323674D01*
X133191462Y-113296783D01*
X133233510Y-113266457D01*
X133262984Y-113233158D01*
X133284519Y-113192942D01*
X133297784Y-113146174D01*
X133302435Y-113091204D01*
X133298872Y-113047376D01*
X133288452Y-113007631D01*
X133271165Y-112971095D01*
X133246457Y-112937150D01*
X133213274Y-112905482D01*
X133167609Y-112875134D01*
X133114997Y-112852685D01*
X133054253Y-112838522D01*
X132983960Y-112833528D01*
X132914068Y-112837404D01*
X132845090Y-112849013D01*
X132779050Y-112867122D01*
X132726223Y-112887847D01*
X132726223Y-113074254D01*
X132745842Y-113074254D01*
X132792495Y-113038339D01*
X132851288Y-113007380D01*
X132893403Y-112992364D01*
X132935779Y-112983437D01*
X132978703Y-112980464D01*
X133024395Y-112984177D01*
X133046683Y-112989479D01*
X133068120Y-112998050D01*
X133085434Y-113008745D01*
X133100177Y-113023891D01*
X133110247Y-113042498D01*
X133113556Y-113063311D01*
X133111061Y-113083562D01*
X133103960Y-113099739D01*
X133092056Y-113112844D01*
X133065295Y-113127566D01*
X133010760Y-113144254D01*
X132935448Y-113162327D01*
X132857742Y-113186410D01*
X132805112Y-113210932D01*
X132765686Y-113238874D01*
X132736994Y-113269843D01*
X132715851Y-113307278D01*
X132702686Y-113352292D01*
X132698013Y-113406863D01*
G37*
G36*
X132014732Y-113005475D02*
G01*
X132237078Y-113005475D01*
X132237078Y-113662000D01*
X132420700Y-113662000D01*
X132420700Y-113005475D01*
X132643046Y-113005475D01*
X132643046Y-112849159D01*
X132014732Y-112849159D01*
X132014732Y-113005475D01*
G37*
X134054801Y-112678000D02*
X132065199Y-112678000D01*
G36*
X163540837Y-96137623D02*
G01*
X163599784Y-96149179D01*
X163650524Y-96167331D01*
X163698294Y-96193543D01*
X163738561Y-96225157D01*
X163772212Y-96262195D01*
X163801655Y-96306769D01*
X163825035Y-96355491D01*
X163842523Y-96408887D01*
X163854125Y-96464668D01*
X163861453Y-96527627D01*
X163864022Y-96598664D01*
X163861222Y-96667142D01*
X163853351Y-96725778D01*
X163841070Y-96775886D01*
X163822979Y-96823390D01*
X163800811Y-96863430D01*
X163774605Y-96896933D01*
X163748005Y-96921655D01*
X163717942Y-96941907D01*
X163683991Y-96957750D01*
X163629342Y-96972485D01*
X163567048Y-96977631D01*
X163521692Y-96975078D01*
X163482178Y-96967842D01*
X163447753Y-96956431D01*
X163399668Y-96930299D01*
X163358080Y-96894930D01*
X163335834Y-96868227D01*
X163317057Y-96837566D01*
X163301659Y-96802509D01*
X163286653Y-96746002D01*
X163282229Y-96692893D01*
X163466645Y-96692893D01*
X163469140Y-96733656D01*
X163475493Y-96761183D01*
X163485952Y-96784767D01*
X163499173Y-96804561D01*
X163513902Y-96818683D01*
X163531700Y-96828887D01*
X163550546Y-96835063D01*
X163566577Y-96836947D01*
X163587119Y-96834954D01*
X163605815Y-96829131D01*
X163622741Y-96819114D01*
X163637359Y-96804561D01*
X163654295Y-96778334D01*
X163668689Y-96739055D01*
X163677162Y-96693103D01*
X163680401Y-96629780D01*
X163679931Y-96598517D01*
X163679460Y-96580736D01*
X163637359Y-96567254D01*
X163593377Y-96561832D01*
X163545078Y-96567498D01*
X163522960Y-96575647D01*
X163504430Y-96588259D01*
X163488801Y-96605634D01*
X163476690Y-96628461D01*
X163469397Y-96655602D01*
X163466645Y-96692893D01*
X163282229Y-96692893D01*
X163281570Y-96684979D01*
X163284512Y-96632188D01*
X163292718Y-96588258D01*
X163305506Y-96551720D01*
X163323490Y-96518102D01*
X163344631Y-96489990D01*
X163369064Y-96466822D01*
X163400950Y-96446148D01*
X163435315Y-96432041D01*
X163471842Y-96423955D01*
X163512551Y-96421148D01*
X163558767Y-96425121D01*
X163600771Y-96436682D01*
X163640680Y-96454564D01*
X163678477Y-96477177D01*
X163670251Y-96432357D01*
X163657118Y-96394333D01*
X163639336Y-96362049D01*
X163616800Y-96334735D01*
X163590209Y-96313329D01*
X163558266Y-96297400D01*
X163519911Y-96287229D01*
X163473826Y-96283591D01*
X163435741Y-96285962D01*
X163403771Y-96292579D01*
X163360003Y-96308601D01*
X163341837Y-96308601D01*
X163341837Y-96147303D01*
X163395907Y-96139048D01*
X163472373Y-96133528D01*
X163540837Y-96137623D01*
G37*
G36*
X165835932Y-96685712D02*
G01*
X165838301Y-96727407D01*
X165845268Y-96766475D01*
X165856748Y-96803339D01*
X165872712Y-96837815D01*
X165892793Y-96868709D01*
X165917228Y-96896347D01*
X165947813Y-96921460D01*
X165981407Y-96941907D01*
X166018357Y-96957750D01*
X166077821Y-96972399D01*
X166148679Y-96977631D01*
X166230923Y-96973116D01*
X166293319Y-96962097D01*
X166349396Y-96945376D01*
X166389661Y-96928587D01*
X166389661Y-96749411D01*
X166369572Y-96749411D01*
X166324664Y-96776282D01*
X166275880Y-96798552D01*
X166225383Y-96813357D01*
X166175906Y-96818189D01*
X166145252Y-96816322D01*
X166110638Y-96810374D01*
X166078191Y-96798826D01*
X166054945Y-96781895D01*
X166040302Y-96764483D01*
X166030325Y-96747799D01*
X166024394Y-96727854D01*
X166021947Y-96694163D01*
X166024871Y-96667509D01*
X166033189Y-96645754D01*
X166046065Y-96627375D01*
X166062125Y-96612976D01*
X166089816Y-96598443D01*
X166124316Y-96589431D01*
X166190267Y-96583716D01*
X166232764Y-96585865D01*
X166272760Y-96592167D01*
X166341875Y-96608727D01*
X166362904Y-96608727D01*
X166362904Y-96149159D01*
X165856491Y-96149159D01*
X165856491Y-96305475D01*
X166190267Y-96305475D01*
X166190267Y-96436389D01*
X166152739Y-96434484D01*
X166112818Y-96433653D01*
X166055711Y-96437046D01*
X166007842Y-96446501D01*
X165963856Y-96462277D01*
X165928213Y-96482209D01*
X165901176Y-96504513D01*
X165878676Y-96530863D01*
X165860338Y-96561588D01*
X165847268Y-96595616D01*
X165838920Y-96636513D01*
X165835932Y-96685712D01*
G37*
G36*
X169013693Y-96706863D02*
G01*
X169017312Y-96753520D01*
X169027860Y-96795630D01*
X169045263Y-96834099D01*
X169069966Y-96869587D01*
X169102896Y-96902453D01*
X169148535Y-96933749D01*
X169202967Y-96957226D01*
X169267829Y-96972259D01*
X169345075Y-96977631D01*
X169430603Y-96972838D01*
X169499290Y-96959752D01*
X169563575Y-96939248D01*
X169622431Y-96914421D01*
X169622431Y-96718147D01*
X169602342Y-96718147D01*
X169562935Y-96751512D01*
X169520561Y-96779274D01*
X169474927Y-96801581D01*
X169427361Y-96818075D01*
X169382299Y-96827604D01*
X169339348Y-96830695D01*
X169295366Y-96827275D01*
X169269467Y-96822410D01*
X169250871Y-96815845D01*
X169231307Y-96804019D01*
X169216207Y-96790199D01*
X169206278Y-96772065D01*
X169202572Y-96744575D01*
X169207401Y-96719941D01*
X169222447Y-96698364D01*
X169245335Y-96681991D01*
X169280534Y-96668517D01*
X169365378Y-96648050D01*
X169409233Y-96637019D01*
X169449324Y-96623674D01*
X169507141Y-96596783D01*
X169549190Y-96566457D01*
X169578663Y-96533158D01*
X169600198Y-96492942D01*
X169613464Y-96446174D01*
X169618114Y-96391204D01*
X169614552Y-96347376D01*
X169604132Y-96307631D01*
X169586844Y-96271095D01*
X169562137Y-96237150D01*
X169528954Y-96205482D01*
X169483289Y-96175134D01*
X169430677Y-96152685D01*
X169369933Y-96138522D01*
X169299640Y-96133528D01*
X169229748Y-96137404D01*
X169160770Y-96149013D01*
X169094730Y-96167122D01*
X169041903Y-96187847D01*
X169041903Y-96374254D01*
X169061522Y-96374254D01*
X169108174Y-96338339D01*
X169166967Y-96307380D01*
X169209083Y-96292364D01*
X169251458Y-96283437D01*
X169294383Y-96280464D01*
X169340074Y-96284177D01*
X169362362Y-96289479D01*
X169383800Y-96298050D01*
X169401113Y-96308745D01*
X169415857Y-96323891D01*
X169425927Y-96342498D01*
X169429235Y-96363311D01*
X169426741Y-96383562D01*
X169419640Y-96399739D01*
X169407736Y-96412844D01*
X169380975Y-96427566D01*
X169326440Y-96444254D01*
X169251127Y-96462327D01*
X169173421Y-96486410D01*
X169120792Y-96510932D01*
X169081365Y-96538874D01*
X169052674Y-96569843D01*
X169031531Y-96607278D01*
X169018366Y-96652292D01*
X169013693Y-96706863D01*
G37*
G36*
X168565666Y-96977631D02*
G01*
X168618179Y-96974548D01*
X168666884Y-96965554D01*
X168712230Y-96950911D01*
X168755399Y-96929884D01*
X168793726Y-96903357D01*
X168827720Y-96871239D01*
X168857092Y-96833648D01*
X168882032Y-96789888D01*
X168902562Y-96739201D01*
X168916920Y-96685619D01*
X168925944Y-96625032D01*
X168929105Y-96556410D01*
X168926148Y-96492533D01*
X168917586Y-96434390D01*
X168903759Y-96381288D01*
X168884056Y-96330827D01*
X168859537Y-96286081D01*
X168830114Y-96246466D01*
X168797260Y-96213633D01*
X168759148Y-96185812D01*
X168715136Y-96162983D01*
X168668729Y-96146825D01*
X168618915Y-96136920D01*
X168565196Y-96133528D01*
X168521326Y-96135050D01*
X168484156Y-96139292D01*
X168417435Y-96154337D01*
X168359348Y-96177638D01*
X168313656Y-96201476D01*
X168313656Y-96399264D01*
X168334685Y-96399264D01*
X168368452Y-96367757D01*
X168414571Y-96331853D01*
X168441728Y-96315659D01*
X168471461Y-96302006D01*
X168502846Y-96292940D01*
X168536986Y-96289843D01*
X168574964Y-96293362D01*
X168610631Y-96303765D01*
X168643827Y-96321981D01*
X168675172Y-96349927D01*
X168700100Y-96385034D01*
X168720864Y-96432432D01*
X168733616Y-96486943D01*
X168738303Y-96556947D01*
X168735960Y-96607681D01*
X168729453Y-96649852D01*
X168719411Y-96684784D01*
X168697361Y-96731851D01*
X168671838Y-96765579D01*
X168640802Y-96791438D01*
X168606784Y-96808468D01*
X168570842Y-96818161D01*
X168536003Y-96821316D01*
X168502814Y-96818414D01*
X168469794Y-96809641D01*
X168438140Y-96795804D01*
X168409314Y-96777987D01*
X168365802Y-96743549D01*
X168332805Y-96711895D01*
X168313656Y-96711895D01*
X168313656Y-96907338D01*
X168364862Y-96933179D01*
X168415982Y-96954037D01*
X168481506Y-96971574D01*
X168514978Y-96975901D01*
X168565666Y-96977631D01*
G37*
G36*
X167665423Y-96962000D02*
G01*
X168178974Y-96962000D01*
X168178974Y-96149159D01*
X167995353Y-96149159D01*
X167995353Y-96805684D01*
X167665423Y-96805684D01*
X167665423Y-96962000D01*
G37*
G36*
X163901216Y-113406863D02*
G01*
X163904835Y-113453520D01*
X163915383Y-113495630D01*
X163932786Y-113534099D01*
X163957489Y-113569587D01*
X163990419Y-113602453D01*
X164036058Y-113633749D01*
X164090490Y-113657226D01*
X164155352Y-113672259D01*
X164232598Y-113677631D01*
X164318126Y-113672838D01*
X164386813Y-113659752D01*
X164451098Y-113639248D01*
X164509954Y-113614421D01*
X164509954Y-113418147D01*
X164489865Y-113418147D01*
X164450458Y-113451512D01*
X164408084Y-113479274D01*
X164362450Y-113501581D01*
X164314884Y-113518075D01*
X164269822Y-113527604D01*
X164226871Y-113530695D01*
X164182889Y-113527275D01*
X164156990Y-113522410D01*
X164138394Y-113515845D01*
X164118830Y-113504019D01*
X164103730Y-113490199D01*
X164093801Y-113472065D01*
X164090095Y-113444575D01*
X164094924Y-113419941D01*
X164109970Y-113398364D01*
X164132858Y-113381991D01*
X164168057Y-113368517D01*
X164252901Y-113348050D01*
X164296756Y-113337019D01*
X164336847Y-113323674D01*
X164394664Y-113296783D01*
X164436713Y-113266457D01*
X164466186Y-113233158D01*
X164487721Y-113192942D01*
X164500987Y-113146174D01*
X164505637Y-113091204D01*
X164502075Y-113047376D01*
X164491655Y-113007631D01*
X164474367Y-112971095D01*
X164449660Y-112937150D01*
X164416477Y-112905482D01*
X164370812Y-112875134D01*
X164318200Y-112852685D01*
X164257456Y-112838522D01*
X164187163Y-112833528D01*
X164117271Y-112837404D01*
X164048293Y-112849013D01*
X163982253Y-112867122D01*
X163929426Y-112887847D01*
X163929426Y-113074254D01*
X163949045Y-113074254D01*
X163995697Y-113038339D01*
X164054490Y-113007380D01*
X164096606Y-112992364D01*
X164138981Y-112983437D01*
X164181906Y-112980464D01*
X164227597Y-112984177D01*
X164249885Y-112989479D01*
X164271323Y-112998050D01*
X164288636Y-113008745D01*
X164303380Y-113023891D01*
X164313450Y-113042498D01*
X164316758Y-113063311D01*
X164314264Y-113083562D01*
X164307163Y-113099739D01*
X164295259Y-113112844D01*
X164268498Y-113127566D01*
X164213963Y-113144254D01*
X164138650Y-113162327D01*
X164060944Y-113186410D01*
X164008315Y-113210932D01*
X163968888Y-113238874D01*
X163940197Y-113269843D01*
X163919054Y-113307278D01*
X163905889Y-113352292D01*
X163901216Y-113406863D01*
G37*
G36*
X163774997Y-113662000D02*
G01*
X163523970Y-113662000D01*
X163441744Y-113658176D01*
X163376723Y-113647833D01*
X163316775Y-113628037D01*
X163262429Y-113597568D01*
X163219534Y-113561588D01*
X163181357Y-113516038D01*
X163147665Y-113459766D01*
X163122673Y-113398048D01*
X163107455Y-113330680D01*
X163102230Y-113256410D01*
X163102318Y-113255042D01*
X163292050Y-113255042D01*
X163294918Y-113308159D01*
X163302942Y-113352708D01*
X163315473Y-113390060D01*
X163333842Y-113423698D01*
X163358149Y-113452655D01*
X163389118Y-113477303D01*
X163418849Y-113492536D01*
X163448872Y-113502020D01*
X163483848Y-113506785D01*
X163545000Y-113508810D01*
X163591375Y-113508810D01*
X163591375Y-113002348D01*
X163545000Y-113002348D01*
X163489465Y-113004031D01*
X163456309Y-113008064D01*
X163427379Y-113016217D01*
X163398692Y-113029508D01*
X163364380Y-113054229D01*
X163337681Y-113083746D01*
X163317652Y-113118413D01*
X163303837Y-113157295D01*
X163295126Y-113202447D01*
X163292050Y-113255042D01*
X163102318Y-113255042D01*
X163107224Y-113179033D01*
X163121525Y-113111231D01*
X163144545Y-113051441D01*
X163176381Y-112997144D01*
X163214861Y-112951233D01*
X163260506Y-112913004D01*
X163306888Y-112886695D01*
X163366678Y-112865817D01*
X163432821Y-112853656D01*
X163516790Y-112849159D01*
X163774997Y-112849159D01*
X163774997Y-113662000D01*
G37*
G36*
X162576925Y-113662000D02*
G01*
X162993921Y-113662000D01*
X162993921Y-113515063D01*
X162877234Y-113515063D01*
X162877234Y-112996096D01*
X162993921Y-112996096D01*
X162993921Y-112849159D01*
X162576925Y-112849159D01*
X162576925Y-112996096D01*
X162693612Y-112996096D01*
X162693612Y-113515063D01*
X162576925Y-113515063D01*
X162576925Y-113662000D01*
G37*
G36*
X145943315Y-96962000D02*
G01*
X146458319Y-96962000D01*
X146458319Y-96149159D01*
X145943315Y-96149159D01*
X145943315Y-96305475D01*
X146275680Y-96305475D01*
X146275680Y-96446159D01*
X145967250Y-96446159D01*
X145967250Y-96602474D01*
X146275680Y-96602474D01*
X146275680Y-96805684D01*
X145943315Y-96805684D01*
X145943315Y-96962000D01*
G37*
G36*
X145142021Y-96962000D02*
G01*
X145318975Y-96962000D01*
X145621164Y-96404100D01*
X145621164Y-96962000D01*
X145789484Y-96962000D01*
X145789484Y-96149159D01*
X145570002Y-96149159D01*
X145310341Y-96614833D01*
X145310341Y-96149159D01*
X145142021Y-96149159D01*
X145142021Y-96962000D01*
G37*
G36*
X144256156Y-96962000D02*
G01*
X143945333Y-96962000D01*
X143871310Y-96957780D01*
X143817447Y-96946759D01*
X143769106Y-96926358D01*
X143724909Y-96895565D01*
X143692466Y-96861180D01*
X143667763Y-96818824D01*
X143656365Y-96787170D01*
X143649363Y-96752346D01*
X143646947Y-96713751D01*
X143647152Y-96711553D01*
X143837279Y-96711553D01*
X143840062Y-96739840D01*
X143848051Y-96763870D01*
X143862461Y-96783561D01*
X143887502Y-96800262D01*
X143916696Y-96810614D01*
X143949179Y-96814526D01*
X144060139Y-96815063D01*
X144073517Y-96815063D01*
X144073517Y-96611853D01*
X144033339Y-96611853D01*
X143954437Y-96612390D01*
X143918709Y-96614847D01*
X143895153Y-96620060D01*
X143867100Y-96633916D01*
X143850444Y-96651567D01*
X143840931Y-96675526D01*
X143837279Y-96711553D01*
X143647152Y-96711553D01*
X143651820Y-96661505D01*
X143665579Y-96618627D01*
X143687852Y-96583081D01*
X143717426Y-96554460D01*
X143753869Y-96532606D01*
X143798555Y-96517722D01*
X143798555Y-96513325D01*
X143767222Y-96493801D01*
X143741809Y-96470392D01*
X143721576Y-96442983D01*
X143706536Y-96411611D01*
X143697763Y-96378357D01*
X143882245Y-96378357D01*
X143884248Y-96403992D01*
X143889895Y-96425349D01*
X143901124Y-96442988D01*
X143922423Y-96458371D01*
X143941916Y-96465554D01*
X143970722Y-96469508D01*
X144044837Y-96471169D01*
X144073517Y-96471169D01*
X144073517Y-96296096D01*
X144056292Y-96296096D01*
X143972389Y-96296926D01*
X143943889Y-96299984D01*
X143922423Y-96306647D01*
X143902976Y-96319666D01*
X143891092Y-96337226D01*
X143884398Y-96358066D01*
X143882245Y-96378357D01*
X143697763Y-96378357D01*
X143697432Y-96377101D01*
X143694306Y-96338643D01*
X143699409Y-96289905D01*
X143714181Y-96248029D01*
X143729383Y-96223772D01*
X143749303Y-96202741D01*
X143774619Y-96184770D01*
X143814436Y-96166132D01*
X143853778Y-96155754D01*
X143899505Y-96151127D01*
X143979783Y-96149159D01*
X144256156Y-96149159D01*
X144256156Y-96962000D01*
G37*
G36*
X143589416Y-96962000D02*
G01*
X143404383Y-96962000D01*
X143355144Y-96796305D01*
X143091166Y-96796305D01*
X143041927Y-96962000D01*
X142852065Y-96962000D01*
X142953216Y-96649369D01*
X143135661Y-96649369D01*
X143310649Y-96649369D01*
X143223155Y-96357450D01*
X143135661Y-96649369D01*
X142953216Y-96649369D01*
X143115059Y-96149159D01*
X143326421Y-96149159D01*
X143589416Y-96962000D01*
G37*
G36*
X142192505Y-96305475D02*
G01*
X142414852Y-96305475D01*
X142414852Y-96962000D01*
X142598474Y-96962000D01*
X142598474Y-96305475D01*
X142820820Y-96305475D01*
X142820820Y-96149159D01*
X142192505Y-96149159D01*
X142192505Y-96305475D01*
G37*
G36*
X139379361Y-95632568D02*
G01*
X139431327Y-95652490D01*
X139506092Y-95674724D01*
X139585181Y-95690444D01*
X139663428Y-95695631D01*
X139737083Y-95690552D01*
X139801092Y-95676119D01*
X139856840Y-95653211D01*
X139905496Y-95622240D01*
X139947964Y-95583133D01*
X139984054Y-95536119D01*
X140012371Y-95482614D01*
X140033161Y-95421681D01*
X140046189Y-95352058D01*
X140050760Y-95272212D01*
X140046272Y-95196720D01*
X140033363Y-95129635D01*
X140012547Y-95069688D01*
X139983893Y-95015843D01*
X139947024Y-94967348D01*
X139904096Y-94927093D01*
X139854777Y-94895219D01*
X139798124Y-94871635D01*
X139732916Y-94856765D01*
X139657700Y-94851528D01*
X139588405Y-94855215D01*
X139523831Y-94865987D01*
X139459339Y-94886525D01*
X139382267Y-94923579D01*
X139382267Y-95114138D01*
X139402827Y-95114138D01*
X139442064Y-95082093D01*
X139491774Y-95046775D01*
X139520994Y-95031131D01*
X139556571Y-95017124D01*
X139594407Y-95007875D01*
X139635218Y-95004717D01*
X139682515Y-95008956D01*
X139723695Y-95021081D01*
X139761225Y-95041737D01*
X139794946Y-95071297D01*
X139821490Y-95107771D01*
X139842519Y-95154487D01*
X139855379Y-95207398D01*
X139859958Y-95270990D01*
X139855508Y-95338344D01*
X139843098Y-95393809D01*
X139823641Y-95439550D01*
X139797340Y-95477229D01*
X139764349Y-95507043D01*
X139723675Y-95529266D01*
X139673682Y-95543545D01*
X139612265Y-95548695D01*
X139589098Y-95548157D01*
X139565889Y-95546496D01*
X139565889Y-95386127D01*
X139707880Y-95386127D01*
X139707880Y-95232937D01*
X139379361Y-95232937D01*
X139379361Y-95632568D01*
G37*
G36*
X138688941Y-95680000D02*
G01*
X138861108Y-95680000D01*
X138861108Y-95613956D01*
X138908710Y-95651840D01*
X138948645Y-95677166D01*
X138975718Y-95688813D01*
X139007013Y-95696164D01*
X139043277Y-95698757D01*
X139087430Y-95694671D01*
X139124126Y-95683205D01*
X139154744Y-95665056D01*
X139180309Y-95640237D01*
X139200229Y-95609639D01*
X139215192Y-95571723D01*
X139224856Y-95524920D01*
X139228352Y-95467264D01*
X139228352Y-95067243D01*
X139055245Y-95067243D01*
X139055245Y-95371912D01*
X139052637Y-95449337D01*
X139048015Y-95478579D01*
X139040413Y-95500481D01*
X139029035Y-95517956D01*
X139012930Y-95530034D01*
X138992536Y-95536681D01*
X138961510Y-95539316D01*
X138939105Y-95537138D01*
X138912784Y-95530034D01*
X138886621Y-95518613D01*
X138861108Y-95502679D01*
X138861108Y-95067243D01*
X138688941Y-95067243D01*
X138688941Y-95680000D01*
G37*
G36*
X138354353Y-95680000D02*
G01*
X138526477Y-95680000D01*
X138526477Y-95067243D01*
X138354353Y-95067243D01*
X138354353Y-95680000D01*
G37*
G36*
X138349566Y-94979706D02*
G01*
X138531264Y-94979706D01*
X138531264Y-94829644D01*
X138349566Y-94829644D01*
X138349566Y-94979706D01*
G37*
G36*
X137842042Y-95090006D02*
G01*
X137905429Y-95060258D01*
X137938550Y-95051746D01*
X137984545Y-95048485D01*
X138030440Y-95054059D01*
X138077296Y-95071249D01*
X138120397Y-95098768D01*
X138156199Y-95135191D01*
X138186634Y-95182207D01*
X138210482Y-95239190D01*
X138221223Y-95280205D01*
X138227960Y-95326319D01*
X138230314Y-95378262D01*
X138226155Y-95452224D01*
X138214472Y-95514672D01*
X138196127Y-95567443D01*
X138171501Y-95612051D01*
X138139329Y-95650283D01*
X138103104Y-95676961D01*
X138061999Y-95693148D01*
X138014678Y-95698757D01*
X137966020Y-95693393D01*
X137925261Y-95678192D01*
X137886691Y-95653553D01*
X137842042Y-95616057D01*
X137842042Y-95680000D01*
X137669875Y-95680000D01*
X137669875Y-95208806D01*
X137842042Y-95208806D01*
X137842042Y-95511863D01*
X137863354Y-95526567D01*
X137888460Y-95538534D01*
X137914560Y-95546262D01*
X137938169Y-95548695D01*
X137976648Y-95543575D01*
X138004972Y-95529672D01*
X138025706Y-95507711D01*
X138039633Y-95478524D01*
X138049238Y-95436102D01*
X138052933Y-95376015D01*
X138048686Y-95319629D01*
X138037047Y-95275491D01*
X138018995Y-95240997D01*
X138000532Y-95220250D01*
X137978026Y-95205194D01*
X137950632Y-95195693D01*
X137917140Y-95192295D01*
X137880296Y-95196154D01*
X137842042Y-95208806D01*
X137669875Y-95208806D01*
X137669875Y-94829644D01*
X137842042Y-94829644D01*
X137842042Y-95090006D01*
G37*
G36*
X137298416Y-95052479D02*
G01*
X137348538Y-95063850D01*
X137392369Y-95081935D01*
X137430794Y-95106437D01*
X137464497Y-95137438D01*
X137493288Y-95174690D01*
X137515767Y-95216642D01*
X137532187Y-95263961D01*
X137542428Y-95317560D01*
X137546007Y-95378555D01*
X137542194Y-95440189D01*
X137531345Y-95493518D01*
X137514023Y-95539871D01*
X137490343Y-95580308D01*
X137459966Y-95615568D01*
X137425119Y-95643780D01*
X137384018Y-95666608D01*
X137335672Y-95683821D01*
X137278882Y-95694837D01*
X137212274Y-95698757D01*
X137151089Y-95695604D01*
X137097980Y-95686692D01*
X137045940Y-95671374D01*
X136988004Y-95647759D01*
X136988004Y-95489295D01*
X137007110Y-95489295D01*
X137040113Y-95513402D01*
X137087936Y-95538339D01*
X137139983Y-95555496D01*
X137193595Y-95561200D01*
X137250198Y-95556189D01*
X137292564Y-95542782D01*
X137323917Y-95522609D01*
X137348568Y-95493614D01*
X137364570Y-95457155D01*
X137371960Y-95411137D01*
X136977959Y-95411137D01*
X136977959Y-95342212D01*
X136981041Y-95295464D01*
X137149143Y-95295464D01*
X137372430Y-95295464D01*
X137366173Y-95253428D01*
X137354027Y-95222536D01*
X137336612Y-95200160D01*
X137313965Y-95183997D01*
X137287057Y-95173960D01*
X137254802Y-95170411D01*
X137220179Y-95174411D01*
X137194637Y-95185181D01*
X137175942Y-95201821D01*
X137162416Y-95224504D01*
X137153226Y-95254956D01*
X137149143Y-95295464D01*
X136981041Y-95295464D01*
X136982644Y-95271152D01*
X136995719Y-95212558D01*
X137016226Y-95164171D01*
X137043954Y-95124249D01*
X137078714Y-95092715D01*
X137121842Y-95069152D01*
X137175148Y-95053973D01*
X137240954Y-95048485D01*
X137298416Y-95052479D01*
G37*
G36*
X136365040Y-95051276D02*
G01*
X136426624Y-95059672D01*
X136515314Y-95079016D01*
X136515314Y-95226685D01*
X136499542Y-95226685D01*
X136430214Y-95200160D01*
X136382356Y-95187041D01*
X136339344Y-95182916D01*
X136291979Y-95185561D01*
X136257179Y-95192500D01*
X136232231Y-95202505D01*
X136212177Y-95218925D01*
X136200210Y-95241810D01*
X136195900Y-95273384D01*
X136195900Y-95276706D01*
X136271243Y-95283084D01*
X136342720Y-95292093D01*
X136410147Y-95306831D01*
X136461288Y-95327264D01*
X136491770Y-95346308D01*
X136516397Y-95368819D01*
X136535916Y-95394870D01*
X136550046Y-95424818D01*
X136558999Y-95461131D01*
X136562203Y-95505317D01*
X136558839Y-95546540D01*
X136549117Y-95582851D01*
X136533170Y-95615227D01*
X136510570Y-95644340D01*
X136483420Y-95667991D01*
X136453420Y-95684853D01*
X136420007Y-95695184D01*
X136382428Y-95698757D01*
X136350649Y-95696892D01*
X136322674Y-95691577D01*
X136295890Y-95682774D01*
X136270058Y-95670718D01*
X136231333Y-95643949D01*
X136196883Y-95614982D01*
X136196883Y-95680000D01*
X136026169Y-95680000D01*
X136026169Y-95520509D01*
X136196883Y-95520509D01*
X136218372Y-95538180D01*
X136243515Y-95552309D01*
X136270162Y-95561395D01*
X136295832Y-95564326D01*
X136326204Y-95562784D01*
X136343661Y-95559148D01*
X136358031Y-95552401D01*
X136369947Y-95542979D01*
X136379574Y-95531289D01*
X136384309Y-95519972D01*
X136387172Y-95488757D01*
X136383581Y-95461934D01*
X136373538Y-95441960D01*
X136357529Y-95426734D01*
X136334086Y-95414849D01*
X136310525Y-95408181D01*
X136272452Y-95401416D01*
X136196883Y-95392379D01*
X136196883Y-95520509D01*
X136026169Y-95520509D01*
X136026169Y-95262247D01*
X136030707Y-95208093D01*
X136043367Y-95164356D01*
X136063481Y-95128854D01*
X136091437Y-95100167D01*
X136124240Y-95079860D01*
X136168495Y-95063620D01*
X136227117Y-95052603D01*
X136303483Y-95048485D01*
X136365040Y-95051276D01*
G37*
G36*
X135524201Y-95674919D02*
G01*
X135583015Y-95687815D01*
X135659054Y-95692505D01*
X135710322Y-95689013D01*
X135751098Y-95679480D01*
X135783288Y-95665004D01*
X135808482Y-95646196D01*
X135828543Y-95621241D01*
X135843767Y-95588017D01*
X135853799Y-95544421D01*
X135857507Y-95487683D01*
X135857507Y-95201674D01*
X135928289Y-95201674D01*
X135928289Y-95067243D01*
X135857507Y-95067243D01*
X135857507Y-94892170D01*
X135685383Y-94892170D01*
X135685383Y-95067243D01*
X135524201Y-95067243D01*
X135524201Y-95201674D01*
X135685383Y-95201674D01*
X135685383Y-95417927D01*
X135684913Y-95473859D01*
X135682698Y-95496913D01*
X135677262Y-95516796D01*
X135668118Y-95533666D01*
X135653583Y-95546936D01*
X135634379Y-95554900D01*
X135604087Y-95558073D01*
X135568910Y-95551479D01*
X135538563Y-95539316D01*
X135524201Y-95539316D01*
X135524201Y-95674919D01*
G37*
G36*
X135216541Y-95282958D02*
G01*
X135395375Y-95282958D01*
X135395375Y-95067243D01*
X135216541Y-95067243D01*
X135216541Y-95282958D01*
G37*
G36*
X135216541Y-95680000D02*
G01*
X135395375Y-95680000D01*
X135395375Y-95464284D01*
X135216541Y-95464284D01*
X135216541Y-95680000D01*
G37*
G36*
X139846579Y-97024000D02*
G01*
X140018703Y-97024000D01*
X140018703Y-96173644D01*
X139846579Y-96173644D01*
X139846579Y-97024000D01*
G37*
G36*
X139485610Y-96396401D02*
G01*
X139534353Y-96407522D01*
X139576723Y-96425165D01*
X139613630Y-96449015D01*
X139645775Y-96479143D01*
X139673022Y-96515263D01*
X139694428Y-96556365D01*
X139710158Y-96603166D01*
X139720020Y-96656628D01*
X139723481Y-96717914D01*
X139720053Y-96778689D01*
X139710272Y-96831840D01*
X139694656Y-96878494D01*
X139673382Y-96919584D01*
X139646288Y-96955807D01*
X139614330Y-96985990D01*
X139577493Y-97009910D01*
X139535051Y-97027628D01*
X139486064Y-97038813D01*
X139429412Y-97042757D01*
X139372759Y-97038813D01*
X139323777Y-97027626D01*
X139281345Y-97009908D01*
X139244521Y-96985988D01*
X139212580Y-96955807D01*
X139185469Y-96919581D01*
X139164184Y-96878490D01*
X139148559Y-96831836D01*
X139138774Y-96778687D01*
X139135405Y-96718989D01*
X139313709Y-96718989D01*
X139316104Y-96773894D01*
X139322086Y-96809945D01*
X139332742Y-96840836D01*
X139347176Y-96866121D01*
X139363720Y-96884314D01*
X139383293Y-96896260D01*
X139405026Y-96902947D01*
X139428002Y-96905200D01*
X139454301Y-96902650D01*
X139476557Y-96895430D01*
X139496205Y-96882896D01*
X139513102Y-96864460D01*
X139526564Y-96839676D01*
X139537038Y-96805598D01*
X139542978Y-96767181D01*
X139545159Y-96718989D01*
X139542592Y-96665511D01*
X139535841Y-96626128D01*
X139524368Y-96591929D01*
X139510709Y-96568047D01*
X139492003Y-96548536D01*
X139473694Y-96537663D01*
X139453461Y-96532042D01*
X139429412Y-96530043D01*
X139405192Y-96532395D01*
X139383080Y-96539275D01*
X139363267Y-96551623D01*
X139346236Y-96570782D01*
X139333082Y-96595014D01*
X139322342Y-96628863D01*
X139316076Y-96667448D01*
X139313709Y-96718989D01*
X139135405Y-96718989D01*
X139135344Y-96717914D01*
X139138754Y-96657099D01*
X139148485Y-96603893D01*
X139164021Y-96557176D01*
X139185177Y-96516021D01*
X139212110Y-96479729D01*
X139243866Y-96449491D01*
X139280616Y-96425501D01*
X139323111Y-96407707D01*
X139372324Y-96396458D01*
X139429412Y-96392485D01*
X139485610Y-96396401D01*
G37*
G36*
X138622776Y-96601948D02*
G01*
X138638078Y-96601948D01*
X138673469Y-96594914D01*
X138714117Y-96592569D01*
X138749889Y-96594017D01*
X138779171Y-96597991D01*
X138807718Y-96605082D01*
X138839908Y-96616407D01*
X138839908Y-97024000D01*
X139012032Y-97024000D01*
X139012032Y-96411243D01*
X138839908Y-96411243D01*
X138839908Y-96501418D01*
X138800402Y-96465924D01*
X138767794Y-96442461D01*
X138740916Y-96428487D01*
X138699330Y-96415299D01*
X138663424Y-96411243D01*
X138642865Y-96411829D01*
X138622776Y-96413441D01*
X138622776Y-96601948D01*
G37*
G36*
X138175091Y-96434006D02*
G01*
X138238478Y-96404258D01*
X138271600Y-96395746D01*
X138317595Y-96392485D01*
X138363490Y-96398059D01*
X138410346Y-96415249D01*
X138453447Y-96442768D01*
X138489248Y-96479191D01*
X138519684Y-96526207D01*
X138543531Y-96583190D01*
X138554273Y-96624205D01*
X138561010Y-96670319D01*
X138563364Y-96722262D01*
X138559204Y-96796224D01*
X138547522Y-96858672D01*
X138529177Y-96911443D01*
X138504550Y-96956051D01*
X138472379Y-96994283D01*
X138436154Y-97020961D01*
X138395048Y-97037148D01*
X138347728Y-97042757D01*
X138299069Y-97037393D01*
X138258311Y-97022192D01*
X138219740Y-96997553D01*
X138175091Y-96960057D01*
X138175091Y-97024000D01*
X138002924Y-97024000D01*
X138002924Y-96552806D01*
X138175091Y-96552806D01*
X138175091Y-96855863D01*
X138196403Y-96870567D01*
X138221509Y-96882534D01*
X138247610Y-96890262D01*
X138271219Y-96892695D01*
X138309698Y-96887575D01*
X138338021Y-96873672D01*
X138358756Y-96851711D01*
X138372683Y-96822524D01*
X138382287Y-96780102D01*
X138385983Y-96720015D01*
X138381735Y-96663629D01*
X138370097Y-96619491D01*
X138352045Y-96584997D01*
X138333582Y-96564250D01*
X138311075Y-96549194D01*
X138283681Y-96539693D01*
X138250190Y-96536295D01*
X138213346Y-96540154D01*
X138175091Y-96552806D01*
X138002924Y-96552806D01*
X138002924Y-96173644D01*
X138175091Y-96173644D01*
X138175091Y-96434006D01*
G37*
G36*
X137373156Y-96830413D02*
G01*
X137377811Y-96875794D01*
X137391404Y-96915790D01*
X137414244Y-96951731D01*
X137447742Y-96984334D01*
X137485652Y-97008473D01*
X137531312Y-97026746D01*
X137586171Y-97038528D01*
X137651923Y-97042757D01*
X137721820Y-97038780D01*
X137781988Y-97027565D01*
X137837208Y-97010607D01*
X137875723Y-96993909D01*
X137875723Y-96833295D01*
X137859951Y-96833295D01*
X137830074Y-96854642D01*
X137781988Y-96879554D01*
X137721294Y-96899875D01*
X137686614Y-96906156D01*
X137648589Y-96908326D01*
X137601323Y-96904730D01*
X137573533Y-96896114D01*
X137559341Y-96886034D01*
X137551666Y-96874209D01*
X137549127Y-96860015D01*
X137552872Y-96840252D01*
X137563489Y-96827384D01*
X137581259Y-96818541D01*
X137617985Y-96807893D01*
X137669875Y-96797196D01*
X137729415Y-96783176D01*
X137776476Y-96764580D01*
X137811908Y-96741659D01*
X137837938Y-96714886D01*
X137857364Y-96681961D01*
X137869202Y-96643918D01*
X137873329Y-96599359D01*
X137868867Y-96557334D01*
X137855680Y-96519363D01*
X137833233Y-96484290D01*
X137799940Y-96451494D01*
X137762550Y-96427058D01*
X137717635Y-96408611D01*
X137663787Y-96396741D01*
X137599350Y-96392485D01*
X137539900Y-96396044D01*
X137483859Y-96406505D01*
X137431880Y-96421981D01*
X137397562Y-96436449D01*
X137397562Y-96592569D01*
X137412394Y-96592569D01*
X137452720Y-96566504D01*
X137499674Y-96545186D01*
X137549120Y-96531456D01*
X137598879Y-96526916D01*
X137638603Y-96530288D01*
X137668934Y-96539373D01*
X137685901Y-96549856D01*
X137694603Y-96561464D01*
X137697358Y-96574690D01*
X137693994Y-96594374D01*
X137684450Y-96608152D01*
X137666880Y-96618071D01*
X137623713Y-96631208D01*
X137567079Y-96643030D01*
X137506086Y-96657538D01*
X137462440Y-96674845D01*
X137429672Y-96696304D01*
X137405683Y-96721480D01*
X137387868Y-96752377D01*
X137376967Y-96788245D01*
X137373156Y-96830413D01*
G37*
G36*
X137258564Y-97024000D02*
G01*
X137093620Y-97024000D01*
X137086440Y-96993371D01*
X137054970Y-97011779D01*
X137021898Y-97025318D01*
X136986402Y-97033531D01*
X136942953Y-97036505D01*
X136892353Y-97030692D01*
X136847077Y-97013736D01*
X136805944Y-96985563D01*
X136768179Y-96945060D01*
X136738211Y-96897335D01*
X136716446Y-96842885D01*
X136702880Y-96780468D01*
X136698498Y-96714153D01*
X136875548Y-96714153D01*
X136879892Y-96774719D01*
X136891503Y-96819704D01*
X136909016Y-96852736D01*
X136927093Y-96872257D01*
X136949426Y-96886564D01*
X136976929Y-96895671D01*
X137010871Y-96898947D01*
X137051049Y-96896212D01*
X137086440Y-96885758D01*
X137086440Y-96575570D01*
X137062374Y-96561442D01*
X137037200Y-96551096D01*
X137011408Y-96544633D01*
X136986978Y-96542548D01*
X136955929Y-96545797D01*
X136932053Y-96554656D01*
X136913749Y-96568387D01*
X136899954Y-96587098D01*
X136887238Y-96618134D01*
X136878726Y-96659554D01*
X136875548Y-96714153D01*
X136698498Y-96714153D01*
X136698124Y-96708487D01*
X136702086Y-96633715D01*
X136713133Y-96571419D01*
X136730316Y-96519592D01*
X136753134Y-96476554D01*
X136783325Y-96439985D01*
X136818739Y-96414088D01*
X136860410Y-96398108D01*
X136909956Y-96392485D01*
X136945570Y-96395126D01*
X136977190Y-96402709D01*
X137005400Y-96414907D01*
X137045807Y-96440325D01*
X137086440Y-96473330D01*
X137086440Y-96173644D01*
X137258564Y-96173644D01*
X137258564Y-97024000D01*
G37*
G36*
X136374640Y-96396401D02*
G01*
X136423383Y-96407522D01*
X136465753Y-96425165D01*
X136502660Y-96449015D01*
X136534805Y-96479143D01*
X136562052Y-96515263D01*
X136583458Y-96556365D01*
X136599188Y-96603166D01*
X136609050Y-96656628D01*
X136612511Y-96717914D01*
X136609083Y-96778689D01*
X136599302Y-96831840D01*
X136583686Y-96878494D01*
X136562412Y-96919584D01*
X136535318Y-96955807D01*
X136503360Y-96985990D01*
X136466523Y-97009910D01*
X136424081Y-97027628D01*
X136375094Y-97038813D01*
X136318442Y-97042757D01*
X136261789Y-97038813D01*
X136212807Y-97027626D01*
X136170375Y-97009908D01*
X136133551Y-96985988D01*
X136101610Y-96955807D01*
X136074499Y-96919581D01*
X136053214Y-96878490D01*
X136037589Y-96831836D01*
X136027804Y-96778687D01*
X136024435Y-96718989D01*
X136202739Y-96718989D01*
X136205134Y-96773894D01*
X136211116Y-96809945D01*
X136221772Y-96840836D01*
X136236206Y-96866121D01*
X136252750Y-96884314D01*
X136272323Y-96896260D01*
X136294056Y-96902947D01*
X136317032Y-96905200D01*
X136343331Y-96902650D01*
X136365587Y-96895430D01*
X136385235Y-96882896D01*
X136402132Y-96864460D01*
X136415594Y-96839676D01*
X136426068Y-96805598D01*
X136432008Y-96767181D01*
X136434189Y-96718989D01*
X136431622Y-96665511D01*
X136424871Y-96626128D01*
X136413398Y-96591929D01*
X136399739Y-96568047D01*
X136381033Y-96548536D01*
X136362724Y-96537663D01*
X136342491Y-96532042D01*
X136318442Y-96530043D01*
X136294222Y-96532395D01*
X136272110Y-96539275D01*
X136252297Y-96551623D01*
X136235266Y-96570782D01*
X136222112Y-96595014D01*
X136211372Y-96628863D01*
X136205106Y-96667448D01*
X136202739Y-96718989D01*
X136024435Y-96718989D01*
X136024374Y-96717914D01*
X136027784Y-96657099D01*
X136037515Y-96603893D01*
X136053051Y-96557176D01*
X136074207Y-96516021D01*
X136101140Y-96479729D01*
X136132896Y-96449491D01*
X136169646Y-96425501D01*
X136212141Y-96407707D01*
X136261354Y-96396458D01*
X136318442Y-96392485D01*
X136374640Y-96396401D01*
G37*
G36*
X135744077Y-96395276D02*
G01*
X135805661Y-96403672D01*
X135894351Y-96423016D01*
X135894351Y-96570685D01*
X135878579Y-96570685D01*
X135809251Y-96544160D01*
X135761393Y-96531041D01*
X135718381Y-96526916D01*
X135671016Y-96529561D01*
X135636216Y-96536500D01*
X135611268Y-96546505D01*
X135591214Y-96562925D01*
X135579247Y-96585810D01*
X135574937Y-96617384D01*
X135574937Y-96620706D01*
X135650280Y-96627084D01*
X135721757Y-96636093D01*
X135789184Y-96650831D01*
X135840325Y-96671264D01*
X135870807Y-96690308D01*
X135895434Y-96712819D01*
X135914953Y-96738870D01*
X135929083Y-96768818D01*
X135938036Y-96805131D01*
X135941240Y-96849317D01*
X135937876Y-96890540D01*
X135928154Y-96926851D01*
X135912207Y-96959227D01*
X135889607Y-96988340D01*
X135862457Y-97011991D01*
X135832457Y-97028853D01*
X135799044Y-97039184D01*
X135761465Y-97042757D01*
X135729686Y-97040892D01*
X135701711Y-97035577D01*
X135674927Y-97026774D01*
X135649095Y-97014718D01*
X135610370Y-96987949D01*
X135575920Y-96958982D01*
X135575920Y-97024000D01*
X135405206Y-97024000D01*
X135405206Y-96864509D01*
X135575920Y-96864509D01*
X135597409Y-96882180D01*
X135622552Y-96896309D01*
X135649199Y-96905395D01*
X135674869Y-96908326D01*
X135705241Y-96906784D01*
X135722698Y-96903148D01*
X135737068Y-96896401D01*
X135748984Y-96886979D01*
X135758611Y-96875289D01*
X135763346Y-96863972D01*
X135766209Y-96832757D01*
X135762618Y-96805934D01*
X135752575Y-96785960D01*
X135736566Y-96770734D01*
X135713123Y-96758849D01*
X135689562Y-96752181D01*
X135651489Y-96745416D01*
X135575920Y-96736379D01*
X135575920Y-96864509D01*
X135405206Y-96864509D01*
X135405206Y-96606247D01*
X135409744Y-96552093D01*
X135422404Y-96508356D01*
X135442518Y-96472854D01*
X135470474Y-96444167D01*
X135503277Y-96423860D01*
X135547532Y-96407620D01*
X135606154Y-96396603D01*
X135682520Y-96392485D01*
X135744077Y-96395276D01*
G37*
G36*
X134857333Y-96601948D02*
G01*
X134872635Y-96601948D01*
X134908025Y-96594914D01*
X134948674Y-96592569D01*
X134984446Y-96594017D01*
X135013728Y-96597991D01*
X135042274Y-96605082D01*
X135074465Y-96616407D01*
X135074465Y-97024000D01*
X135246589Y-97024000D01*
X135246589Y-96411243D01*
X135074465Y-96411243D01*
X135074465Y-96501418D01*
X135034959Y-96465924D01*
X135002351Y-96442461D01*
X134975473Y-96428487D01*
X134933887Y-96415299D01*
X134897981Y-96411243D01*
X134877422Y-96411829D01*
X134857333Y-96413441D01*
X134857333Y-96601948D01*
G37*
G36*
X134409648Y-96434006D02*
G01*
X134473035Y-96404258D01*
X134506157Y-96395746D01*
X134552151Y-96392485D01*
X134598047Y-96398059D01*
X134644903Y-96415249D01*
X134688003Y-96442768D01*
X134723805Y-96479191D01*
X134754240Y-96526207D01*
X134778088Y-96583190D01*
X134788830Y-96624205D01*
X134795566Y-96670319D01*
X134797921Y-96722262D01*
X134793761Y-96796224D01*
X134782078Y-96858672D01*
X134763734Y-96911443D01*
X134739107Y-96956051D01*
X134706935Y-96994283D01*
X134670711Y-97020961D01*
X134629605Y-97037148D01*
X134582285Y-97042757D01*
X134533626Y-97037393D01*
X134492868Y-97022192D01*
X134454297Y-96997553D01*
X134409648Y-96960057D01*
X134409648Y-97024000D01*
X134237481Y-97024000D01*
X134237481Y-96552806D01*
X134409648Y-96552806D01*
X134409648Y-96855863D01*
X134430960Y-96870567D01*
X134456066Y-96882534D01*
X134482166Y-96890262D01*
X134505776Y-96892695D01*
X134544255Y-96887575D01*
X134572578Y-96873672D01*
X134593312Y-96851711D01*
X134607239Y-96822524D01*
X134616844Y-96780102D01*
X134620539Y-96720015D01*
X134616292Y-96663629D01*
X134604654Y-96619491D01*
X134586602Y-96584997D01*
X134568139Y-96564250D01*
X134545632Y-96549194D01*
X134518238Y-96539693D01*
X134484747Y-96536295D01*
X134447903Y-96540154D01*
X134409648Y-96552806D01*
X134237481Y-96552806D01*
X134237481Y-96173644D01*
X134409648Y-96173644D01*
X134409648Y-96434006D01*
G37*
G36*
X133607713Y-96830413D02*
G01*
X133612368Y-96875794D01*
X133625961Y-96915790D01*
X133648801Y-96951731D01*
X133682299Y-96984334D01*
X133720209Y-97008473D01*
X133765869Y-97026746D01*
X133820727Y-97038528D01*
X133886480Y-97042757D01*
X133956377Y-97038780D01*
X134016545Y-97027565D01*
X134071765Y-97010607D01*
X134110280Y-96993909D01*
X134110280Y-96833295D01*
X134094508Y-96833295D01*
X134064631Y-96854642D01*
X134016545Y-96879554D01*
X133955851Y-96899875D01*
X133921171Y-96906156D01*
X133883146Y-96908326D01*
X133835880Y-96904730D01*
X133808090Y-96896114D01*
X133793898Y-96886034D01*
X133786223Y-96874209D01*
X133783684Y-96860015D01*
X133787429Y-96840252D01*
X133798046Y-96827384D01*
X133815815Y-96818541D01*
X133852542Y-96807893D01*
X133904432Y-96797196D01*
X133963972Y-96783176D01*
X134011033Y-96764580D01*
X134046465Y-96741659D01*
X134072495Y-96714886D01*
X134091921Y-96681961D01*
X134103759Y-96643918D01*
X134107886Y-96599359D01*
X134103423Y-96557334D01*
X134090237Y-96519363D01*
X134067789Y-96484290D01*
X134034497Y-96451494D01*
X133997107Y-96427058D01*
X133952191Y-96408611D01*
X133898344Y-96396741D01*
X133833907Y-96392485D01*
X133774457Y-96396044D01*
X133718416Y-96406505D01*
X133666436Y-96421981D01*
X133632119Y-96436449D01*
X133632119Y-96592569D01*
X133646951Y-96592569D01*
X133687277Y-96566504D01*
X133734231Y-96545186D01*
X133783677Y-96531456D01*
X133833436Y-96526916D01*
X133873160Y-96530288D01*
X133903491Y-96539373D01*
X133920458Y-96549856D01*
X133929160Y-96561464D01*
X133931915Y-96574690D01*
X133928550Y-96594374D01*
X133919007Y-96608152D01*
X133901436Y-96618071D01*
X133858270Y-96631208D01*
X133801636Y-96643030D01*
X133740642Y-96657538D01*
X133696997Y-96674845D01*
X133664229Y-96696304D01*
X133640240Y-96721480D01*
X133622425Y-96752377D01*
X133611524Y-96788245D01*
X133607713Y-96830413D01*
G37*
G36*
X133308088Y-97024000D02*
G01*
X133486923Y-97024000D01*
X133486923Y-96808284D01*
X133308088Y-96808284D01*
X133308088Y-97024000D01*
G37*
G36*
X132859805Y-97042757D02*
G01*
X132928276Y-97037774D01*
X132988203Y-97023560D01*
X133025800Y-97008142D01*
X133059364Y-96988352D01*
X133089332Y-96964209D01*
X133115419Y-96935372D01*
X133137368Y-96901856D01*
X133155327Y-96863141D01*
X133167992Y-96821676D01*
X133175954Y-96774398D01*
X133178750Y-96720357D01*
X133175735Y-96663427D01*
X133167190Y-96614206D01*
X133153660Y-96571564D01*
X133134508Y-96531847D01*
X133111215Y-96497399D01*
X133083605Y-96467712D01*
X133053408Y-96444241D01*
X133020066Y-96425210D01*
X132983203Y-96410608D01*
X132925450Y-96397054D01*
X132865062Y-96392485D01*
X132811365Y-96395999D01*
X132763720Y-96406065D01*
X132718500Y-96421845D01*
X132677166Y-96441383D01*
X132677166Y-96608200D01*
X132701572Y-96608200D01*
X132725722Y-96586658D01*
X132760386Y-96562478D01*
X132803428Y-96543769D01*
X132827894Y-96538285D01*
X132857924Y-96536295D01*
X132891855Y-96539702D01*
X132920148Y-96549304D01*
X132943888Y-96564626D01*
X132963840Y-96585828D01*
X132983746Y-96621116D01*
X132996354Y-96665158D01*
X133000898Y-96720308D01*
X132996119Y-96777190D01*
X132983109Y-96820537D01*
X132962900Y-96853469D01*
X132935147Y-96878017D01*
X132899938Y-96893401D01*
X132855061Y-96898947D01*
X132823458Y-96896822D01*
X132796503Y-96890838D01*
X132771746Y-96881560D01*
X132753205Y-96871641D01*
X132724525Y-96849610D01*
X132701572Y-96827042D01*
X132677166Y-96827042D01*
X132677166Y-96995130D01*
X132718632Y-97014722D01*
X132762053Y-97029861D01*
X132807593Y-97039401D01*
X132859805Y-97042757D01*
G37*
G36*
X132364368Y-96396401D02*
G01*
X132413111Y-96407522D01*
X132455481Y-96425165D01*
X132492388Y-96449015D01*
X132524533Y-96479143D01*
X132551779Y-96515263D01*
X132573186Y-96556365D01*
X132588916Y-96603166D01*
X132598778Y-96656628D01*
X132602239Y-96717914D01*
X132598811Y-96778689D01*
X132589030Y-96831840D01*
X132573413Y-96878494D01*
X132552140Y-96919584D01*
X132525046Y-96955807D01*
X132493088Y-96985990D01*
X132456250Y-97009910D01*
X132413809Y-97027628D01*
X132364822Y-97038813D01*
X132308170Y-97042757D01*
X132251517Y-97038813D01*
X132202535Y-97027626D01*
X132160103Y-97009908D01*
X132123279Y-96985988D01*
X132091338Y-96955807D01*
X132064226Y-96919581D01*
X132042941Y-96878490D01*
X132027317Y-96831836D01*
X132017531Y-96778687D01*
X132014163Y-96718989D01*
X132192466Y-96718989D01*
X132194861Y-96773894D01*
X132200844Y-96809945D01*
X132211500Y-96840836D01*
X132225934Y-96866121D01*
X132242478Y-96884314D01*
X132262051Y-96896260D01*
X132283784Y-96902947D01*
X132306760Y-96905200D01*
X132333059Y-96902650D01*
X132355315Y-96895430D01*
X132374963Y-96882896D01*
X132391860Y-96864460D01*
X132405322Y-96839676D01*
X132415796Y-96805598D01*
X132421736Y-96767181D01*
X132423917Y-96718989D01*
X132421350Y-96665511D01*
X132414599Y-96626128D01*
X132403126Y-96591929D01*
X132389467Y-96568047D01*
X132370761Y-96548536D01*
X132352452Y-96537663D01*
X132332218Y-96532042D01*
X132308170Y-96530043D01*
X132283950Y-96532395D01*
X132261837Y-96539275D01*
X132242025Y-96551623D01*
X132224993Y-96570782D01*
X132211840Y-96595014D01*
X132201100Y-96628863D01*
X132194834Y-96667448D01*
X132192466Y-96718989D01*
X132014163Y-96718989D01*
X132014102Y-96717914D01*
X132017512Y-96657099D01*
X132027243Y-96603893D01*
X132042778Y-96557176D01*
X132063935Y-96516021D01*
X132090867Y-96479729D01*
X132122623Y-96449491D01*
X132159374Y-96425501D01*
X132201869Y-96407707D01*
X132251082Y-96396458D01*
X132308170Y-96392485D01*
X132364368Y-96396401D01*
G37*
G36*
X131365741Y-96588563D02*
G01*
X131365741Y-97024000D01*
X131538848Y-97024000D01*
X131538848Y-96717133D01*
X131540771Y-96640831D01*
X131544614Y-96611112D01*
X131551286Y-96589687D01*
X131562105Y-96572657D01*
X131577359Y-96560964D01*
X131596720Y-96554497D01*
X131626385Y-96551927D01*
X131651289Y-96554851D01*
X131675624Y-96563699D01*
X131718666Y-96588563D01*
X131718666Y-97024000D01*
X131890790Y-97024000D01*
X131890790Y-96411243D01*
X131718666Y-96411243D01*
X131718666Y-96477286D01*
X131673869Y-96440790D01*
X131633523Y-96414907D01*
X131591207Y-96398211D01*
X131543635Y-96392485D01*
X131508893Y-96395635D01*
X131477863Y-96404745D01*
X131449901Y-96419596D01*
X131425038Y-96440195D01*
X131403911Y-96466490D01*
X131386300Y-96499219D01*
X131334006Y-96453673D01*
X131285898Y-96420964D01*
X131252700Y-96404792D01*
X131220957Y-96395501D01*
X131190240Y-96392485D01*
X131147151Y-96396654D01*
X131111659Y-96408326D01*
X131082305Y-96426795D01*
X131058038Y-96452129D01*
X131039310Y-96483041D01*
X131025224Y-96520964D01*
X131016136Y-96567348D01*
X131012859Y-96623979D01*
X131012859Y-97024000D01*
X131185966Y-97024000D01*
X131185966Y-96717133D01*
X131187633Y-96640538D01*
X131191281Y-96611085D01*
X131197934Y-96589687D01*
X131208420Y-96572695D01*
X131223750Y-96560964D01*
X131243384Y-96554498D01*
X131273460Y-96551927D01*
X131294682Y-96554043D01*
X131315519Y-96560427D01*
X131365741Y-96588563D01*
G37*
G36*
X130350521Y-96173644D02*
G01*
X130729733Y-97202199D01*
X130876510Y-97202199D01*
X130498752Y-96173644D01*
X130350521Y-96173644D01*
G37*
G36*
X129789098Y-96601948D02*
G01*
X129804400Y-96601948D01*
X129839791Y-96594914D01*
X129880439Y-96592569D01*
X129916212Y-96594017D01*
X129945493Y-96597991D01*
X129974040Y-96605082D01*
X130006230Y-96616407D01*
X130006230Y-97024000D01*
X130178354Y-97024000D01*
X130178354Y-96411243D01*
X130006230Y-96411243D01*
X130006230Y-96501418D01*
X129966724Y-96465924D01*
X129934117Y-96442461D01*
X129907239Y-96428487D01*
X129865653Y-96415299D01*
X129829747Y-96411243D01*
X129809187Y-96411829D01*
X129789098Y-96413441D01*
X129789098Y-96601948D01*
G37*
G36*
X129492756Y-96396401D02*
G01*
X129541499Y-96407522D01*
X129583869Y-96425165D01*
X129620776Y-96449015D01*
X129652921Y-96479143D01*
X129680167Y-96515263D01*
X129701574Y-96556365D01*
X129717304Y-96603166D01*
X129727166Y-96656628D01*
X129730627Y-96717914D01*
X129727199Y-96778689D01*
X129717418Y-96831840D01*
X129701801Y-96878494D01*
X129680528Y-96919584D01*
X129653434Y-96955807D01*
X129621476Y-96985990D01*
X129584638Y-97009910D01*
X129542197Y-97027628D01*
X129493210Y-97038813D01*
X129436558Y-97042757D01*
X129379905Y-97038813D01*
X129330923Y-97027626D01*
X129288491Y-97009908D01*
X129251667Y-96985988D01*
X129219726Y-96955807D01*
X129192614Y-96919581D01*
X129171329Y-96878490D01*
X129155705Y-96831836D01*
X129145919Y-96778687D01*
X129142551Y-96718989D01*
X129320854Y-96718989D01*
X129323249Y-96773894D01*
X129329232Y-96809945D01*
X129339888Y-96840836D01*
X129354322Y-96866121D01*
X129370866Y-96884314D01*
X129390439Y-96896260D01*
X129412172Y-96902947D01*
X129435148Y-96905200D01*
X129461447Y-96902650D01*
X129483703Y-96895430D01*
X129503351Y-96882896D01*
X129520248Y-96864460D01*
X129533710Y-96839676D01*
X129544184Y-96805598D01*
X129550124Y-96767181D01*
X129552305Y-96718989D01*
X129549738Y-96665511D01*
X129542987Y-96626128D01*
X129531514Y-96591929D01*
X129517855Y-96568047D01*
X129499149Y-96548536D01*
X129480840Y-96537663D01*
X129460606Y-96532042D01*
X129436558Y-96530043D01*
X129412338Y-96532395D01*
X129390225Y-96539275D01*
X129370413Y-96551623D01*
X129353381Y-96570782D01*
X129340228Y-96595014D01*
X129329488Y-96628863D01*
X129323222Y-96667448D01*
X129320854Y-96718989D01*
X129142551Y-96718989D01*
X129142490Y-96717914D01*
X129145900Y-96657099D01*
X129155631Y-96603893D01*
X129171166Y-96557176D01*
X129192323Y-96516021D01*
X129219255Y-96479729D01*
X129251011Y-96449491D01*
X129287762Y-96425501D01*
X129330257Y-96407707D01*
X129379470Y-96396458D01*
X129436558Y-96392485D01*
X129492756Y-96396401D01*
G37*
G36*
X128776742Y-96808187D02*
G01*
X128654328Y-96411243D01*
X128477417Y-96411243D01*
X128775802Y-97249094D01*
X128962288Y-97249094D01*
X128877144Y-97020873D01*
X129086113Y-96411243D01*
X128905355Y-96411243D01*
X128776742Y-96808187D01*
G37*
G36*
X128224817Y-96395276D02*
G01*
X128286400Y-96403672D01*
X128375091Y-96423016D01*
X128375091Y-96570685D01*
X128359319Y-96570685D01*
X128289991Y-96544160D01*
X128242132Y-96531041D01*
X128199120Y-96526916D01*
X128151755Y-96529561D01*
X128116956Y-96536500D01*
X128092008Y-96546505D01*
X128071953Y-96562925D01*
X128059987Y-96585810D01*
X128055676Y-96617384D01*
X128055676Y-96620706D01*
X128131020Y-96627084D01*
X128202497Y-96636093D01*
X128269924Y-96650831D01*
X128321065Y-96671264D01*
X128351547Y-96690308D01*
X128376174Y-96712819D01*
X128395693Y-96738870D01*
X128409822Y-96768818D01*
X128418776Y-96805131D01*
X128421980Y-96849317D01*
X128418616Y-96890540D01*
X128408894Y-96926851D01*
X128392947Y-96959227D01*
X128370347Y-96988340D01*
X128343197Y-97011991D01*
X128313197Y-97028853D01*
X128279783Y-97039184D01*
X128242205Y-97042757D01*
X128210425Y-97040892D01*
X128182451Y-97035577D01*
X128155667Y-97026774D01*
X128129835Y-97014718D01*
X128091110Y-96987949D01*
X128056659Y-96958982D01*
X128056659Y-97024000D01*
X127885946Y-97024000D01*
X127885946Y-96864509D01*
X128056659Y-96864509D01*
X128078148Y-96882180D01*
X128103292Y-96896309D01*
X128129939Y-96905395D01*
X128155608Y-96908326D01*
X128185981Y-96906784D01*
X128203437Y-96903148D01*
X128217807Y-96896401D01*
X128229724Y-96886979D01*
X128239351Y-96875289D01*
X128244085Y-96863972D01*
X128246949Y-96832757D01*
X128243358Y-96805934D01*
X128233314Y-96785960D01*
X128217306Y-96770734D01*
X128193863Y-96758849D01*
X128170302Y-96752181D01*
X128132228Y-96745416D01*
X128056659Y-96736379D01*
X128056659Y-96864509D01*
X127885946Y-96864509D01*
X127885946Y-96606247D01*
X127890483Y-96552093D01*
X127903143Y-96508356D01*
X127923257Y-96472854D01*
X127951214Y-96444167D01*
X127984017Y-96423860D01*
X128028272Y-96407620D01*
X128086894Y-96396603D01*
X128163259Y-96392485D01*
X128224817Y-96395276D01*
G37*
G36*
X127555204Y-97024000D02*
G01*
X127727329Y-97024000D01*
X127727329Y-96173644D01*
X127555204Y-96173644D01*
X127555204Y-97024000D01*
G37*
G36*
X127392911Y-97024000D02*
G01*
X127227968Y-97024000D01*
X127220787Y-96993371D01*
X127189317Y-97011779D01*
X127156246Y-97025318D01*
X127120750Y-97033531D01*
X127077301Y-97036505D01*
X127026701Y-97030692D01*
X126981424Y-97013736D01*
X126940291Y-96985563D01*
X126902527Y-96945060D01*
X126872559Y-96897335D01*
X126850793Y-96842885D01*
X126837227Y-96780468D01*
X126832846Y-96714153D01*
X127009896Y-96714153D01*
X127014240Y-96774719D01*
X127025850Y-96819704D01*
X127043363Y-96852736D01*
X127061440Y-96872257D01*
X127083773Y-96886564D01*
X127111276Y-96895671D01*
X127145218Y-96898947D01*
X127185396Y-96896212D01*
X127220787Y-96885758D01*
X127220787Y-96575570D01*
X127196721Y-96561442D01*
X127171548Y-96551096D01*
X127145755Y-96544633D01*
X127121325Y-96542548D01*
X127090277Y-96545797D01*
X127066400Y-96554656D01*
X127048096Y-96568387D01*
X127034302Y-96587098D01*
X127021585Y-96618134D01*
X127013073Y-96659554D01*
X127009896Y-96714153D01*
X126832846Y-96714153D01*
X126832472Y-96708487D01*
X126836434Y-96633715D01*
X126847481Y-96571419D01*
X126864663Y-96519592D01*
X126887481Y-96476554D01*
X126917672Y-96439985D01*
X126953087Y-96414088D01*
X126994758Y-96398108D01*
X127044303Y-96392485D01*
X127079918Y-96395126D01*
X127111538Y-96402709D01*
X127139747Y-96414907D01*
X127180155Y-96440325D01*
X127220787Y-96473330D01*
X127220787Y-96173644D01*
X127392911Y-96173644D01*
X127392911Y-97024000D01*
G37*
G36*
X126535539Y-97024000D02*
G01*
X126707663Y-97024000D01*
X126707663Y-96173644D01*
X126535539Y-96173644D01*
X126535539Y-97024000D01*
G37*
G36*
X125838153Y-97024000D02*
G01*
X126010320Y-97024000D01*
X126010320Y-96957956D01*
X126057921Y-96995840D01*
X126097856Y-97021166D01*
X126124929Y-97032813D01*
X126156225Y-97040164D01*
X126192488Y-97042757D01*
X126236641Y-97038671D01*
X126273338Y-97027205D01*
X126303955Y-97009056D01*
X126329521Y-96984237D01*
X126349441Y-96953639D01*
X126364403Y-96915723D01*
X126374068Y-96868920D01*
X126377563Y-96811264D01*
X126377563Y-96411243D01*
X126204456Y-96411243D01*
X126204456Y-96715912D01*
X126201849Y-96793337D01*
X126197226Y-96822579D01*
X126189624Y-96844481D01*
X126178246Y-96861956D01*
X126162141Y-96874034D01*
X126141747Y-96880681D01*
X126110722Y-96883316D01*
X126088316Y-96881138D01*
X126061995Y-96874034D01*
X126035833Y-96862613D01*
X126010320Y-96846679D01*
X126010320Y-96411243D01*
X125838153Y-96411243D01*
X125838153Y-97024000D01*
G37*
G36*
X125467293Y-96396479D02*
G01*
X125517414Y-96407850D01*
X125561245Y-96425935D01*
X125599670Y-96450437D01*
X125633374Y-96481438D01*
X125662164Y-96518690D01*
X125684644Y-96560642D01*
X125701063Y-96607961D01*
X125711304Y-96661560D01*
X125714883Y-96722555D01*
X125711071Y-96784189D01*
X125700221Y-96837518D01*
X125682899Y-96883871D01*
X125659220Y-96924308D01*
X125628843Y-96959568D01*
X125593995Y-96987780D01*
X125552894Y-97010608D01*
X125504549Y-97027821D01*
X125447758Y-97038837D01*
X125381150Y-97042757D01*
X125319966Y-97039604D01*
X125266857Y-97030692D01*
X125214817Y-97015374D01*
X125156880Y-96991759D01*
X125156880Y-96833295D01*
X125175986Y-96833295D01*
X125208990Y-96857402D01*
X125256812Y-96882339D01*
X125308859Y-96899496D01*
X125362472Y-96905200D01*
X125419074Y-96900189D01*
X125461441Y-96886782D01*
X125492793Y-96866609D01*
X125517445Y-96837614D01*
X125533447Y-96801155D01*
X125540836Y-96755137D01*
X125146836Y-96755137D01*
X125146836Y-96686212D01*
X125149918Y-96639464D01*
X125318019Y-96639464D01*
X125541306Y-96639464D01*
X125535049Y-96597428D01*
X125522904Y-96566536D01*
X125505488Y-96544160D01*
X125482841Y-96527997D01*
X125455933Y-96517960D01*
X125423679Y-96514411D01*
X125389055Y-96518411D01*
X125363514Y-96529181D01*
X125344819Y-96545821D01*
X125331293Y-96568504D01*
X125322103Y-96598956D01*
X125318019Y-96639464D01*
X125149918Y-96639464D01*
X125151521Y-96615152D01*
X125164595Y-96556558D01*
X125185103Y-96508171D01*
X125212830Y-96468249D01*
X125247591Y-96436715D01*
X125290719Y-96413152D01*
X125344025Y-96397973D01*
X125409830Y-96392485D01*
X125467293Y-96396479D01*
G37*
G36*
X124474453Y-96747712D02*
G01*
X124476823Y-96789407D01*
X124483789Y-96828475D01*
X124495269Y-96865339D01*
X124511233Y-96899815D01*
X124531315Y-96930709D01*
X124555750Y-96958347D01*
X124586335Y-96983460D01*
X124619929Y-97003907D01*
X124656878Y-97019750D01*
X124716342Y-97034399D01*
X124787200Y-97039631D01*
X124869444Y-97035116D01*
X124931841Y-97024097D01*
X124987918Y-97007376D01*
X125028183Y-96990587D01*
X125028183Y-96811411D01*
X125008094Y-96811411D01*
X124963185Y-96838282D01*
X124914402Y-96860552D01*
X124863904Y-96875357D01*
X124814427Y-96880189D01*
X124783773Y-96878322D01*
X124749159Y-96872374D01*
X124716712Y-96860826D01*
X124693466Y-96843895D01*
X124678823Y-96826483D01*
X124668846Y-96809799D01*
X124662915Y-96789854D01*
X124660469Y-96756163D01*
X124663393Y-96729509D01*
X124671710Y-96707754D01*
X124684586Y-96689375D01*
X124700647Y-96674976D01*
X124728337Y-96660443D01*
X124762837Y-96651431D01*
X124828789Y-96645716D01*
X124871285Y-96647865D01*
X124911282Y-96654167D01*
X124980396Y-96670727D01*
X125001426Y-96670727D01*
X125001426Y-96211159D01*
X124495013Y-96211159D01*
X124495013Y-96367475D01*
X124828789Y-96367475D01*
X124828789Y-96498389D01*
X124791261Y-96496484D01*
X124751339Y-96495653D01*
X124694233Y-96499046D01*
X124646364Y-96508501D01*
X124602377Y-96524277D01*
X124566734Y-96544209D01*
X124539698Y-96566513D01*
X124517197Y-96592863D01*
X124498859Y-96623588D01*
X124485789Y-96657616D01*
X124477442Y-96698513D01*
X124474453Y-96747712D01*
G37*
G36*
X124370247Y-96680887D02*
G01*
X124370247Y-96836421D01*
X124025486Y-96836421D01*
X124025486Y-97027126D01*
X123849986Y-97027126D01*
X123849986Y-96836421D01*
X123752917Y-96836421D01*
X123752917Y-96686358D01*
X123849986Y-96686358D01*
X124025486Y-96686358D01*
X124232531Y-96686358D01*
X124025486Y-96392339D01*
X124025486Y-96686358D01*
X123849986Y-96686358D01*
X123849986Y-96211159D01*
X124036984Y-96211159D01*
X124370247Y-96680887D01*
G37*
G36*
X123460815Y-97024000D02*
G01*
X123632939Y-97024000D01*
X123632939Y-96173644D01*
X123460815Y-96173644D01*
X123460815Y-97024000D01*
G37*
G36*
X149016834Y-113662000D02*
G01*
X148831801Y-113662000D01*
X148782562Y-113496305D01*
X148518584Y-113496305D01*
X148469345Y-113662000D01*
X148279483Y-113662000D01*
X148380635Y-113349369D01*
X148563079Y-113349369D01*
X148738067Y-113349369D01*
X148650573Y-113057450D01*
X148563079Y-113349369D01*
X148380635Y-113349369D01*
X148542478Y-112849159D01*
X148753839Y-112849159D01*
X149016834Y-113662000D01*
G37*
G36*
X147620394Y-113662000D02*
G01*
X148179380Y-113662000D01*
X148179380Y-113526982D01*
X148051024Y-113415070D01*
X147990403Y-113357256D01*
X147947972Y-113312928D01*
X147895738Y-113249732D01*
X147865736Y-113202139D01*
X147851836Y-113169750D01*
X147843900Y-113138774D01*
X147841330Y-113108692D01*
X147845073Y-113073386D01*
X147855570Y-113045436D01*
X147872660Y-113023109D01*
X147895032Y-113007160D01*
X147924410Y-112996790D01*
X147962804Y-112992969D01*
X148006995Y-112997835D01*
X148055341Y-113013242D01*
X148102314Y-113036371D01*
X148145442Y-113064875D01*
X148160744Y-113064875D01*
X148160744Y-112884281D01*
X148122521Y-112868672D01*
X148060599Y-112850478D01*
X147994126Y-112837744D01*
X147927883Y-112833528D01*
X147859867Y-112838251D01*
X147804564Y-112851277D01*
X147759783Y-112871300D01*
X147723702Y-112897617D01*
X147693285Y-112932457D01*
X147671587Y-112973367D01*
X147658133Y-113021559D01*
X147653391Y-113078845D01*
X147657117Y-113129093D01*
X147668268Y-113177577D01*
X147687115Y-113224951D01*
X147711939Y-113269066D01*
X147745789Y-113316527D01*
X147790167Y-113367785D01*
X147834170Y-113412073D01*
X147877703Y-113452000D01*
X147940321Y-113505684D01*
X147620394Y-113505684D01*
X147620394Y-113662000D01*
G37*
G36*
X161114059Y-96139110D02*
G01*
X161169261Y-96154994D01*
X161217106Y-96180426D01*
X161258755Y-96215398D01*
X161287450Y-96250134D01*
X161309465Y-96288118D01*
X161325274Y-96329813D01*
X161334986Y-96375903D01*
X161338341Y-96427254D01*
X161335417Y-96480070D01*
X161327286Y-96523715D01*
X161314662Y-96559732D01*
X161296864Y-96592841D01*
X161275801Y-96620880D01*
X161251318Y-96644337D01*
X161219736Y-96664566D01*
X161184639Y-96678873D01*
X161147430Y-96687186D01*
X161107874Y-96690011D01*
X161057179Y-96686078D01*
X161019183Y-96675600D01*
X160983260Y-96658640D01*
X160941947Y-96633981D01*
X160951479Y-96683103D01*
X160966353Y-96722348D01*
X160987144Y-96756131D01*
X161012729Y-96783507D01*
X161040577Y-96803042D01*
X161074406Y-96816968D01*
X161110598Y-96824914D01*
X161147581Y-96827568D01*
X161191046Y-96825094D01*
X161220030Y-96818873D01*
X161260892Y-96802558D01*
X161280040Y-96802558D01*
X161280040Y-96963856D01*
X161226014Y-96972648D01*
X161149505Y-96977631D01*
X161083267Y-96973743D01*
X161025280Y-96962691D01*
X160974474Y-96945196D01*
X160926641Y-96919652D01*
X160884932Y-96887273D01*
X160848683Y-96847840D01*
X160820621Y-96805672D01*
X160797323Y-96756724D01*
X160778885Y-96700073D01*
X160766305Y-96641010D01*
X160758577Y-96577906D01*
X160755932Y-96510297D01*
X160757111Y-96480255D01*
X160939084Y-96480255D01*
X160939810Y-96513472D01*
X160940537Y-96530422D01*
X160979732Y-96543123D01*
X161026577Y-96549327D01*
X161052797Y-96547797D01*
X161076116Y-96543416D01*
X161097565Y-96535177D01*
X161115525Y-96522900D01*
X161131125Y-96505446D01*
X161143264Y-96482209D01*
X161150602Y-96454743D01*
X161153309Y-96418803D01*
X161150821Y-96381514D01*
X161143991Y-96351881D01*
X161132964Y-96325924D01*
X161119842Y-96306598D01*
X161103353Y-96291088D01*
X161087101Y-96281490D01*
X161069738Y-96276043D01*
X161051454Y-96274212D01*
X161031757Y-96276122D01*
X161013199Y-96281783D01*
X160996223Y-96291655D01*
X160981142Y-96306598D01*
X160964289Y-96333209D01*
X160950325Y-96372104D01*
X160942197Y-96417491D01*
X160939084Y-96480255D01*
X160757111Y-96480255D01*
X160758651Y-96440997D01*
X160766232Y-96382627D01*
X160777944Y-96333660D01*
X160795399Y-96287244D01*
X160817224Y-96247710D01*
X160843426Y-96214226D01*
X160869695Y-96189443D01*
X160899146Y-96169220D01*
X160932159Y-96153458D01*
X160985788Y-96138771D01*
X161050000Y-96133528D01*
X161114059Y-96139110D01*
G37*
G36*
X148744428Y-96666954D02*
G01*
X148748033Y-96727530D01*
X148758258Y-96779681D01*
X148774510Y-96824730D01*
X148796606Y-96863754D01*
X148824784Y-96897519D01*
X148857318Y-96924568D01*
X148896114Y-96946522D01*
X148942202Y-96963138D01*
X148996836Y-96973817D01*
X149061449Y-96977631D01*
X149126075Y-96973814D01*
X149180685Y-96963131D01*
X149226724Y-96946512D01*
X149265451Y-96924560D01*
X149297901Y-96897519D01*
X149325997Y-96863762D01*
X149348026Y-96824787D01*
X149364223Y-96779835D01*
X149374410Y-96727840D01*
X149378000Y-96667491D01*
X149378000Y-96149159D01*
X149193438Y-96149159D01*
X149193438Y-96656696D01*
X149189394Y-96712194D01*
X149178609Y-96753118D01*
X149162365Y-96782921D01*
X149139097Y-96804857D01*
X149106522Y-96819111D01*
X149061449Y-96824442D01*
X149016902Y-96819335D01*
X148984347Y-96805641D01*
X148960791Y-96784581D01*
X148944299Y-96755638D01*
X148933206Y-96714388D01*
X148928990Y-96656696D01*
X148928990Y-96149159D01*
X148744428Y-96149159D01*
X148744428Y-96666954D01*
G37*
G36*
X148002632Y-96706863D02*
G01*
X148006251Y-96753520D01*
X148016800Y-96795630D01*
X148034203Y-96834099D01*
X148058905Y-96869587D01*
X148091836Y-96902453D01*
X148137475Y-96933749D01*
X148191907Y-96957226D01*
X148256769Y-96972259D01*
X148334015Y-96977631D01*
X148419543Y-96972838D01*
X148488230Y-96959752D01*
X148552515Y-96939248D01*
X148611371Y-96914421D01*
X148611371Y-96718147D01*
X148591282Y-96718147D01*
X148551875Y-96751512D01*
X148509501Y-96779274D01*
X148463867Y-96801581D01*
X148416300Y-96818075D01*
X148371239Y-96827604D01*
X148328287Y-96830695D01*
X148284305Y-96827275D01*
X148258407Y-96822410D01*
X148239810Y-96815845D01*
X148220246Y-96804019D01*
X148205146Y-96790199D01*
X148195217Y-96772065D01*
X148191511Y-96744575D01*
X148196340Y-96719941D01*
X148211387Y-96698364D01*
X148234274Y-96681991D01*
X148269474Y-96668517D01*
X148354318Y-96648050D01*
X148398173Y-96637019D01*
X148438264Y-96623674D01*
X148496081Y-96596783D01*
X148538130Y-96566457D01*
X148567603Y-96533158D01*
X148589138Y-96492942D01*
X148602404Y-96446174D01*
X148607054Y-96391204D01*
X148603491Y-96347376D01*
X148593071Y-96307631D01*
X148575784Y-96271095D01*
X148551076Y-96237150D01*
X148517893Y-96205482D01*
X148472228Y-96175134D01*
X148419617Y-96152685D01*
X148358873Y-96138522D01*
X148288580Y-96133528D01*
X148218687Y-96137404D01*
X148149709Y-96149013D01*
X148083669Y-96167122D01*
X148030842Y-96187847D01*
X148030842Y-96374254D01*
X148050461Y-96374254D01*
X148097114Y-96338339D01*
X148155907Y-96307380D01*
X148198022Y-96292364D01*
X148240398Y-96283437D01*
X148283322Y-96280464D01*
X148329014Y-96284177D01*
X148351302Y-96289479D01*
X148372740Y-96298050D01*
X148390053Y-96308745D01*
X148404796Y-96323891D01*
X148414866Y-96342498D01*
X148418175Y-96363311D01*
X148415681Y-96383562D01*
X148408579Y-96399739D01*
X148396675Y-96412844D01*
X148369915Y-96427566D01*
X148315379Y-96444254D01*
X148240067Y-96462327D01*
X148162361Y-96486410D01*
X148109731Y-96510932D01*
X148070305Y-96538874D01*
X148041613Y-96569843D01*
X148020471Y-96607278D01*
X148007305Y-96652292D01*
X148002632Y-96706863D01*
G37*
G36*
X147876414Y-96962000D02*
G01*
X147565590Y-96962000D01*
X147491568Y-96957780D01*
X147437705Y-96946759D01*
X147389364Y-96926358D01*
X147345167Y-96895565D01*
X147312724Y-96861180D01*
X147288020Y-96818824D01*
X147276623Y-96787170D01*
X147269621Y-96752346D01*
X147267205Y-96713751D01*
X147267410Y-96711553D01*
X147457537Y-96711553D01*
X147460320Y-96739840D01*
X147468308Y-96763870D01*
X147482719Y-96783561D01*
X147507760Y-96800262D01*
X147536953Y-96810614D01*
X147569437Y-96814526D01*
X147680397Y-96815063D01*
X147693775Y-96815063D01*
X147693775Y-96611853D01*
X147653597Y-96611853D01*
X147574694Y-96612390D01*
X147538967Y-96614847D01*
X147515411Y-96620060D01*
X147487358Y-96633916D01*
X147470702Y-96651567D01*
X147461189Y-96675526D01*
X147457537Y-96711553D01*
X147267410Y-96711553D01*
X147272078Y-96661505D01*
X147285837Y-96618627D01*
X147308109Y-96583081D01*
X147337683Y-96554460D01*
X147374127Y-96532606D01*
X147418813Y-96517722D01*
X147418813Y-96513325D01*
X147387480Y-96493801D01*
X147362067Y-96470392D01*
X147341833Y-96442983D01*
X147326794Y-96411611D01*
X147318021Y-96378357D01*
X147502502Y-96378357D01*
X147504506Y-96403992D01*
X147510153Y-96425349D01*
X147521381Y-96442988D01*
X147542680Y-96458371D01*
X147562174Y-96465554D01*
X147590979Y-96469508D01*
X147665095Y-96471169D01*
X147693775Y-96471169D01*
X147693775Y-96296096D01*
X147676550Y-96296096D01*
X147592646Y-96296926D01*
X147564147Y-96299984D01*
X147542680Y-96306647D01*
X147523234Y-96319666D01*
X147511350Y-96337226D01*
X147504656Y-96358066D01*
X147502502Y-96378357D01*
X147318021Y-96378357D01*
X147317690Y-96377101D01*
X147314564Y-96338643D01*
X147319667Y-96289905D01*
X147334439Y-96248029D01*
X147349640Y-96223772D01*
X147369561Y-96202741D01*
X147394877Y-96184770D01*
X147434693Y-96166132D01*
X147474036Y-96155754D01*
X147519763Y-96151127D01*
X147600041Y-96149159D01*
X147876414Y-96149159D01*
X147876414Y-96962000D01*
G37*
G36*
X171616617Y-113406863D02*
G01*
X171620236Y-113453520D01*
X171630784Y-113495630D01*
X171648187Y-113534099D01*
X171672890Y-113569587D01*
X171705820Y-113602453D01*
X171751459Y-113633749D01*
X171805891Y-113657226D01*
X171870753Y-113672259D01*
X171947999Y-113677631D01*
X172033527Y-113672838D01*
X172102214Y-113659752D01*
X172166499Y-113639248D01*
X172225355Y-113614421D01*
X172225355Y-113418147D01*
X172205266Y-113418147D01*
X172165859Y-113451512D01*
X172123485Y-113479274D01*
X172077851Y-113501581D01*
X172030285Y-113518075D01*
X171985223Y-113527604D01*
X171942272Y-113530695D01*
X171898290Y-113527275D01*
X171872391Y-113522410D01*
X171853795Y-113515845D01*
X171834231Y-113504019D01*
X171819131Y-113490199D01*
X171809202Y-113472065D01*
X171805496Y-113444575D01*
X171810325Y-113419941D01*
X171825371Y-113398364D01*
X171848259Y-113381991D01*
X171883458Y-113368517D01*
X171968302Y-113348050D01*
X172012157Y-113337019D01*
X172052248Y-113323674D01*
X172110065Y-113296783D01*
X172152114Y-113266457D01*
X172181587Y-113233158D01*
X172203122Y-113192942D01*
X172216388Y-113146174D01*
X172221038Y-113091204D01*
X172217476Y-113047376D01*
X172207056Y-113007631D01*
X172189768Y-112971095D01*
X172165061Y-112937150D01*
X172131878Y-112905482D01*
X172086213Y-112875134D01*
X172033601Y-112852685D01*
X171972857Y-112838522D01*
X171902564Y-112833528D01*
X171832672Y-112837404D01*
X171763694Y-112849013D01*
X171697654Y-112867122D01*
X171644827Y-112887847D01*
X171644827Y-113074254D01*
X171664446Y-113074254D01*
X171711098Y-113038339D01*
X171769891Y-113007380D01*
X171812007Y-112992364D01*
X171854382Y-112983437D01*
X171897307Y-112980464D01*
X171942998Y-112984177D01*
X171965286Y-112989479D01*
X171986724Y-112998050D01*
X172004037Y-113008745D01*
X172018781Y-113023891D01*
X172028851Y-113042498D01*
X172032159Y-113063311D01*
X172029665Y-113083562D01*
X172022564Y-113099739D01*
X172010660Y-113112844D01*
X171983899Y-113127566D01*
X171929364Y-113144254D01*
X171854051Y-113162327D01*
X171776345Y-113186410D01*
X171723716Y-113210932D01*
X171684289Y-113238874D01*
X171655598Y-113269843D01*
X171634455Y-113307278D01*
X171621290Y-113352292D01*
X171616617Y-113406863D01*
G37*
G36*
X170852039Y-113662000D02*
G01*
X171035661Y-113662000D01*
X171035661Y-113302474D01*
X171306776Y-113302474D01*
X171306776Y-113662000D01*
X171490398Y-113662000D01*
X171490398Y-112849159D01*
X171306776Y-112849159D01*
X171306776Y-113146159D01*
X171035661Y-113146159D01*
X171035661Y-112849159D01*
X170852039Y-112849159D01*
X170852039Y-113662000D01*
G37*
G36*
X170669742Y-113662000D02*
G01*
X170486120Y-113662000D01*
X170486120Y-113396263D01*
X170371827Y-113396263D01*
X170320085Y-113393218D01*
X170277108Y-113384767D01*
X170241548Y-113371741D01*
X170207976Y-113352951D01*
X170176399Y-113328899D01*
X170146617Y-113299250D01*
X170119427Y-113260219D01*
X170098831Y-113211811D01*
X170086247Y-113159057D01*
X170082508Y-113110841D01*
X170271895Y-113110841D01*
X170274027Y-113143878D01*
X170279802Y-113169411D01*
X170290065Y-113191625D01*
X170305362Y-113210688D01*
X170327912Y-113226654D01*
X170356311Y-113236626D01*
X170388705Y-113241283D01*
X170433504Y-113243074D01*
X170486120Y-113243074D01*
X170486120Y-113002348D01*
X170454576Y-113002348D01*
X170381871Y-113003716D01*
X170354670Y-113007835D01*
X170325922Y-113017980D01*
X170306099Y-113031086D01*
X170288180Y-113052272D01*
X170276068Y-113078838D01*
X170271895Y-113110841D01*
X170082508Y-113110841D01*
X170082076Y-113105272D01*
X170084804Y-113058995D01*
X170092536Y-113019199D01*
X170104815Y-112984861D01*
X170122125Y-112953539D01*
X170143904Y-112926208D01*
X170170553Y-112902551D01*
X170208515Y-112879501D01*
X170253046Y-112862544D01*
X170302351Y-112852820D01*
X170367553Y-112849159D01*
X170669742Y-112849159D01*
X170669742Y-113662000D01*
G37*
G36*
X151556834Y-113662000D02*
G01*
X151371801Y-113662000D01*
X151322562Y-113496305D01*
X151058584Y-113496305D01*
X151009345Y-113662000D01*
X150819483Y-113662000D01*
X150920635Y-113349369D01*
X151103079Y-113349369D01*
X151278067Y-113349369D01*
X151190573Y-113057450D01*
X151103079Y-113349369D01*
X150920635Y-113349369D01*
X151082478Y-112849159D01*
X151293839Y-112849159D01*
X151556834Y-113662000D01*
G37*
G36*
X150230192Y-113279613D02*
G01*
X150209111Y-113304515D01*
X150192921Y-113333102D01*
X150182865Y-113366676D01*
X150179029Y-113414484D01*
X150184056Y-113470190D01*
X150198905Y-113521462D01*
X150214308Y-113552702D01*
X150234476Y-113581011D01*
X150259855Y-113606654D01*
X150302861Y-113636635D01*
X150354316Y-113659362D01*
X150411641Y-113672676D01*
X150486049Y-113677631D01*
X150571354Y-113673316D01*
X150637870Y-113661706D01*
X150698006Y-113643873D01*
X150740922Y-113625998D01*
X150740922Y-113446284D01*
X150722286Y-113446284D01*
X150678544Y-113472815D01*
X150624021Y-113496842D01*
X150567714Y-113513176D01*
X150519516Y-113518189D01*
X150459292Y-113512963D01*
X150428640Y-113504305D01*
X150404282Y-113489955D01*
X150388275Y-113474551D01*
X150376072Y-113456494D01*
X150368528Y-113434229D01*
X150365558Y-113399732D01*
X150369476Y-113366586D01*
X150379919Y-113344093D01*
X150396301Y-113327411D01*
X150417661Y-113316103D01*
X150442402Y-113309452D01*
X150474081Y-113306431D01*
X150535288Y-113305600D01*
X150574483Y-113305600D01*
X150574483Y-113164916D01*
X150533835Y-113164916D01*
X150467883Y-113162230D01*
X150440437Y-113157507D01*
X150419071Y-113149725D01*
X150400219Y-113137338D01*
X150387527Y-113122369D01*
X150379972Y-113102784D01*
X150377013Y-113072153D01*
X150379930Y-113049585D01*
X150388040Y-113032879D01*
X150400334Y-113019599D01*
X150415737Y-113009236D01*
X150435474Y-113001284D01*
X150459762Y-112996242D01*
X150503274Y-112992969D01*
X150548873Y-112997179D01*
X150600812Y-113010702D01*
X150652326Y-113032200D01*
X150702668Y-113061748D01*
X150720363Y-113061748D01*
X150720363Y-112884965D01*
X150677414Y-112868330D01*
X150613763Y-112850234D01*
X150545883Y-112837709D01*
X150476987Y-112833528D01*
X150411707Y-112837081D01*
X150358847Y-112846815D01*
X150310906Y-112863065D01*
X150275157Y-112882376D01*
X150240356Y-112912508D01*
X150216856Y-112946954D01*
X150202679Y-112987327D01*
X150197708Y-113035907D01*
X150201828Y-113079291D01*
X150214001Y-113119018D01*
X150234552Y-113156075D01*
X150261616Y-113187029D01*
X150293640Y-113209408D01*
X150331577Y-113223632D01*
X150331577Y-113231009D01*
X150307009Y-113236576D01*
X150279944Y-113246298D01*
X150253917Y-113260336D01*
X150230192Y-113279613D01*
G37*
G36*
X138590804Y-112849159D02*
G01*
X138850465Y-113662000D01*
X139056056Y-113662000D01*
X139315717Y-112849159D01*
X139123034Y-112849159D01*
X138950867Y-113420150D01*
X138778743Y-112849159D01*
X138590804Y-112849159D01*
G37*
G36*
X138488179Y-113662000D02*
G01*
X138237153Y-113662000D01*
X138154926Y-113658176D01*
X138089905Y-113647833D01*
X138029957Y-113628037D01*
X137975611Y-113597568D01*
X137932716Y-113561588D01*
X137894539Y-113516038D01*
X137860848Y-113459766D01*
X137835855Y-113398048D01*
X137820637Y-113330680D01*
X137815412Y-113256410D01*
X137815500Y-113255042D01*
X138005232Y-113255042D01*
X138008100Y-113308159D01*
X138016124Y-113352708D01*
X138028655Y-113390060D01*
X138047024Y-113423698D01*
X138071331Y-113452655D01*
X138102300Y-113477303D01*
X138132031Y-113492536D01*
X138162054Y-113502020D01*
X138197030Y-113506785D01*
X138258182Y-113508810D01*
X138304557Y-113508810D01*
X138304557Y-113002348D01*
X138258182Y-113002348D01*
X138202648Y-113004031D01*
X138169491Y-113008064D01*
X138140561Y-113016217D01*
X138111874Y-113029508D01*
X138077563Y-113054229D01*
X138050863Y-113083746D01*
X138030835Y-113118413D01*
X138017019Y-113157295D01*
X138008308Y-113202447D01*
X138005232Y-113255042D01*
X137815500Y-113255042D01*
X137820406Y-113179033D01*
X137834708Y-113111231D01*
X137857727Y-113051441D01*
X137889563Y-112997144D01*
X137928043Y-112951233D01*
X137973688Y-112913004D01*
X138020070Y-112886695D01*
X138079860Y-112865817D01*
X138146003Y-112853656D01*
X138229972Y-112849159D01*
X138488179Y-112849159D01*
X138488179Y-113662000D01*
G37*
G36*
X137675046Y-113662000D02*
G01*
X137424019Y-113662000D01*
X137341792Y-113658176D01*
X137276771Y-113647833D01*
X137216823Y-113628037D01*
X137162478Y-113597568D01*
X137119582Y-113561588D01*
X137081406Y-113516038D01*
X137047714Y-113459766D01*
X137022722Y-113398048D01*
X137007504Y-113330680D01*
X137002279Y-113256410D01*
X137002367Y-113255042D01*
X137192098Y-113255042D01*
X137194967Y-113308159D01*
X137202991Y-113352708D01*
X137215521Y-113390060D01*
X137233891Y-113423698D01*
X137258198Y-113452655D01*
X137289167Y-113477303D01*
X137318897Y-113492536D01*
X137348921Y-113502020D01*
X137383897Y-113506785D01*
X137445049Y-113508810D01*
X137491424Y-113508810D01*
X137491424Y-113002348D01*
X137445049Y-113002348D01*
X137389514Y-113004031D01*
X137356358Y-113008064D01*
X137327427Y-113016217D01*
X137298741Y-113029508D01*
X137264429Y-113054229D01*
X137237729Y-113083746D01*
X137217701Y-113118413D01*
X137203886Y-113157295D01*
X137195175Y-113202447D01*
X137192098Y-113255042D01*
X137002367Y-113255042D01*
X137007273Y-113179033D01*
X137021574Y-113111231D01*
X137044594Y-113051441D01*
X137076430Y-112997144D01*
X137114910Y-112951233D01*
X137160555Y-112913004D01*
X137206937Y-112886695D01*
X137266727Y-112865817D01*
X137332870Y-112853656D01*
X137416839Y-112849159D01*
X137675046Y-112849159D01*
X137675046Y-113662000D01*
G37*
G36*
X168679881Y-113005475D02*
G01*
X168902227Y-113005475D01*
X168902227Y-113662000D01*
X169085849Y-113662000D01*
X169085849Y-113005475D01*
X169308196Y-113005475D01*
X169308196Y-112849159D01*
X168679881Y-112849159D01*
X168679881Y-113005475D01*
G37*
G36*
X167923937Y-113662000D02*
G01*
X168136239Y-113662000D01*
X168289727Y-113394505D01*
X168446122Y-113662000D01*
X168648850Y-113662000D01*
X168396370Y-113252600D01*
X168643593Y-112849159D01*
X168431761Y-112849159D01*
X168283530Y-113102439D01*
X168130982Y-112849159D01*
X167927784Y-112849159D01*
X168176417Y-113244393D01*
X167923937Y-113662000D01*
G37*
G36*
X156636834Y-113662000D02*
G01*
X156451801Y-113662000D01*
X156402562Y-113496305D01*
X156138584Y-113496305D01*
X156089345Y-113662000D01*
X155899483Y-113662000D01*
X156000635Y-113349369D01*
X156183079Y-113349369D01*
X156358067Y-113349369D01*
X156270573Y-113057450D01*
X156183079Y-113349369D01*
X156000635Y-113349369D01*
X156162478Y-112849159D01*
X156373839Y-112849159D01*
X156636834Y-113662000D01*
G37*
G36*
X155255695Y-113385712D02*
G01*
X155258065Y-113427407D01*
X155265031Y-113466475D01*
X155276511Y-113503339D01*
X155292475Y-113537815D01*
X155312557Y-113568709D01*
X155336992Y-113596347D01*
X155367577Y-113621460D01*
X155401171Y-113641907D01*
X155438120Y-113657750D01*
X155497584Y-113672399D01*
X155568442Y-113677631D01*
X155650686Y-113673116D01*
X155713083Y-113662097D01*
X155769160Y-113645376D01*
X155809424Y-113628587D01*
X155809424Y-113449411D01*
X155789336Y-113449411D01*
X155744427Y-113476282D01*
X155695644Y-113498552D01*
X155645146Y-113513357D01*
X155595669Y-113518189D01*
X155565015Y-113516322D01*
X155530401Y-113510374D01*
X155497954Y-113498826D01*
X155474708Y-113481895D01*
X155460065Y-113464483D01*
X155450088Y-113447799D01*
X155444157Y-113427854D01*
X155441711Y-113394163D01*
X155444635Y-113367509D01*
X155452952Y-113345754D01*
X155465828Y-113327375D01*
X155481889Y-113312976D01*
X155509579Y-113298443D01*
X155544079Y-113289431D01*
X155610031Y-113283716D01*
X155652527Y-113285865D01*
X155692524Y-113292167D01*
X155761638Y-113308727D01*
X155782668Y-113308727D01*
X155782668Y-112849159D01*
X155276255Y-112849159D01*
X155276255Y-113005475D01*
X155610031Y-113005475D01*
X155610031Y-113136389D01*
X155572503Y-113134484D01*
X155532581Y-113133653D01*
X155475475Y-113137046D01*
X155427606Y-113146501D01*
X155383619Y-113162277D01*
X155347976Y-113182209D01*
X155320940Y-113204513D01*
X155298439Y-113230863D01*
X155280101Y-113261588D01*
X155267031Y-113295616D01*
X155258684Y-113336513D01*
X155255695Y-113385712D01*
G37*
G36*
X153513690Y-96962000D02*
G01*
X153988987Y-96962000D01*
X153988987Y-96821316D01*
X153838832Y-96821316D01*
X153838832Y-96389885D01*
X153988987Y-96389885D01*
X153988987Y-96258580D01*
X153922992Y-96253988D01*
X153892991Y-96247395D01*
X153870376Y-96238113D01*
X153848181Y-96222179D01*
X153833105Y-96203088D01*
X153823504Y-96179582D01*
X153818743Y-96149159D01*
X153660468Y-96149159D01*
X153660468Y-96821316D01*
X153513690Y-96821316D01*
X153513690Y-96962000D01*
G37*
G36*
X152772535Y-96962000D02*
G01*
X153331522Y-96962000D01*
X153331522Y-96826982D01*
X153203166Y-96715070D01*
X153142545Y-96657256D01*
X153100114Y-96612928D01*
X153047879Y-96549732D01*
X153017877Y-96502139D01*
X153003978Y-96469750D01*
X152996042Y-96438774D01*
X152993471Y-96408692D01*
X152997215Y-96373386D01*
X153007711Y-96345436D01*
X153024802Y-96323109D01*
X153047174Y-96307160D01*
X153076552Y-96296790D01*
X153114945Y-96292969D01*
X153159136Y-96297835D01*
X153207483Y-96313242D01*
X153254455Y-96336371D01*
X153297584Y-96364875D01*
X153312886Y-96364875D01*
X153312886Y-96184281D01*
X153274662Y-96168672D01*
X153212740Y-96150478D01*
X153146268Y-96137744D01*
X153080025Y-96133528D01*
X153012009Y-96138251D01*
X152956706Y-96151277D01*
X152911925Y-96171300D01*
X152875844Y-96197617D01*
X152845426Y-96232457D01*
X152823729Y-96273367D01*
X152810275Y-96321559D01*
X152805533Y-96378845D01*
X152809259Y-96429093D01*
X152820410Y-96477577D01*
X152839256Y-96524951D01*
X152864080Y-96569066D01*
X152897931Y-96616527D01*
X152942309Y-96667785D01*
X152986312Y-96712073D01*
X153029845Y-96752000D01*
X153092463Y-96805684D01*
X152772535Y-96805684D01*
X152772535Y-96962000D01*
G37*
D11*
%TO.C,JP1*%
X151860000Y-105630000D02*
X151860000Y-107030000D01*
X152560000Y-107730000D02*
X153160000Y-107730000D01*
X153160000Y-104930000D02*
X152560000Y-104930000D01*
X153860000Y-107030000D02*
X153860000Y-105630000D01*
X151860000Y-105630000D02*
G75*
G02*
X152560000Y-104930000I700000J0D01*
G01*
X152560000Y-107730000D02*
G75*
G02*
X151860000Y-107030000I-1J699999D01*
G01*
X153160000Y-104930000D02*
G75*
G02*
X153860000Y-105630000I0J-700000D01*
G01*
X153860000Y-107030000D02*
G75*
G02*
X153160000Y-107730000I-699999J-1D01*
G01*
%TO.C,TP12*%
X137650000Y-102380000D02*
G75*
G02*
X135750000Y-102380000I-950000J0D01*
G01*
X135750000Y-102380000D02*
G75*
G02*
X137650000Y-102380000I950000J0D01*
G01*
%TO.C,TP9*%
X140050000Y-99980000D02*
G75*
G02*
X138150000Y-99980000I-950000J0D01*
G01*
X138150000Y-99980000D02*
G75*
G02*
X140050000Y-99980000I950000J0D01*
G01*
%TO.C,TP6*%
X123250000Y-108580000D02*
G75*
G02*
X121350000Y-108580000I-950000J0D01*
G01*
X121350000Y-108580000D02*
G75*
G02*
X123250000Y-108580000I950000J0D01*
G01*
%TO.C,TP8*%
X123350000Y-103780000D02*
G75*
G02*
X121450000Y-103780000I-950000J0D01*
G01*
X121450000Y-103780000D02*
G75*
G02*
X123350000Y-103780000I950000J0D01*
G01*
%TO.C,TP1*%
X171560000Y-102480000D02*
G75*
G02*
X169160000Y-102480000I-1200000J0D01*
G01*
X169160000Y-102480000D02*
G75*
G02*
X171560000Y-102480000I1200000J0D01*
G01*
%TO.C,TP4*%
X166710000Y-107480000D02*
G75*
G02*
X164310000Y-107480000I-1200000J0D01*
G01*
X164310000Y-107480000D02*
G75*
G02*
X166710000Y-107480000I1200000J0D01*
G01*
%TO.C,TP11*%
X140050000Y-102380000D02*
G75*
G02*
X138150000Y-102380000I-950000J0D01*
G01*
X138150000Y-102380000D02*
G75*
G02*
X140050000Y-102380000I950000J0D01*
G01*
%TO.C,TP5*%
X123250000Y-101380000D02*
G75*
G02*
X121350000Y-101380000I-950000J0D01*
G01*
X121350000Y-101380000D02*
G75*
G02*
X123250000Y-101380000I950000J0D01*
G01*
%TO.C,TP10*%
X137650000Y-99980000D02*
G75*
G02*
X135750000Y-99980000I-950000J0D01*
G01*
X135750000Y-99980000D02*
G75*
G02*
X137650000Y-99980000I950000J0D01*
G01*
%TO.C,TP7*%
X123350000Y-106180000D02*
G75*
G02*
X121450000Y-106180000I-950000J0D01*
G01*
X121450000Y-106180000D02*
G75*
G02*
X123350000Y-106180000I950000J0D01*
G01*
%TO.C,TP3*%
X171560000Y-107480000D02*
G75*
G02*
X169160000Y-107480000I-1200000J0D01*
G01*
X169160000Y-107480000D02*
G75*
G02*
X171560000Y-107480000I1200000J0D01*
G01*
%TO.C,J8*%
X127340000Y-106242500D02*
X127340000Y-106877500D01*
X127340000Y-106877500D02*
X127975000Y-106877500D01*
%TO.C,TP2*%
X166560000Y-102480000D02*
G75*
G02*
X164160000Y-102480000I-1200000J0D01*
G01*
X164160000Y-102480000D02*
G75*
G02*
X166560000Y-102480000I1200000J0D01*
G01*
%TD*%
M02*
