%TF.GenerationSoftware,KiCad,Pcbnew,9.0.7*%
%TF.CreationDate,2026-01-28T15:54:31+01:00*%
%TF.ProjectId,RoyalBlue54L-Feather,526f7961-6c42-46c7-9565-35344c2d4665,rev?*%
%TF.SameCoordinates,Original*%
%TF.FileFunction,Other,User*%
%FSLAX46Y46*%
G04 Gerber Fmt 4.6, Leading zero omitted, Abs format (unit mm)*
G04 Created by KiCad (PCBNEW 9.0.7) date 2026-01-28 15:54:31*
%MOMM*%
%LPD*%
G01*
G04 APERTURE LIST*
%ADD10C,0.050000*%
G04 APERTURE END LIST*
D10*
%TO.C,H4*%
X177730000Y-113870000D02*
G75*
G02*
X172230000Y-113870000I-2750000J0D01*
G01*
X172230000Y-113870000D02*
G75*
G02*
X177730000Y-113870000I2750000J0D01*
G01*
%TO.C,C25*%
X152800000Y-101350000D02*
X154620000Y-101350000D01*
X152800000Y-102270000D02*
X152800000Y-101350000D01*
X154620000Y-101350000D02*
X154620000Y-102270000D01*
X154620000Y-102270000D02*
X152800000Y-102270000D01*
%TO.C,R5*%
X168770000Y-111600000D02*
X170630000Y-111600000D01*
X168770000Y-112540000D02*
X168770000Y-111600000D01*
X170630000Y-111600000D02*
X170630000Y-112540000D01*
X170630000Y-112540000D02*
X168770000Y-112540000D01*
%TO.C,J4*%
X132280000Y-93358000D02*
X132280000Y-103558000D01*
X132280000Y-103558000D02*
X141480000Y-103558000D01*
X141480000Y-93358000D02*
X132280000Y-93358000D01*
X141480000Y-103558000D02*
X141480000Y-93358000D01*
%TO.C,U1*%
X177520000Y-99480000D02*
X160720000Y-99480000D01*
X160720000Y-110480000D01*
X177520000Y-110480000D01*
X177520000Y-99480000D01*
%TO.C,R6*%
X166520000Y-111180000D02*
X168380000Y-111180000D01*
X166520000Y-112120000D02*
X166520000Y-111180000D01*
X168380000Y-111180000D02*
X168380000Y-112120000D01*
X168380000Y-112120000D02*
X166520000Y-112120000D01*
%TO.C,C10*%
X139980000Y-106850000D02*
X140900000Y-106850000D01*
X139980000Y-108670000D02*
X139980000Y-106850000D01*
X140900000Y-106850000D02*
X140900000Y-108670000D01*
X140900000Y-108670000D02*
X139980000Y-108670000D01*
%TO.C,R7*%
X168770000Y-110660000D02*
X170630000Y-110660000D01*
X168770000Y-111600000D02*
X168770000Y-110660000D01*
X170630000Y-110660000D02*
X170630000Y-111600000D01*
X170630000Y-111600000D02*
X168770000Y-111600000D01*
%TO.C,D3*%
X142030000Y-104130000D02*
X142030000Y-105830000D01*
X142030000Y-105830000D02*
X143730000Y-105830000D01*
X143730000Y-104130000D02*
X142030000Y-104130000D01*
X143730000Y-105830000D02*
X143730000Y-104130000D01*
%TO.C,U2*%
X144480000Y-101360000D02*
X144480000Y-107560000D01*
X144480000Y-107560000D02*
X150680000Y-107560000D01*
X150680000Y-101360000D02*
X144480000Y-101360000D01*
X150680000Y-107560000D02*
X150680000Y-101360000D01*
%TO.C,C23*%
X138490000Y-104110000D02*
X140310000Y-104110000D01*
X138490000Y-105030000D02*
X138490000Y-104110000D01*
X140310000Y-104110000D02*
X140310000Y-105030000D01*
X140310000Y-105030000D02*
X138490000Y-105030000D01*
%TO.C,R2*%
X126633416Y-99915058D02*
X127573416Y-99915058D01*
X126633416Y-101775058D02*
X126633416Y-99915058D01*
X127573416Y-99915058D02*
X127573416Y-101775058D01*
X127573416Y-101775058D02*
X126633416Y-101775058D01*
%TO.C,C24*%
X157600000Y-102030000D02*
X158520000Y-102030000D01*
X157600000Y-103850000D02*
X157600000Y-102030000D01*
X158520000Y-102030000D02*
X158520000Y-103850000D01*
X158520000Y-103850000D02*
X157600000Y-103850000D01*
%TO.C,H2*%
X177730000Y-96090000D02*
G75*
G02*
X172230000Y-96090000I-2750000J0D01*
G01*
X172230000Y-96090000D02*
G75*
G02*
X177730000Y-96090000I2750000J0D01*
G01*
%TO.C,C19*%
X139980000Y-109620000D02*
X140900000Y-109620000D01*
X139980000Y-111440000D02*
X139980000Y-109620000D01*
X140900000Y-109620000D02*
X140900000Y-111440000D01*
X140900000Y-111440000D02*
X139980000Y-111440000D01*
%TO.C,C1*%
X150680000Y-104780000D02*
X151600000Y-104780000D01*
X150680000Y-106600000D02*
X150680000Y-104780000D01*
X151600000Y-104780000D02*
X151600000Y-106600000D01*
X151600000Y-106600000D02*
X150680000Y-106600000D01*
%TO.C,J3*%
X117210000Y-99660000D02*
X117210000Y-110300000D01*
X126630000Y-99660000D02*
X117210000Y-99660000D01*
X126630000Y-99660000D02*
X126630000Y-110300000D01*
X126630000Y-110300000D02*
X117210000Y-110300000D01*
%TO.C,C18*%
X129470000Y-108390000D02*
X130390000Y-108390000D01*
X129470000Y-110210000D02*
X129470000Y-108390000D01*
X130390000Y-108390000D02*
X130390000Y-110210000D01*
X130390000Y-110210000D02*
X129470000Y-110210000D01*
%TO.C,U4*%
X158210000Y-104400000D02*
X158210000Y-108660000D01*
X158210000Y-108660000D02*
X160710000Y-108660000D01*
X160710000Y-104400000D02*
X158210000Y-104400000D01*
X160710000Y-108660000D02*
X160710000Y-104400000D01*
%TO.C,C4*%
X147850000Y-97340000D02*
X149310000Y-97340000D01*
X147850000Y-100300000D02*
X147850000Y-97340000D01*
X149310000Y-97340000D02*
X149310000Y-100300000D01*
X149310000Y-100300000D02*
X147850000Y-100300000D01*
%TO.C,Y2*%
X130390000Y-108800000D02*
X130390000Y-111600000D01*
X130390000Y-111600000D02*
X132990000Y-111600000D01*
X132990000Y-108800000D02*
X130390000Y-108800000D01*
X132990000Y-111600000D02*
X132990000Y-108800000D01*
%TO.C,C16*%
X133050000Y-111250000D02*
X134870000Y-111250000D01*
X133050000Y-112170000D02*
X133050000Y-111250000D01*
X134870000Y-111250000D02*
X134870000Y-112170000D01*
X134870000Y-112170000D02*
X133050000Y-112170000D01*
%TO.C,C22*%
X131870000Y-106320000D02*
X133690000Y-106320000D01*
X131870000Y-107240000D02*
X131870000Y-106320000D01*
X133690000Y-106320000D02*
X133690000Y-107240000D01*
X133690000Y-107240000D02*
X131870000Y-107240000D01*
%TO.C,C9*%
X159800000Y-99480000D02*
X160720000Y-99480000D01*
X159800000Y-101300000D02*
X159800000Y-99480000D01*
X160720000Y-99480000D02*
X160720000Y-101300000D01*
X160720000Y-101300000D02*
X159800000Y-101300000D01*
%TO.C,C6*%
X144150000Y-97340000D02*
X145610000Y-97340000D01*
X144150000Y-100300000D02*
X144150000Y-97340000D01*
X145610000Y-97340000D02*
X145610000Y-100300000D01*
X145610000Y-100300000D02*
X144150000Y-100300000D01*
%TO.C,H3*%
X124390000Y-113870000D02*
G75*
G02*
X118890000Y-113870000I-2750000J0D01*
G01*
X118890000Y-113870000D02*
G75*
G02*
X124390000Y-113870000I2750000J0D01*
G01*
%TO.C,R8*%
X142640000Y-106590000D02*
X143580000Y-106590000D01*
X142640000Y-108450000D02*
X142640000Y-106590000D01*
X143580000Y-106590000D02*
X143580000Y-108450000D01*
X143580000Y-108450000D02*
X142640000Y-108450000D01*
%TO.C,D1*%
X163370000Y-110920000D02*
X166330000Y-110920000D01*
X163370000Y-112380000D02*
X163370000Y-110920000D01*
X166330000Y-110920000D02*
X166330000Y-112380000D01*
X166330000Y-112380000D02*
X163370000Y-112380000D01*
%TO.C,C13*%
X127880000Y-111395000D02*
X129700000Y-111395000D01*
X127880000Y-112315000D02*
X127880000Y-111395000D01*
X129700000Y-111395000D02*
X129700000Y-112315000D01*
X129700000Y-112315000D02*
X127880000Y-112315000D01*
%TO.C,SW1*%
X152910000Y-108680000D02*
X158610000Y-108680000D01*
X152910000Y-112380000D02*
X152910000Y-108680000D01*
X158610000Y-108680000D02*
X158610000Y-112380000D01*
X158610000Y-112380000D02*
X152910000Y-112380000D01*
%TO.C,U6*%
X152800000Y-102270000D02*
X152800000Y-107570000D01*
X152800000Y-107570000D02*
X157600000Y-107570000D01*
X157600000Y-102270000D02*
X152800000Y-102270000D01*
X157600000Y-107570000D02*
X157600000Y-102270000D01*
%TO.C,R4*%
X150730000Y-101360000D02*
X151670000Y-101360000D01*
X150730000Y-103220000D02*
X150730000Y-101360000D01*
X151670000Y-101360000D02*
X151670000Y-103220000D01*
X151670000Y-103220000D02*
X150730000Y-103220000D01*
%TO.C,C11*%
X149340000Y-99860000D02*
X152300000Y-99860000D01*
X149340000Y-101320000D02*
X149340000Y-99860000D01*
X152300000Y-99860000D02*
X152300000Y-101320000D01*
X152300000Y-101320000D02*
X149340000Y-101320000D01*
%TO.C,Y1*%
X159090000Y-99380000D02*
X159090000Y-97080000D01*
X163090000Y-97080000D02*
X159090000Y-97080000D01*
X163090000Y-99380000D02*
X159090000Y-99380000D01*
X163090000Y-99380000D02*
X163090000Y-97080000D01*
%TO.C,H1*%
X124390000Y-96090000D02*
G75*
G02*
X118890000Y-96090000I-2750000J0D01*
G01*
X118890000Y-96090000D02*
G75*
G02*
X124390000Y-96090000I2750000J0D01*
G01*
%TO.C,SW2*%
X152910000Y-97580000D02*
X158610000Y-97580000D01*
X152910000Y-101280000D02*
X152910000Y-97580000D01*
X158610000Y-97580000D02*
X158610000Y-101280000D01*
X158610000Y-101280000D02*
X152910000Y-101280000D01*
%TO.C,J2*%
X141430000Y-93020000D02*
X141430000Y-96620000D01*
X141430000Y-96620000D02*
X172980000Y-96620000D01*
X172980000Y-93020000D02*
X141430000Y-93020000D01*
X172980000Y-96620000D02*
X172980000Y-93020000D01*
%TO.C,J6*%
X125410000Y-112430000D02*
X130210000Y-112430000D01*
X130210000Y-116330000D01*
X125410000Y-116330000D01*
X125410000Y-112430000D01*
%TO.C,C8*%
X149640000Y-109450000D02*
X151100000Y-109450000D01*
X149640000Y-112410000D02*
X149640000Y-109450000D01*
X151100000Y-109450000D02*
X151100000Y-112410000D01*
X151100000Y-112410000D02*
X149640000Y-112410000D01*
%TO.C,C2*%
X147380000Y-107940000D02*
X150340000Y-107940000D01*
X147380000Y-109400000D02*
X147380000Y-107940000D01*
X150340000Y-107940000D02*
X150340000Y-109400000D01*
X150340000Y-109400000D02*
X147380000Y-109400000D01*
%TO.C,R3*%
X127573416Y-99915058D02*
X128513416Y-99915058D01*
X127573416Y-101775058D02*
X127573416Y-99915058D01*
X128513416Y-99915058D02*
X128513416Y-101775058D01*
X128513416Y-101775058D02*
X127573416Y-101775058D01*
%TO.C,C15*%
X138160000Y-111230000D02*
X139980000Y-111230000D01*
X138160000Y-112150000D02*
X138160000Y-111230000D01*
X139980000Y-111230000D02*
X139980000Y-112150000D01*
X139980000Y-112150000D02*
X138160000Y-112150000D01*
%TO.C,U3*%
X127410000Y-104022500D02*
X127410000Y-105922500D01*
X127410000Y-105922500D02*
X129810000Y-105922500D01*
X129810000Y-104022500D02*
X127410000Y-104022500D01*
X129810000Y-105922500D02*
X129810000Y-104022500D01*
%TO.C,L1*%
X148130000Y-109450000D02*
X149590000Y-109450000D01*
X148130000Y-112410000D02*
X148130000Y-109450000D01*
X149590000Y-109450000D02*
X149590000Y-112410000D01*
X149590000Y-112410000D02*
X148130000Y-112410000D01*
%TO.C,C14*%
X125920000Y-111395000D02*
X127740000Y-111395000D01*
X125920000Y-112315000D02*
X125920000Y-111395000D01*
X127740000Y-111395000D02*
X127740000Y-112315000D01*
X127740000Y-112315000D02*
X125920000Y-112315000D01*
%TO.C,C5*%
X146280000Y-97340000D02*
X147740000Y-97340000D01*
X146280000Y-100300000D02*
X146280000Y-97340000D01*
X147740000Y-97340000D02*
X147740000Y-100300000D01*
X147740000Y-100300000D02*
X146280000Y-100300000D01*
%TO.C,C7*%
X139980000Y-105030000D02*
X140900000Y-105030000D01*
X139980000Y-106850000D02*
X139980000Y-105030000D01*
X140900000Y-105030000D02*
X140900000Y-106850000D01*
X140900000Y-106850000D02*
X139980000Y-106850000D01*
%TO.C,R1*%
X154830000Y-107570000D02*
X156690000Y-107570000D01*
X154830000Y-108510000D02*
X154830000Y-107570000D01*
X156690000Y-107570000D02*
X156690000Y-108510000D01*
X156690000Y-108510000D02*
X154830000Y-108510000D01*
%TO.C,C21*%
X131390000Y-107280000D02*
X133210000Y-107280000D01*
X131390000Y-108200000D02*
X131390000Y-107280000D01*
X133210000Y-107280000D02*
X133210000Y-108200000D01*
X133210000Y-108200000D02*
X131390000Y-108200000D01*
%TO.C,J5*%
X124090000Y-93353000D02*
X124090000Y-99913000D01*
X124090000Y-99913000D02*
X131890000Y-99913000D01*
X131890000Y-93353000D02*
X124090000Y-93353000D01*
X131890000Y-99913000D02*
X131890000Y-93353000D01*
%TO.C,C3*%
X144360000Y-107940000D02*
X147320000Y-107940000D01*
X144360000Y-109400000D02*
X144360000Y-107940000D01*
X147320000Y-107940000D02*
X147320000Y-109400000D01*
X147320000Y-109400000D02*
X144360000Y-109400000D01*
%TO.C,C17*%
X134480000Y-103940000D02*
X136300000Y-103940000D01*
X134480000Y-104860000D02*
X134480000Y-103940000D01*
X136300000Y-103940000D02*
X136300000Y-104860000D01*
X136300000Y-104860000D02*
X134480000Y-104860000D01*
%TO.C,U5*%
X133780000Y-105030000D02*
X133780000Y-111230000D01*
X133780000Y-111230000D02*
X139980000Y-111230000D01*
X139980000Y-105030000D02*
X133780000Y-105030000D01*
X139980000Y-111230000D02*
X139980000Y-105030000D01*
%TO.C,C12*%
X159750000Y-108710000D02*
X160670000Y-108710000D01*
X159750000Y-110530000D02*
X159750000Y-108710000D01*
X160670000Y-108710000D02*
X160670000Y-110530000D01*
X160670000Y-110530000D02*
X159750000Y-110530000D01*
%TO.C,C20*%
X130780000Y-111600000D02*
X132600000Y-111600000D01*
X130780000Y-112520000D02*
X130780000Y-111600000D01*
X132600000Y-111600000D02*
X132600000Y-112520000D01*
X132600000Y-112520000D02*
X130780000Y-112520000D01*
%TD*%
M02*
